# Created by Kenney (www.kenney.nl)

mtllib door-rotate.mtl

g door

v 0.05 0.8 1.443823E-15 1 1 1
v 0.05 0.8 0.6 1 1 1
v -0.05 0.8 1.443823E-15 1 1 1
v -0.05 0.8 0.6 1 1 1
v 0.05 -5.009267E-33 0.6 1 1 1
v -0.05 -5.009267E-33 0.6 1 1 1
v 0.05 -5.009267E-33 1.443823E-15 1 1 1
v -0.05 -5.009267E-33 1.443823E-15 1 1 1
v 0.075 0.275 0.55 1 1 1
v -0.075 0.275 0.55 1 1 1
v 0.075 0.425 0.55 1 1 1
v -0.075 0.425 0.55 1 1 1
v 0.075 0.425 0.45 1 1 1
v -0.075 0.425 0.45 1 1 1
v -0.075 0.275 0.45 1 1 1
v 0.075 0.275 0.45 1 1 1

vn 0 1 0
vn 0 0 1
vn 0 -1 0
vn 0 0 -1
vn 0 -0.7071068 0.7071068
vn 0 0.7071068 0.7071068
vn 0 0.7071068 -0.7071068
vn -1 0 0
vn 0 -0.7071068 -0.7071068
vn 1 0 0

vt 0.46875 0.225
vt 0.46875 0.025
vt 0.59375 0.275
vt 0.59375 0.475

usemtl colormap

f 3/1/1 2/1/1 1/1/1
f 2/1/1 3/1/1 4/1/1
f 2/1/2 6/2/2 5/2/2
f 6/2/2 2/1/2 4/1/2
f 6/2/3 7/2/3 5/2/3
f 7/2/3 6/2/3 8/2/3
f 3/1/4 7/2/4 8/2/4
f 7/2/4 3/1/4 1/1/4
f 11/1/6 10/2/5 9/2/5
f 10/2/5 11/1/6 12/1/6
f 14/1/7 11/1/6 13/1/7
f 11/1/6 14/1/7 12/1/6
f 10/2/8 14/1/8 15/2/8
f 14/1/8 10/2/8 12/1/8
f 14/1/7 16/2/9 15/2/9
f 16/2/9 14/1/7 13/1/7
f 10/2/5 16/2/9 9/2/5
f 16/2/9 10/2/5 15/2/9
f 11/1/10 16/2/10 13/1/10
f 16/2/10 11/1/10 9/2/10
f 6/3/8 3/4/8 8/3/8
f 3/4/8 6/3/8 4/4/8
f 2/4/10 7/3/10 1/4/10
f 7/3/10 2/4/10 5/3/10

g handle

v -0.1 0.375 0.375 1 1 1
v -0.1 0.325 0.375 1 1 1
v -0.1 0.375 0.475 1 1 1
v -0.1 0.325 0.475 1 1 1
v -0.15 0.325 0.375 1 1 1
v -0.15 0.375 0.375 1 1 1
v -0.15 0.325 0.475 1 1 1
v -0.15 0.375 0.475 1 1 1
v -0.1 0.325 0.525 1 1 1
v -0.1375 0.325 0.5125 1 1 1
v -0.1 0.375 0.525 1 1 1
v -0.1375 0.375 0.5125 1 1 1
v 0.15 0.375 0.475 1 1 1
v 0.15 0.325 0.475 1 1 1
v 0.1375 0.375 0.5125 1 1 1
v 0.1375 0.325 0.5125 1 1 1
v 0.1 0.325 0.475 1 1 1
v 0.1 0.325 0.525 1 1 1
v 0.1 0.325 0.375 1 1 1
v 0.15 0.325 0.375 1 1 1
v 0.1 0.375 0.375 1 1 1
v 0.15 0.375 0.375 1 1 1
v 0.1 0.375 0.525 1 1 1
v 0.1 0.375 0.475 1 1 1

vn -0.9870875 0 0.1601822
vn -0.1601822 0 0.9870875
vn -0.7071068 0 0.7071068
vn 0.9870875 0 0.1601822
vn 0.7071068 0 0.7071068
vn 0.1601822 0 0.9870875

vt 0.21875 0.225
vt 0.21875 0.025

usemtl colormap

f 19/5/10 18/6/10 17/5/10
f 18/6/10 19/5/10 20/6/10
f 23/6/11 22/5/8 21/6/8
f 22/5/8 23/6/11 24/5/11
f 22/5/4 18/6/4 21/6/4
f 18/6/4 22/5/4 17/5/4
f 27/5/12 26/6/13 25/6/12
f 26/6/13 27/5/12 28/5/13
f 26/6/13 24/5/11 23/6/11
f 24/5/11 26/6/13 28/5/13
f 31/5/15 30/6/14 29/5/14
f 30/6/14 31/5/15 32/6/15
f 21/6/3 26/6/3 23/6/3
f 18/6/3 26/6/3 21/6/3
f 20/6/3 26/6/3 18/6/3
f 20/6/3 25/6/3 26/6/3
f 33/6/3 25/6/3 20/6/3
f 25/6/3 33/6/3 34/6/3
f 35/6/3 34/6/3 33/6/3
f 35/6/3 32/6/3 34/6/3
f 36/6/3 32/6/3 35/6/3
f 32/6/3 36/6/3 30/6/3
f 37/5/4 36/6/4 35/6/4
f 36/6/4 37/5/4 38/5/4
f 29/5/14 36/6/10 38/5/10
f 36/6/10 29/5/14 30/6/14
f 39/5/16 25/6/12 34/6/16
f 25/6/12 39/5/16 27/5/12
f 31/5/15 34/6/16 32/6/15
f 34/6/16 31/5/15 39/5/16
f 19/5/4 33/6/4 20/6/4
f 33/6/4 19/5/4 40/5/4
f 33/6/8 37/5/8 35/6/8
f 37/5/8 33/6/8 40/5/8
f 22/5/1 19/5/1 17/5/1
f 19/5/1 22/5/1 27/5/1
f 27/5/1 22/5/1 28/5/1
f 28/5/1 22/5/1 24/5/1
f 39/5/1 19/5/1 27/5/1
f 39/5/1 40/5/1 19/5/1
f 39/5/1 37/5/1 40/5/1
f 31/5/1 37/5/1 39/5/1
f 29/5/1 37/5/1 31/5/1
f 37/5/1 29/5/1 38/5/1

