# Created by Kenney (www.kenney.nl)

mtllib figurine-large.mtl

g leg-left

v 0.15 0 0.05 1 1 1
v 0.05 0 0.05 1 1 1
v 0.15 0.25 0.05 1 1 1
v 0.05 0.25 0.05 1 1 1
v 0.05 0 -0.05 1 1 1
v 0.15 0 -0.05 1 1 1
v 0.05 0.25 -0.05 1 1 1
v 0.15 0.25 -0.05 1 1 1
v 0.05 0.2853553 -0.03535534 1 1 1
v 0.05 0.3 7.869094E-10 1 1 1
v 0.05 0.2853553 0.03535534 1 1 1
v 0.15 0.2853553 -0.03535534 1 1 1
v 0.15 0.3 1.862719E-09 1 1 1
v 0.15 0.2853553 0.03535534 1 1 1

vn 0 0 1
vn 0 0.1950903 0.9807853
vn 0 0 -1
vn 0 0.1950903 -0.9807853
vn 0 0.1950903 -0.9807853
vn 0 -1 0
vn -1 0 0
vn 1 0 0
vn 0 0.7071068 0.7071068
vn 0 1 0
vn 0 0.7071068 -0.7071068

vt 0.71875 0.325
vt 0.71875 0.3957107
vt 0.71875 0.425

usemtl colormap

f 3/1/2 2/1/1 1/1/1
f 2/1/1 3/1/2 4/1/2
f 7/1/4 6/1/3 5/1/3
f 6/1/3 7/1/4 8/1/5
f 1/1/6 5/1/6 6/1/6
f 5/1/6 1/1/6 2/1/6
f 5/1/7 9/2/7 7/1/7
f 9/2/7 5/1/7 2/1/7
f 9/2/7 2/1/7 10/3/7
f 10/3/7 2/1/7 11/2/7
f 11/2/7 2/1/7 4/1/7
f 12/2/8 6/1/8 8/1/8
f 6/1/8 12/2/8 1/1/8
f 1/1/8 12/2/8 13/3/8
f 1/1/8 13/3/8 14/2/8
f 1/1/8 14/2/8 3/1/8
f 14/2/9 4/1/2 3/1/2
f 4/1/2 14/2/9 11/2/9
f 10/3/10 14/2/9 13/3/10
f 14/2/9 10/3/10 11/2/9
f 12/2/11 10/3/10 13/3/10
f 10/3/10 12/2/11 9/2/11
f 7/1/4 12/2/11 8/1/5
f 12/2/11 7/1/4 9/2/11

g leg-right

v -0.05 0 -0.05 1 1 1
v -0.15 0 -0.05 1 1 1
v -0.05 0 0.05 1 1 1
v -0.15 0 0.05 1 1 1
v -0.05 0.25 0.05 1 1 1
v -0.15 0.25 0.05 1 1 1
v -0.05 0.2853553 0.03535534 1 1 1
v -0.15 0.2853553 0.03535534 1 1 1
v -0.05 0.3 -1.117642E-09 1 1 1
v -0.15 0.3 -2.193453E-09 1 1 1
v -0.05 0.25 -0.05 1 1 1
v -0.05 0.2853553 -0.03535534 1 1 1
v -0.15 0.25 -0.05 1 1 1
v -0.15 0.2853553 -0.03535534 1 1 1



usemtl colormap

f 17/1/6 16/1/6 15/1/6
f 16/1/6 17/1/6 18/1/6
f 19/1/2 18/1/1 17/1/1
f 18/1/1 19/1/2 20/1/2
f 21/2/9 20/1/2 19/1/2
f 20/1/2 21/2/9 22/2/9
f 24/3/10 21/2/9 23/3/10
f 21/2/9 24/3/10 22/2/9
f 26/2/8 15/1/8 25/1/8
f 15/1/8 26/2/8 17/1/8
f 17/1/8 26/2/8 23/3/8
f 17/1/8 23/3/8 21/2/8
f 17/1/8 21/2/8 19/1/8
f 16/1/7 28/2/7 27/1/7
f 28/2/7 16/1/7 18/1/7
f 28/2/7 18/1/7 24/3/7
f 24/3/7 18/1/7 22/2/7
f 22/2/7 18/1/7 20/1/7
f 27/1/4 15/1/3 16/1/3
f 15/1/3 27/1/4 25/1/5
f 26/2/11 24/3/10 23/3/10
f 24/3/10 26/2/11 28/2/11
f 27/1/4 26/2/11 25/1/5
f 26/2/11 27/1/4 28/2/11

g torso

v 0.15 0.3 -0.05 1 1 1
v 0.05 0.3 -0.05 1 1 1
v 0.15 0.3 0.05 1 1 1
v 0.05 0.3 0.05 1 1 1
v -0.05 0.3 -0.05 1 1 1
v -0.05 0.3 0.05 1 1 1
v -0.05 0.2146447 -0.03535534 1 1 1
v -0.05 0.2 2.100293E-09 1 1 1
v -0.05 0.2146447 0.03535534 1 1 1
v -0.05 0.25 0.05 1 1 1
v -0.15 0.3 -0.05 1 1 1
v -0.15 0.3 0.05 1 1 1
v 0.05 0.25 -0.05 1 1 1
v -0.25 0.5 -0.15 1 1 1
v -0.25 0.7 -0.15 1 1 1
v -0.25 0.5 0.15 1 1 1
v -0.25 0.7 0.15 1 1 1
v 0.25 0.5 -0.15 1 1 1
v 0.05 0.2 1.024479E-09 1 1 1
v 0.05 0.2146447 -0.03535534 1 1 1
v 0.05 0.2146447 0.03535534 1 1 1
v 0.05 0.25 0.05 1 1 1
v 0.25 0.7 -0.15 1 1 1
v 0.25 0.7 0.15 1 1 1
v 0.25 0.5 0.15 1 1 1

vn 0 -0.1950903 -0.9807853
vn -0.9809786 -0.1941159 0
vn -0.8944272 -0.4472136 0
vn 0 -0.4472136 -0.8944272
vn 0 -0.1941159 -0.9809786
vn 0 -0.7071068 -0.7071068
vn 0 -0.7071068 0.7071068
vn 0 -0.1950903 0.9807853
vn 0.9809786 -0.1941159 0
vn 0.9809786 -0.1941159 0
vn 0 -0.4472136 0.8944272
vn 0 -0.1941159 0.9809786
vn 0.8944272 -0.4472136 0

vt 0.71875 0.3361111
vt 0.71875 0.3805556

usemtl colormap

f 31/4/6 30/4/6 29/4/6
f 30/4/6 31/4/6 32/4/6
f 25/1/7 34/4/7 33/4/7
f 34/4/7 25/1/7 35/1/7
f 34/4/7 35/1/7 36/1/7
f 34/4/7 36/1/7 37/1/7
f 34/4/7 37/1/7 38/1/7
f 34/4/6 39/4/6 33/4/6
f 39/4/6 34/4/6 40/4/6
f 33/4/3 41/1/12 25/1/12
f 41/1/12 33/4/3 30/4/3
f 44/5/13 43/3/7 42/5/13
f 43/3/7 44/5/13 45/3/7
f 44/5/13 39/4/14 40/4/14
f 44/5/13 42/5/13 39/4/14
f 42/5/16 33/4/15 39/4/15
f 46/5/16 33/4/15 42/5/16
f 29/4/15 33/4/15 46/5/16
f 33/4/15 29/4/15 30/4/15
f 36/1/6 48/1/17 47/1/6
f 48/1/17 36/1/6 35/1/17
f 49/1/18 36/1/6 47/1/6
f 36/1/6 49/1/18 37/1/18
f 49/1/18 38/1/19 37/1/18
f 38/1/19 49/1/18 50/1/19
f 25/1/12 48/1/17 35/1/17
f 48/1/17 25/1/12 41/1/12
f 30/4/8 48/1/8 41/1/8
f 48/1/8 30/4/8 32/4/8
f 48/1/8 32/4/8 47/1/8
f 47/1/8 32/4/8 49/1/8
f 49/1/8 32/4/8 50/1/8
f 50/1/19 34/4/1 38/1/19
f 34/4/1 50/1/19 32/4/1
f 52/3/8 46/5/20 51/3/8
f 46/5/20 52/3/8 53/5/21
f 53/5/23 32/4/22 31/4/22
f 32/4/22 53/5/23 34/4/22
f 34/4/22 53/5/23 40/4/22
f 40/4/22 53/5/23 44/5/23
f 53/5/21 31/4/24 46/5/20
f 31/4/24 29/4/24 46/5/20
f 43/3/10 52/3/10 51/3/10
f 52/3/10 43/3/10 45/3/10
f 53/5/23 45/3/1 44/5/23
f 45/3/1 53/5/23 52/3/1
f 43/3/3 46/5/16 42/5/16
f 46/5/16 43/3/3 51/3/3

g arm-left

v 0.35 0.15 0.05000001 1 1 1
v 0.25 0.15 0.05000001 1 1 1
v 0.35 0.6 0.1 1 1 1
v 0.25 0.6 0.1 1 1 1
v 0.35 0.15 -0.04999999 1 1 1
v 0.35 0.6 -0.09999999 1 1 1
v 0.25 0.15 -0.04999999 1 1 1
v 0.25 0.6 -0.09999999 1 1 1
v 0.35 0.7 6.333222E-09 1 1 1
v 0.35 0.6707107 0.07071069 1 1 1
v 0.25 0.7 4.754883E-09 1 1 1
v 0.25 0.6707107 0.07071069 1 1 1
v 0.25 0.6707107 -0.07071067 1 1 1
v 0.35 0.6707107 -0.07071067 1 1 1

vn 0 -0.1104315 0.9938837
vn 0 0.140554 0.9900731
vn 0 -0.1104315 -0.9938837
vn 0 0.140554 -0.9900731


usemtl colormap

f 56/1/26 55/1/25 54/1/25
f 55/1/25 56/1/26 57/1/26
f 60/1/27 59/1/28 58/1/27
f 59/1/28 60/1/27 61/1/28
f 64/3/10 63/2/9 62/3/10
f 63/2/9 64/3/10 65/2/9
f 60/1/7 66/2/7 61/1/7
f 66/2/7 60/1/7 64/3/7
f 64/3/7 60/1/7 55/1/7
f 64/3/7 55/1/7 65/2/7
f 65/2/7 55/1/7 57/1/7
f 66/2/11 62/3/10 67/2/11
f 62/3/10 66/2/11 64/3/10
f 54/1/6 60/1/6 58/1/6
f 60/1/6 54/1/6 55/1/6
f 63/2/9 57/1/26 56/1/26
f 57/1/26 63/2/9 65/2/9
f 61/1/28 67/2/11 59/1/28
f 67/2/11 61/1/28 66/2/11
f 67/2/8 58/1/8 59/1/8
f 58/1/8 67/2/8 62/3/8
f 58/1/8 62/3/8 54/1/8
f 54/1/8 62/3/8 63/2/8
f 54/1/8 63/2/8 56/1/8

g arm-right

v -0.25 0.15 -0.05 1 1 1
v -0.35 0.15 -0.05 1 1 1
v -0.25 0.15 0.05 1 1 1
v -0.35 0.15 0.05 1 1 1
v -0.35 0.6 -0.1 1 1 1
v -0.35 0.6707107 -0.07071068 1 1 1
v -0.35 0.7 -3.813599E-09 1 1 1
v -0.35 0.6707107 0.07071068 1 1 1
v -0.35 0.6 0.1 1 1 1
v -0.25 0.6 0.1 1 1 1
v -0.25 0.6 -0.1 1 1 1
v -0.25 0.6707107 -0.07071068 1 1 1
v -0.25 0.7 -2.235259E-09 1 1 1
v -0.25 0.6707107 0.07071068 1 1 1



usemtl colormap

f 70/1/6 69/1/6 68/1/6
f 69/1/6 70/1/6 71/1/6
f 69/1/7 73/2/7 72/1/7
f 73/2/7 69/1/7 74/3/7
f 74/3/7 69/1/7 71/1/7
f 74/3/7 71/1/7 75/2/7
f 75/2/7 71/1/7 76/1/7
f 77/1/26 71/1/25 70/1/25
f 71/1/25 77/1/26 76/1/26
f 69/1/27 78/1/28 68/1/27
f 78/1/28 69/1/27 72/1/28
f 72/1/28 79/2/11 78/1/28
f 79/2/11 72/1/28 73/2/11
f 79/2/8 68/1/8 78/1/8
f 68/1/8 79/2/8 80/3/8
f 68/1/8 80/3/8 70/1/8
f 70/1/8 80/3/8 81/2/8
f 70/1/8 81/2/8 77/1/8
f 74/3/10 81/2/9 80/3/10
f 81/2/9 74/3/10 75/2/9
f 73/2/11 80/3/10 79/2/11
f 80/3/10 73/2/11 74/3/10
f 81/2/9 76/1/26 77/1/26
f 76/1/26 81/2/9 75/2/9

g head

v 0.1 0.9 -0.1 1 1 1
v 0.1 0.7 -0.1 1 1 1
v 0.1 0.9 0.1 1 1 1
v 0.1 0.7 0.1 1 1 1
v -0.1 0.9 -0.1 1 1 1
v -0.1 0.9 0.1 1 1 1
v -0.1 0.7 -0.1 1 1 1
v -0.1 0.7 0.1 1 1 1



usemtl colormap

f 84/3/8 83/1/8 82/3/8
f 83/1/8 84/3/8 85/1/8
f 86/3/10 84/3/10 82/3/10
f 84/3/10 86/3/10 87/3/10
f 86/3/3 83/1/3 88/1/3
f 83/1/3 86/3/3 82/3/3
f 89/1/7 86/3/7 88/1/7
f 86/3/7 89/1/7 87/3/7
f 85/1/6 88/1/6 83/1/6
f 88/1/6 85/1/6 89/1/6
f 84/3/1 89/1/1 85/1/1
f 89/1/1 84/3/1 87/3/1

