# Created by Kenney (www.kenney.nl)

mtllib figurine-cube-detailed.mtl

g leg-left

v 0.15 0 -0.05 1 1 1
v 0.05 0 -0.05 1 1 1
v 0.15 0 0.075 1 1 1
v 0.05 0 0.075 1 1 1
v 0.15 0.1375 0.0625 1 1 1
v 0.05 0.1375 0.0625 1 1 1
v 0.15 0.1816942 0.04419417 1 1 1
v 0.05 0.1816942 0.04419417 1 1 1
v 0.15 0.2 2.086853E-09 1 1 1
v 0.05 0.2 7.420938E-10 1 1 1
v 0.15 0.1816942 -0.04419417 1 1 1
v 0.05 0.1816942 -0.04419417 1 1 1
v 0.15 0.1375 -0.0625 1 1 1
v 0.05 0.1375 -0.0625 1 1 1
v 0.15 0.05058441 0.075 1 1 1
v 0.05 0.05058441 0.075 1 1 1
v 0.15 0.075 0.05 1 1 1
v 0.05 0.075 0.05 1 1 1

vn 0 -1 0
vn 0 0.09749664 0.9952359
vn 0 0.7071068 0.7071068
vn 0 1 0
vn 0 0.7071068 -0.7071068
vn 0 0.1504462 -0.9886181
vn 0 0 1
vn 0 0.3881395 0.9216006
vn 0 0.7154192 0.6986955
vn 0 -0.09053575 -0.9958932
vn -1 0 0
vn 0 -0.1961161 0.9805807
vn 1 0 0

vt 0.71875 0.325
vt 0.71875 0.3883883
vt 0.71875 0.425

usemtl colormap

f 3/1/1 2/1/1 1/1/1
f 2/1/1 3/1/1 4/1/1
f 7/2/3 6/1/2 5/1/2
f 6/1/2 7/2/3 8/2/3
f 10/3/4 7/2/3 9/3/4
f 7/2/3 10/3/4 8/2/3
f 11/2/5 10/3/4 9/3/4
f 10/3/4 11/2/5 12/2/5
f 14/1/6 11/2/5 13/1/6
f 11/2/5 14/1/6 12/2/5
f 15/1/8 4/1/7 3/1/7
f 4/1/7 15/1/8 16/1/8
f 18/1/9 15/1/8 17/1/9
f 15/1/8 18/1/9 16/1/8
f 14/1/6 1/1/10 2/1/10
f 1/1/10 14/1/6 13/1/6
f 6/1/11 8/2/11 18/1/11
f 10/3/11 18/1/11 8/2/11
f 10/3/11 4/1/11 18/1/11
f 18/1/11 4/1/11 16/1/11
f 12/2/11 4/1/11 10/3/11
f 12/2/11 2/1/11 4/1/11
f 2/1/11 12/2/11 14/1/11
f 5/1/2 18/1/12 17/1/12
f 18/1/12 5/1/2 6/1/2
f 5/1/13 17/1/13 7/2/13
f 17/1/13 9/3/13 7/2/13
f 3/1/13 9/3/13 17/1/13
f 3/1/13 17/1/13 15/1/13
f 3/1/13 11/2/13 9/3/13
f 1/1/13 11/2/13 3/1/13
f 11/2/13 1/1/13 13/1/13

g leg-right

v -0.15 0.075 0.05 1 1 1
v -0.15 0.1816942 0.04419417 1 1 1
v -0.15 0.1375 0.0625 1 1 1
v -0.15 0.2 -2.238281E-09 1 1 1
v -0.15 0 0.075 1 1 1
v -0.15 0.05058441 0.075 1 1 1
v -0.15 0.1816942 -0.04419417 1 1 1
v -0.15 0 -0.05 1 1 1
v -0.15 0.1375 -0.0625 1 1 1
v -0.05 0 0.075 1 1 1
v -0.05 0.05058441 0.075 1 1 1
v -0.05 0.1375 -0.0625 1 1 1
v -0.05 0.1816942 -0.04419417 1 1 1
v -0.05 0 -0.05 1 1 1
v -0.05 0.2 -8.935213E-10 1 1 1
v -0.05 0.075 0.05 1 1 1
v -0.05 0.1375 0.0625 1 1 1
v -0.05 0.1816942 0.04419417 1 1 1



usemtl colormap

f 21/1/11 20/2/11 19/1/11
f 22/3/11 19/1/11 20/2/11
f 22/3/11 23/1/11 19/1/11
f 19/1/11 23/1/11 24/1/11
f 25/2/11 23/1/11 22/3/11
f 25/2/11 26/1/11 23/1/11
f 26/1/11 25/2/11 27/1/11
f 29/1/8 23/1/7 28/1/7
f 23/1/7 29/1/8 24/1/8
f 27/1/6 31/2/5 30/1/6
f 31/2/5 27/1/6 25/2/5
f 28/1/1 26/1/1 32/1/1
f 26/1/1 28/1/1 23/1/1
f 27/1/6 32/1/10 26/1/10
f 32/1/10 27/1/6 30/1/6
f 31/2/5 22/3/4 33/3/4
f 22/3/4 31/2/5 25/2/5
f 35/1/2 19/1/12 34/1/12
f 19/1/12 35/1/2 21/1/2
f 22/3/4 36/2/3 33/3/4
f 36/2/3 22/3/4 20/2/3
f 36/2/3 21/1/2 35/1/2
f 21/1/2 36/2/3 20/2/3
f 35/1/13 34/1/13 36/2/13
f 34/1/13 33/3/13 36/2/13
f 28/1/13 33/3/13 34/1/13
f 28/1/13 34/1/13 29/1/13
f 28/1/13 31/2/13 33/3/13
f 32/1/13 31/2/13 28/1/13
f 31/2/13 32/1/13 30/1/13
f 19/1/9 29/1/8 34/1/9
f 29/1/8 19/1/9 24/1/8

g torso

v 0.135 0.2 -0.09 1 1 1
v 0.09 0.2 -0.135 1 1 1
v 0.135 0.2 0.09 1 1 1
v 0.09 0.2 0.135 1 1 1
v -0.09 0.2 -0.135 1 1 1
v -0.09 0.2 0.135 1 1 1
v -0.135 0.2 -0.09 1 1 1
v -0.135 0.2 0.09 1 1 1
v 0.05 0.1133975 -0.05 1 1 1
v 0.05 0.15 -0.08660254 1 1 1
v -0.05 0.1133975 -0.05 1 1 1
v -0.05 0.15 -0.08660254 1 1 1
v -0.05 0.2 -0.1 1 1 1
v -0.05 0.2 0.1 1 1 1
v -0.05 0.1 3.955367E-10 1 1 1
v -0.05 0.1133975 0.05 1 1 1
v -0.05 0.15 0.08660254 1 1 1
v 0.05 0.15 0.08660254 1 1 1
v 0.05 0.2 0.1 1 1 1
v 0.05 0.2 -0.1 1 1 1
v 0.05 0.1 7.78536E-10 1 1 1
v 0.05 0.1133975 0.05 1 1 1
v 0.15 0.3 -0.1 1 1 1
v 0.15 0.3 0.1 1 1 1
v 0.1 0.3 0.15 1 1 1
v -0.1 0.3 0.15 1 1 1
v 0.1 0.3 -0.15 1 1 1
v -0.1 0.3 -0.15 1 1 1
v -0.15 0.3 -0.1 1 1 1
v -0.15 0.3 0.1 1 1 1
v 0.15 0.4 -0.1 1 1 1
v 0.15 0.4 0.1 1 1 1
v 0.1 0.4 -0.15 1 1 1
v 0.1 0.4 0.15 1 1 1
v -0.1 0.4 -0.15 1 1 1
v -0.1 0.4 0.15 1 1 1
v -0.15 0.4 -0.1 1 1 1
v -0.15 0.4 0.09999999 1 1 1

vn 0 -0.8660254 -0.5
vn 0 -0.5 -0.8660254
vn 0 -0.5 0.8660254
vn 0 -0.258819 0.9659258
vn 0 -0.8660254 0.4999999
vn 0 -0.258819 -0.9659258
vn 0.9190077 -0.08573659 -0.3848039
vn 0.9131476 -0.1738422 -0.368701
vn 0.9190077 -0.08573657 0.3848039
vn 0.9131476 -0.1738422 0.368701
vn 0.368701 -0.1738422 0.9131476
vn 0.3848039 -0.08573659 0.9190077
vn -0.368701 -0.1738422 0.9131476
vn -0.3848039 -0.08573657 0.9190077
vn 0.368701 -0.1738422 -0.9131476
vn 0.3848039 -0.08573659 -0.9190077
vn -0.368701 -0.1738422 -0.9131476
vn -0.3848039 -0.0857366 -0.9190077
vn -0.9131476 -0.1738422 -0.368701
vn -0.9190077 -0.08573657 -0.3848039
vn -0.9131476 -0.1738422 0.368701
vn -0.9190077 -0.08573659 0.3848039
vn 0.9238795 0 -0.3826834
vn 0.9238795 0 0.3826834
vn 0.3826834 0 -0.9238795
vn -0.3826834 0 -0.9238795
vn -0.9238795 0 -0.3826834
vn -0.9238795 0 0.3826834
vn -0.3826834 0 0.9238795
vn 0.3826834 0 0.9238795

vt 0.71875 0.345
vt 0.71875 0.385

usemtl colormap

f 39/4/1 38/4/1 37/4/1
f 38/4/1 39/4/1 40/4/1
f 38/4/1 40/4/1 41/4/1
f 41/4/1 40/4/1 42/4/1
f 41/4/1 42/4/1 43/4/1
f 43/4/1 42/4/1 44/4/1
f 47/1/14 46/1/15 45/1/14
f 46/1/15 47/1/14 48/1/15
f 48/1/11 50/4/11 49/4/11
f 50/4/11 48/1/11 47/1/11
f 50/4/11 47/1/11 51/1/11
f 50/4/11 51/1/11 52/1/11
f 50/4/11 52/1/11 53/1/11
f 54/1/16 50/4/17 53/1/16
f 50/4/17 54/1/16 55/4/17
f 55/4/13 46/1/13 56/4/13
f 46/1/13 55/4/13 45/1/13
f 45/1/13 55/4/13 57/1/13
f 57/1/13 55/4/13 58/1/13
f 58/1/13 55/4/13 54/1/13
f 58/1/18 53/1/16 52/1/18
f 53/1/16 58/1/18 54/1/16
f 48/1/15 56/4/19 46/1/15
f 56/4/19 48/1/15 49/4/19
f 52/1/18 57/1/1 58/1/18
f 57/1/1 52/1/18 51/1/1
f 57/1/1 47/1/14 45/1/14
f 47/1/14 57/1/1 51/1/1
f 60/5/22 37/4/21 59/5/20
f 37/4/21 60/5/22 39/4/23
f 60/5/22 40/4/24 39/4/23
f 40/4/24 60/5/22 61/5/25
f 61/5/25 42/4/26 40/4/24
f 42/4/26 61/5/25 62/5/27
f 41/4/30 63/5/29 38/4/28
f 63/5/29 41/4/30 64/5/31
f 43/4/32 64/5/31 41/4/30
f 64/5/31 43/4/32 65/5/33
f 42/4/26 66/5/35 44/4/34
f 66/5/35 42/4/26 62/5/27
f 59/5/20 38/4/28 63/5/29
f 38/4/28 59/5/20 37/4/21
f 43/4/32 66/5/35 65/5/33
f 66/5/35 43/4/32 44/4/34
f 69/3/4 68/3/4 67/3/4
f 68/3/4 69/3/4 70/3/4
f 70/3/4 69/3/4 71/3/4
f 70/3/4 71/3/4 72/3/4
f 72/3/4 71/3/4 73/3/4
f 72/3/4 73/3/4 74/3/4
f 68/3/37 59/5/20 67/3/36
f 59/5/20 68/3/37 60/5/22
f 67/3/36 63/5/29 69/3/38
f 63/5/29 67/3/36 59/5/20
f 71/3/39 63/5/29 64/5/31
f 63/5/29 71/3/39 69/3/38
f 65/5/33 71/3/39 64/5/31
f 71/3/39 65/5/33 73/3/40
f 65/5/33 74/3/41 73/3/40
f 74/3/41 65/5/33 66/5/35
f 66/5/35 72/3/42 74/3/41
f 72/3/42 66/5/35 62/5/27
f 70/3/43 62/5/27 61/5/25
f 62/5/27 70/3/43 72/3/42
f 68/3/37 61/5/25 60/5/22
f 61/5/25 68/3/37 70/3/43

g arm-left

v 0.25 0.1792893 0.07247449 1 1 1
v 0.15 0.1792893 0.07247449 1 1 1
v 0.25 0.2631653 0.05000001 1 1 1
v 0.15 0.2631653 0.05000001 1 1 1
v 0.25 0.1180521 0.03711916 1 1 1
v 0.15 0.1180521 0.03711915 1 1 1
v 0.25 0.1413484 0.06747948 1 1 1
v 0.15 0.1413484 0.06747947 1 1 1
v 0.2353553 0.3853554 -0.04999999 1 1 1
v 0.25 0.35 -0.04999999 1 1 1
v 0.2353553 0.3853554 0.05000001 1 1 1
v 0.25 0.35 0.05000001 1 1 1
v 0.25 0.1230471 -0.0008217976 1 1 1
v 0.25 0.1534074 -0.02411809 1 1 1
v 0.15 0.1230471 -0.0008217996 1 1 1
v 0.15 0.1534074 -0.02411809 1 1 1
v 0.25 0.25 -0.04999999 1 1 1
v 0.15 0.25 -0.04999999 1 1 1
v 0.2 0.4 -0.04999999 1 1 1
v 0.2 0.4 0.05000001 1 1 1
v 0.15 0.4 -0.04999999 1 1 1
v 0.15 0.4 0.05000001 1 1 1

vn 0 0.06540313 0.9978589
vn 0 0.1305262 0.9914449
vn 0 -0.9659258 0.258819
vn 0.7071068 0.7071068 0
vn 0.9807853 0.1950903 0
vn 0 -0.8660254 -0.5
vn 0 -0.4422887 -0.8968728
vn 0 -0.1305262 -0.9914449
vn 0 -0.1305262 -0.9914449
vn 0.1950903 0.9807853 0
vn 0 0 -1

vt 0.71875 0.3957107

usemtl colormap

f 77/1/45 76/1/44 75/1/44
f 76/1/44 77/1/45 78/1/45
f 81/1/16 80/1/46 79/1/46
f 80/1/46 81/1/16 82/1/16
f 85/6/47 84/1/48 83/6/47
f 84/1/48 85/6/47 86/1/48
f 89/1/49 88/1/50 87/1/49
f 88/1/50 89/1/49 90/1/50
f 90/1/50 91/1/51 88/1/50
f 91/1/51 90/1/50 92/1/52
f 93/3/53 85/6/47 83/6/47
f 85/6/47 93/3/53 94/3/53
f 86/1/48 91/1/13 84/1/48
f 91/1/13 86/1/48 88/1/13
f 88/1/13 86/1/48 87/1/13
f 87/1/13 86/1/48 79/1/13
f 79/1/13 86/1/48 77/1/13
f 77/1/13 81/1/13 79/1/13
f 81/1/13 77/1/13 75/1/13
f 75/1/44 82/1/16 81/1/16
f 82/1/16 75/1/44 76/1/44
f 95/3/4 94/3/53 93/3/53
f 94/3/53 95/3/4 96/3/4
f 77/1/45 96/3/7 78/1/45
f 96/3/7 77/1/45 86/1/7
f 96/3/7 86/1/7 85/6/7
f 96/3/7 85/6/7 94/3/7
f 78/1/11 82/1/11 76/1/11
f 82/1/11 78/1/11 80/1/11
f 96/3/11 80/1/11 78/1/11
f 96/3/11 89/1/11 80/1/11
f 96/3/11 90/1/11 89/1/11
f 96/3/11 92/1/11 90/1/11
f 92/1/11 96/3/11 95/3/11
f 79/1/46 89/1/49 87/1/49
f 89/1/49 79/1/46 80/1/46
f 95/3/54 91/1/51 92/1/52
f 91/1/51 95/3/54 84/1/54
f 84/1/54 95/3/54 83/6/54
f 83/6/54 95/3/54 93/3/54

g arm-right

v -0.15 0.1413484 0.06747946 1 1 1
v -0.15 0.1180521 0.03711914 1 1 1
v -0.25 0.1413484 0.06747947 1 1 1
v -0.25 0.1180521 0.03711915 1 1 1
v -0.25 0.1534074 -0.0241181 1 1 1
v -0.15 0.1534074 -0.0241181 1 1 1
v -0.25 0.25 -0.05 1 1 1
v -0.15 0.25 -0.05000001 1 1 1
v -0.2353553 0.3853554 -0.05 1 1 1
v -0.2353553 0.3853554 0.05 1 1 1
v -0.25 0.35 -0.05 1 1 1
v -0.25 0.35 0.05 1 1 1
v -0.2 0.4 0.04999999 1 1 1
v -0.2 0.4 -0.05 1 1 1
v -0.25 0.1792893 0.07247449 1 1 1
v -0.25 0.2631653 0.04999999 1 1 1
v -0.25 0.1230471 -0.0008218077 1 1 1
v -0.15 0.1792893 0.07247448 1 1 1
v -0.15 0.4 0.04999999 1 1 1
v -0.15 0.4 -0.05000001 1 1 1
v -0.15 0.1230471 -0.0008218096 1 1 1
v -0.15 0.2631653 0.04999999 1 1 1

vn -0.7071068 0.7071068 0
vn -0.9807853 0.1950903 0
vn -0.1950903 0.9807853 0


usemtl colormap

f 99/1/16 98/1/46 97/1/16
f 98/1/46 99/1/16 100/1/46
f 103/1/51 102/1/50 101/1/50
f 102/1/50 103/1/51 104/1/52
f 107/1/56 106/6/55 105/6/55
f 106/6/55 107/1/56 108/1/56
f 110/3/57 106/6/55 109/3/57
f 106/6/55 110/3/57 105/6/55
f 112/1/11 99/1/11 111/1/11
f 99/1/11 112/1/11 100/1/11
f 108/1/56 100/1/11 112/1/11
f 108/1/56 113/1/11 100/1/11
f 108/1/56 101/1/11 113/1/11
f 107/1/56 101/1/11 108/1/56
f 101/1/11 107/1/56 103/1/11
f 97/1/16 111/1/44 99/1/16
f 111/1/44 97/1/16 114/1/44
f 116/3/4 109/3/57 115/3/4
f 109/3/57 116/3/4 110/3/57
f 115/3/13 104/1/13 116/3/13
f 104/1/13 115/3/13 102/1/13
f 102/1/13 115/3/13 117/1/13
f 117/1/13 115/3/13 98/1/13
f 98/1/13 115/3/13 118/1/13
f 98/1/13 118/1/13 97/1/13
f 97/1/13 118/1/13 114/1/13
f 114/1/44 112/1/45 111/1/44
f 112/1/45 114/1/44 118/1/45
f 115/3/7 112/1/45 118/1/45
f 112/1/45 115/3/7 108/1/7
f 108/1/7 115/3/7 106/6/7
f 106/6/7 115/3/7 109/3/7
f 101/1/50 117/1/49 113/1/49
f 117/1/49 101/1/50 102/1/50
f 100/1/46 117/1/49 98/1/46
f 117/1/49 100/1/46 113/1/49
f 103/1/51 116/3/54 104/1/52
f 116/3/54 103/1/51 107/1/54
f 116/3/54 107/1/54 105/6/54
f 116/3/54 105/6/54 110/3/54

g head

v -0.1 0.4 -0.05 1 1 1
v -0.1 0.575 -0.05 1 1 1
v -0.1 0.4 0.05 1 1 1
v -0.1 0.575 0.05 1 1 1
v 0.1 0.575 -0.05 1 1 1
v 0.1 0.4 -0.05 1 1 1
v 0.1 0.575 0.05 1 1 1
v 0.1 0.4 0.05 1 1 1
v 0.05 0.4 0.1 1 1 1
v -0.05 0.4 0.1 1 1 1
v 0.05 0.575 0.1 1 1 1
v -0.05 0.575 0.1 1 1 1
v -0.05 0.4 -0.1 1 1 1
v 0.05 0.4 -0.1 1 1 1
v -0.05 0.575 -0.1 1 1 1
v 0.05 0.575 -0.1 1 1 1
v -0.08535534 0.4 -0.08535534 1 1 1
v -0.08535534 0.575 -0.08535534 1 1 1
v 0.08535534 0.575 0.08535534 1 1 1
v 0.08535534 0.4 0.08535534 1 1 1
v -0.08535534 0.4 0.08535534 1 1 1
v -0.08535534 0.575 0.08535534 1 1 1
v 0.08535534 0.575 -0.08535534 1 1 1
v 0.08535534 0.4 -0.08535534 1 1 1

vn -0.9807853 0 -0.1950903
vn -0.9807853 0 0.1950903
vn 0.9807853 0 -0.1950903
vn 0.9807853 0 0.1950903
vn 0.1950903 0 0.9807853
vn -0.1950903 0 0.9807853
vn -0.1950903 0 -0.9807853
vn 0.1950903 0 -0.9807853
vn -0.7071068 0 -0.7071068
vn 0.7071068 0 0.7071068
vn -0.7071068 0 0.7071068
vn 0.7071068 0 -0.7071068


usemtl colormap

f 121/1/59 120/3/58 119/1/58
f 120/3/58 121/1/59 122/3/59
f 125/3/61 124/1/60 123/3/60
f 124/1/60 125/3/61 126/1/61
f 129/3/62 128/1/63 127/1/62
f 128/1/63 129/3/62 130/3/63
f 133/3/64 132/1/65 131/1/64
f 132/1/65 133/3/64 134/3/65
f 119/1/58 136/3/66 135/1/66
f 136/3/66 119/1/58 120/3/58
f 137/3/67 126/1/61 125/3/61
f 126/1/61 137/3/67 138/1/67
f 130/3/63 139/1/68 128/1/63
f 139/1/68 130/3/63 140/3/68
f 123/3/60 142/1/69 141/3/69
f 142/1/69 123/3/60 124/1/60
f 139/1/68 122/3/59 121/1/59
f 122/3/59 139/1/68 140/3/68
f 134/3/65 142/1/69 132/1/65
f 142/1/69 134/3/65 141/3/69
f 136/3/66 131/1/64 135/1/66
f 131/1/64 136/3/66 133/3/64
f 137/3/67 127/1/62 138/1/67
f 127/1/62 137/3/67 129/3/62
f 141/3/4 125/3/4 123/3/4
f 125/3/4 141/3/4 137/3/4
f 137/3/4 141/3/4 134/3/4
f 137/3/4 134/3/4 129/3/4
f 129/3/4 134/3/4 133/3/4
f 129/3/4 133/3/4 130/3/4
f 130/3/4 133/3/4 136/3/4
f 130/3/4 136/3/4 140/3/4
f 140/3/4 136/3/4 120/3/4
f 140/3/4 120/3/4 122/3/4
f 126/1/1 142/1/1 124/1/1
f 142/1/1 126/1/1 138/1/1
f 142/1/1 138/1/1 132/1/1
f 132/1/1 138/1/1 127/1/1
f 132/1/1 127/1/1 131/1/1
f 131/1/1 127/1/1 128/1/1
f 131/1/1 128/1/1 135/1/1
f 135/1/1 128/1/1 139/1/1
f 135/1/1 139/1/1 119/1/1
f 119/1/1 139/1/1 121/1/1

