# Created by Kenney (www.kenney.nl)

mtllib floor-thick-corner-round.mtl

g floor-thick-corner-round

v 0.5 2.255973E-17 0.5 1 1 1
v 0.4807853 0 0.3049097 1 1 1
v -0.5 2.255973E-17 0.5 1 1 1
v 0.4238795 4.511946E-17 0.1173166 1 1 1
v 0.3314696 4.511946E-17 -0.05557023 1 1 1
v 0.2071068 4.511946E-17 -0.2071068 1 1 1
v 0.05557023 4.511946E-17 -0.3314696 1 1 1
v -0.1173166 4.511946E-17 -0.4238795 1 1 1
v -0.3049097 4.511946E-17 -0.4807853 1 1 1
v -0.5 2.255973E-17 -0.5 1 1 1
v 0.5 0.2 0.5 1 1 1
v -0.5 0.2 0.5 1 1 1
v 0.4807853 0.2 0.3049097 1 1 1
v 0.4238795 0.2 0.1173166 1 1 1
v 0.3314696 0.2 -0.05557023 1 1 1
v 0.2071068 0.2 -0.2071068 1 1 1
v 0.05557023 0.2 -0.3314696 1 1 1
v -0.1173166 0.2 -0.4238795 1 1 1
v -0.3049097 0.2 -0.4807853 1 1 1
v -0.5 0.2 -0.5 1 1 1

vn 0 -1 0
vn 0 1 0
vn -1 0 0
vn 0 0 1
vn 0.09801714 0 -0.9951847
vn 0.1950903 0 -0.9807853
vn 0.3826834 0 -0.9238795
vn 0.5555702 0 -0.8314696
vn 0.7071068 0 -0.7071068
vn 0.8314696 0 -0.5555702
vn 0.9238795 0 -0.3826834
vn 0.9807853 0 -0.1950903
vn 0.9951847 0 -0.09801714

vt 0.46875 0.025
vt 0.46875 0.225

usemtl colormap

f 3/1/1 2/1/1 1/1/1
f 2/1/1 3/1/1 4/1/1
f 4/1/1 3/1/1 5/1/1
f 5/1/1 3/1/1 6/1/1
f 6/1/1 3/1/1 7/1/1
f 7/1/1 3/1/1 8/1/1
f 8/1/1 3/1/1 9/1/1
f 9/1/1 3/1/1 10/1/1
f 13/2/2 12/2/2 11/2/2
f 12/2/2 13/2/2 14/2/2
f 12/2/2 14/2/2 15/2/2
f 12/2/2 15/2/2 16/2/2
f 12/2/2 16/2/2 17/2/2
f 12/2/2 17/2/2 18/2/2
f 12/2/2 18/2/2 19/2/2
f 12/2/2 19/2/2 20/2/2
f 3/1/3 20/2/3 10/1/3
f 20/2/3 3/1/3 12/2/3
f 11/2/4 3/1/4 1/1/4
f 3/1/4 11/2/4 12/2/4
f 20/2/5 9/1/6 10/1/5
f 9/1/6 20/2/5 19/2/6
f 19/2/6 8/1/7 9/1/6
f 8/1/7 19/2/6 18/2/7
f 18/2/7 7/1/8 8/1/7
f 7/1/8 18/2/7 17/2/8
f 17/2/8 6/1/9 7/1/8
f 6/1/9 17/2/8 16/2/9
f 15/2/10 6/1/9 16/2/9
f 6/1/9 15/2/10 5/1/10
f 14/2/11 5/1/10 15/2/10
f 5/1/10 14/2/11 4/1/11
f 13/2/12 4/1/11 14/2/11
f 4/1/11 13/2/12 2/1/12
f 11/2/13 2/1/12 13/2/12
f 2/1/12 11/2/13 1/1/13

g floor-thick-corner-round




usemtl colormap

f 3/1/1 2/1/1 1/1/1
f 2/1/1 3/1/1 4/1/1
f 4/1/1 3/1/1 5/1/1
f 5/1/1 3/1/1 6/1/1
f 6/1/1 3/1/1 7/1/1
f 7/1/1 3/1/1 8/1/1
f 8/1/1 3/1/1 9/1/1
f 9/1/1 3/1/1 10/1/1
f 13/2/2 12/2/2 11/2/2
f 12/2/2 13/2/2 14/2/2
f 12/2/2 14/2/2 15/2/2
f 12/2/2 15/2/2 16/2/2
f 12/2/2 16/2/2 17/2/2
f 12/2/2 17/2/2 18/2/2
f 12/2/2 18/2/2 19/2/2
f 12/2/2 19/2/2 20/2/2
f 3/1/3 20/2/3 10/1/3
f 20/2/3 3/1/3 12/2/3
f 11/2/4 3/1/4 1/1/4
f 3/1/4 11/2/4 12/2/4
f 20/2/5 9/1/6 10/1/5
f 9/1/6 20/2/5 19/2/6
f 19/2/6 8/1/7 9/1/6
f 8/1/7 19/2/6 18/2/7
f 18/2/7 7/1/8 8/1/7
f 7/1/8 18/2/7 17/2/8
f 17/2/8 6/1/9 7/1/8
f 6/1/9 17/2/8 16/2/9
f 15/2/10 6/1/9 16/2/9
f 6/1/9 15/2/10 5/1/10
f 14/2/11 5/1/10 15/2/10
f 5/1/10 14/2/11 4/1/11
f 13/2/12 4/1/11 14/2/11
f 4/1/11 13/2/12 2/1/12
f 11/2/13 2/1/12 13/2/12
f 2/1/12 11/2/13 1/1/13

