# Created by Kenney (www.kenney.nl)

mtllib indicator-square-d.mtl

g indicator-square-d

v 0.5 0 0.5 1 1 1
v -0.5 0 0.5 1 1 1
v 0.5 0.2 0.5 1 1 1
v -0.5 0.2 0.5 1 1 1
v 0.5 0.2 -0.5 1 1 1
v 0.5 0 -0.5 1 1 1
v -0.5 0 -0.5 1 1 1
v -0.5 0.2 -0.5 1 1 1

vn 0 0 1
vn 0 0 -1
vn 1 0 0
vn -1 0 0

vt 0.34375 0.375
vt 0.34375 0.475

usemtl colormap

f 3/2/1 2/1/1 1/1/1
f 2/1/1 3/2/1 4/2/1
f 1/1/2 2/1/2 3/2/2
f 4/2/2 3/2/2 2/1/2
f 3/2/3 6/1/3 5/2/3
f 6/1/3 3/2/3 1/1/3
f 5/2/4 6/1/4 3/2/4
f 1/1/4 3/2/4 6/1/4
f 2/1/4 8/2/4 7/1/4
f 8/2/4 2/1/4 4/2/4
f 7/1/3 8/2/3 2/1/3
f 4/2/3 2/1/3 8/2/3
f 8/2/2 6/1/2 7/1/2
f 6/1/2 8/2/2 5/2/2
f 7/1/1 6/1/1 8/2/1
f 5/2/1 8/2/1 6/1/1

g indicator-square-d




usemtl colormap

f 3/2/1 2/1/1 1/1/1
f 2/1/1 3/2/1 4/2/1
f 1/1/2 2/1/2 3/2/2
f 4/2/2 3/2/2 2/1/2
f 3/2/3 6/1/3 5/2/3
f 6/1/3 3/2/3 1/1/3
f 5/2/4 6/1/4 3/2/4
f 1/1/4 3/2/4 6/1/4
f 2/1/4 8/2/4 7/1/4
f 8/2/4 2/1/4 4/2/4
f 7/1/3 8/2/3 2/1/3
f 4/2/3 2/1/3 8/2/3
f 8/2/2 6/1/2 7/1/2
f 6/1/2 8/2/2 5/2/2
f 7/1/1 6/1/1 8/2/1
f 5/2/1 8/2/1 6/1/1

