# Created by Kenney (www.kenney.nl)

mtllib indicator-doorway.mtl

g indicator-doorway

v 0.15 0 0.1701631 1 1 1
v 0.15 0 0.2701631 1 1 1
v 0.1086583 0 0.1619398 1 1 1
v 0.07038993 0 0.2543277 1 1 1
v -0.05355339 0 0.05355339 1 1 1
v -0.1242641 0 0.1242641 1 1 1
v -0.1619398 0 -0.1086583 1 1 1
v -0.2543277 0 -0.07038993 1 1 1
v -0.1701631 0 -0.15 1 1 1
v -0.2701631 0 -0.15 1 1 1
v 0.3 0 -0.15 1 1 1
v 0.3 0 0.3 1 1 1
v 0.2 0 -0.15 1 1 1
v 0.2 0 0.2801088 1 1 1
v 0.2 0 -0.05110046 1 1 1
v 0.3 0 -0.2 1 1 1
v -0.2801088 0 -0.2 1 1 1
v 0.3 0 -0.3 1 1 1
v -0.3 0 -0.3 1 1 1

vn 0 1 0

vt 0.28125 0.375

usemtl colormap

f 3/1/1 2/1/1 1/1/1
f 2/1/1 3/1/1 4/1/1
f 4/1/1 3/1/1 5/1/1
f 4/1/1 5/1/1 6/1/1
f 6/1/1 5/1/1 7/1/1
f 6/1/1 7/1/1 8/1/1
f 8/1/1 7/1/1 9/1/1
f 8/1/1 9/1/1 10/1/1
f 13/1/1 12/1/1 11/1/1
f 12/1/1 13/1/1 14/1/1
f 14/1/1 13/1/1 15/1/1
f 18/1/1 17/1/1 16/1/1
f 17/1/1 18/1/1 19/1/1

g indicator-doorway




usemtl colormap

f 3/1/1 2/1/1 1/1/1
f 2/1/1 3/1/1 4/1/1
f 4/1/1 3/1/1 5/1/1
f 4/1/1 5/1/1 6/1/1
f 6/1/1 5/1/1 7/1/1
f 6/1/1 7/1/1 8/1/1
f 8/1/1 7/1/1 9/1/1
f 8/1/1 9/1/1 10/1/1
f 13/1/1 12/1/1 11/1/1
f 12/1/1 13/1/1 14/1/1
f 14/1/1 13/1/1 15/1/1
f 18/1/1 17/1/1 16/1/1
f 17/1/1 18/1/1 19/1/1

