# Created by Kenney (www.kenney.nl)

mtllib ladder-color.mtl

g ladder-color

v -0.05 0 0.175 1 1 1
v -0.05 1 0.175 1 1 1
v -0.05 0 0.225 1 1 1
v -0.05 1 0.225 1 1 1
v 0.025 0 0.25 1 1 1
v -0.025 0 0.25 1 1 1
v 0.025 1 0.25 1 1 1
v -0.025 1 0.25 1 1 1
v 0.05 0 0.225 1 1 1
v 0.05 0 0.175 1 1 1
v 0.025 0 0.15 1 1 1
v -0.025 0 0.15 1 1 1
v -0.025 1 0.15 1 1 1
v 0.025 1 0.15 1 1 1
v 0.05 1 0.175 1 1 1
v 0.05 1 0.225 1 1 1
v -0.05 0 -0.225 1 1 1
v -0.05 1 -0.225 1 1 1
v -0.05 0 -0.175 1 1 1
v -0.05 1 -0.175 1 1 1
v 0.025 0 -0.15 1 1 1
v -0.025 0 -0.15 1 1 1
v 0.025 1 -0.15 1 1 1
v -0.025 1 -0.15 1 1 1
v 0.05 0 -0.175 1 1 1
v 0.05 0 -0.225 1 1 1
v 0.025 0 -0.25 1 1 1
v -0.025 0 -0.25 1 1 1
v -0.025 1 -0.25 1 1 1
v 0.025 1 -0.25 1 1 1
v 0.05 1 -0.225 1 1 1
v 0.05 1 -0.175 1 1 1
v -0.05 0.725 -0.2 1 1 1
v -0.05 0.775 -0.2 1 1 1
v -0.05 0.725 0.2 1 1 1
v -0.05 0.775 0.2 1 1 1
v 0.025 0.7 0.2 1 1 1
v 0.025 0.7 -0.2 1 1 1
v -0.025 0.7 0.2 1 1 1
v -0.025 0.7 -0.2 1 1 1
v 0.05 0.725 -0.2 1 1 1
v 0.05 0.725 0.2 1 1 1
v 0.05 0.775 -0.2 1 1 1
v 0.05 0.775 0.2 1 1 1
v -0.025 0.8 -0.2 1 1 1
v 0.025 0.8 -0.2 1 1 1
v -0.025 0.8 0.2 1 1 1
v 0.025 0.8 0.2 1 1 1
v 0.05 0.225 -0.2 1 1 1
v 0.05 0.225 0.2 1 1 1
v 0.05 0.275 -0.2 1 1 1
v 0.05 0.275 0.2 1 1 1
v 0.025 0.2 -0.2 1 1 1
v 0.025 0.2 0.2 1 1 1
v -0.025 0.2 0.2 1 1 1
v -0.05 0.225 0.2 1 1 1
v -0.05 0.275 0.2 1 1 1
v 0.025 0.3 0.2 1 1 1
v -0.025 0.3 0.2 1 1 1
v -0.025 0.2 -0.2 1 1 1
v -0.05 0.275 -0.2 1 1 1
v -0.025 0.3 -0.2 1 1 1
v -0.05 0.225 -0.2 1 1 1
v 0.025 0.3 -0.2 1 1 1
v -0.075 0.675 -0.2353553 1 1 1
v -0.03535534 0.675 -0.275 1 1 1
v -0.075 0.825 -0.2353553 1 1 1
v -0.03535534 0.825 -0.275 1 1 1
v -0.03535534 0.675 -0.125 1 1 1
v -0.075 0.675 -0.1646446 1 1 1
v -0.03535534 0.825 -0.125 1 1 1
v -0.075 0.825 -0.1646446 1 1 1
v 0.03535534 0.675 -0.125 1 1 1
v 0.03535534 0.825 -0.125 1 1 1
v 0.03535534 0.675 -0.275 1 1 1
v 0.03535534 0.825 -0.275 1 1 1
v 0.075 0.675 -0.1646446 1 1 1
v 0.075 0.675 -0.2353553 1 1 1
v 0.075 0.825 -0.2353553 1 1 1
v 0.075 0.825 -0.1646446 1 1 1
v 0.075 0.325 0.1646447 1 1 1
v 0.075 0.175 0.1646447 1 1 1
v 0.075 0.325 0.2353553 1 1 1
v 0.075 0.175 0.2353553 1 1 1
v -0.03535534 0.175 0.125 1 1 1
v 0.03535534 0.175 0.125 1 1 1
v -0.03535534 0.325 0.125 1 1 1
v 0.03535534 0.325 0.125 1 1 1
v -0.075 0.175 0.1646447 1 1 1
v -0.075 0.325 0.1646447 1 1 1
v -0.075 0.175 0.2353553 1 1 1
v -0.075 0.325 0.2353553 1 1 1
v 0.03535534 0.175 0.275 1 1 1
v -0.03535534 0.175 0.275 1 1 1
v -0.03535534 0.325 0.275 1 1 1
v 0.03535534 0.325 0.275 1 1 1
v 0.03535534 0.675 0.125 1 1 1
v 0.075 0.675 0.1646447 1 1 1
v 0.03535534 0.825 0.125 1 1 1
v 0.075 0.825 0.1646447 1 1 1
v 0.075 0.825 0.2353553 1 1 1
v 0.03535534 0.825 0.275 1 1 1
v -0.03535534 0.825 0.125 1 1 1
v -0.03535534 0.825 0.275 1 1 1
v -0.075 0.825 0.1646447 1 1 1
v -0.075 0.825 0.2353553 1 1 1
v 0.075 0.675 0.2353553 1 1 1
v -0.03535534 0.675 0.125 1 1 1
v 0.03535534 0.675 0.275 1 1 1
v -0.03535534 0.675 0.275 1 1 1
v -0.075 0.675 0.1646447 1 1 1
v -0.075 0.675 0.2353553 1 1 1
v 0.075 0.325 -0.2353553 1 1 1
v 0.075 0.325 -0.1646446 1 1 1
v 0.03535534 0.325 -0.275 1 1 1
v 0.03535534 0.325 -0.125 1 1 1
v -0.03535534 0.325 -0.275 1 1 1
v -0.03535534 0.325 -0.125 1 1 1
v -0.075 0.325 -0.2353553 1 1 1
v -0.075 0.325 -0.1646446 1 1 1
v 0.075 0.175 -0.1646446 1 1 1
v 0.075 0.175 -0.2353553 1 1 1
v 0.03535534 0.175 -0.125 1 1 1
v 0.03535534 0.175 -0.275 1 1 1
v -0.03535534 0.175 -0.125 1 1 1
v -0.03535534 0.175 -0.275 1 1 1
v -0.075 0.175 -0.1646446 1 1 1
v -0.075 0.175 -0.2353553 1 1 1

vn -0.9238795 0 -0.3826834
vn -0.9238795 0 0.3826834
vn 0.3826834 0 0.9238795
vn -0.3826834 0 0.9238795
vn 0 -1 0
vn -0.3826834 0 -0.9238795
vn 0.3826834 0 -0.9238795
vn 0.9238795 0 -0.3826834
vn 0.9238795 0 0.3826834
vn 0 1 0
vn -0.9238795 -0.3826834 0
vn -0.9238795 0.3826834 0
vn 0.3826834 -0.9238795 0
vn -0.3826834 -0.9238795 0
vn 0.9238795 -0.3826834 0
vn 0.9238795 0.3826834 0
vn 0 0 -1
vn -0.3826834 0.9238795 0
vn 0.3826834 0.9238795 0
vn 0 0 1

vt 0.46875 0.025
vt 0.46875 0.225
vt 0.59375 0.45
vt 0.59375 0.4666667
vt 0.59375 0.4666666
vt 0.59375 0.4416667
vt 0.59375 0.475
vt 0.59375 0.2833333
vt 0.59375 0.3
vt 0.59375 0.275
vt 0.59375 0.3083333
vt 0.59375 0.4288462
vt 0.59375 0.3211538

usemtl colormap

f 3/1/2 2/2/1 1/1/1
f 2/2/1 3/1/2 4/2/2
f 7/2/3 6/1/4 5/1/3
f 6/1/4 7/2/3 8/2/4
f 5/1/5 10/1/5 9/1/5
f 10/1/5 5/1/5 11/1/5
f 11/1/5 5/1/5 6/1/5
f 11/1/5 6/1/5 12/1/5
f 12/1/5 6/1/5 3/1/5
f 12/1/5 3/1/5 1/1/5
f 13/2/6 11/1/7 12/1/6
f 11/1/7 13/2/6 14/2/7
f 16/2/9 10/1/8 15/2/8
f 10/1/8 16/2/9 9/1/9
f 14/2/10 16/2/10 15/2/10
f 16/2/10 14/2/10 7/2/10
f 7/2/10 14/2/10 13/2/10
f 7/2/10 13/2/10 8/2/10
f 8/2/10 13/2/10 2/2/10
f 8/2/10 2/2/10 4/2/10
f 1/1/1 13/2/6 12/1/6
f 13/2/6 1/1/1 2/2/1
f 6/1/4 4/2/2 3/1/2
f 4/2/2 6/1/4 8/2/4
f 7/2/3 9/1/9 16/2/9
f 9/1/9 7/2/3 5/1/3
f 15/2/8 11/1/7 14/2/7
f 11/1/7 15/2/8 10/1/8
f 19/1/2 18/2/1 17/1/1
f 18/2/1 19/1/2 20/2/2
f 23/2/3 22/1/4 21/1/3
f 22/1/4 23/2/3 24/2/4
f 21/1/5 26/1/5 25/1/5
f 26/1/5 21/1/5 27/1/5
f 27/1/5 21/1/5 22/1/5
f 27/1/5 22/1/5 28/1/5
f 28/1/5 22/1/5 19/1/5
f 28/1/5 19/1/5 17/1/5
f 29/2/6 27/1/7 28/1/6
f 27/1/7 29/2/6 30/2/7
f 32/2/9 26/1/8 31/2/8
f 26/1/8 32/2/9 25/1/9
f 30/2/10 32/2/10 31/2/10
f 32/2/10 30/2/10 23/2/10
f 23/2/10 30/2/10 29/2/10
f 23/2/10 29/2/10 24/2/10
f 24/2/10 29/2/10 18/2/10
f 24/2/10 18/2/10 20/2/10
f 17/1/1 29/2/6 28/1/6
f 29/2/6 17/1/1 18/2/1
f 22/1/4 20/2/2 19/1/2
f 20/2/2 22/1/4 24/2/4
f 23/2/3 25/1/9 32/2/9
f 25/1/9 23/2/3 21/1/3
f 31/2/8 27/1/7 30/2/7
f 27/1/7 31/2/8 26/1/8
f 35/3/11 34/4/12 33/3/11
f 34/4/12 35/3/11 36/5/12
f 39/6/14 38/6/13 37/6/13
f 38/6/13 39/6/14 40/6/14
f 39/6/14 33/3/11 40/6/14
f 33/3/11 39/6/14 35/3/11
f 43/4/16 42/3/15 41/3/15
f 42/3/15 43/4/16 44/5/16
f 41/3/15 37/6/13 38/6/13
f 37/6/13 41/3/15 42/3/15
f 33/3/17 38/6/17 40/6/17
f 38/6/17 33/3/17 41/3/17
f 41/3/17 33/3/17 34/4/17
f 41/3/17 34/4/17 43/4/17
f 43/4/17 34/4/17 45/7/17
f 43/4/17 45/7/17 46/7/17
f 36/5/12 45/7/18 34/4/12
f 45/7/18 36/5/12 47/7/18
f 46/7/19 44/5/16 43/4/16
f 44/5/16 46/7/19 48/7/19
f 45/7/18 48/7/19 46/7/19
f 48/7/19 45/7/18 47/7/18
f 42/3/20 39/6/20 37/6/20
f 39/6/20 42/3/20 35/3/20
f 35/3/20 42/3/20 44/5/20
f 35/3/20 44/5/20 36/5/20
f 36/5/20 44/5/20 48/7/20
f 36/5/20 48/7/20 47/7/20
f 51/9/16 50/8/15 49/8/15
f 50/8/15 51/9/16 52/9/16
f 49/8/15 54/10/13 53/10/13
f 54/10/13 49/8/15 50/8/15
f 50/8/20 55/10/20 54/10/20
f 55/10/20 50/8/20 56/8/20
f 56/8/20 50/8/20 52/9/20
f 56/8/20 52/9/20 57/9/20
f 57/9/20 52/9/20 58/11/20
f 57/9/20 58/11/20 59/11/20
f 55/10/14 53/10/13 54/10/13
f 53/10/13 55/10/14 60/10/14
f 57/9/12 62/11/18 61/9/12
f 62/11/18 57/9/12 59/11/18
f 55/10/14 63/8/11 60/10/14
f 63/8/11 55/10/14 56/8/11
f 64/11/19 52/9/16 51/9/16
f 52/9/16 64/11/19 58/11/19
f 62/11/18 58/11/19 64/11/19
f 58/11/19 62/11/18 59/11/18
f 56/8/11 61/9/12 63/8/11
f 61/9/12 56/8/11 57/9/12
f 63/8/17 53/10/17 60/10/17
f 53/10/17 63/8/17 49/8/17
f 49/8/17 63/8/17 61/9/17
f 49/8/17 61/9/17 51/9/17
f 51/9/17 61/9/17 62/11/17
f 51/9/17 62/11/17 64/11/17
f 67/7/1 66/12/6 65/12/1
f 66/12/6 67/7/1 68/7/6
f 71/7/4 70/12/2 69/12/4
f 70/12/2 71/7/4 72/7/2
f 74/7/3 69/12/4 73/12/3
f 69/12/4 74/7/3 71/7/4
f 68/7/6 75/12/7 66/12/6
f 75/12/7 68/7/6 76/7/7
f 73/12/5 78/12/5 77/12/5
f 78/12/5 73/12/5 75/12/5
f 75/12/5 73/12/5 69/12/5
f 75/12/5 69/12/5 66/12/5
f 66/12/5 69/12/5 70/12/5
f 66/12/5 70/12/5 65/12/5
f 76/7/7 78/12/8 75/12/7
f 78/12/8 76/7/7 79/7/8
f 76/7/10 80/7/10 79/7/10
f 80/7/10 76/7/10 74/7/10
f 74/7/10 76/7/10 68/7/10
f 74/7/10 68/7/10 71/7/10
f 71/7/10 68/7/10 67/7/10
f 71/7/10 67/7/10 72/7/10
f 80/7/9 78/12/8 79/7/8
f 78/12/8 80/7/9 77/12/9
f 80/7/9 73/12/3 77/12/9
f 73/12/3 80/7/9 74/7/3
f 70/12/2 67/7/1 65/12/1
f 67/7/1 70/12/2 72/7/2
f 83/13/9 82/10/8 81/13/8
f 82/10/8 83/13/9 84/10/9
f 87/13/6 86/10/7 85/10/6
f 86/10/7 87/13/6 88/13/7
f 91/10/2 90/13/1 89/10/1
f 90/13/1 91/10/2 92/13/2
f 93/10/5 82/10/5 84/10/5
f 82/10/5 93/10/5 86/10/5
f 86/10/5 93/10/5 94/10/5
f 86/10/5 94/10/5 85/10/5
f 85/10/5 94/10/5 91/10/5
f 85/10/5 91/10/5 89/10/5
f 90/13/1 85/10/6 89/10/1
f 85/10/6 90/13/1 87/13/6
f 95/13/4 91/10/2 94/10/4
f 91/10/2 95/13/4 92/13/2
f 96/13/3 94/10/4 93/10/3
f 94/10/4 96/13/3 95/13/4
f 83/13/9 93/10/3 84/10/9
f 93/10/3 83/13/9 96/13/3
f 88/13/7 82/10/8 86/10/7
f 82/10/8 88/13/7 81/13/8
f 88/13/10 83/13/10 81/13/10
f 83/13/10 88/13/10 96/13/10
f 96/13/10 88/13/10 87/13/10
f 96/13/10 87/13/10 95/13/10
f 95/13/10 87/13/10 90/13/10
f 95/13/10 90/13/10 92/13/10
f 99/7/7 98/12/8 97/12/7
f 98/12/8 99/7/7 100/7/8
f 99/7/10 101/7/10 100/7/10
f 101/7/10 99/7/10 102/7/10
f 102/7/10 99/7/10 103/7/10
f 102/7/10 103/7/10 104/7/10
f 104/7/10 103/7/10 105/7/10
f 104/7/10 105/7/10 106/7/10
f 101/7/9 98/12/8 100/7/8
f 98/12/8 101/7/9 107/12/9
f 103/7/6 97/12/7 108/12/6
f 97/12/7 103/7/6 99/7/7
f 102/7/3 110/12/4 109/12/3
f 110/12/4 102/7/3 104/7/4
f 105/7/1 108/12/6 111/12/1
f 108/12/6 105/7/1 103/7/6
f 112/12/2 105/7/1 111/12/1
f 105/7/1 112/12/2 106/7/2
f 109/12/5 98/12/5 107/12/5
f 98/12/5 109/12/5 97/12/5
f 97/12/5 109/12/5 110/12/5
f 97/12/5 110/12/5 108/12/5
f 108/12/5 110/12/5 112/12/5
f 108/12/5 112/12/5 111/12/5
f 101/7/9 109/12/3 107/12/9
f 109/12/3 101/7/9 102/7/3
f 104/7/4 112/12/2 110/12/4
f 112/12/2 104/7/4 106/7/2
f 115/13/10 114/13/10 113/13/10
f 114/13/10 115/13/10 116/13/10
f 116/13/10 115/13/10 117/13/10
f 116/13/10 117/13/10 118/13/10
f 118/13/10 117/13/10 119/13/10
f 118/13/10 119/13/10 120/13/10
f 123/10/5 122/10/5 121/10/5
f 122/10/5 123/10/5 124/10/5
f 124/10/5 123/10/5 125/10/5
f 124/10/5 125/10/5 126/10/5
f 126/10/5 125/10/5 127/10/5
f 126/10/5 127/10/5 128/10/5
f 118/13/4 127/10/2 125/10/4
f 127/10/2 118/13/4 120/13/2
f 117/13/6 124/10/7 126/10/6
f 124/10/7 117/13/6 115/13/7
f 114/13/9 123/10/3 121/10/9
f 123/10/3 114/13/9 116/13/3
f 114/13/9 122/10/8 113/13/8
f 122/10/8 114/13/9 121/10/9
f 116/13/3 125/10/4 123/10/3
f 125/10/4 116/13/3 118/13/4
f 115/13/7 122/10/8 124/10/7
f 122/10/8 115/13/7 113/13/8
f 127/10/2 119/13/1 128/10/1
f 119/13/1 127/10/2 120/13/2
f 119/13/1 126/10/6 128/10/1
f 126/10/6 119/13/1 117/13/6

g ladder-color




usemtl colormap

f 3/1/2 2/2/1 1/1/1
f 2/2/1 3/1/2 4/2/2
f 7/2/3 6/1/4 5/1/3
f 6/1/4 7/2/3 8/2/4
f 5/1/5 10/1/5 9/1/5
f 10/1/5 5/1/5 11/1/5
f 11/1/5 5/1/5 6/1/5
f 11/1/5 6/1/5 12/1/5
f 12/1/5 6/1/5 3/1/5
f 12/1/5 3/1/5 1/1/5
f 13/2/6 11/1/7 12/1/6
f 11/1/7 13/2/6 14/2/7
f 16/2/9 10/1/8 15/2/8
f 10/1/8 16/2/9 9/1/9
f 14/2/10 16/2/10 15/2/10
f 16/2/10 14/2/10 7/2/10
f 7/2/10 14/2/10 13/2/10
f 7/2/10 13/2/10 8/2/10
f 8/2/10 13/2/10 2/2/10
f 8/2/10 2/2/10 4/2/10
f 1/1/1 13/2/6 12/1/6
f 13/2/6 1/1/1 2/2/1
f 6/1/4 4/2/2 3/1/2
f 4/2/2 6/1/4 8/2/4
f 7/2/3 9/1/9 16/2/9
f 9/1/9 7/2/3 5/1/3
f 15/2/8 11/1/7 14/2/7
f 11/1/7 15/2/8 10/1/8
f 19/1/2 18/2/1 17/1/1
f 18/2/1 19/1/2 20/2/2
f 23/2/3 22/1/4 21/1/3
f 22/1/4 23/2/3 24/2/4
f 21/1/5 26/1/5 25/1/5
f 26/1/5 21/1/5 27/1/5
f 27/1/5 21/1/5 22/1/5
f 27/1/5 22/1/5 28/1/5
f 28/1/5 22/1/5 19/1/5
f 28/1/5 19/1/5 17/1/5
f 29/2/6 27/1/7 28/1/6
f 27/1/7 29/2/6 30/2/7
f 32/2/9 26/1/8 31/2/8
f 26/1/8 32/2/9 25/1/9
f 30/2/10 32/2/10 31/2/10
f 32/2/10 30/2/10 23/2/10
f 23/2/10 30/2/10 29/2/10
f 23/2/10 29/2/10 24/2/10
f 24/2/10 29/2/10 18/2/10
f 24/2/10 18/2/10 20/2/10
f 17/1/1 29/2/6 28/1/6
f 29/2/6 17/1/1 18/2/1
f 22/1/4 20/2/2 19/1/2
f 20/2/2 22/1/4 24/2/4
f 23/2/3 25/1/9 32/2/9
f 25/1/9 23/2/3 21/1/3
f 31/2/8 27/1/7 30/2/7
f 27/1/7 31/2/8 26/1/8
f 35/3/11 34/4/12 33/3/11
f 34/4/12 35/3/11 36/5/12
f 39/6/14 38/6/13 37/6/13
f 38/6/13 39/6/14 40/6/14
f 39/6/14 33/3/11 40/6/14
f 33/3/11 39/6/14 35/3/11
f 43/4/16 42/3/15 41/3/15
f 42/3/15 43/4/16 44/5/16
f 41/3/15 37/6/13 38/6/13
f 37/6/13 41/3/15 42/3/15
f 33/3/17 38/6/17 40/6/17
f 38/6/17 33/3/17 41/3/17
f 41/3/17 33/3/17 34/4/17
f 41/3/17 34/4/17 43/4/17
f 43/4/17 34/4/17 45/7/17
f 43/4/17 45/7/17 46/7/17
f 36/5/12 45/7/18 34/4/12
f 45/7/18 36/5/12 47/7/18
f 46/7/19 44/5/16 43/4/16
f 44/5/16 46/7/19 48/7/19
f 45/7/18 48/7/19 46/7/19
f 48/7/19 45/7/18 47/7/18
f 42/3/20 39/6/20 37/6/20
f 39/6/20 42/3/20 35/3/20
f 35/3/20 42/3/20 44/5/20
f 35/3/20 44/5/20 36/5/20
f 36/5/20 44/5/20 48/7/20
f 36/5/20 48/7/20 47/7/20
f 51/9/16 50/8/15 49/8/15
f 50/8/15 51/9/16 52/9/16
f 49/8/15 54/10/13 53/10/13
f 54/10/13 49/8/15 50/8/15
f 50/8/20 55/10/20 54/10/20
f 55/10/20 50/8/20 56/8/20
f 56/8/20 50/8/20 52/9/20
f 56/8/20 52/9/20 57/9/20
f 57/9/20 52/9/20 58/11/20
f 57/9/20 58/11/20 59/11/20
f 55/10/14 53/10/13 54/10/13
f 53/10/13 55/10/14 60/10/14
f 57/9/12 62/11/18 61/9/12
f 62/11/18 57/9/12 59/11/18
f 55/10/14 63/8/11 60/10/14
f 63/8/11 55/10/14 56/8/11
f 64/11/19 52/9/16 51/9/16
f 52/9/16 64/11/19 58/11/19
f 62/11/18 58/11/19 64/11/19
f 58/11/19 62/11/18 59/11/18
f 56/8/11 61/9/12 63/8/11
f 61/9/12 56/8/11 57/9/12
f 63/8/17 53/10/17 60/10/17
f 53/10/17 63/8/17 49/8/17
f 49/8/17 63/8/17 61/9/17
f 49/8/17 61/9/17 51/9/17
f 51/9/17 61/9/17 62/11/17
f 51/9/17 62/11/17 64/11/17
f 67/7/1 66/12/6 65/12/1
f 66/12/6 67/7/1 68/7/6
f 71/7/4 70/12/2 69/12/4
f 70/12/2 71/7/4 72/7/2
f 74/7/3 69/12/4 73/12/3
f 69/12/4 74/7/3 71/7/4
f 68/7/6 75/12/7 66/12/6
f 75/12/7 68/7/6 76/7/7
f 73/12/5 78/12/5 77/12/5
f 78/12/5 73/12/5 75/12/5
f 75/12/5 73/12/5 69/12/5
f 75/12/5 69/12/5 66/12/5
f 66/12/5 69/12/5 70/12/5
f 66/12/5 70/12/5 65/12/5
f 76/7/7 78/12/8 75/12/7
f 78/12/8 76/7/7 79/7/8
f 76/7/10 80/7/10 79/7/10
f 80/7/10 76/7/10 74/7/10
f 74/7/10 76/7/10 68/7/10
f 74/7/10 68/7/10 71/7/10
f 71/7/10 68/7/10 67/7/10
f 71/7/10 67/7/10 72/7/10
f 80/7/9 78/12/8 79/7/8
f 78/12/8 80/7/9 77/12/9
f 80/7/9 73/12/3 77/12/9
f 73/12/3 80/7/9 74/7/3
f 70/12/2 67/7/1 65/12/1
f 67/7/1 70/12/2 72/7/2
f 83/13/9 82/10/8 81/13/8
f 82/10/8 83/13/9 84/10/9
f 87/13/6 86/10/7 85/10/6
f 86/10/7 87/13/6 88/13/7
f 91/10/2 90/13/1 89/10/1
f 90/13/1 91/10/2 92/13/2
f 93/10/5 82/10/5 84/10/5
f 82/10/5 93/10/5 86/10/5
f 86/10/5 93/10/5 94/10/5
f 86/10/5 94/10/5 85/10/5
f 85/10/5 94/10/5 91/10/5
f 85/10/5 91/10/5 89/10/5
f 90/13/1 85/10/6 89/10/1
f 85/10/6 90/13/1 87/13/6
f 95/13/4 91/10/2 94/10/4
f 91/10/2 95/13/4 92/13/2
f 96/13/3 94/10/4 93/10/3
f 94/10/4 96/13/3 95/13/4
f 83/13/9 93/10/3 84/10/9
f 93/10/3 83/13/9 96/13/3
f 88/13/7 82/10/8 86/10/7
f 82/10/8 88/13/7 81/13/8
f 88/13/10 83/13/10 81/13/10
f 83/13/10 88/13/10 96/13/10
f 96/13/10 88/13/10 87/13/10
f 96/13/10 87/13/10 95/13/10
f 95/13/10 87/13/10 90/13/10
f 95/13/10 90/13/10 92/13/10
f 99/7/7 98/12/8 97/12/7
f 98/12/8 99/7/7 100/7/8
f 99/7/10 101/7/10 100/7/10
f 101/7/10 99/7/10 102/7/10
f 102/7/10 99/7/10 103/7/10
f 102/7/10 103/7/10 104/7/10
f 104/7/10 103/7/10 105/7/10
f 104/7/10 105/7/10 106/7/10
f 101/7/9 98/12/8 100/7/8
f 98/12/8 101/7/9 107/12/9
f 103/7/6 97/12/7 108/12/6
f 97/12/7 103/7/6 99/7/7
f 102/7/3 110/12/4 109/12/3
f 110/12/4 102/7/3 104/7/4
f 105/7/1 108/12/6 111/12/1
f 108/12/6 105/7/1 103/7/6
f 112/12/2 105/7/1 111/12/1
f 105/7/1 112/12/2 106/7/2
f 109/12/5 98/12/5 107/12/5
f 98/12/5 109/12/5 97/12/5
f 97/12/5 109/12/5 110/12/5
f 97/12/5 110/12/5 108/12/5
f 108/12/5 110/12/5 112/12/5
f 108/12/5 112/12/5 111/12/5
f 101/7/9 109/12/3 107/12/9
f 109/12/3 101/7/9 102/7/3
f 104/7/4 112/12/2 110/12/4
f 112/12/2 104/7/4 106/7/2
f 115/13/10 114/13/10 113/13/10
f 114/13/10 115/13/10 116/13/10
f 116/13/10 115/13/10 117/13/10
f 116/13/10 117/13/10 118/13/10
f 118/13/10 117/13/10 119/13/10
f 118/13/10 119/13/10 120/13/10
f 123/10/5 122/10/5 121/10/5
f 122/10/5 123/10/5 124/10/5
f 124/10/5 123/10/5 125/10/5
f 124/10/5 125/10/5 126/10/5
f 126/10/5 125/10/5 127/10/5
f 126/10/5 127/10/5 128/10/5
f 118/13/4 127/10/2 125/10/4
f 127/10/2 118/13/4 120/13/2
f 117/13/6 124/10/7 126/10/6
f 124/10/7 117/13/6 115/13/7
f 114/13/9 123/10/3 121/10/9
f 123/10/3 114/13/9 116/13/3
f 114/13/9 122/10/8 113/13/8
f 122/10/8 114/13/9 121/10/9
f 116/13/3 125/10/4 123/10/3
f 125/10/4 116/13/3 118/13/4
f 115/13/7 122/10/8 124/10/7
f 122/10/8 115/13/7 113/13/8
f 127/10/2 119/13/1 128/10/1
f 119/13/1 127/10/2 120/13/2
f 119/13/1 126/10/6 128/10/1
f 126/10/6 119/13/1 117/13/6

