# Created by Kenney (www.kenney.nl)

mtllib number-double-4.mtl

g number-double-4

v 0.1 0.3 -0.05 1 1 1
v 0 0.3 -0.05 1 1 1
v 0.1 0.5 -0.05 1 1 1
v 0 0.5 -0.05 1 1 1
v 0.1 0 0.15 1 1 1
v 0.1 0 0.05 1 1 1
v 0 0 0.15 1 1 1
v 0 0 0.05 1 1 1
v 0.1 0.5 0.05 1 1 1
v 0.1 0.3 0.05 1 1 1
v 0.1 0.5 0.15 1 1 1
v 0.1 0.2 0.05 1 1 1
v 0.1 0.2 -0.15 1 1 1
v 0.1 0.5 -0.15 1 1 1
v 0 0.2 0.05 1 1 1
v 0 0.2 -0.15 1 1 1
v 0 0.5 -0.15 1 1 1
v 0 0.5 0.05 1 1 1
v 0 0.5 0.15 1 1 1
v 0 0.3 0.05 1 1 1
v -0.1 0 0.05 1 1 1
v -0.1 0.2 0.05 1 1 1
v -0.1 0 0.15 1 1 1
v -0.1 0.3 0.05 1 1 1
v -0.1 0.5 0.05 1 1 1
v -0.1 0.5 0.15 1 1 1
v -0.1 0.3 -0.05 1 1 1
v -0.1 0.2 -0.15 1 1 1
v -0.1 0.5 -0.15 1 1 1
v -0.1 0.5 -0.05 1 1 1

vn 0 0 1
vn 0 -1 0
vn 1 0 0
vn 0 1 0
vn 0 0 -1
vn -1 0 0

vt 0.21875 0.145
vt 0.21875 0.225
vt 0.21875 0.025
vt 0.21875 0.105
vt 0.34375 0.275
vt 0.34375 0.355
vt 0.34375 0.395
vt 0.34375 0.475

usemtl colormap

f 3/2/1 2/1/1 1/1/1
f 2/1/1 3/2/1 4/2/1
f 7/3/2 6/3/2 5/3/2
f 6/3/2 7/3/2 8/3/2
f 11/2/3 10/1/3 9/2/3
f 10/1/3 11/2/3 12/4/3
f 12/4/3 1/1/3 10/1/3
f 12/4/3 11/2/3 6/3/3
f 6/3/3 11/2/3 5/3/3
f 13/4/3 1/1/3 12/4/3
f 13/4/3 3/2/3 1/1/3
f 3/2/3 13/4/3 14/2/3
f 15/4/2 13/4/2 12/4/2
f 13/4/2 15/4/2 16/4/2
f 17/2/4 3/2/4 14/2/4
f 3/2/4 17/2/4 4/2/4
f 17/2/5 13/4/5 16/4/5
f 13/4/5 17/2/5 14/2/5
f 15/4/5 6/3/5 8/3/5
f 6/3/5 15/4/5 12/4/5
f 18/2/4 11/2/4 9/2/4
f 11/2/4 18/2/4 19/2/4
f 18/2/5 10/1/5 20/1/5
f 10/1/5 18/2/5 9/2/5
f 11/2/1 7/3/1 5/3/1
f 7/3/1 11/2/1 19/2/1
f 2/1/4 10/1/4 1/1/4
f 10/1/4 2/1/4 20/1/4
f 23/5/6 22/6/6 21/5/6
f 22/6/6 23/5/6 24/7/6
f 24/7/6 23/5/6 25/8/6
f 25/8/6 23/5/6 26/8/6
f 27/7/6 22/6/6 24/7/6
f 27/7/6 28/6/6 22/6/6
f 28/6/6 27/7/6 29/8/6
f 30/8/6 29/8/6 27/7/6
f 22/6/2 16/6/2 15/6/2
f 16/6/2 22/6/2 28/6/2
f 29/8/4 4/8/4 17/8/4
f 4/8/4 29/8/4 30/8/4
f 4/8/1 27/7/1 2/7/1
f 27/7/1 4/8/1 30/8/1
f 29/8/5 16/6/5 28/6/5
f 16/6/5 29/8/5 17/8/5
f 25/8/4 19/8/4 18/8/4
f 19/8/4 25/8/4 26/8/4
f 25/8/5 20/7/5 24/7/5
f 20/7/5 25/8/5 18/8/5
f 22/6/5 8/5/5 21/5/5
f 8/5/5 22/6/5 15/6/5
f 19/8/1 23/5/1 7/5/1
f 23/5/1 19/8/1 26/8/1
f 27/7/4 20/7/4 2/7/4
f 20/7/4 27/7/4 24/7/4
f 23/5/2 8/5/2 7/5/2
f 8/5/2 23/5/2 21/5/2

g number-double-4




usemtl colormap

f 3/2/1 2/1/1 1/1/1
f 2/1/1 3/2/1 4/2/1
f 7/3/2 6/3/2 5/3/2
f 6/3/2 7/3/2 8/3/2
f 11/2/3 10/1/3 9/2/3
f 10/1/3 11/2/3 12/4/3
f 12/4/3 1/1/3 10/1/3
f 12/4/3 11/2/3 6/3/3
f 6/3/3 11/2/3 5/3/3
f 13/4/3 1/1/3 12/4/3
f 13/4/3 3/2/3 1/1/3
f 3/2/3 13/4/3 14/2/3
f 15/4/2 13/4/2 12/4/2
f 13/4/2 15/4/2 16/4/2
f 17/2/4 3/2/4 14/2/4
f 3/2/4 17/2/4 4/2/4
f 17/2/5 13/4/5 16/4/5
f 13/4/5 17/2/5 14/2/5
f 15/4/5 6/3/5 8/3/5
f 6/3/5 15/4/5 12/4/5
f 18/2/4 11/2/4 9/2/4
f 11/2/4 18/2/4 19/2/4
f 18/2/5 10/1/5 20/1/5
f 10/1/5 18/2/5 9/2/5
f 11/2/1 7/3/1 5/3/1
f 7/3/1 11/2/1 19/2/1
f 2/1/4 10/1/4 1/1/4
f 10/1/4 2/1/4 20/1/4
f 23/5/6 22/6/6 21/5/6
f 22/6/6 23/5/6 24/7/6
f 24/7/6 23/5/6 25/8/6
f 25/8/6 23/5/6 26/8/6
f 27/7/6 22/6/6 24/7/6
f 27/7/6 28/6/6 22/6/6
f 28/6/6 27/7/6 29/8/6
f 30/8/6 29/8/6 27/7/6
f 22/6/2 16/6/2 15/6/2
f 16/6/2 22/6/2 28/6/2
f 29/8/4 4/8/4 17/8/4
f 4/8/4 29/8/4 30/8/4
f 4/8/1 27/7/1 2/7/1
f 27/7/1 4/8/1 30/8/1
f 29/8/5 16/6/5 28/6/5
f 16/6/5 29/8/5 17/8/5
f 25/8/4 19/8/4 18/8/4
f 19/8/4 25/8/4 26/8/4
f 25/8/5 20/7/5 24/7/5
f 20/7/5 25/8/5 18/8/5
f 22/6/5 8/5/5 21/5/5
f 8/5/5 22/6/5 15/6/5
f 19/8/1 23/5/1 7/5/1
f 23/5/1 19/8/1 26/8/1
f 27/7/4 20/7/4 2/7/4
f 20/7/4 27/7/4 24/7/4
f 23/5/2 8/5/2 7/5/2
f 8/5/2 23/5/2 21/5/2

