# Created by Kenney (www.kenney.nl)

mtllib number-4.mtl

g number-4

v 0.1 0.5 -0.15 1 1 1
v 0.1 0.5 -0.05 1 1 1
v -0.1 0.5 -0.15 1 1 1
v -0.1 0.5 -0.05 1 1 1
v 0.1 0.3 -0.05 1 1 1
v -0.1 0.3 -0.05 1 1 1
v -0.1 0.2 -0.15 1 1 1
v 0.1 0.2 -0.15 1 1 1
v 0.1 0 0.15 1 1 1
v 0.1 0 0.05 1 1 1
v -0.1 0 0.15 1 1 1
v -0.1 0 0.05 1 1 1
v 0.1 0.2 0.05 1 1 1
v -0.1 0.2 0.05 1 1 1
v 0.1 0.5 0.05 1 1 1
v 0.1 0.5 0.15 1 1 1
v -0.1 0.5 0.05 1 1 1
v -0.1 0.5 0.15 1 1 1
v -0.1 0.3 0.05 1 1 1
v 0.1 0.3 0.05 1 1 1

vn 0 1 0
vn 0 0 1
vn 0 0 -1
vn 0 -1 0
vn 1 0 0
vn -1 0 0

vt 0.21875 0.225
vt 0.21875 0.145
vt 0.21875 0.105
vt 0.21875 0.025
vt 0.34375 0.475
vt 0.34375 0.395
vt 0.34375 0.355
vt 0.34375 0.275

usemtl colormap

f 3/1/1 2/1/1 1/1/1
f 2/1/1 3/1/1 4/1/1
f 2/1/2 6/2/2 5/2/2
f 6/2/2 2/1/2 4/1/2
f 3/1/3 8/3/3 7/3/3
f 8/3/3 3/1/3 1/1/3
f 11/4/4 10/4/4 9/4/4
f 10/4/4 11/4/4 12/4/4
f 14/3/4 8/3/4 13/3/4
f 8/3/4 14/3/4 7/3/4
f 14/3/3 10/4/3 12/4/3
f 10/4/3 14/3/3 13/3/3
f 17/1/1 16/1/1 15/1/1
f 16/1/1 17/1/1 18/1/1
f 17/1/3 20/2/3 19/2/3
f 20/2/3 17/1/3 15/1/3
f 16/1/2 11/4/2 9/4/2
f 11/4/2 16/1/2 18/1/2
f 6/2/1 20/2/1 5/2/1
f 20/2/1 6/2/1 19/2/1
f 16/5/5 20/6/5 15/5/5
f 20/6/5 16/5/5 13/7/5
f 13/7/5 5/6/5 20/6/5
f 13/7/5 16/5/5 10/8/5
f 10/8/5 16/5/5 9/8/5
f 8/7/5 5/6/5 13/7/5
f 8/7/5 2/5/5 5/6/5
f 2/5/5 8/7/5 1/5/5
f 11/8/6 14/7/6 12/8/6
f 14/7/6 11/8/6 19/6/6
f 19/6/6 11/8/6 17/5/6
f 17/5/6 11/8/6 18/5/6
f 6/6/6 14/7/6 19/6/6
f 6/6/6 7/7/6 14/7/6
f 7/7/6 6/6/6 3/5/6
f 4/5/6 3/5/6 6/6/6

g number-4




usemtl colormap

f 3/1/1 2/1/1 1/1/1
f 2/1/1 3/1/1 4/1/1
f 2/1/2 6/2/2 5/2/2
f 6/2/2 2/1/2 4/1/2
f 3/1/3 8/3/3 7/3/3
f 8/3/3 3/1/3 1/1/3
f 11/4/4 10/4/4 9/4/4
f 10/4/4 11/4/4 12/4/4
f 14/3/4 8/3/4 13/3/4
f 8/3/4 14/3/4 7/3/4
f 14/3/3 10/4/3 12/4/3
f 10/4/3 14/3/3 13/3/3
f 17/1/1 16/1/1 15/1/1
f 16/1/1 17/1/1 18/1/1
f 17/1/3 20/2/3 19/2/3
f 20/2/3 17/1/3 15/1/3
f 16/1/2 11/4/2 9/4/2
f 11/4/2 16/1/2 18/1/2
f 6/2/1 20/2/1 5/2/1
f 20/2/1 6/2/1 19/2/1
f 16/5/5 20/6/5 15/5/5
f 20/6/5 16/5/5 13/7/5
f 13/7/5 5/6/5 20/6/5
f 13/7/5 16/5/5 10/8/5
f 10/8/5 16/5/5 9/8/5
f 8/7/5 5/6/5 13/7/5
f 8/7/5 2/5/5 5/6/5
f 2/5/5 8/7/5 1/5/5
f 11/8/6 14/7/6 12/8/6
f 14/7/6 11/8/6 19/6/6
f 19/6/6 11/8/6 17/5/6
f 17/5/6 11/8/6 18/5/6
f 6/6/6 14/7/6 19/6/6
f 6/6/6 7/7/6 14/7/6
f 7/7/6 6/6/6 3/5/6
f 4/5/6 3/5/6 6/6/6

