# Created by Kenney (www.kenney.nl)

mtllib number-8.mtl

g number-8

v -0.1 0.05 -0.15 1 1 1
v 0.1 0.05 -0.15 1 1 1
v -0.1 0.45 -0.15 1 1 1
v 0.1 0.45 -0.15 1 1 1
v 0.1 0.5 -0.1 1 1 1
v 0.1 0.5 0.1 1 1 1
v -0.1 0.5 -0.1 1 1 1
v -0.1 0.5 0.1 1 1 1
v 0.1 0.4 0.05 1 1 1
v 0.1 0.4 -0.05 1 1 1
v -0.1 0.4 0.05 1 1 1
v -0.1 0.4 -0.05 1 1 1
v 0.1 0.0125 0.1375 1 1 1
v -0.1 0.0125 0.1375 1 1 1
v 0.1 0.05 0.15 1 1 1
v -0.1 0.05 0.15 1 1 1
v 0.1 0 0.1 1 1 1
v -0.1 0 0.1 1 1 1
v 0.1 1.003908E-15 -0.1 1 1 1
v 0.1 0.0125 -0.1375 1 1 1
v -0.1 1.003908E-15 -0.1 1 1 1
v -0.1 0.0125 -0.1375 1 1 1
v 0.1 0.2 0.05 1 1 1
v 0.1 0.2 -0.05 1 1 1
v -0.1 0.2 0.05 1 1 1
v -0.1 0.2 -0.05 1 1 1
v 0.1 0.1 -0.05 1 1 1
v -0.1 0.1 -0.05 1 1 1
v 0.1 0.1 0.05 1 1 1
v -0.1 0.1 0.05 1 1 1
v 0.1 0.3 -0.05 1 1 1
v -0.1 0.3 -0.05 1 1 1
v -0.1 0.4875 -0.1375 1 1 1
v 0.1 0.4875 -0.1375 1 1 1
v -0.1 0.3 0.05 1 1 1
v 0.1 0.3 0.05 1 1 1
v 0.1 0.45 0.15 1 1 1
v -0.1 0.45 0.15 1 1 1
v 0.1 0.4875 0.1375 1 1 1
v -0.1 0.4875 0.1375 1 1 1

vn 0 -0.1601822 -0.9870875
vn 0 0.1601822 -0.9870875
vn 0 0.9870875 -0.1601822
vn 0 0.9870875 0.1601822
vn 0 -1 0
vn 0 -0.7071068 0.7071068
vn 0 -0.1601822 0.9870875
vn 0 -0.9870875 0.1601822
vn 0 -0.9870875 -0.1601822
vn 0 -0.7071068 -0.7071068
vn 0 0 1
vn 0 1 0
vn 0 0.7071068 -0.7071068
vn 0 0 -1
vn 0 0.1601822 0.9870875
vn 0 0.7071068 0.7071068
vn 1 0 0
vn -1 0 0

vt 0.21875 0.045
vt 0.21875 0.205
vt 0.21875 0.225
vt 0.21875 0.185
vt 0.21875 0.03
vt 0.21875 0.025
vt 0.21875 0.105
vt 0.21875 0.065
vt 0.21875 0.145
vt 0.21875 0.22
vt 0.34375 0.295
vt 0.34375 0.28
vt 0.34375 0.455
vt 0.34375 0.47
vt 0.34375 0.275
vt 0.34375 0.475
vt 0.34375 0.315
vt 0.34375 0.435
vt 0.34375 0.395
vt 0.34375 0.355

usemtl colormap

f 3/2/2 2/1/1 1/1/1
f 2/1/1 3/2/2 4/2/2
f 7/3/3 6/3/4 5/3/3
f 6/3/4 7/3/3 8/3/4
f 11/4/5 10/4/5 9/4/5
f 10/4/5 11/4/5 12/4/5
f 15/1/7 14/5/6 13/5/6
f 14/5/6 15/1/7 16/1/7
f 14/5/6 17/6/8 13/5/6
f 17/6/8 14/5/6 18/6/8
f 21/6/9 20/5/10 19/6/9
f 20/5/10 21/6/9 22/5/10
f 18/6/8 19/6/9 17/6/8
f 19/6/9 18/6/8 21/6/9
f 1/1/1 20/5/10 22/5/10
f 20/5/10 1/1/1 2/1/1
f 25/7/5 24/7/5 23/7/5
f 24/7/5 25/7/5 26/7/5
f 24/7/11 28/8/11 27/8/11
f 28/8/11 24/7/11 26/7/11
f 28/8/12 29/8/12 27/8/12
f 29/8/12 28/8/12 30/8/12
f 10/4/11 32/9/11 31/9/11
f 32/9/11 10/4/11 12/4/11
f 33/10/13 4/2/2 3/2/2
f 4/2/2 33/10/13 34/10/13
f 33/10/13 5/3/3 34/10/13
f 5/3/3 33/10/13 7/3/3
f 25/7/14 29/8/14 30/8/14
f 29/8/14 25/7/14 23/7/14
f 11/4/14 36/9/14 35/9/14
f 36/9/14 11/4/14 9/4/14
f 32/9/12 36/9/12 31/9/12
f 36/9/12 32/9/12 35/9/12
f 39/10/16 38/2/15 37/2/15
f 38/2/15 39/10/16 40/10/16
f 37/2/15 16/1/7 15/1/7
f 16/1/7 37/2/15 38/2/15
f 8/3/4 39/10/16 6/3/4
f 39/10/16 8/3/4 40/10/16
f 4/13/17 20/12/17 2/11/17
f 20/12/17 4/13/17 34/14/17
f 20/12/17 34/14/17 19/15/17
f 19/15/17 34/14/17 5/16/17
f 19/15/17 5/16/17 27/17/17
f 19/15/17 27/17/17 17/15/17
f 27/17/17 5/16/17 10/18/17
f 6/16/17 10/18/17 5/16/17
f 10/18/17 6/16/17 9/18/17
f 27/17/17 10/18/17 31/19/17
f 9/18/17 6/16/17 36/19/17
f 27/17/17 31/19/17 24/20/17
f 36/19/17 24/20/17 31/19/17
f 24/20/17 36/19/17 23/20/17
f 36/19/17 6/16/17 23/20/17
f 23/20/17 6/16/17 29/17/17
f 17/15/17 27/17/17 29/17/17
f 17/15/17 29/17/17 6/16/17
f 17/15/17 6/16/17 39/14/17
f 17/15/17 39/14/17 13/12/17
f 13/12/17 39/14/17 37/13/17
f 13/12/17 37/13/17 15/11/17
f 22/12/18 3/13/18 1/11/18
f 3/13/18 22/12/18 33/14/18
f 33/14/18 22/12/18 21/15/18
f 33/14/18 21/15/18 7/16/18
f 7/16/18 21/15/18 28/17/18
f 28/17/18 21/15/18 18/15/18
f 12/18/18 7/16/18 28/17/18
f 7/16/18 12/18/18 8/16/18
f 28/17/18 18/15/18 30/17/18
f 26/20/18 12/18/18 28/17/18
f 30/17/18 18/15/18 25/20/18
f 26/20/18 32/19/18 12/18/18
f 32/19/18 26/20/18 25/20/18
f 32/19/18 25/20/18 35/19/18
f 25/20/18 18/15/18 35/19/18
f 35/19/18 18/15/18 11/18/18
f 8/16/18 12/18/18 11/18/18
f 8/16/18 11/18/18 18/15/18
f 8/16/18 18/15/18 14/12/18
f 8/16/18 14/12/18 40/14/18
f 40/14/18 14/12/18 16/11/18
f 40/14/18 16/11/18 38/13/18

g number-8




usemtl colormap

f 3/2/2 2/1/1 1/1/1
f 2/1/1 3/2/2 4/2/2
f 7/3/3 6/3/4 5/3/3
f 6/3/4 7/3/3 8/3/4
f 11/4/5 10/4/5 9/4/5
f 10/4/5 11/4/5 12/4/5
f 15/1/7 14/5/6 13/5/6
f 14/5/6 15/1/7 16/1/7
f 14/5/6 17/6/8 13/5/6
f 17/6/8 14/5/6 18/6/8
f 21/6/9 20/5/10 19/6/9
f 20/5/10 21/6/9 22/5/10
f 18/6/8 19/6/9 17/6/8
f 19/6/9 18/6/8 21/6/9
f 1/1/1 20/5/10 22/5/10
f 20/5/10 1/1/1 2/1/1
f 25/7/5 24/7/5 23/7/5
f 24/7/5 25/7/5 26/7/5
f 24/7/11 28/8/11 27/8/11
f 28/8/11 24/7/11 26/7/11
f 28/8/12 29/8/12 27/8/12
f 29/8/12 28/8/12 30/8/12
f 10/4/11 32/9/11 31/9/11
f 32/9/11 10/4/11 12/4/11
f 33/10/13 4/2/2 3/2/2
f 4/2/2 33/10/13 34/10/13
f 33/10/13 5/3/3 34/10/13
f 5/3/3 33/10/13 7/3/3
f 25/7/14 29/8/14 30/8/14
f 29/8/14 25/7/14 23/7/14
f 11/4/14 36/9/14 35/9/14
f 36/9/14 11/4/14 9/4/14
f 32/9/12 36/9/12 31/9/12
f 36/9/12 32/9/12 35/9/12
f 39/10/16 38/2/15 37/2/15
f 38/2/15 39/10/16 40/10/16
f 37/2/15 16/1/7 15/1/7
f 16/1/7 37/2/15 38/2/15
f 8/3/4 39/10/16 6/3/4
f 39/10/16 8/3/4 40/10/16
f 4/13/17 20/12/17 2/11/17
f 20/12/17 4/13/17 34/14/17
f 20/12/17 34/14/17 19/15/17
f 19/15/17 34/14/17 5/16/17
f 19/15/17 5/16/17 27/17/17
f 19/15/17 27/17/17 17/15/17
f 27/17/17 5/16/17 10/18/17
f 6/16/17 10/18/17 5/16/17
f 10/18/17 6/16/17 9/18/17
f 27/17/17 10/18/17 31/19/17
f 9/18/17 6/16/17 36/19/17
f 27/17/17 31/19/17 24/20/17
f 36/19/17 24/20/17 31/19/17
f 24/20/17 36/19/17 23/20/17
f 36/19/17 6/16/17 23/20/17
f 23/20/17 6/16/17 29/17/17
f 17/15/17 27/17/17 29/17/17
f 17/15/17 29/17/17 6/16/17
f 17/15/17 6/16/17 39/14/17
f 17/15/17 39/14/17 13/12/17
f 13/12/17 39/14/17 37/13/17
f 13/12/17 37/13/17 15/11/17
f 22/12/18 3/13/18 1/11/18
f 3/13/18 22/12/18 33/14/18
f 33/14/18 22/12/18 21/15/18
f 33/14/18 21/15/18 7/16/18
f 7/16/18 21/15/18 28/17/18
f 28/17/18 21/15/18 18/15/18
f 12/18/18 7/16/18 28/17/18
f 7/16/18 12/18/18 8/16/18
f 28/17/18 18/15/18 30/17/18
f 26/20/18 12/18/18 28/17/18
f 30/17/18 18/15/18 25/20/18
f 26/20/18 32/19/18 12/18/18
f 32/19/18 26/20/18 25/20/18
f 32/19/18 25/20/18 35/19/18
f 25/20/18 18/15/18 35/19/18
f 35/19/18 18/15/18 11/18/18
f 8/16/18 12/18/18 11/18/18
f 8/16/18 11/18/18 18/15/18
f 8/16/18 18/15/18 14/12/18
f 8/16/18 14/12/18 40/14/18
f 40/14/18 14/12/18 16/11/18
f 40/14/18 16/11/18 38/13/18

