# Created by Kenney (www.kenney.nl)

mtllib number-double-8.mtl

g number-double-8

v 0 0.3 -0.05 1 1 1
v -0.1 0.3 -0.05 1 1 1
v 0 0.4 -0.05 1 1 1
v -0.1 0.4 -0.05 1 1 1
v 0 0.3 0.05 1 1 1
v -0.1 0.3 0.05 1 1 1
v 0 0.1 -0.05 1 1 1
v -0.1 0.1 -0.05 1 1 1
v 0 0.2 -0.05 1 1 1
v -0.1 0.2 -0.05 1 1 1
v 0 0.2 0.05 1 1 1
v -0.1 0.2 0.05 1 1 1
v -0.1 0.4 0.05 1 1 1
v 0 0.4 0.05 1 1 1
v -0.1 0.05 -0.15 1 1 1
v -0.1 0.45 -0.15 1 1 1
v -0.1 0.0125 -0.1375 1 1 1
v -0.1 0.4875 -0.1375 1 1 1
v -0.1 1.003908E-15 -0.1 1 1 1
v -0.1 0.5 -0.1 1 1 1
v -0.1 0 0.1 1 1 1
v -0.1 0.5 0.1 1 1 1
v -0.1 0.1 0.05 1 1 1
v -0.1 0.0125 0.1375 1 1 1
v -0.1 0.4875 0.1375 1 1 1
v -0.1 0.05 0.15 1 1 1
v -0.1 0.45 0.15 1 1 1
v 0 0.1 0.05 1 1 1
v 0 1.003908E-15 -0.1 1 1 1
v 0 0.0125 -0.1375 1 1 1
v 0 0.0125 0.1375 1 1 1
v 0 0 0.1 1 1 1
v 0 0.05 -0.15 1 1 1
v 0 0.45 -0.15 1 1 1
v 0 0.05 0.15 1 1 1
v 0 0.5 0.1 1 1 1
v 0 0.4875 0.1375 1 1 1
v 0 0.4875 -0.1375 1 1 1
v 0 0.5 -0.1 1 1 1
v 0 0.45 0.15 1 1 1
v 0.1 0.3 -0.05 1 1 1
v 0.1 0.4 -0.05 1 1 1
v 0.1 0.45 -0.15 1 1 1
v 0.1 0.4875 -0.1375 1 1 1
v 0.1 0.4 0.05 1 1 1
v 0.1 0.0125 -0.1375 1 1 1
v 0.1 0.05 -0.15 1 1 1
v 0.1 1.003908E-15 -0.1 1 1 1
v 0.1 0.1 0.05 1 1 1
v 0.1 0.2 0.05 1 1 1
v 0.1 0.3 0.05 1 1 1
v 0.1 0.5 0.1 1 1 1
v 0.1 0.4875 0.1375 1 1 1
v 0.1 0.0125 0.1375 1 1 1
v 0.1 0.05 0.15 1 1 1
v 0.1 0.5 -0.1 1 1 1
v 0.1 0.45 0.15 1 1 1
v 0.1 0.1 -0.05 1 1 1
v 0.1 0 0.1 1 1 1
v 0.1 0.2 -0.05 1 1 1

vn 0 0 1
vn 0 1 0
vn 0 -1 0
vn 0 0 -1
vn -1 0 0
vn 0 -0.9870875 -0.1601822
vn 0 -0.7071068 -0.7071068
vn 0 -0.7071068 0.7071068
vn 0 -0.9870875 0.1601822
vn 0 -0.1601822 -0.9870875
vn 0 0.1601822 -0.9870875
vn 0 -0.1601822 0.9870875
vn 0 0.9870875 0.1601822
vn 0 0.7071068 0.7071068
vn 0 0.7071068 -0.7071068
vn 0 0.9870875 -0.1601822
vn 0 0.1601822 0.9870875
vn 1 0 0

vt 0.21875 0.145
vt 0.34375 0.395
vt 0.21875 0.185
vt 0.34375 0.435
vt 0.21875 0.065
vt 0.34375 0.315
vt 0.21875 0.105
vt 0.34375 0.355
vt 0.34375 0.295
vt 0.34375 0.455
vt 0.34375 0.28
vt 0.34375 0.47
vt 0.34375 0.275
vt 0.34375 0.475
vt 0.21875 0.205
vt 0.21875 0.22
vt 0.21875 0.03
vt 0.21875 0.045
vt 0.21875 0.025
vt 0.21875 0.225

usemtl colormap

f 3/3/1 2/2/1 1/1/1
f 2/2/1 3/3/1 4/4/1
f 2/2/2 5/1/2 1/1/2
f 5/1/2 2/2/2 6/2/2
f 9/7/1 8/6/1 7/5/1
f 8/6/1 9/7/1 10/8/1
f 12/8/3 9/7/3 11/7/3
f 9/7/3 12/8/3 10/8/3
f 13/4/4 5/1/4 6/2/4
f 5/1/4 13/4/4 14/3/4
f 17/11/5 16/10/5 15/9/5
f 16/10/5 17/11/5 18/12/5
f 18/12/5 17/11/5 19/13/5
f 18/12/5 19/13/5 20/14/5
f 20/14/5 19/13/5 8/6/5
f 8/6/5 19/13/5 21/13/5
f 4/4/5 20/14/5 8/6/5
f 20/14/5 4/4/5 22/14/5
f 8/6/5 21/13/5 23/6/5
f 10/8/5 4/4/5 8/6/5
f 23/6/5 21/13/5 12/8/5
f 4/4/5 10/8/5 2/2/5
f 2/2/5 10/8/5 12/8/5
f 2/2/5 12/8/5 6/2/5
f 12/8/5 21/13/5 6/2/5
f 6/2/5 21/13/5 13/4/5
f 22/14/5 4/4/5 13/4/5
f 22/14/5 13/4/5 21/13/5
f 22/14/5 21/13/5 24/11/5
f 22/14/5 24/11/5 25/12/5
f 25/12/5 24/11/5 26/9/5
f 25/12/5 26/9/5 27/10/5
f 8/6/2 28/5/2 7/5/2
f 28/5/2 8/6/2 23/6/2
f 13/4/3 3/3/3 14/3/3
f 3/3/3 13/4/3 4/4/3
f 12/8/4 28/5/4 23/6/4
f 28/5/4 12/8/4 11/7/4
f 19/13/6 30/11/7 29/13/6
f 30/11/7 19/13/6 17/11/7
f 24/11/8 32/13/9 31/11/8
f 32/13/9 24/11/8 21/13/9
f 16/10/11 33/9/10 15/9/10
f 33/9/10 16/10/11 34/10/11
f 35/9/12 24/11/8 31/11/8
f 24/11/8 35/9/12 26/9/12
f 22/14/13 37/12/14 36/14/13
f 37/12/14 22/14/13 25/12/14
f 15/9/10 30/11/7 17/11/7
f 30/11/7 15/9/10 33/9/10
f 18/12/15 34/10/11 16/10/11
f 34/10/11 18/12/15 38/12/15
f 18/12/15 39/14/16 38/12/15
f 39/14/16 18/12/15 20/14/16
f 21/13/9 29/13/6 32/13/9
f 29/13/6 21/13/9 19/13/6
f 40/10/17 26/9/12 35/9/12
f 26/9/12 40/10/17 27/10/17
f 20/14/16 36/14/13 39/14/16
f 36/14/13 20/14/16 22/14/13
f 37/12/14 27/10/17 40/10/17
f 27/10/17 37/12/14 25/12/14
f 42/3/1 1/1/1 41/1/1
f 1/1/1 42/3/1 3/3/1
f 38/16/15 43/15/11 34/15/11
f 43/15/11 38/16/15 44/16/15
f 14/3/3 42/3/3 45/3/3
f 42/3/3 14/3/3 3/3/3
f 33/18/10 46/17/7 30/17/7
f 46/17/7 33/18/10 47/18/10
f 29/19/6 46/17/7 48/19/6
f 46/17/7 29/19/6 30/17/7
f 11/7/4 49/5/4 28/5/4
f 49/5/4 11/7/4 50/7/4
f 14/3/4 51/1/4 5/1/4
f 51/1/4 14/3/4 45/3/4
f 1/1/2 51/1/2 41/1/2
f 51/1/2 1/1/2 5/1/2
f 34/15/11 47/18/10 33/18/10
f 47/18/10 34/15/11 43/15/11
f 36/20/13 53/16/14 52/20/13
f 53/16/14 36/20/13 37/16/14
f 55/18/12 31/17/8 54/17/8
f 31/17/8 55/18/12 35/18/12
f 38/16/15 56/20/16 44/16/15
f 56/20/16 38/16/15 39/20/16
f 53/16/14 40/15/17 57/15/17
f 40/15/17 53/16/14 37/16/14
f 57/15/17 35/18/12 55/18/12
f 35/18/12 57/15/17 40/15/17
f 43/15/18 46/17/18 47/18/18
f 46/17/18 43/15/18 44/16/18
f 46/17/18 44/16/18 48/19/18
f 48/19/18 44/16/18 56/20/18
f 48/19/18 56/20/18 58/5/18
f 48/19/18 58/5/18 59/19/18
f 58/5/18 56/20/18 42/3/18
f 52/20/18 42/3/18 56/20/18
f 42/3/18 52/20/18 45/3/18
f 58/5/18 42/3/18 41/1/18
f 45/3/18 52/20/18 51/1/18
f 58/5/18 41/1/18 60/7/18
f 51/1/18 60/7/18 41/1/18
f 60/7/18 51/1/18 50/7/18
f 51/1/18 52/20/18 50/7/18
f 50/7/18 52/20/18 49/5/18
f 59/19/18 58/5/18 49/5/18
f 59/19/18 49/5/18 52/20/18
f 59/19/18 52/20/18 53/16/18
f 59/19/18 53/16/18 54/17/18
f 54/17/18 53/16/18 57/15/18
f 54/17/18 57/15/18 55/18/18
f 32/19/9 48/19/6 59/19/9
f 48/19/6 32/19/9 29/19/6
f 7/5/2 49/5/2 58/5/2
f 49/5/2 7/5/2 28/5/2
f 39/20/16 52/20/13 56/20/16
f 52/20/13 39/20/16 36/20/13
f 31/17/8 59/19/9 54/17/8
f 59/19/9 31/17/8 32/19/9
f 11/7/3 60/7/3 50/7/3
f 60/7/3 11/7/3 9/7/3
f 60/7/1 7/5/1 58/5/1
f 7/5/1 60/7/1 9/7/1

g number-double-8




usemtl colormap

f 3/3/1 2/2/1 1/1/1
f 2/2/1 3/3/1 4/4/1
f 2/2/2 5/1/2 1/1/2
f 5/1/2 2/2/2 6/2/2
f 9/7/1 8/6/1 7/5/1
f 8/6/1 9/7/1 10/8/1
f 12/8/3 9/7/3 11/7/3
f 9/7/3 12/8/3 10/8/3
f 13/4/4 5/1/4 6/2/4
f 5/1/4 13/4/4 14/3/4
f 17/11/5 16/10/5 15/9/5
f 16/10/5 17/11/5 18/12/5
f 18/12/5 17/11/5 19/13/5
f 18/12/5 19/13/5 20/14/5
f 20/14/5 19/13/5 8/6/5
f 8/6/5 19/13/5 21/13/5
f 4/4/5 20/14/5 8/6/5
f 20/14/5 4/4/5 22/14/5
f 8/6/5 21/13/5 23/6/5
f 10/8/5 4/4/5 8/6/5
f 23/6/5 21/13/5 12/8/5
f 4/4/5 10/8/5 2/2/5
f 2/2/5 10/8/5 12/8/5
f 2/2/5 12/8/5 6/2/5
f 12/8/5 21/13/5 6/2/5
f 6/2/5 21/13/5 13/4/5
f 22/14/5 4/4/5 13/4/5
f 22/14/5 13/4/5 21/13/5
f 22/14/5 21/13/5 24/11/5
f 22/14/5 24/11/5 25/12/5
f 25/12/5 24/11/5 26/9/5
f 25/12/5 26/9/5 27/10/5
f 8/6/2 28/5/2 7/5/2
f 28/5/2 8/6/2 23/6/2
f 13/4/3 3/3/3 14/3/3
f 3/3/3 13/4/3 4/4/3
f 12/8/4 28/5/4 23/6/4
f 28/5/4 12/8/4 11/7/4
f 19/13/6 30/11/7 29/13/6
f 30/11/7 19/13/6 17/11/7
f 24/11/8 32/13/9 31/11/8
f 32/13/9 24/11/8 21/13/9
f 16/10/11 33/9/10 15/9/10
f 33/9/10 16/10/11 34/10/11
f 35/9/12 24/11/8 31/11/8
f 24/11/8 35/9/12 26/9/12
f 22/14/13 37/12/14 36/14/13
f 37/12/14 22/14/13 25/12/14
f 15/9/10 30/11/7 17/11/7
f 30/11/7 15/9/10 33/9/10
f 18/12/15 34/10/11 16/10/11
f 34/10/11 18/12/15 38/12/15
f 18/12/15 39/14/16 38/12/15
f 39/14/16 18/12/15 20/14/16
f 21/13/9 29/13/6 32/13/9
f 29/13/6 21/13/9 19/13/6
f 40/10/17 26/9/12 35/9/12
f 26/9/12 40/10/17 27/10/17
f 20/14/16 36/14/13 39/14/16
f 36/14/13 20/14/16 22/14/13
f 37/12/14 27/10/17 40/10/17
f 27/10/17 37/12/14 25/12/14
f 42/3/1 1/1/1 41/1/1
f 1/1/1 42/3/1 3/3/1
f 38/16/15 43/15/11 34/15/11
f 43/15/11 38/16/15 44/16/15
f 14/3/3 42/3/3 45/3/3
f 42/3/3 14/3/3 3/3/3
f 33/18/10 46/17/7 30/17/7
f 46/17/7 33/18/10 47/18/10
f 29/19/6 46/17/7 48/19/6
f 46/17/7 29/19/6 30/17/7
f 11/7/4 49/5/4 28/5/4
f 49/5/4 11/7/4 50/7/4
f 14/3/4 51/1/4 5/1/4
f 51/1/4 14/3/4 45/3/4
f 1/1/2 51/1/2 41/1/2
f 51/1/2 1/1/2 5/1/2
f 34/15/11 47/18/10 33/18/10
f 47/18/10 34/15/11 43/15/11
f 36/20/13 53/16/14 52/20/13
f 53/16/14 36/20/13 37/16/14
f 55/18/12 31/17/8 54/17/8
f 31/17/8 55/18/12 35/18/12
f 38/16/15 56/20/16 44/16/15
f 56/20/16 38/16/15 39/20/16
f 53/16/14 40/15/17 57/15/17
f 40/15/17 53/16/14 37/16/14
f 57/15/17 35/18/12 55/18/12
f 35/18/12 57/15/17 40/15/17
f 43/15/18 46/17/18 47/18/18
f 46/17/18 43/15/18 44/16/18
f 46/17/18 44/16/18 48/19/18
f 48/19/18 44/16/18 56/20/18
f 48/19/18 56/20/18 58/5/18
f 48/19/18 58/5/18 59/19/18
f 58/5/18 56/20/18 42/3/18
f 52/20/18 42/3/18 56/20/18
f 42/3/18 52/20/18 45/3/18
f 58/5/18 42/3/18 41/1/18
f 45/3/18 52/20/18 51/1/18
f 58/5/18 41/1/18 60/7/18
f 51/1/18 60/7/18 41/1/18
f 60/7/18 51/1/18 50/7/18
f 51/1/18 52/20/18 50/7/18
f 50/7/18 52/20/18 49/5/18
f 59/19/18 58/5/18 49/5/18
f 59/19/18 49/5/18 52/20/18
f 59/19/18 52/20/18 53/16/18
f 59/19/18 53/16/18 54/17/18
f 54/17/18 53/16/18 57/15/18
f 54/17/18 57/15/18 55/18/18
f 32/19/9 48/19/6 59/19/9
f 48/19/6 32/19/9 29/19/6
f 7/5/2 49/5/2 58/5/2
f 49/5/2 7/5/2 28/5/2
f 39/20/16 52/20/13 56/20/16
f 52/20/13 39/20/16 36/20/13
f 31/17/8 59/19/9 54/17/8
f 59/19/9 31/17/8 32/19/9
f 11/7/3 60/7/3 50/7/3
f 60/7/3 11/7/3 9/7/3
f 60/7/1 7/5/1 58/5/1
f 7/5/1 60/7/1 9/7/1

