# Created by Kenney (www.kenney.nl)

mtllib pipe-split.mtl

g pipe-split

v 0.07928932 0.4133974 0 1 1 1
v 0.1 0.3880321 -0.02536529 1 1 1
v 0.1 0.3267949 0 1 1 1
v -0.1 0.3267949 0 1 1 1
v -0.1 0.3880321 -0.02536529 1 1 1
v -0.07928932 0.4133974 0 1 1 1
v 0.05 0.3267949 -0.08660254 1 1 1
v -0.05 0.3267949 -0.08660254 1 1 1
v -0.1 0.4133974 -0.08660254 1 1 1
v 0.1 0.4133974 -0.08660254 1 1 1
v -0.1 0.3880321 0.02536529 1 1 1
v 0.1 0.4133974 0.08660254 1 1 1
v 0.1 0.3880321 0.02536529 1 1 1
v 0.05 0.3267949 0.08660254 1 1 1
v -0.05 0.3267949 0.08660254 1 1 1
v -0.1 0.4133974 0.08660254 1 1 1
v 0.05 0.5 -0.08660254 1 1 1
v 0.05 0.464128 0 1 1 1
v -0.05 0.5 -0.08660254 1 1 1
v -0.05 0.464128 0 1 1 1
v -0.05 0.3267949 -0.4133974 1 1 1
v -0.1 0.4133974 -0.4133974 1 1 1
v -0.05 0.5 -0.4133974 1 1 1
v 0.05 0.3267949 -0.4133974 1 1 1
v 0.1 0.4133974 -0.4133974 1 1 1
v 0.05 0.5 -0.4133974 1 1 1
v 0.05 0 -0.08660254 1 1 1
v 0.1 0 0 1 1 1
v 0.05 0 0.08660254 1 1 1
v -0.05 0 0.08660254 1 1 1
v 0.1 0.4133974 0.4133974 1 1 1
v 0.05 0.3267949 0.4133974 1 1 1
v 0.05 0.5 0.08660254 1 1 1
v -0.05 0 -0.08660254 1 1 1
v -0.1 0 0 1 1 1
v 0.05 0.5 0.4133974 1 1 1
v -0.05 0.5 0.08660254 1 1 1
v -0.05 0.5 0.4133974 1 1 1
v -0.05 0.3267949 0.4133974 1 1 1
v -0.1 0.4133974 0.4133974 1 1 1

vn 0.848029 0.202803 0.4896098
vn 0.9910902 0.05097044 0.1230535
vn 0.9608466 -0.1060342 -0.2559892
vn -0.9608466 -0.1060342 -0.2559892
vn -0.9910902 0.05097044 0.1230535
vn -0.848029 0.202803 0.4896098
vn 0.848029 -0.202803 -0.4896098
vn -0.848029 -0.202803 -0.4896098
vn -0.848029 -0.4896098 -0.202803
vn -0.9910902 0.1230536 0.05097045
vn 0.9910902 0.1230536 0.05097045
vn 0.848029 -0.4896098 -0.202803
vn -0.9608466 -0.1060342 0.2559892
vn -0.848029 0.202803 -0.4896098
vn -0.9910902 0.05097044 -0.1230535
vn 0.9910902 0.1230536 -0.05097045
vn 0.848029 -0.4896098 0.202803
vn -0.848029 -0.4896098 0.202803
vn -0.9910902 0.1230536 -0.05097045
vn 0.9910902 0.05097044 -0.1230535
vn 0.9608466 -0.1060342 0.2559892
vn 0.848029 -0.202803 0.4896098
vn -0.848029 -0.202803 0.4896098
vn 0.848029 0.202803 -0.4896098
vn 0.4254382 0.8360994 0.3463237
vn 0.5310923 0.7828161 0.324253
vn -0.4254382 0.8360994 0.3463237
vn -0.5310923 0.7828161 0.324253
vn 0.848029 0.4896098 0.202803
vn -0.848029 0.4896098 0.202803
vn -0.5 -0.8660254 0
vn -1 0 0
vn -0.5 0.8660254 0
vn 0 0 -1
vn 0.5 0.8660254 0
vn 1 0 0
vn 0.5 -0.8660254 0
vn 0.5 0 -0.8660254
vn 0.5 0 0.8660254
vn -0.5 0 0.8660254
vn 0.5310923 0.7828161 -0.324253
vn 0.848029 0.4896098 -0.202803
vn 0.4254382 0.8360994 -0.3463237
vn -0.5 0 -0.8660254
vn 0 -1 0
vn 0 0 1
vn -0.848029 0.4896098 -0.202803
vn -0.5310923 0.7828161 -0.324253
vn -0.4254382 0.8360994 -0.3463237

vt 0.59375 0.440359
vt 0.59375 0.4302129
vt 0.59375 0.405718
vt 0.59375 0.475
vt 0.59375 0.4606512
vt 0.59375 0.275

usemtl colormap

f 3/3/3 2/2/2 1/1/1
f 6/1/6 5/2/5 4/3/4
f 3/3/3 7/3/7 2/2/2
f 4/3/4 5/2/5 8/3/8
f 5/2/10 9/1/10 8/3/9
f 2/2/11 7/3/12 10/1/11
f 11/2/15 6/1/14 4/3/13
f 14/3/17 13/2/16 12/1/16
f 16/1/19 11/2/19 15/3/18
f 14/3/22 3/3/21 13/2/20
f 15/3/23 11/2/15 4/3/13
f 13/2/20 3/3/21 1/1/24
f 19/4/27 18/5/26 17/4/25
f 18/5/26 19/4/27 20/5/28
f 18/5/26 10/1/11 17/4/25
f 10/1/11 18/5/26 2/2/11
f 2/2/11 18/5/26 1/1/29
f 5/2/10 19/4/27 9/1/10
f 19/4/27 5/2/10 20/5/28
f 20/5/28 5/2/10 6/1/30
f 8/3/31 22/1/32 21/3/31
f 22/1/32 8/3/31 9/1/32
f 9/1/32 23/4/33 22/1/32
f 23/4/33 9/1/32 19/4/33
f 22/1/34 24/3/34 21/3/34
f 24/3/34 22/1/34 25/1/34
f 25/1/34 22/1/34 23/4/34
f 25/1/34 23/4/34 26/4/34
f 17/4/35 25/1/36 26/4/35
f 25/1/36 17/4/35 10/1/36
f 8/3/31 24/3/37 7/3/37
f 24/3/37 8/3/31 21/3/31
f 23/4/33 17/4/35 26/4/35
f 17/4/35 23/4/33 19/4/33
f 10/1/36 24/3/37 25/1/36
f 24/3/37 10/1/36 7/3/37
f 3/3/36 27/6/38 7/3/38
f 27/6/38 3/3/36 28/6/36
f 14/3/39 30/6/40 29/6/39
f 30/6/40 14/3/39 15/3/40
f 31/1/36 14/3/37 12/1/36
f 14/3/37 31/1/36 32/3/37
f 33/4/43 1/1/42 18/5/41
f 1/1/42 33/4/43 13/2/16
f 13/2/16 33/4/43 12/1/16
f 14/3/39 28/6/36 3/3/36
f 28/6/36 14/3/39 29/6/39
f 35/6/32 8/3/44 34/6/44
f 8/3/44 35/6/32 4/3/32
f 36/4/35 12/1/36 33/4/35
f 12/1/36 36/4/35 31/1/36
f 29/6/45 27/6/45 28/6/45
f 27/6/45 29/6/45 30/6/45
f 27/6/45 30/6/45 34/6/45
f 34/6/45 30/6/45 35/6/45
f 37/4/33 36/4/35 33/4/35
f 36/4/35 37/4/33 38/4/33
f 30/6/40 4/3/32 35/6/32
f 4/3/32 30/6/40 15/3/40
f 31/1/46 39/3/46 32/3/46
f 39/3/46 31/1/46 40/1/46
f 40/1/46 31/1/46 36/4/46
f 40/1/46 36/4/46 38/4/46
f 40/1/32 37/4/33 16/1/32
f 37/4/33 40/1/32 38/4/33
f 8/3/44 27/6/38 34/6/44
f 27/6/38 8/3/44 7/3/38
f 39/3/31 16/1/32 15/3/31
f 16/1/32 39/3/31 40/1/32
f 11/2/19 20/5/48 6/1/47
f 20/5/48 11/2/19 37/4/49
f 37/4/49 11/2/19 16/1/19
f 20/5/48 33/4/43 18/5/41
f 33/4/43 20/5/48 37/4/49
f 39/3/31 14/3/37 32/3/37
f 14/3/37 39/3/31 15/3/31

g pipe-split




usemtl colormap

f 3/3/3 2/2/2 1/1/1
f 6/1/6 5/2/5 4/3/4
f 3/3/3 7/3/7 2/2/2
f 4/3/4 5/2/5 8/3/8
f 5/2/10 9/1/10 8/3/9
f 2/2/11 7/3/12 10/1/11
f 11/2/15 6/1/14 4/3/13
f 14/3/17 13/2/16 12/1/16
f 16/1/19 11/2/19 15/3/18
f 14/3/22 3/3/21 13/2/20
f 15/3/23 11/2/15 4/3/13
f 13/2/20 3/3/21 1/1/24
f 19/4/27 18/5/26 17/4/25
f 18/5/26 19/4/27 20/5/28
f 18/5/26 10/1/11 17/4/25
f 10/1/11 18/5/26 2/2/11
f 2/2/11 18/5/26 1/1/29
f 5/2/10 19/4/27 9/1/10
f 19/4/27 5/2/10 20/5/28
f 20/5/28 5/2/10 6/1/30
f 8/3/31 22/1/32 21/3/31
f 22/1/32 8/3/31 9/1/32
f 9/1/32 23/4/33 22/1/32
f 23/4/33 9/1/32 19/4/33
f 22/1/34 24/3/34 21/3/34
f 24/3/34 22/1/34 25/1/34
f 25/1/34 22/1/34 23/4/34
f 25/1/34 23/4/34 26/4/34
f 17/4/35 25/1/36 26/4/35
f 25/1/36 17/4/35 10/1/36
f 8/3/31 24/3/37 7/3/37
f 24/3/37 8/3/31 21/3/31
f 23/4/33 17/4/35 26/4/35
f 17/4/35 23/4/33 19/4/33
f 10/1/36 24/3/37 25/1/36
f 24/3/37 10/1/36 7/3/37
f 3/3/36 27/6/38 7/3/38
f 27/6/38 3/3/36 28/6/36
f 14/3/39 30/6/40 29/6/39
f 30/6/40 14/3/39 15/3/40
f 31/1/36 14/3/37 12/1/36
f 14/3/37 31/1/36 32/3/37
f 33/4/43 1/1/42 18/5/41
f 1/1/42 33/4/43 13/2/16
f 13/2/16 33/4/43 12/1/16
f 14/3/39 28/6/36 3/3/36
f 28/6/36 14/3/39 29/6/39
f 35/6/32 8/3/44 34/6/44
f 8/3/44 35/6/32 4/3/32
f 36/4/35 12/1/36 33/4/35
f 12/1/36 36/4/35 31/1/36
f 29/6/45 27/6/45 28/6/45
f 27/6/45 29/6/45 30/6/45
f 27/6/45 30/6/45 34/6/45
f 34/6/45 30/6/45 35/6/45
f 37/4/33 36/4/35 33/4/35
f 36/4/35 37/4/33 38/4/33
f 30/6/40 4/3/32 35/6/32
f 4/3/32 30/6/40 15/3/40
f 31/1/46 39/3/46 32/3/46
f 39/3/46 31/1/46 40/1/46
f 40/1/46 31/1/46 36/4/46
f 40/1/46 36/4/46 38/4/46
f 40/1/32 37/4/33 16/1/32
f 37/4/33 40/1/32 38/4/33
f 8/3/44 27/6/38 34/6/44
f 27/6/38 8/3/44 7/3/38
f 39/3/31 16/1/32 15/3/31
f 16/1/32 39/3/31 40/1/32
f 11/2/19 20/5/48 6/1/47
f 20/5/48 11/2/19 37/4/49
f 37/4/49 11/2/19 16/1/19
f 20/5/48 33/4/43 18/5/41
f 33/4/43 20/5/48 37/4/49
f 39/3/31 14/3/37 32/3/37
f 14/3/37 39/3/31 15/3/31

