# Created by Kenney (www.kenney.nl)

mtllib shape-slope.mtl

g shape-slope

v -0.5 0 -0.5 1 1 1
v 0.5 0 -0.5 1 1 1
v 0.5 1 -0.5 1 1 1
v 0.5 0 0.5 1 1 1
v -0.5 0 0.5 1 1 1
v 0.5 1 0.5 1 1 1

vn 0 0 -1
vn 0 0 1
vn 0 -1 0
vn 1 0 0
vn -0.7071068 0.7071068 0

vt 0.46875 0.025
vt 0.46875 0.225

usemtl colormap

f 3/2/1 2/1/1 1/1/1
f 6/2/2 5/1/2 4/1/2
f 5/1/3 2/1/3 4/1/3
f 2/1/3 5/1/3 1/1/3
f 6/2/4 2/1/4 3/2/4
f 2/1/4 6/2/4 4/1/4
f 5/1/5 3/2/5 1/1/5
f 3/2/5 5/1/5 6/2/5

g shape-slope




usemtl colormap

f 3/2/1 2/1/1 1/1/1
f 6/2/2 5/1/2 4/1/2
f 5/1/3 2/1/3 4/1/3
f 2/1/3 5/1/3 1/1/3
f 6/2/4 2/1/4 3/2/4
f 2/1/4 6/2/4 4/1/4
f 5/1/5 3/2/5 1/1/5
f 3/2/5 5/1/5 6/2/5

