# Created by Kenney (www.kenney.nl)

mtllib stairs-small.mtl

g stairs-small

v 0.125 0.625 -0.5 1 1 1
v 0 0.5 -0.5 1 1 1
v 0.5 1 -0.5 1 1 1
v 0.375 0.875 -0.5 1 1 1
v 0.25 0.75 -0.5 1 1 1
v 0.125 0.625 0.5 1 1 1
v 0.5 1 0.5 1 1 1
v 0 0.5 0.5 1 1 1
v 0.375 0.875 0.5 1 1 1
v 0.25 0.75 0.5 1 1 1
v -0.125 0.375 -0.5 1 1 1
v -0.125 0.5 -0.5 1 1 1
v -0.125 0.375 0.5 1 1 1
v -0.125 0.5 0.5 1 1 1
v -0.5 0 -0.5 1 1 1
v 0.5 0 -0.5 1 1 1
v -0.5 0.125 -0.5 1 1 1
v -0.375 0.125 -0.5 1 1 1
v -0.25 0.25 -0.5 1 1 1
v -0.375 0.25 -0.5 1 1 1
v -0.25 0.375 -0.5 1 1 1
v 0 0.625 -0.5 1 1 1
v 0.125 0.75 -0.5 1 1 1
v 0.375 1 -0.5 1 1 1
v 0.25 0.875 -0.5 1 1 1
v -0.5 0 0.5 1 1 1
v -0.5 0.125 0.5 1 1 1
v 0.5 0 0.5 1 1 1
v 0.125 0.75 0.5 1 1 1
v 0.375 1 0.5 1 1 1
v 0.25 0.875 0.5 1 1 1
v -0.375 0.125 0.5 1 1 1
v -0.375 0.25 0.5 1 1 1
v 0 0.625 0.5 1 1 1
v -0.25 0.25 0.5 1 1 1
v -0.25 0.375 0.5 1 1 1

vn 0 0 -1
vn 0 0 1
vn -1 0 0
vn 0 -1 0
vn 0 1 0
vn 1 0 0

vt 0.46875 0.15
vt 0.46875 0.125
vt 0.46875 0.225
vt 0.46875 0.2
vt 0.46875 0.175
vt 0.46875 0.1
vt 0.46875 0.025
vt 0.46875 0.05
vt 0.46875 0.075

usemtl colormap

f 3/3/1 2/2/1 1/1/1
f 3/3/1 5/5/1 4/4/1
f 8/2/2 7/3/2 6/1/2
f 10/5/2 7/3/2 9/4/2
f 13/6/3 12/2/3 11/6/3
f 12/2/3 13/6/3 14/2/3
f 17/8/1 16/7/1 15/7/1
f 16/7/1 17/8/1 18/8/1
f 16/7/1 18/8/1 3/3/1
f 3/3/1 18/8/1 19/9/1
f 19/9/1 18/8/1 20/9/1
f 3/3/1 19/9/1 2/2/1
f 2/2/1 19/9/1 11/6/1
f 11/6/1 19/9/1 21/6/1
f 2/2/1 11/6/1 12/2/1
f 1/1/1 2/2/1 22/1/1
f 3/3/1 1/1/1 5/5/1
f 5/5/1 1/1/1 23/5/1
f 3/3/1 4/4/1 24/3/1
f 4/4/1 5/5/1 25/4/1
f 26/7/3 17/8/3 15/7/3
f 17/8/3 26/7/3 27/8/3
f 26/7/4 16/7/4 28/7/4
f 16/7/4 26/7/4 15/7/4
f 6/1/3 23/5/3 1/1/3
f 23/5/3 6/1/3 29/5/3
f 9/4/3 24/3/3 4/4/3
f 24/3/3 9/4/3 30/3/3
f 10/5/3 25/4/3 5/5/3
f 25/4/3 10/5/3 31/4/3
f 32/8/3 20/9/3 18/8/3
f 20/9/3 32/8/3 33/9/3
f 24/3/5 7/3/5 3/3/5
f 7/3/5 24/3/5 30/3/5
f 8/2/3 22/1/3 2/2/3
f 22/1/3 8/2/3 34/1/3
f 23/5/5 10/5/5 5/5/5
f 10/5/5 23/5/5 29/5/5
f 9/4/2 7/3/2 30/3/2
f 31/4/2 10/5/2 9/4/2
f 6/1/2 7/3/2 10/5/2
f 29/5/2 6/1/2 10/5/2
f 34/1/2 8/2/2 6/1/2
f 35/9/2 7/3/2 8/2/2
f 35/9/2 8/2/2 13/6/2
f 14/2/2 13/6/2 8/2/2
f 36/6/2 35/9/2 13/6/2
f 32/8/2 7/3/2 35/9/2
f 33/9/2 32/8/2 35/9/2
f 32/8/2 28/7/2 7/3/2
f 28/7/2 32/8/2 26/7/2
f 27/8/2 26/7/2 32/8/2
f 25/4/5 9/4/5 4/4/5
f 9/4/5 25/4/5 31/4/5
f 7/3/6 16/7/6 3/3/6
f 16/7/6 7/3/6 28/7/6
f 17/8/5 32/8/5 18/8/5
f 32/8/5 17/8/5 27/8/5
f 12/2/5 8/2/5 2/2/5
f 8/2/5 12/2/5 14/2/5
f 22/1/5 6/1/5 1/1/5
f 6/1/5 22/1/5 34/1/5
f 20/9/5 35/9/5 19/9/5
f 35/9/5 20/9/5 33/9/5
f 35/9/3 21/6/3 19/9/3
f 21/6/3 35/9/3 36/6/3
f 21/6/5 13/6/5 11/6/5
f 13/6/5 21/6/5 36/6/5

g stairs-small




usemtl colormap

f 3/3/1 2/2/1 1/1/1
f 3/3/1 5/5/1 4/4/1
f 8/2/2 7/3/2 6/1/2
f 10/5/2 7/3/2 9/4/2
f 13/6/3 12/2/3 11/6/3
f 12/2/3 13/6/3 14/2/3
f 17/8/1 16/7/1 15/7/1
f 16/7/1 17/8/1 18/8/1
f 16/7/1 18/8/1 3/3/1
f 3/3/1 18/8/1 19/9/1
f 19/9/1 18/8/1 20/9/1
f 3/3/1 19/9/1 2/2/1
f 2/2/1 19/9/1 11/6/1
f 11/6/1 19/9/1 21/6/1
f 2/2/1 11/6/1 12/2/1
f 1/1/1 2/2/1 22/1/1
f 3/3/1 1/1/1 5/5/1
f 5/5/1 1/1/1 23/5/1
f 3/3/1 4/4/1 24/3/1
f 4/4/1 5/5/1 25/4/1
f 26/7/3 17/8/3 15/7/3
f 17/8/3 26/7/3 27/8/3
f 26/7/4 16/7/4 28/7/4
f 16/7/4 26/7/4 15/7/4
f 6/1/3 23/5/3 1/1/3
f 23/5/3 6/1/3 29/5/3
f 9/4/3 24/3/3 4/4/3
f 24/3/3 9/4/3 30/3/3
f 10/5/3 25/4/3 5/5/3
f 25/4/3 10/5/3 31/4/3
f 32/8/3 20/9/3 18/8/3
f 20/9/3 32/8/3 33/9/3
f 24/3/5 7/3/5 3/3/5
f 7/3/5 24/3/5 30/3/5
f 8/2/3 22/1/3 2/2/3
f 22/1/3 8/2/3 34/1/3
f 23/5/5 10/5/5 5/5/5
f 10/5/5 23/5/5 29/5/5
f 9/4/2 7/3/2 30/3/2
f 31/4/2 10/5/2 9/4/2
f 6/1/2 7/3/2 10/5/2
f 29/5/2 6/1/2 10/5/2
f 34/1/2 8/2/2 6/1/2
f 35/9/2 7/3/2 8/2/2
f 35/9/2 8/2/2 13/6/2
f 14/2/2 13/6/2 8/2/2
f 36/6/2 35/9/2 13/6/2
f 32/8/2 7/3/2 35/9/2
f 33/9/2 32/8/2 35/9/2
f 32/8/2 28/7/2 7/3/2
f 28/7/2 32/8/2 26/7/2
f 27/8/2 26/7/2 32/8/2
f 25/4/5 9/4/5 4/4/5
f 9/4/5 25/4/5 31/4/5
f 7/3/6 16/7/6 3/3/6
f 16/7/6 7/3/6 28/7/6
f 17/8/5 32/8/5 18/8/5
f 32/8/5 17/8/5 27/8/5
f 12/2/5 8/2/5 2/2/5
f 8/2/5 12/2/5 14/2/5
f 22/1/5 6/1/5 1/1/5
f 6/1/5 22/1/5 34/1/5
f 20/9/5 35/9/5 19/9/5
f 35/9/5 20/9/5 33/9/5
f 35/9/3 21/6/3 19/9/3
f 21/6/3 35/9/3 36/6/3
f 21/6/5 13/6/5 11/6/5
f 13/6/5 21/6/5 36/6/5

