# Created by Kenney (www.kenney.nl)

mtllib target-b-round.mtl

g target-b-round

v -2.95639E-08 0.248 -0.248 1 1 1
v -0.06200004 0.248 -0.248 1 1 1
v -2.090488E-08 0.07263752 -0.1753625 1 1 1
v -0.06200003 0.07263752 -0.1753625 1 1 1
v -2.09048E-08 0.4233625 -0.1753625 1 1 1
v -0.06200003 0.4233625 -0.1753625 1 1 1
v 5.502274E-14 0.496 -2.707234E-16 1 1 1
v -0.06200001 0.496 7.390976E-09 1 1 1
v 2.090488E-08 0.4233625 0.1753625 1 1 1
v -0.06199998 0.4233625 0.1753625 1 1 1
v -0.06199998 0.07263752 0.1753625 1 1 1
v 2.09048E-08 0.07263752 0.1753625 1 1 1
v -0.06200001 2.66647E-14 7.390976E-09 1 1 1
v -5.284527E-14 1.339101E-14 -2.707105E-16 1 1 1
v 2.956391E-08 0.248 0.248 1 1 1
v -0.06199998 0.248 0.248 1 1 1
v -0.06200001 0.124 7.390976E-09 1 1 1
v -0.06200002 0.1603187 -0.08768125 1 1 1
v -0.062 0.1603187 0.08768126 1 1 1
v -0.06200001 0.186 7.390976E-09 1 1 1
v -0.062 0.2041594 0.04384064 1 1 1
v -0.06200001 0.2041594 -0.04384062 1 1 1
v -0.06200002 0.248 -0.124 1 1 1
v -0.06200001 0.248 -0.062 1 1 1
v -0.06199999 0.248 0.124 1 1 1
v -0.062 0.248 0.06200001 1 1 1
v -0.062 0.2918406 0.04384064 1 1 1
v -0.06200002 0.3356812 -0.08768125 1 1 1
v -0.062 0.3356812 0.08768126 1 1 1
v -0.06200001 0.2918406 -0.04384062 1 1 1
v -0.06200001 0.31 7.390976E-09 1 1 1
v -0.06200001 0.372 7.390976E-09 1 1 1
v -0.06200001 0.434 7.390976E-09 1 1 1
v -0.06199999 0.3795218 0.1315219 1 1 1
v -0.06200002 0.3795218 -0.1315219 1 1 1
v -0.06199998 0.248 0.186 1 1 1
v -0.06199999 0.1164781 0.1315219 1 1 1
v -0.06200003 0.248 -0.186 1 1 1
v -0.06200002 0.1164781 -0.1315219 1 1 1
v -0.06200001 0.062 7.390976E-09 1 1 1
v -0.06200001 0.186 7.390976E-09 1 1 1
v -0.06200001 0.2041594 -0.04384062 1 1 1
v -0.062 0.2041594 0.04384063 1 1 1
v -0.062 0.248 0.06200001 1 1 1
v -0.06200001 0.248 -0.062 1 1 1
v -0.062 0.2918406 0.04384063 1 1 1
v -0.06200001 0.2918406 -0.04384062 1 1 1
v -0.06200001 0.31 7.390976E-09 1 1 1
v -0.06200001 0.062 7.390976E-09 1 1 1
v -0.06200002 0.1164781 -0.1315219 1 1 1
v -0.06199999 0.1164781 0.1315219 1 1 1
v -0.06200001 0.124 7.390976E-09 1 1 1
v -0.062 0.1603188 0.08768126 1 1 1
v -0.06200002 0.1603188 -0.08768124 1 1 1
v -0.06199998 0.248 0.186 1 1 1
v -0.06199999 0.248 0.124 1 1 1
v -0.06200003 0.248 -0.186 1 1 1
v -0.06200002 0.248 -0.124 1 1 1
v -0.06200002 0.3356812 -0.08768124 1 1 1
v -0.062 0.3356812 0.08768126 1 1 1
v -0.06200001 0.372 7.390976E-09 1 1 1
v -0.06200001 0.434 7.390976E-09 1 1 1
v 2.04891E-08 0.07263752 0.1753625 1 1 1
v 0.06200003 0.07263752 0.1753625 1 1 1
v 0 1.342755E-14 6.661338E-16 1 1 1
v 0.06200001 0 -7.390977E-09 1 1 1
v 0.06199998 0.248 -0.248 1 1 1
v -2.980232E-08 0.248 -0.248 1 1 1
v 0.06199998 0.07263752 -0.1753625 1 1 1
v -2.04891E-08 0.07263752 -0.1753625 1 1 1
v 0.06199998 0.4233625 -0.1753625 1 1 1
v -2.04891E-08 0.4233625 -0.1753625 1 1 1
v 0.06200004 0.248 0.248 1 1 1
v 0.06200003 0.4233625 0.1753625 1 1 1
v 0.06200001 0.496 -7.390977E-09 1 1 1
v 2.04891E-08 0.4233625 0.1753625 1 1 1
v 2.980232E-08 0.248 0.248 1 1 1
v 0 0.496 6.661338E-16 1 1 1

vn -1.192093E-07 0 -0.9999999
vn -8.429369E-08 -0.7071067 -0.7071067
vn -8.429369E-08 0.7071067 -0.7071067
vn 0 0.9999999 0
vn 8.429369E-08 0.7071067 0.7071067
vn 8.429369E-08 -0.7071067 0.7071067
vn 0 -0.9999999 0
vn 1.192093E-07 0 0.9999999
vn -0.9999999 0 1.192093E-07
vn -1 0 1.192093E-07
vn 0.9999999 0 -1.192093E-07

vt 0.59375 0.375
vt 0.59375 0.3042893
vt 0.59375 0.4457107
vt 0.59375 0.475
vt 0.59375 0.275
vt 0.59375 0.325
vt 0.59375 0.3396446
vt 0.59375 0.35
vt 0.59375 0.3573223
vt 0.59375 0.3926777
vt 0.59375 0.4103553
vt 0.59375 0.4
vt 0.59375 0.425
vt 0.59375 0.45
vt 0.59375 0.428033
vt 0.59375 0.321967
vt 0.59375 0.3
vt 0.59375 0.09166668
vt 0.59375 0.1014298
vt 0.59375 0.125
vt 0.59375 0.1485702
vt 0.59375 0.1583333
vt 0.59375 0.025
vt 0.59375 0.05428932
vt 0.59375 0.05833334
vt 0.59375 0.07785955
vt 0.59375 0.1721404
vt 0.59375 0.1957107
vt 0.59375 0.1916667
vt 0.59375 0.225
vt 0.46875 0.05428932
vt 0.46875 0.025
vt 0.46875 0.125
vt 0.46875 0.1957107
vt 0.46875 0.225

usemtl colormap

f 3/2/2 2/1/1 1/1/1
f 2/1/1 3/2/2 4/2/2
f 1/1/1 6/3/3 5/3/3
f 6/3/3 1/1/1 2/1/1
f 5/3/3 8/4/4 7/4/4
f 8/4/4 5/3/3 6/3/3
f 7/4/4 10/3/5 9/3/5
f 10/3/5 7/4/4 8/4/4
f 13/5/7 12/2/6 11/2/6
f 12/2/6 13/5/7 14/5/7
f 4/2/2 14/5/7 13/5/7
f 14/5/7 4/2/2 3/2/2
f 10/3/5 15/1/8 9/3/5
f 15/1/8 10/3/5 16/1/8
f 19/7/9 18/7/9 17/6/9
f 18/7/9 19/7/9 20/8/9
f 20/8/9 19/7/9 21/9/9
f 22/9/9 18/7/9 20/8/9
f 18/7/9 22/9/9 23/1/9
f 23/1/9 22/9/9 24/1/9
f 21/9/9 19/7/9 25/1/9
f 21/9/9 25/1/9 26/1/9
f 26/1/9 25/1/9 27/10/9
f 23/1/9 24/1/9 28/11/9
f 27/10/9 25/1/9 29/11/9
f 28/11/9 24/1/9 30/10/9
f 27/10/9 29/11/9 31/12/9
f 28/11/9 30/10/9 31/12/9
f 28/11/9 31/12/9 29/11/9
f 28/11/9 29/11/9 32/13/9
f 16/1/8 12/2/6 15/1/8
f 12/2/6 16/1/8 11/2/6
f 33/14/9 10/3/9 8/4/9
f 6/3/9 33/14/9 8/4/9
f 34/15/9 10/3/9 33/14/9
f 6/3/9 35/15/9 33/14/9
f 36/1/9 10/3/9 34/15/9
f 36/1/9 16/1/9 10/3/9
f 37/16/9 16/1/9 36/1/9
f 37/16/9 11/2/9 16/1/9
f 2/1/9 35/15/9 6/3/9
f 2/1/9 38/1/9 35/15/9
f 2/1/9 39/16/9 38/1/9
f 4/2/9 39/16/9 2/1/9
f 40/17/9 11/2/9 37/16/9
f 4/2/9 40/17/9 39/16/9
f 11/2/9 40/17/9 13/5/9
f 40/17/9 4/2/9 13/5/9
f 43/19/10 42/19/10 41/18/10
f 42/19/10 43/19/10 44/20/10
f 42/19/10 44/20/10 45/20/10
f 45/20/10 44/20/10 46/21/10
f 45/20/10 46/21/10 47/21/10
f 47/21/10 46/21/10 48/22/10
f 51/24/10 50/24/10 49/23/10
f 50/24/10 51/24/10 52/25/10
f 52/25/10 51/24/10 53/26/10
f 54/26/10 50/24/10 52/25/10
f 53/26/10 51/24/10 55/20/10
f 53/26/10 55/20/10 56/20/10
f 50/24/10 54/26/10 57/20/10
f 57/20/10 54/26/10 58/20/10
f 57/20/10 58/20/10 59/27/10
f 56/20/10 55/20/10 34/28/10
f 57/20/10 59/27/10 35/28/10
f 56/20/10 34/28/10 60/27/10
f 35/28/10 59/27/10 61/29/10
f 60/27/10 34/28/10 61/29/10
f 35/28/10 61/29/10 34/28/10
f 35/28/10 34/28/10 62/30/10
f 65/32/7 64/31/6 63/31/6
f 64/31/6 65/32/7 66/32/7
f 69/31/2 68/33/1 67/33/1
f 68/33/1 69/31/2 70/31/2
f 70/31/2 66/32/7 65/32/7
f 66/32/7 70/31/2 69/31/2
f 67/33/1 72/34/3 71/34/3
f 72/34/3 67/33/1 68/33/1
f 69/31/11 64/31/11 66/32/11
f 64/31/11 69/31/11 67/33/11
f 64/31/11 67/33/11 73/33/11
f 73/33/11 67/33/11 71/34/11
f 73/33/11 71/34/11 74/34/11
f 74/34/11 71/34/11 75/35/11
f 76/34/5 73/33/8 74/34/5
f 73/33/8 76/34/5 77/33/8
f 77/33/8 64/31/6 73/33/8
f 64/31/6 77/33/8 63/31/6
f 75/35/4 72/34/3 78/35/4
f 72/34/3 75/35/4 71/34/3
f 74/34/5 78/35/4 76/34/5
f 78/35/4 74/34/5 75/35/4

g target-b-round




usemtl colormap

f 3/2/2 2/1/1 1/1/1
f 2/1/1 3/2/2 4/2/2
f 1/1/1 6/3/3 5/3/3
f 6/3/3 1/1/1 2/1/1
f 5/3/3 8/4/4 7/4/4
f 8/4/4 5/3/3 6/3/3
f 7/4/4 10/3/5 9/3/5
f 10/3/5 7/4/4 8/4/4
f 13/5/7 12/2/6 11/2/6
f 12/2/6 13/5/7 14/5/7
f 4/2/2 14/5/7 13/5/7
f 14/5/7 4/2/2 3/2/2
f 10/3/5 15/1/8 9/3/5
f 15/1/8 10/3/5 16/1/8
f 19/7/9 18/7/9 17/6/9
f 18/7/9 19/7/9 20/8/9
f 20/8/9 19/7/9 21/9/9
f 22/9/9 18/7/9 20/8/9
f 18/7/9 22/9/9 23/1/9
f 23/1/9 22/9/9 24/1/9
f 21/9/9 19/7/9 25/1/9
f 21/9/9 25/1/9 26/1/9
f 26/1/9 25/1/9 27/10/9
f 23/1/9 24/1/9 28/11/9
f 27/10/9 25/1/9 29/11/9
f 28/11/9 24/1/9 30/10/9
f 27/10/9 29/11/9 31/12/9
f 28/11/9 30/10/9 31/12/9
f 28/11/9 31/12/9 29/11/9
f 28/11/9 29/11/9 32/13/9
f 16/1/8 12/2/6 15/1/8
f 12/2/6 16/1/8 11/2/6
f 33/14/9 10/3/9 8/4/9
f 6/3/9 33/14/9 8/4/9
f 34/15/9 10/3/9 33/14/9
f 6/3/9 35/15/9 33/14/9
f 36/1/9 10/3/9 34/15/9
f 36/1/9 16/1/9 10/3/9
f 37/16/9 16/1/9 36/1/9
f 37/16/9 11/2/9 16/1/9
f 2/1/9 35/15/9 6/3/9
f 2/1/9 38/1/9 35/15/9
f 2/1/9 39/16/9 38/1/9
f 4/2/9 39/16/9 2/1/9
f 40/17/9 11/2/9 37/16/9
f 4/2/9 40/17/9 39/16/9
f 11/2/9 40/17/9 13/5/9
f 40/17/9 4/2/9 13/5/9
f 43/19/10 42/19/10 41/18/10
f 42/19/10 43/19/10 44/20/10
f 42/19/10 44/20/10 45/20/10
f 45/20/10 44/20/10 46/21/10
f 45/20/10 46/21/10 47/21/10
f 47/21/10 46/21/10 48/22/10
f 51/24/10 50/24/10 49/23/10
f 50/24/10 51/24/10 52/25/10
f 52/25/10 51/24/10 53/26/10
f 54/26/10 50/24/10 52/25/10
f 53/26/10 51/24/10 55/20/10
f 53/26/10 55/20/10 56/20/10
f 50/24/10 54/26/10 57/20/10
f 57/20/10 54/26/10 58/20/10
f 57/20/10 58/20/10 59/27/10
f 56/20/10 55/20/10 34/28/10
f 57/20/10 59/27/10 35/28/10
f 56/20/10 34/28/10 60/27/10
f 35/28/10 59/27/10 61/29/10
f 60/27/10 34/28/10 61/29/10
f 35/28/10 61/29/10 34/28/10
f 35/28/10 34/28/10 62/30/10
f 65/32/7 64/31/6 63/31/6
f 64/31/6 65/32/7 66/32/7
f 69/31/2 68/33/1 67/33/1
f 68/33/1 69/31/2 70/31/2
f 70/31/2 66/32/7 65/32/7
f 66/32/7 70/31/2 69/31/2
f 67/33/1 72/34/3 71/34/3
f 72/34/3 67/33/1 68/33/1
f 69/31/11 64/31/11 66/32/11
f 64/31/11 69/31/11 67/33/11
f 64/31/11 67/33/11 73/33/11
f 73/33/11 67/33/11 71/34/11
f 73/33/11 71/34/11 74/34/11
f 74/34/11 71/34/11 75/35/11
f 76/34/5 73/33/8 74/34/5
f 73/33/8 76/34/5 77/33/8
f 77/33/8 64/31/6 73/33/8
f 64/31/6 77/33/8 63/31/6
f 75/35/4 72/34/3 78/35/4
f 72/34/3 75/35/4 71/34/3
f 74/34/5 78/35/4 76/34/5
f 78/35/4 74/34/5 75/35/4

