# Created by Kenney (www.kenney.nl)

mtllib wall-diagonal-low.mtl

g wall-diagonal-low

v -0.4 0 -0.3 1 1 1
v -0.5 4.511946E-17 -0.3 1 1 1
v -0.4 0.5 -0.3 1 1 1
v -0.5 0.5 -0.3 1 1 1
v -0.5 4.511946E-17 -0.5 1 1 1
v -0.5 0.5 -0.5 1 1 1
v 0.5 0.5 0.3 1 1 1
v 0.5 0 0.3 1 1 1
v 0.5 0.5 0.5 1 1 1
v 0.5 0 0.5 1 1 1
v -0.3 0 -0.5 1 1 1
v -0.3 0.5 -0.5 1 1 1
v 0.3 0 0.4 1 1 1
v 0.3 0.5 0.4 1 1 1
v 0.3 0 0.5 1 1 1
v 0.3 0.5 0.5 1 1 1

vn 0 0 1
vn -1 0 0
vn 1 0 0
vn 0 0 -1
vn 0 -1 0
vn 0 1 0
vn 0.7071068 0 -0.7071068
vn -0.7071068 0 0.7071068

vt 0.46875 0.025
vt 0.46875 0.225

usemtl colormap

f 3/2/1 2/1/1 1/1/1
f 2/1/1 3/2/1 4/2/1
f 2/1/2 6/2/2 5/1/2
f 6/2/2 2/1/2 4/2/2
f 9/2/3 8/1/3 7/2/3
f 8/1/3 9/2/3 10/1/3
f 5/1/4 12/2/4 11/1/4
f 12/2/4 5/1/4 6/2/4
f 15/1/2 14/2/2 13/1/2
f 14/2/2 15/1/2 16/2/2
f 15/1/5 8/1/5 10/1/5
f 8/1/5 15/1/5 13/1/5
f 8/1/5 13/1/5 11/1/5
f 11/1/5 13/1/5 1/1/5
f 11/1/5 1/1/5 5/1/5
f 5/1/5 1/1/5 2/1/5
f 9/2/1 15/1/1 10/1/1
f 15/1/1 9/2/1 16/2/1
f 3/2/6 6/2/6 4/2/6
f 3/2/6 12/2/6 6/2/6
f 14/2/6 12/2/6 3/2/6
f 12/2/6 14/2/6 7/2/6
f 16/2/6 7/2/6 14/2/6
f 7/2/6 16/2/6 9/2/6
f 12/2/7 8/1/7 11/1/7
f 8/1/7 12/2/7 7/2/7
f 14/2/8 1/1/8 13/1/8
f 1/1/8 14/2/8 3/2/8

g wall-diagonal-low




usemtl colormap

f 3/2/1 2/1/1 1/1/1
f 2/1/1 3/2/1 4/2/1
f 2/1/2 6/2/2 5/1/2
f 6/2/2 2/1/2 4/2/2
f 9/2/3 8/1/3 7/2/3
f 8/1/3 9/2/3 10/1/3
f 5/1/4 12/2/4 11/1/4
f 12/2/4 5/1/4 6/2/4
f 15/1/2 14/2/2 13/1/2
f 14/2/2 15/1/2 16/2/2
f 15/1/5 8/1/5 10/1/5
f 8/1/5 15/1/5 13/1/5
f 8/1/5 13/1/5 11/1/5
f 11/1/5 13/1/5 1/1/5
f 11/1/5 1/1/5 5/1/5
f 5/1/5 1/1/5 2/1/5
f 9/2/1 15/1/1 10/1/1
f 15/1/1 9/2/1 16/2/1
f 3/2/6 6/2/6 4/2/6
f 3/2/6 12/2/6 6/2/6
f 14/2/6 12/2/6 3/2/6
f 12/2/6 14/2/6 7/2/6
f 16/2/6 7/2/6 14/2/6
f 7/2/6 16/2/6 9/2/6
f 12/2/7 8/1/7 11/1/7
f 8/1/7 12/2/7 7/2/7
f 14/2/8 1/1/8 13/1/8
f 1/1/8 14/2/8 3/2/8

