# Created by Kenney (www.kenney.nl)

mtllib weapon-sword.mtl

g weapon-sword

v 0.05 7.771294E-15 0.05 1 1 1
v 0.05 2.980221E-09 -0.05 1 1 1
v -0.15 0 0.05 1 1 1
v -0.15 2.980213E-09 -0.05 1 1 1
v -0.25 1.490102E-09 3.72535E-09 1 1 1
v -0.15 0.1 0.05 1 1 1
v -0.25 0.1 6.705564E-09 1 1 1
v 0.05 0.1 0.05 1 1 1
v 0.05 0.1 -0.05 1 1 1
v -0.15 0.1 -0.04999999 1 1 1
v 0.15 0.1 -0.05 1 1 1
v 0.125 0.075 -0.15 1 1 1
v 0.075 0.075 -0.15 1 1 1
v 0.15 2.980226E-09 -0.05 1 1 1
v 0.125 0.02500001 -0.15 1 1 1
v 0.075 0.02500001 -0.15 1 1 1
v 0.15 1.20179E-14 0.05 1 1 1
v 0.125 0.025 0.15 1 1 1
v 0.075 0.025 0.15 1 1 1
v 0.15 0.1 0.05 1 1 1
v 0.125 0.075 0.15 1 1 1
v 0.075 0.075 0.15 1 1 1
v 0.25 0.025 0.05 1 1 1
v 0.25 0.025 -0.05 1 1 1
v 0.25 0.075 -0.05 1 1 1
v 0.25 0.075 0.05 1 1 1

vn 0 -1 0
vn -0.2297529 0 0.973249
vn -0.4472136 0 0.8944272
vn 0 0 1
vn 0 1 0
vn 0 0 -1
vn -0.2297529 0 -0.973249
vn -0.4472136 0 -0.8944272
vn 0.0862692 0.993579 -0.07320128
vn 0 0.9936895 -0.1121652
vn 0 0.9701425 -0.2425356
vn 0.0862692 -0.993579 -0.07320134
vn 0 -0.9701425 -0.2425357
vn 0 -0.9936895 -0.1121652
vn 0.0862692 -0.993579 0.07320128
vn 0 -0.9936895 0.1121652
vn 0 -0.9701425 0.2425356
vn 0.9701425 0 0.2425356
vn -0.9701425 0 0.2425357
vn 0.9701425 0 -0.2425357
vn 0.0862692 0.993579 0.07320134
vn 0 0.9936895 0.1121652
vn 0 0.9701425 0.2425357
vn -0.9701425 0 -0.2425356
vn 0.2425356 -0.9701425 0
vn 0.2425356 0.9701425 0
vn 1 0 0

vt 0.46875 0.025
vt 0.46875 0.02500001
vt 0.46875 0.025
vt 0.46875 0.225
vt 0.59375 0.225
vt 0.59375 0.02500001
vt 0.59375 0.025
vt 0.34375 0.475
vt 0.34375 0.425
vt 0.34375 0.275
vt 0.34375 0.325
vt 0.34375 0.325
vt 0.34375 0.425

usemtl colormap

f 3/1/1 2/2/1 1/1/1
f 2/2/1 3/1/1 4/2/1
f 4/2/1 3/1/1 5/3/1
f 6/4/2 5/3/3 3/1/2
f 5/3/3 6/4/2 7/4/3
f 1/1/4 6/4/2 3/1/2
f 6/4/2 1/1/4 8/4/4
f 9/4/5 6/4/5 8/4/5
f 6/4/5 9/4/5 10/4/5
f 6/4/5 10/4/5 7/4/5
f 2/6/6 10/5/7 9/5/6
f 10/5/7 2/6/6 4/6/7
f 4/6/7 7/5/8 10/5/7
f 7/5/8 4/6/7 5/7/8
f 12/9/11 9/8/10 11/8/9
f 9/8/10 12/9/11 13/9/11
f 2/10/14 15/11/13 14/10/12
f 15/11/13 2/10/14 16/11/13
f 18/12/17 1/10/16 17/10/15
f 1/10/16 18/12/17 19/12/17
f 20/8/18 18/12/18 17/10/18
f 18/12/18 20/8/18 21/13/18
f 19/12/19 8/8/19 1/10/19
f 8/8/19 19/12/19 22/13/19
f 12/9/20 14/10/20 15/11/20
f 14/10/20 12/9/20 11/8/20
f 13/9/6 15/11/6 16/11/6
f 15/11/6 13/9/6 12/9/6
f 11/8/9 8/8/22 20/8/21
f 8/8/22 11/8/9 9/8/10
f 1/10/16 14/10/12 17/10/15
f 14/10/12 1/10/16 2/10/14
f 8/8/22 21/13/23 20/8/21
f 21/13/23 8/8/22 22/13/23
f 2/10/24 13/9/24 16/11/24
f 13/9/24 2/10/24 9/8/24
f 18/12/4 22/13/4 19/12/4
f 22/13/4 18/12/4 21/13/4
f 17/10/15 24/12/25 23/12/25
f 24/12/25 17/10/15 14/10/12
f 11/8/6 24/12/6 14/10/6
f 24/12/6 11/8/6 25/9/6
f 25/9/26 20/8/21 26/9/26
f 20/8/21 25/9/26 11/8/9
f 23/12/4 20/8/4 17/10/4
f 20/8/4 23/12/4 26/9/4
f 25/9/27 23/12/27 24/12/27
f 23/12/27 25/9/27 26/9/27

g weapon-sword




usemtl colormap

f 3/1/1 2/2/1 1/1/1
f 2/2/1 3/1/1 4/2/1
f 4/2/1 3/1/1 5/3/1
f 6/4/2 5/3/3 3/1/2
f 5/3/3 6/4/2 7/4/3
f 1/1/4 6/4/2 3/1/2
f 6/4/2 1/1/4 8/4/4
f 9/4/5 6/4/5 8/4/5
f 6/4/5 9/4/5 10/4/5
f 6/4/5 10/4/5 7/4/5
f 2/6/6 10/5/7 9/5/6
f 10/5/7 2/6/6 4/6/7
f 4/6/7 7/5/8 10/5/7
f 7/5/8 4/6/7 5/7/8
f 12/9/11 9/8/10 11/8/9
f 9/8/10 12/9/11 13/9/11
f 2/10/14 15/11/13 14/10/12
f 15/11/13 2/10/14 16/11/13
f 18/12/17 1/10/16 17/10/15
f 1/10/16 18/12/17 19/12/17
f 20/8/18 18/12/18 17/10/18
f 18/12/18 20/8/18 21/13/18
f 19/12/19 8/8/19 1/10/19
f 8/8/19 19/12/19 22/13/19
f 12/9/20 14/10/20 15/11/20
f 14/10/20 12/9/20 11/8/20
f 13/9/6 15/11/6 16/11/6
f 15/11/6 13/9/6 12/9/6
f 11/8/9 8/8/22 20/8/21
f 8/8/22 11/8/9 9/8/10
f 1/10/16 14/10/12 17/10/15
f 14/10/12 1/10/16 2/10/14
f 8/8/22 21/13/23 20/8/21
f 21/13/23 8/8/22 22/13/23
f 2/10/24 13/9/24 16/11/24
f 13/9/24 2/10/24 9/8/24
f 18/12/4 22/13/4 19/12/4
f 22/13/4 18/12/4 21/13/4
f 17/10/15 24/12/25 23/12/25
f 24/12/25 17/10/15 14/10/12
f 11/8/6 24/12/6 14/10/6
f 24/12/6 11/8/6 25/9/6
f 25/9/26 20/8/21 26/9/26
f 20/8/21 25/9/26 11/8/9
f 23/12/4 20/8/4 17/10/4
f 20/8/4 23/12/4 26/9/4
f 25/9/27 23/12/27 24/12/27
f 23/12/27 25/9/27 26/9/27

