# Created by Kenney (www.kenney.nl)

mtllib column-rounded-low.mtl

g column-rounded-low

v 0.1 0.5 -0.1 1 1 1
v 0.1 0 -0.1 1 1 1
v 0.1 0.5 0.1 1 1 1
v 0.1 0 0.1 1 1 1
v -0.1 0 -0.1 1 1 1
v -0.1 0.5 -0.1 1 1 1
v -0.05 0 0.05 1 1 1
v -0.05 0.5 0.05 1 1 1

vn 1 0 0
vn 0 0 -1
vn 0 -1 0
vn 0 1 0
vn -0.3162278 0 0.9486833
vn -0.7071068 0 0.7071068
vn -0.9486833 0 0.3162278

vt 0.46875 0.225
vt 0.46875 0.025

usemtl colormap

f 3/1/1 2/2/1 1/1/1
f 2/2/1 3/1/1 4/2/1
f 6/1/2 2/2/2 5/2/2
f 2/2/2 6/1/2 1/1/2
f 7/2/3 2/2/3 4/2/3
f 2/2/3 7/2/3 5/2/3
f 6/1/4 3/1/4 1/1/4
f 3/1/4 6/1/4 8/1/4
f 3/1/5 7/2/6 4/2/5
f 7/2/6 3/1/5 8/1/6
f 7/2/6 6/1/7 5/2/7
f 6/1/7 7/2/6 8/1/6

g column-rounded-low




usemtl colormap

f 3/1/1 2/2/1 1/1/1
f 2/2/1 3/1/1 4/2/1
f 6/1/2 2/2/2 5/2/2
f 2/2/2 6/1/2 1/1/2
f 7/2/3 2/2/3 4/2/3
f 2/2/3 7/2/3 5/2/3
f 6/1/4 3/1/4 1/1/4
f 3/1/4 6/1/4 8/1/4
f 3/1/5 7/2/6 4/2/5
f 7/2/6 3/1/5 8/1/6
f 7/2/6 6/1/7 5/2/7
f 6/1/7 7/2/6 8/1/6

