# Created by Kenney (www.kenney.nl)

mtllib flag.mtl

g flag

v 0.025 0.5 0.05 1 1 1
v -0.025 0.5 0.05 1 1 1
v 0.025 0.6 0.05 1 1 1
v -0.025 0.6 0.05 1 1 1
v 0.05 0.5 0.025 1 1 1
v 0.05 0.5 -0.025 1 1 1
v 0.025 0.5 -0.05 1 1 1
v -0.025 0.5 -0.05 1 1 1
v -0.05 0.5 0.025 1 1 1
v -0.05 0.5 -0.025 1 1 1
v -0.05 0.6 0.025 1 1 1
v -0.025 0.6 -0.05 1 1 1
v 0.025 0.6 -0.05 1 1 1
v -0.05 0.6 -0.025 1 1 1
v 0.05 0.6 -0.025 1 1 1
v 0.05 0.6 0.025 1 1 1
v 0.05 0.9 0.025 1 1 1
v 0.05 0.8 0.025 1 1 1
v 0.025 0.9 0.05 1 1 1
v 0.025 0.8 0.05 1 1 1
v 0.05 0.9 -0.025 1 1 1
v 0.025 0.9 -0.05 1 1 1
v -0.025 0.9 -0.05 1 1 1
v -0.025 0.9 0.05 1 1 1
v -0.05 0.9 -0.025 1 1 1
v -0.05 0.9 0.025 1 1 1
v -0.025 0.8 -0.05 1 1 1
v -0.05 0.8 -0.025 1 1 1
v 0.05 0.8 -0.025 1 1 1
v -0.025 0.8 0.05 1 1 1
v 0.025 0.8 -0.05 1 1 1
v -0.05 0.8 0.025 1 1 1
v 0.01447638 0.5 0.3815386 1 1 1
v 0.01447638 0.9 0.3815386 1 1 1
v 0.01447638 0.5 0.4184614 1 1 1
v 0.01447638 0.9 0.4184614 1 1 1
v 0.02561205 0.5 0.1711241 1 1 1
v 0.02561205 0.9 0.1711241 1 1 1
v -0.01781708 0.5 0.2657398 1 1 1
v -0.01781708 0.9 0.2657398 1 1 1
v -0.01781708 0.5 0.3111833 1 1 1
v -0.01781708 0.9 0.3111833 1 1 1
v 0 0.5 0.45 1 1 1
v 0 0.9 0.45 1 1 1
v 0 0.5 0.35 1 1 1
v 0 0.9 0.35 1 1 1
v 0.02561205 0.5 0.105799 1 1 1
v 0.02561205 0.9 0.105799 1 1 1
v 0 0.5 0.05 1 1 1
v 0 0.9 0.05 1 1 1
v -0.025 0 -0.025 1 1 1
v 0.025 0 -0.025 1 1 1
v -0.025 0.9499999 -0.025 1 1 1
v 0.025 0.9499999 -0.025 1 1 1
v 0.025 0.9499999 0.025 1 1 1
v -0.025 0.9499999 0.025 1 1 1
v 0.025 0 0.025 1 1 1
v -0.025 0 0.025 1 1 1

vn 0.3826834 0 0.9238795
vn -0.3826834 0 0.9238795
vn 0 -1 0
vn -0.9238795 0 0.3826834
vn -0.3826834 0 -0.9238795
vn 0.3826834 0 -0.9238795
vn -0.9238795 0 -0.3826834
vn 0 1 0
vn 0.9238795 0 0.3826834
vn 0.9238795 0 -0.3826834
vn -0.9769424 0 0.2135027
vn -0.9769424 0 -0.2135027
vn 0.9769424 0 0.2135027
vn 0.9769424 0 -0.2135027
vn -0.9088332 0 -0.4171596
vn 0.9088332 0 0.4171596
vn -0.9088332 0 0.4171596
vn 0.9088332 0 -0.4171596
vn 0 0 -1
vn 0 0 1
vn 1 0 0
vn -1 0 0

vt 0.59375 0.275
vt 0.59375 0.325
vt 0.59375 0.475
vt 0.59375 0.425
vt 0.46875 0.025
vt 0.46875 0.225

usemtl colormap

f 3/2/1 2/1/2 1/1/1
f 2/1/2 3/2/1 4/2/2
f 1/1/3 6/1/3 5/1/3
f 6/1/3 1/1/3 7/1/3
f 7/1/3 1/1/3 2/1/3
f 7/1/3 2/1/3 8/1/3
f 8/1/3 2/1/3 9/1/3
f 8/1/3 9/1/3 10/1/3
f 2/1/2 11/2/4 9/1/4
f 11/2/4 2/1/2 4/2/2
f 12/2/5 7/1/6 8/1/5
f 7/1/6 12/2/5 13/2/6
f 10/1/7 12/2/5 8/1/5
f 12/2/5 10/1/7 14/2/7
f 9/1/4 14/2/7 10/1/7
f 14/2/7 9/1/4 11/2/4
f 13/2/8 16/2/8 15/2/8
f 16/2/8 13/2/8 3/2/8
f 3/2/8 13/2/8 12/2/8
f 3/2/8 12/2/8 4/2/8
f 4/2/8 12/2/8 14/2/8
f 4/2/8 14/2/8 11/2/8
f 19/3/1 18/4/9 17/3/9
f 18/4/9 19/3/1 20/4/1
f 22/3/8 17/3/8 21/3/8
f 17/3/8 22/3/8 19/3/8
f 19/3/8 22/3/8 23/3/8
f 19/3/8 23/3/8 24/3/8
f 24/3/8 23/3/8 25/3/8
f 24/3/8 25/3/8 26/3/8
f 28/4/7 23/3/5 27/4/5
f 23/3/5 28/4/7 25/3/7
f 17/3/9 29/4/10 21/3/10
f 29/4/10 17/3/9 18/4/9
f 19/3/1 30/4/2 20/4/1
f 30/4/2 19/3/1 24/3/2
f 23/3/5 31/4/6 27/4/5
f 31/4/6 23/3/5 22/3/6
f 21/3/10 31/4/6 22/3/6
f 31/4/6 21/3/10 29/4/10
f 32/4/4 25/3/7 28/4/7
f 25/3/7 32/4/4 26/3/4
f 30/4/2 26/3/4 32/4/4
f 26/3/4 30/4/2 24/3/2
f 20/4/3 29/4/3 18/4/3
f 29/4/3 20/4/3 31/4/3
f 31/4/3 20/4/3 30/4/3
f 31/4/3 30/4/3 27/4/3
f 27/4/3 30/4/3 32/4/3
f 27/4/3 32/4/3 28/4/3
f 3/2/1 5/1/9 16/2/9
f 5/1/9 3/2/1 1/1/1
f 15/2/10 7/1/6 13/2/6
f 7/1/6 15/2/10 6/1/10
f 16/2/9 6/1/10 15/2/10
f 6/1/10 16/2/9 5/1/9
f 35/1/12 34/3/11 33/1/11
f 34/3/11 35/1/12 36/3/12
f 33/1/14 34/3/14 35/1/13
f 36/3/13 35/1/13 34/3/14
f 39/1/12 38/3/12 37/1/12
f 38/3/12 39/1/12 40/3/12
f 37/1/13 38/3/13 39/1/13
f 40/3/13 39/1/13 38/3/13
f 41/1/11 40/3/12 39/1/12
f 40/3/12 41/1/11 42/3/11
f 39/1/13 40/3/13 41/1/14
f 42/3/14 41/1/14 40/3/13
f 43/1/15 36/3/12 35/1/12
f 36/3/12 43/1/15 44/3/15
f 35/1/13 36/3/13 43/1/16
f 44/3/16 43/1/16 36/3/13
f 45/1/17 42/3/11 41/1/11
f 42/3/11 45/1/17 46/3/17
f 46/3/17 45/1/17 33/1/11
f 46/3/17 33/1/11 34/3/11
f 41/1/14 42/3/14 45/1/18
f 46/3/18 45/1/18 42/3/14
f 33/1/14 45/1/18 46/3/18
f 34/3/14 33/1/14 46/3/18
f 37/1/12 48/3/11 47/1/11
f 48/3/11 37/1/12 38/3/12
f 47/1/14 48/3/14 37/1/13
f 38/3/13 37/1/13 48/3/14
f 47/1/11 50/3/17 49/1/17
f 50/3/17 47/1/11 48/3/11
f 49/1/18 50/3/18 47/1/14
f 48/3/14 47/1/14 50/3/18
f 53/6/19 52/5/19 51/5/19
f 52/5/19 53/6/19 54/6/19
f 53/6/8 55/6/8 54/6/8
f 55/6/8 53/6/8 56/6/8
f 58/5/3 52/5/3 57/5/3
f 52/5/3 58/5/3 51/5/3
f 55/6/20 58/5/20 57/5/20
f 58/5/20 55/6/20 56/6/20
f 55/6/21 52/5/21 54/6/21
f 52/5/21 55/6/21 57/5/21
f 58/5/22 53/6/22 51/5/22
f 53/6/22 58/5/22 56/6/22

g flag




usemtl colormap

f 3/2/1 2/1/2 1/1/1
f 2/1/2 3/2/1 4/2/2
f 1/1/3 6/1/3 5/1/3
f 6/1/3 1/1/3 7/1/3
f 7/1/3 1/1/3 2/1/3
f 7/1/3 2/1/3 8/1/3
f 8/1/3 2/1/3 9/1/3
f 8/1/3 9/1/3 10/1/3
f 2/1/2 11/2/4 9/1/4
f 11/2/4 2/1/2 4/2/2
f 12/2/5 7/1/6 8/1/5
f 7/1/6 12/2/5 13/2/6
f 10/1/7 12/2/5 8/1/5
f 12/2/5 10/1/7 14/2/7
f 9/1/4 14/2/7 10/1/7
f 14/2/7 9/1/4 11/2/4
f 13/2/8 16/2/8 15/2/8
f 16/2/8 13/2/8 3/2/8
f 3/2/8 13/2/8 12/2/8
f 3/2/8 12/2/8 4/2/8
f 4/2/8 12/2/8 14/2/8
f 4/2/8 14/2/8 11/2/8
f 19/3/1 18/4/9 17/3/9
f 18/4/9 19/3/1 20/4/1
f 22/3/8 17/3/8 21/3/8
f 17/3/8 22/3/8 19/3/8
f 19/3/8 22/3/8 23/3/8
f 19/3/8 23/3/8 24/3/8
f 24/3/8 23/3/8 25/3/8
f 24/3/8 25/3/8 26/3/8
f 28/4/7 23/3/5 27/4/5
f 23/3/5 28/4/7 25/3/7
f 17/3/9 29/4/10 21/3/10
f 29/4/10 17/3/9 18/4/9
f 19/3/1 30/4/2 20/4/1
f 30/4/2 19/3/1 24/3/2
f 23/3/5 31/4/6 27/4/5
f 31/4/6 23/3/5 22/3/6
f 21/3/10 31/4/6 22/3/6
f 31/4/6 21/3/10 29/4/10
f 32/4/4 25/3/7 28/4/7
f 25/3/7 32/4/4 26/3/4
f 30/4/2 26/3/4 32/4/4
f 26/3/4 30/4/2 24/3/2
f 20/4/3 29/4/3 18/4/3
f 29/4/3 20/4/3 31/4/3
f 31/4/3 20/4/3 30/4/3
f 31/4/3 30/4/3 27/4/3
f 27/4/3 30/4/3 32/4/3
f 27/4/3 32/4/3 28/4/3
f 3/2/1 5/1/9 16/2/9
f 5/1/9 3/2/1 1/1/1
f 15/2/10 7/1/6 13/2/6
f 7/1/6 15/2/10 6/1/10
f 16/2/9 6/1/10 15/2/10
f 6/1/10 16/2/9 5/1/9
f 35/1/12 34/3/11 33/1/11
f 34/3/11 35/1/12 36/3/12
f 33/1/14 34/3/14 35/1/13
f 36/3/13 35/1/13 34/3/14
f 39/1/12 38/3/12 37/1/12
f 38/3/12 39/1/12 40/3/12
f 37/1/13 38/3/13 39/1/13
f 40/3/13 39/1/13 38/3/13
f 41/1/11 40/3/12 39/1/12
f 40/3/12 41/1/11 42/3/11
f 39/1/13 40/3/13 41/1/14
f 42/3/14 41/1/14 40/3/13
f 43/1/15 36/3/12 35/1/12
f 36/3/12 43/1/15 44/3/15
f 35/1/13 36/3/13 43/1/16
f 44/3/16 43/1/16 36/3/13
f 45/1/17 42/3/11 41/1/11
f 42/3/11 45/1/17 46/3/17
f 46/3/17 45/1/17 33/1/11
f 46/3/17 33/1/11 34/3/11
f 41/1/14 42/3/14 45/1/18
f 46/3/18 45/1/18 42/3/14
f 33/1/14 45/1/18 46/3/18
f 34/3/14 33/1/14 46/3/18
f 37/1/12 48/3/11 47/1/11
f 48/3/11 37/1/12 38/3/12
f 47/1/14 48/3/14 37/1/13
f 38/3/13 37/1/13 48/3/14
f 47/1/11 50/3/17 49/1/17
f 50/3/17 47/1/11 48/3/11
f 49/1/18 50/3/18 47/1/14
f 48/3/14 47/1/14 50/3/18
f 53/6/19 52/5/19 51/5/19
f 52/5/19 53/6/19 54/6/19
f 53/6/8 55/6/8 54/6/8
f 55/6/8 53/6/8 56/6/8
f 58/5/3 52/5/3 57/5/3
f 52/5/3 58/5/3 51/5/3
f 55/6/20 58/5/20 57/5/20
f 58/5/20 55/6/20 56/6/20
f 55/6/21 52/5/21 54/6/21
f 52/5/21 55/6/21 57/5/21
f 58/5/22 53/6/22 51/5/22
f 53/6/22 58/5/22 56/6/22

