# Created by Kenney (www.kenney.nl)

mtllib floor-thick-corner-rounded.mtl

g floor-thick-corner-rounded

v 0.5 0 0.5 1 1 1
v 0.5 0 -0.3 1 1 1
v -0.5 0 0.5 1 1 1
v 0.45 0 -0.45 1 1 1
v 0.3 0 -0.5 1 1 1
v -0.5 0 -0.5 1 1 1
v 0.5 0.2 0.5 1 1 1
v -0.5 0.2 0.5 1 1 1
v 0.5 0.2 -0.3 1 1 1
v 0.45 0.2 -0.45 1 1 1
v 0.3 0.2 -0.5 1 1 1
v -0.5 0.2 -0.5 1 1 1

vn 0 -1 0
vn 0 1 0
vn -1 0 0
vn 0 0 1
vn 0.9870875 0 -0.1601822
vn 1 0 0
vn 0 0 -1
vn 0.1601822 0 -0.9870875
vn 0.7071068 0 -0.7071068

vt 0.46875 0.025
vt 0.46875 0.225

usemtl colormap

f 3/1/1 2/1/1 1/1/1
f 2/1/1 3/1/1 4/1/1
f 4/1/1 3/1/1 5/1/1
f 5/1/1 3/1/1 6/1/1
f 9/2/2 8/2/2 7/2/2
f 8/2/2 9/2/2 10/2/2
f 8/2/2 10/2/2 11/2/2
f 8/2/2 11/2/2 12/2/2
f 3/1/3 12/2/3 6/1/3
f 12/2/3 3/1/3 8/2/3
f 7/2/4 3/1/4 1/1/4
f 3/1/4 7/2/4 8/2/4
f 7/2/6 2/1/5 9/2/5
f 2/1/5 7/2/6 1/1/6
f 12/2/7 5/1/8 6/1/7
f 5/1/8 12/2/7 11/2/8
f 11/2/8 4/1/9 5/1/8
f 4/1/9 11/2/8 10/2/9
f 9/2/5 4/1/9 10/2/9
f 4/1/9 9/2/5 2/1/5

g floor-thick-corner-rounded




usemtl colormap

f 3/1/1 2/1/1 1/1/1
f 2/1/1 3/1/1 4/1/1
f 4/1/1 3/1/1 5/1/1
f 5/1/1 3/1/1 6/1/1
f 9/2/2 8/2/2 7/2/2
f 8/2/2 9/2/2 10/2/2
f 8/2/2 10/2/2 11/2/2
f 8/2/2 11/2/2 12/2/2
f 3/1/3 12/2/3 6/1/3
f 12/2/3 3/1/3 8/2/3
f 7/2/4 3/1/4 1/1/4
f 3/1/4 7/2/4 8/2/4
f 7/2/6 2/1/5 9/2/5
f 2/1/5 7/2/6 1/1/6
f 12/2/7 5/1/8 6/1/7
f 5/1/8 12/2/7 11/2/8
f 11/2/8 4/1/9 5/1/8
f 4/1/9 11/2/8 10/2/9
f 9/2/5 4/1/9 10/2/9
f 4/1/9 9/2/5 2/1/5

