# Created by Kenney (www.kenney.nl)

mtllib hat-cap.mtl

g hat-cap

v -0.09 0.05 -0.11 1 1 1
v -0.065 0.15 -0.11 1 1 1
v -0.09 0.05 0.11 1 1 1
v -0.065 0.15 0.11 1 1 1
v -0.18 0 -0.05999999 1 1 1
v -0.18 0.05 -0.05999999 1 1 1
v -0.18 0 0.05999999 1 1 1
v -0.18 0.05 0.05999999 1 1 1
v -0.13 0 -0.11 1 1 1
v -0.13 0.05 -0.11 1 1 1
v -0.13 0 0.11 1 1 1
v -0.13 0.05 0.11 1 1 1
v 0.155 0 0.11 1 1 1
v 0.155 0.0746782 0.11 1 1 1
v 0.105 0.1306818 0.11 1 1 1
v 0.155 0 -0.11 1 1 1
v 0.155 0.0746782 -0.11 1 1 1
v 0.105 0.1306818 -0.11 1 1 1

vn -0.9701425 0.2425356 0
vn -0.9238795 0 -0.3826834
vn -0.9238795 0 0.3826834
vn -0.3826834 0 -0.9238795
vn -0.3826834 0 0.9238795
vn 0 1 0
vn 0 0 1
vn 0 0 -1
vn 0 -1 0
vn 0.4596156 0.888118 0
vn 0.1129097 0.9936053 0
vn 0.9343337 0.3563994 0
vn 1 0 0

vt 0.59375 0.09166666
vt 0.59375 0.225
vt 0.59375 0.275
vt 0.59375 0.3416667
vt 0.59375 0.3745709
vt 0.59375 0.475
vt 0.59375 0.4492424

usemtl colormap

f 3/1/1 2/2/1 1/1/1
f 2/2/1 3/1/1 4/2/1
f 7/3/3 6/4/2 5/3/2
f 6/4/2 7/3/3 8/4/3
f 5/3/2 10/4/4 9/3/4
f 10/4/4 5/3/2 6/4/2
f 11/3/5 8/4/3 7/3/3
f 8/4/3 11/3/5 12/4/5
f 10/4/6 3/4/6 1/4/6
f 3/4/6 10/4/6 12/4/6
f 12/4/6 10/4/6 6/4/6
f 12/4/6 6/4/6 8/4/6
f 14/5/7 11/3/5 13/3/7
f 11/3/5 14/5/7 3/4/7
f 12/4/5 11/3/5 3/4/7
f 3/4/7 14/5/7 4/6/7
f 4/6/7 14/5/7 15/7/7
f 10/4/4 16/3/8 9/3/4
f 16/3/8 10/4/4 1/4/8
f 16/3/8 1/4/8 17/5/8
f 17/5/8 1/4/8 2/6/8
f 17/5/8 2/6/8 18/7/8
f 11/3/9 16/3/9 13/3/9
f 16/3/9 11/3/9 9/3/9
f 9/3/9 11/3/9 7/3/9
f 9/3/9 7/3/9 5/3/9
f 2/6/11 15/7/10 18/7/10
f 15/7/10 2/6/11 4/6/11
f 14/5/12 16/3/13 17/5/12
f 16/3/13 14/5/12 13/3/13
f 15/7/10 17/5/12 18/7/10
f 17/5/12 15/7/10 14/5/12

g hat-cap




usemtl colormap

f 3/1/1 2/2/1 1/1/1
f 2/2/1 3/1/1 4/2/1
f 7/3/3 6/4/2 5/3/2
f 6/4/2 7/3/3 8/4/3
f 5/3/2 10/4/4 9/3/4
f 10/4/4 5/3/2 6/4/2
f 11/3/5 8/4/3 7/3/3
f 8/4/3 11/3/5 12/4/5
f 10/4/6 3/4/6 1/4/6
f 3/4/6 10/4/6 12/4/6
f 12/4/6 10/4/6 6/4/6
f 12/4/6 6/4/6 8/4/6
f 14/5/7 11/3/5 13/3/7
f 11/3/5 14/5/7 3/4/7
f 12/4/5 11/3/5 3/4/7
f 3/4/7 14/5/7 4/6/7
f 4/6/7 14/5/7 15/7/7
f 10/4/4 16/3/8 9/3/4
f 16/3/8 10/4/4 1/4/8
f 16/3/8 1/4/8 17/5/8
f 17/5/8 1/4/8 2/6/8
f 17/5/8 2/6/8 18/7/8
f 11/3/9 16/3/9 13/3/9
f 16/3/9 11/3/9 9/3/9
f 9/3/9 11/3/9 7/3/9
f 9/3/9 7/3/9 5/3/9
f 2/6/11 15/7/10 18/7/10
f 15/7/10 2/6/11 4/6/11
f 14/5/12 16/3/13 17/5/12
f 16/3/13 14/5/12 13/3/13
f 15/7/10 17/5/12 18/7/10
f 17/5/12 15/7/10 14/5/12

