# Created by Kenney (www.kenney.nl)

mtllib indicator-special-lines.mtl

g indicator-special-lines

v 0.2914214 0 -0.5 1 1 1
v -0.5 0 0.2914214 1 1 1
v 0.15 0 -0.5 1 1 1
v -0.5 0 0.15 1 1 1
v 0.5 0 -0.5 1 1 1
v 0.5 0 -0.4257359 1 1 1
v 0.4328427 0 -0.5 1 1 1
v -0.4257359 0 0.5 1 1 1
v -0.5 0 0.4328427 1 1 1
v -0.5 0 0.5 1 1 1
v 0.5 0 -0.2843145 1 1 1
v 0.5 0 -0.1428932 1 1 1
v -0.2843146 0 0.5 1 1 1
v -0.1428932 0 0.5 1 1 1
v -0.2742641 0 -0.5 1 1 1
v -0.5 0 -0.2742641 1 1 1
v -0.4156854 0 -0.5 1 1 1
v -0.5 0 -0.4156854 1 1 1
v 0.008578655 0 -0.5 1 1 1
v -0.5 0 0.008578639 1 1 1
v -0.1328427 0 -0.5 1 1 1
v -0.5 0 -0.1328427 1 1 1
v 0.5 0 0.2813708 1 1 1
v 0.5 0 0.4227922 1 1 1
v 0.2813708 0 0.5 1 1 1
v 0.4227922 0 0.5 1 1 1
v 0.5 0 -0.001471851 1 1 1
v 0.5 0 0.1399495 1 1 1
v -0.001471866 0 0.5 1 1 1
v 0.1399495 0 0.5 1 1 1

vn 0 1 0

vt 0.28125 0.375

usemtl colormap

f 3/1/1 2/1/1 1/1/1
f 2/1/1 3/1/1 4/1/1
f 7/1/1 6/1/1 5/1/1
f 6/1/1 7/1/1 8/1/1
f 8/1/1 7/1/1 9/1/1
f 8/1/1 9/1/1 10/1/1
f 13/1/1 12/1/1 11/1/1
f 12/1/1 13/1/1 14/1/1
f 17/1/1 16/1/1 15/1/1
f 16/1/1 17/1/1 18/1/1
f 21/1/1 20/1/1 19/1/1
f 20/1/1 21/1/1 22/1/1
f 25/1/1 24/1/1 23/1/1
f 24/1/1 25/1/1 26/1/1
f 29/1/1 28/1/1 27/1/1
f 28/1/1 29/1/1 30/1/1

g indicator-special-lines




usemtl colormap

f 3/1/1 2/1/1 1/1/1
f 2/1/1 3/1/1 4/1/1
f 7/1/1 6/1/1 5/1/1
f 6/1/1 7/1/1 8/1/1
f 8/1/1 7/1/1 9/1/1
f 8/1/1 9/1/1 10/1/1
f 13/1/1 12/1/1 11/1/1
f 12/1/1 13/1/1 14/1/1
f 17/1/1 16/1/1 15/1/1
f 16/1/1 17/1/1 18/1/1
f 21/1/1 20/1/1 19/1/1
f 20/1/1 21/1/1 22/1/1
f 25/1/1 24/1/1 23/1/1
f 24/1/1 25/1/1 26/1/1
f 29/1/1 28/1/1 27/1/1
f 28/1/1 29/1/1 30/1/1

