# Created by Kenney (www.kenney.nl)

mtllib indicator-special-area.mtl

g indicator-special-area

v 0.3 0 0.1985281 1 1 1
v 0.3 0 0.3 1 1 1
v 0.1985281 0 0.3 1 1 1
v -0.3 0 -0.3 1 1 1
v -0.1914213 0 -0.3 1 1 1
v -0.3 0 -0.1914214 1 1 1
v 0.3 0 -0.08431456 1 1 1
v 0.3 0 0.05710679 1 1 1
v -0.08431458 0 0.3 1 1 1
v 0.05710678 0 0.3 1 1 1
v 0.3 0 -0.3 1 1 1
v 0.3 0 -0.2257359 1 1 1
v 0.2328427 0 -0.3 1 1 1
v -0.2257359 0 0.3 1 1 1
v -0.3 0 0.2328427 1 1 1
v -0.3 0 0.3 1 1 1
v 0.09142137 0 -0.3 1 1 1
v -0.3 0 0.09142135 1 1 1
v -0.04999999 0 -0.3 1 1 1
v -0.3 0 -0.05 1 1 1
v -0.4 0 -0.4 1 1 1
v -0.5 0 -0.5 1 1 1
v 0.4 0 -0.4 1 1 1
v -0.4 0 0.4 1 1 1
v 0.5 0 -0.5 1 1 1
v -0.5 0 0.5 1 1 1
v 0.5 0 0.5 1 1 1
v 0.4 0 0.4 1 1 1

vn 0 1 0

vt 0.28125 0.375

usemtl colormap

f 3/1/1 2/1/1 1/1/1
f 6/1/1 5/1/1 4/1/1
f 9/1/1 8/1/1 7/1/1
f 8/1/1 9/1/1 10/1/1
f 13/1/1 12/1/1 11/1/1
f 12/1/1 13/1/1 14/1/1
f 14/1/1 13/1/1 15/1/1
f 14/1/1 15/1/1 16/1/1
f 19/1/1 18/1/1 17/1/1
f 18/1/1 19/1/1 20/1/1
f 23/1/1 22/1/1 21/1/1
f 21/1/1 22/1/1 24/1/1
f 23/1/1 25/1/1 22/1/1
f 26/1/1 24/1/1 22/1/1
f 25/1/1 23/1/1 27/1/1
f 26/1/1 28/1/1 24/1/1
f 27/1/1 28/1/1 26/1/1
f 28/1/1 27/1/1 23/1/1

g indicator-special-area




usemtl colormap

f 3/1/1 2/1/1 1/1/1
f 6/1/1 5/1/1 4/1/1
f 9/1/1 8/1/1 7/1/1
f 8/1/1 9/1/1 10/1/1
f 13/1/1 12/1/1 11/1/1
f 12/1/1 13/1/1 14/1/1
f 14/1/1 13/1/1 15/1/1
f 14/1/1 15/1/1 16/1/1
f 19/1/1 18/1/1 17/1/1
f 18/1/1 19/1/1 20/1/1
f 23/1/1 22/1/1 21/1/1
f 21/1/1 22/1/1 24/1/1
f 23/1/1 25/1/1 22/1/1
f 26/1/1 24/1/1 22/1/1
f 25/1/1 23/1/1 27/1/1
f 26/1/1 28/1/1 24/1/1
f 27/1/1 28/1/1 26/1/1
f 28/1/1 27/1/1 23/1/1

