# Created by Kenney (www.kenney.nl)

mtllib indicator-round-b.mtl

g rotate-y

v 0.5 0 0 1 1 1
v 0.4330127 0 0.25 1 1 1
v 0.4330127 0 -0.25 1 1 1
v 0.3964724 0 -1.804779E-16 1 1 1
v 0.3433551 0 -0.1982362 1 1 1
v 0.3433551 0 0.1982362 1 1 1
v 0.25 0 -0.4330127 1 1 1
v 0.25 0 0.4330127 1 1 1
v 0.1982362 0 -0.3433551 1 1 1
v 0.1982362 0 0.3433551 1 1 1
v 0 0 -0.5 1 1 1
v 0 0 -0.3964724 1 1 1
v 0 0 0.5 1 1 1
v 0 0 0.3964724 1 1 1
v -0.1982362 0 0.3433551 1 1 1
v -0.25 0 0.4330127 1 1 1
v -0.3433551 0 0.1982362 1 1 1
v -0.25 0 -0.4330127 1 1 1
v -0.1982362 0 -0.3433551 1 1 1
v -0.3433551 0 -0.1982362 1 1 1
v -0.4330127 0 0.25 1 1 1
v -0.4330127 0 -0.25 1 1 1
v -0.3964724 0 1.804779E-16 1 1 1
v -0.5 0 0 1 1 1

vn 0 1 0

vt 0.28125 0.375

usemtl colormap

f 3/1/1 2/1/1 1/1/1
f 2/1/1 3/1/1 4/1/1
f 4/1/1 3/1/1 5/1/1
f 6/1/1 2/1/1 4/1/1
f 5/1/1 3/1/1 7/1/1
f 2/1/1 6/1/1 8/1/1
f 5/1/1 7/1/1 9/1/1
f 8/1/1 6/1/1 10/1/1
f 9/1/1 7/1/1 11/1/1
f 9/1/1 11/1/1 12/1/1
f 8/1/1 10/1/1 13/1/1
f 13/1/1 10/1/1 14/1/1
f 13/1/1 14/1/1 15/1/1
f 13/1/1 15/1/1 16/1/1
f 16/1/1 15/1/1 17/1/1
f 12/1/1 11/1/1 18/1/1
f 12/1/1 18/1/1 19/1/1
f 19/1/1 18/1/1 20/1/1
f 16/1/1 17/1/1 21/1/1
f 20/1/1 18/1/1 22/1/1
f 21/1/1 17/1/1 23/1/1
f 20/1/1 22/1/1 23/1/1
f 21/1/1 23/1/1 22/1/1
f 21/1/1 22/1/1 24/1/1

