# Created by Kenney (www.kenney.nl)

mtllib indicator-round-a.mtl

g rotate-y

v -0.3535534 0 -0.3535534 1 1 1
v 0 0 -0.5 1 1 1
v -0.3535534 0.2 -0.3535534 1 1 1
v 0 0.2 -0.5 1 1 1
v 0.3535534 0.2 -0.3535534 1 1 1
v 0.3535534 0 -0.3535534 1 1 1
v 0.5 0.2 0 1 1 1
v 0.5 0 0 1 1 1
v 0.3535534 0.2 0.3535534 1 1 1
v 0.3535534 0 0.3535534 1 1 1
v -0.5 0 -9.023893E-17 1 1 1
v -0.5 0.2 -9.023893E-17 1 1 1
v 0 0 0.5 1 1 1
v 0 0.2 0.5 1 1 1
v -0.3535534 0 0.3535534 1 1 1
v -0.3535534 0.2 0.3535534 1 1 1

vn -0.7071068 0 -0.7071068
vn 0 0 -1
vn 0.7071068 0 0.7071068
vn 0 0 1
vn 0.7071068 0 -0.7071068
vn 1 0 0
vn -1 0 0
vn -0.7071068 0 0.7071068

vt 0.34375 0.375
vt 0.34375 0.475

usemtl colormap

f 3/2/1 2/1/2 1/1/1
f 2/1/2 3/2/1 4/2/2
f 1/1/3 2/1/4 3/2/3
f 4/2/4 3/2/3 2/1/4
f 7/2/6 6/1/5 5/2/5
f 6/1/5 7/2/6 8/1/6
f 5/2/8 6/1/8 7/2/7
f 8/1/7 7/2/7 6/1/8
f 9/2/3 8/1/6 7/2/6
f 8/1/6 9/2/3 10/1/3
f 7/2/7 8/1/7 9/2/1
f 10/1/1 9/2/1 8/1/7
f 11/1/7 3/2/1 1/1/1
f 3/2/1 11/1/7 12/2/7
f 1/1/3 3/2/3 11/1/6
f 12/2/6 11/1/6 3/2/3
f 9/2/3 13/1/4 10/1/3
f 13/1/4 9/2/3 14/2/4
f 10/1/1 13/1/2 9/2/1
f 14/2/2 9/2/1 13/1/2
f 15/1/8 12/2/7 11/1/7
f 12/2/7 15/1/8 16/2/8
f 11/1/6 12/2/6 15/1/5
f 16/2/5 15/1/5 12/2/6
f 4/2/2 6/1/5 2/1/2
f 6/1/5 4/2/2 5/2/5
f 2/1/4 6/1/8 4/2/4
f 5/2/8 4/2/4 6/1/8
f 14/2/4 15/1/8 13/1/4
f 15/1/8 14/2/4 16/2/8
f 13/1/2 15/1/5 14/2/2
f 16/2/5 14/2/2 15/1/5

