# Created by Kenney (www.kenney.nl)

mtllib indicator-round-d.mtl

g rotate-y

v -0.3535534 0 -0.3535534 1 1 1
v -0.1767767 0 -0.4267767 1 1 1
v -0.3535534 0.2 -0.3535534 1 1 1
v -0.1767767 0.09891342 -0.4267767 1 1 1
v 0 0 -0.5 1 1 1
v 0 0.2 -0.5 1 1 1
v 0.3535534 0.2 -0.3535534 1 1 1
v 0.3535534 0 -0.3535534 1 1 1
v 0.4267767 0.1 -0.1767767 1 1 1
v 0.4267767 0 -0.1767767 1 1 1
v 0.5 0.2 0 1 1 1
v 0.5 0 0 1 1 1
v 0.4267767 0.1 0.1767767 1 1 1
v 0.4267767 0 0.1767767 1 1 1
v 0.3535534 0.2 0.3535534 1 1 1
v 0.3535534 0 0.3535534 1 1 1
v -0.4267767 0 -0.1767767 1 1 1
v -0.4267767 0.1 -0.1767767 1 1 1
v -0.5 0 -9.023893E-17 1 1 1
v -0.5 0.2 -9.023893E-17 1 1 1
v 0.1767767 0 0.4267767 1 1 1
v 0 0 0.5 1 1 1
v 0.1767767 0.1 0.4267767 1 1 1
v 0 0.2 0.5 1 1 1
v -0.4267767 0 0.1767767 1 1 1
v -0.4267767 0.1 0.1767767 1 1 1
v -0.3535534 0 0.3535534 1 1 1
v -0.3535534 0.2 0.3535534 1 1 1
v 0.1767767 0 -0.4267767 1 1 1
v 0.1767767 0.1 -0.4267767 1 1 1
v -0.1767767 0 0.4267767 1 1 1
v -0.1767767 0.1 0.4267767 1 1 1

vn -0.7071068 0 -0.7071068
vn -0.3826834 0 -0.9238795
vn -0.707706 0 -0.706507
vn 0 0 -1
vn 0.0008478733 0 -0.9999996
vn 0.707706 0 0.706507
vn 0.3826834 0 0.9238795
vn 0.7071068 0 0.7071068
vn 0 0 1
vn -0.0008478733 0 0.9999996
vn 0.7071068 0 -0.7071068
vn 0.9238795 0 -0.3826834
vn 1 0 0
vn -0.9238795 0 0.3826834
vn -0.7071068 0 0.7071068
vn -1 0 0
vn 0.9238795 0 0.3826834
vn -0.9238795 0 -0.3826834
vn 0.3826834 0 -0.9238795
vn -0.3826834 0 0.9238795

vt 0.34375 0.375
vt 0.34375 0.475
vt 0.34375 0.4244567
vt 0.34375 0.425

usemtl colormap

f 3/2/3 2/1/2 1/1/1
f 2/1/2 3/2/3 4/3/2
f 2/1/2 4/3/2 5/1/4
f 6/2/5 5/1/4 4/3/2
f 1/1/8 2/1/7 3/2/6
f 4/3/7 3/2/6 2/1/7
f 5/1/9 4/3/7 2/1/7
f 4/3/7 5/1/9 6/2/10
f 9/4/12 8/1/11 7/2/11
f 8/1/11 9/4/12 10/1/12
f 10/1/12 9/4/12 11/2/13
f 10/1/12 11/2/13 12/1/13
f 7/2/15 8/1/15 9/4/14
f 10/1/14 9/4/14 8/1/15
f 11/2/16 9/4/14 10/1/14
f 12/1/16 11/2/16 10/1/14
f 13/4/17 12/1/13 11/2/13
f 12/1/13 13/4/17 14/1/17
f 14/1/17 13/4/17 15/2/8
f 14/1/17 15/2/8 16/1/8
f 11/2/16 12/1/16 13/4/18
f 14/1/18 13/4/18 12/1/16
f 15/2/1 13/4/18 14/1/18
f 16/1/1 15/2/1 14/1/18
f 17/1/18 3/2/3 1/1/1
f 3/2/3 17/1/18 18/4/18
f 18/4/18 17/1/18 19/1/16
f 18/4/18 19/1/16 20/2/16
f 1/1/8 3/2/6 17/1/17
f 18/4/17 17/1/17 3/2/6
f 19/1/13 17/1/17 18/4/17
f 20/2/13 19/1/13 18/4/17
f 15/2/8 21/1/7 16/1/8
f 21/1/7 15/2/8 22/1/9
f 22/1/9 15/2/8 23/4/7
f 24/2/9 22/1/9 23/4/7
f 16/1/1 21/1/2 15/2/1
f 22/1/4 15/2/1 21/1/2
f 23/4/2 15/2/1 22/1/4
f 23/4/2 22/1/4 24/2/4
f 25/1/14 20/2/16 19/1/16
f 20/2/16 25/1/14 26/4/14
f 26/4/14 25/1/14 27/1/15
f 26/4/14 27/1/15 28/2/15
f 19/1/13 20/2/13 25/1/12
f 26/4/12 25/1/12 20/2/13
f 27/1/11 25/1/12 26/4/12
f 28/2/11 27/1/11 26/4/12
f 6/2/5 29/1/19 5/1/4
f 29/1/19 6/2/5 8/1/11
f 8/1/11 6/2/5 30/4/19
f 7/2/11 8/1/11 30/4/19
f 5/1/9 29/1/20 6/2/10
f 8/1/15 6/2/10 29/1/20
f 30/4/20 6/2/10 8/1/15
f 30/4/20 8/1/15 7/2/15
f 24/2/9 31/1/20 22/1/9
f 31/1/20 24/2/9 27/1/15
f 27/1/15 24/2/9 32/4/20
f 28/2/15 27/1/15 32/4/20
f 22/1/4 31/1/19 24/2/4
f 27/1/11 24/2/4 31/1/19
f 32/4/19 24/2/4 27/1/11
f 32/4/19 27/1/11 28/2/11

