# Created by Kenney (www.kenney.nl)

mtllib indicator-square-b.mtl

g indicator-square-b

v 0.3 0 -0.4 1 1 1
v 0.3 0 -0.5 1 1 1
v 0.4 0 -0.4 1 1 1
v 0.5 0 -0.5 1 1 1
v 0.5 0 -0.3 1 1 1
v 0.4 0 -0.3 1 1 1
v 0.5 2.710863E-18 0.3 1 1 1
v 0.5 0 0.5 1 1 1
v 0.4 2.710863E-18 0.3 1 1 1
v 0.4 0 0.4 1 1 1
v 0.3 2.710863E-18 0.5 1 1 1
v 0.3 2.710863E-18 0.4 1 1 1
v 0.5 2.710863E-18 0.2 1 1 1
v 0.4 2.710863E-18 0.2 1 1 1
v 0.5 0 -0.2 1 1 1
v 0.4 0 -0.2 1 1 1
v -0.4 0 0.3 1 1 1
v -0.4 0 0.4 1 1 1
v -0.5 0 0.3 1 1 1
v -0.5 0 0.5 1 1 1
v -0.3 0 0.5 1 1 1
v -0.3 0 0.4 1 1 1
v 0.2 2.710863E-18 0.4 1 1 1
v 0.2 2.710863E-18 0.5 1 1 1
v -0.2 0 0.4 1 1 1
v -0.2 0 0.5 1 1 1
v -0.3 0 -0.5 1 1 1
v -0.3 0 -0.4 1 1 1
v -0.5 0 -0.5 1 1 1
v -0.4 0 -0.4 1 1 1
v -0.4 0 -0.3 1 1 1
v -0.5 0 -0.3 1 1 1
v -0.4 0 0.2 1 1 1
v -0.5 0 0.2 1 1 1
v -0.4 0 -0.2 1 1 1
v -0.5 0 -0.2 1 1 1
v 0.2 0 -0.5 1 1 1
v 0.2 0 -0.4 1 1 1
v -0.2 0 -0.5 1 1 1
v -0.2 0 -0.4 1 1 1

vn 0 1 0

vt 0.28125 0.375

usemtl colormap

f 3/1/1 2/1/1 1/1/1
f 3/1/1 4/1/1 2/1/1
f 4/1/1 3/1/1 5/1/1
f 6/1/1 5/1/1 3/1/1
f 9/1/1 8/1/1 7/1/1
f 8/1/1 9/1/1 10/1/1
f 8/1/1 10/1/1 11/1/1
f 11/1/1 10/1/1 12/1/1
f 15/1/1 14/1/1 13/1/1
f 14/1/1 15/1/1 16/1/1
f 19/1/1 18/1/1 17/1/1
f 20/1/1 18/1/1 19/1/1
f 21/1/1 18/1/1 20/1/1
f 18/1/1 21/1/1 22/1/1
f 25/1/1 24/1/1 23/1/1
f 24/1/1 25/1/1 26/1/1
f 29/1/1 28/1/1 27/1/1
f 28/1/1 29/1/1 30/1/1
f 30/1/1 29/1/1 31/1/1
f 31/1/1 29/1/1 32/1/1
f 35/1/1 34/1/1 33/1/1
f 34/1/1 35/1/1 36/1/1
f 39/1/1 38/1/1 37/1/1
f 38/1/1 39/1/1 40/1/1

g indicator-square-b




usemtl colormap

f 3/1/1 2/1/1 1/1/1
f 3/1/1 4/1/1 2/1/1
f 4/1/1 3/1/1 5/1/1
f 6/1/1 5/1/1 3/1/1
f 9/1/1 8/1/1 7/1/1
f 8/1/1 9/1/1 10/1/1
f 8/1/1 10/1/1 11/1/1
f 11/1/1 10/1/1 12/1/1
f 15/1/1 14/1/1 13/1/1
f 14/1/1 15/1/1 16/1/1
f 19/1/1 18/1/1 17/1/1
f 20/1/1 18/1/1 19/1/1
f 21/1/1 18/1/1 20/1/1
f 18/1/1 21/1/1 22/1/1
f 25/1/1 24/1/1 23/1/1
f 24/1/1 25/1/1 26/1/1
f 29/1/1 28/1/1 27/1/1
f 28/1/1 29/1/1 30/1/1
f 30/1/1 29/1/1 31/1/1
f 31/1/1 29/1/1 32/1/1
f 35/1/1 34/1/1 33/1/1
f 34/1/1 35/1/1 36/1/1
f 39/1/1 38/1/1 37/1/1
f 38/1/1 39/1/1 40/1/1

