# Created by Kenney (www.kenney.nl)

mtllib ladder.mtl

g ladder

v -0.05 0 0.175 1 1 1
v -0.05 1 0.175 1 1 1
v -0.05 0 0.225 1 1 1
v -0.05 1 0.225 1 1 1
v 0.025 0 0.25 1 1 1
v -0.025 0 0.25 1 1 1
v 0.025 1 0.25 1 1 1
v -0.025 1 0.25 1 1 1
v 0.05 0 0.225 1 1 1
v 0.05 0 0.175 1 1 1
v 0.025 0 0.15 1 1 1
v -0.025 0 0.15 1 1 1
v -0.025 1 0.15 1 1 1
v 0.025 1 0.15 1 1 1
v 0.05 1 0.175 1 1 1
v 0.05 1 0.225 1 1 1
v -0.05 0.725 -0.2 1 1 1
v -0.05 0.775 -0.2 1 1 1
v -0.05 0.725 0.2 1 1 1
v -0.05 0.775 0.2 1 1 1
v 0.025 0.7 0.2 1 1 1
v 0.025 0.7 -0.2 1 1 1
v -0.025 0.7 0.2 1 1 1
v -0.025 0.7 -0.2 1 1 1
v 0.05 0.725 -0.2 1 1 1
v 0.05 0.725 0.2 1 1 1
v 0.05 0.775 -0.2 1 1 1
v 0.05 0.775 0.2 1 1 1
v -0.025 0.8 -0.2 1 1 1
v 0.025 0.8 -0.2 1 1 1
v -0.025 0.8 0.2 1 1 1
v 0.025 0.8 0.2 1 1 1
v 0.05 0.225 -0.2 1 1 1
v 0.05 0.225 0.2 1 1 1
v 0.05 0.275 -0.2 1 1 1
v 0.05 0.275 0.2 1 1 1
v 0.025 0.2 -0.2 1 1 1
v 0.025 0.2 0.2 1 1 1
v -0.025 0.2 0.2 1 1 1
v -0.05 0.225 0.2 1 1 1
v -0.05 0.275 0.2 1 1 1
v 0.025 0.3 0.2 1 1 1
v -0.025 0.3 0.2 1 1 1
v -0.025 0.2 -0.2 1 1 1
v -0.05 0.275 -0.2 1 1 1
v -0.025 0.3 -0.2 1 1 1
v -0.05 0.225 -0.2 1 1 1
v 0.025 0.3 -0.2 1 1 1
v -0.05 0 -0.225 1 1 1
v -0.05 1 -0.225 1 1 1
v -0.05 0 -0.175 1 1 1
v -0.05 1 -0.175 1 1 1
v 0.025 0 -0.15 1 1 1
v -0.025 0 -0.15 1 1 1
v 0.025 1 -0.15 1 1 1
v -0.025 1 -0.15 1 1 1
v 0.05 0 -0.175 1 1 1
v 0.05 0 -0.225 1 1 1
v 0.025 0 -0.25 1 1 1
v -0.025 0 -0.25 1 1 1
v -0.025 1 -0.25 1 1 1
v 0.025 1 -0.25 1 1 1
v 0.05 1 -0.225 1 1 1
v 0.05 1 -0.175 1 1 1
v -0.075 0.675 -0.2353553 1 1 1
v -0.03535534 0.675 -0.275 1 1 1
v -0.075 0.825 -0.2353553 1 1 1
v -0.03535534 0.825 -0.275 1 1 1
v -0.03535534 0.675 -0.125 1 1 1
v -0.075 0.675 -0.1646446 1 1 1
v -0.03535534 0.825 -0.125 1 1 1
v -0.075 0.825 -0.1646446 1 1 1
v 0.03535534 0.675 -0.125 1 1 1
v 0.03535534 0.825 -0.125 1 1 1
v 0.03535534 0.675 -0.275 1 1 1
v 0.03535534 0.825 -0.275 1 1 1
v 0.075 0.675 -0.1646446 1 1 1
v 0.075 0.675 -0.2353553 1 1 1
v 0.075 0.825 -0.2353553 1 1 1
v 0.075 0.825 -0.1646446 1 1 1
v 0.075 0.325 0.1646447 1 1 1
v 0.075 0.175 0.1646447 1 1 1
v 0.075 0.325 0.2353553 1 1 1
v 0.075 0.175 0.2353553 1 1 1
v -0.03535534 0.175 0.125 1 1 1
v 0.03535534 0.175 0.125 1 1 1
v -0.03535534 0.325 0.125 1 1 1
v 0.03535534 0.325 0.125 1 1 1
v -0.075 0.175 0.1646447 1 1 1
v -0.075 0.325 0.1646447 1 1 1
v -0.075 0.175 0.2353553 1 1 1
v -0.075 0.325 0.2353553 1 1 1
v 0.03535534 0.175 0.275 1 1 1
v -0.03535534 0.175 0.275 1 1 1
v -0.03535534 0.325 0.275 1 1 1
v 0.03535534 0.325 0.275 1 1 1
v 0.03535534 0.675 0.125 1 1 1
v 0.075 0.675 0.1646447 1 1 1
v 0.03535534 0.825 0.125 1 1 1
v 0.075 0.825 0.1646447 1 1 1
v 0.075 0.825 0.2353553 1 1 1
v 0.03535534 0.825 0.275 1 1 1
v -0.03535534 0.825 0.125 1 1 1
v -0.03535534 0.825 0.275 1 1 1
v -0.075 0.825 0.1646447 1 1 1
v -0.075 0.825 0.2353553 1 1 1
v 0.075 0.675 0.2353553 1 1 1
v -0.03535534 0.675 0.125 1 1 1
v 0.03535534 0.675 0.275 1 1 1
v -0.03535534 0.675 0.275 1 1 1
v -0.075 0.675 0.1646447 1 1 1
v -0.075 0.675 0.2353553 1 1 1
v 0.075 0.325 -0.2353553 1 1 1
v 0.075 0.325 -0.1646446 1 1 1
v 0.03535534 0.325 -0.275 1 1 1
v 0.03535534 0.325 -0.125 1 1 1
v -0.03535534 0.325 -0.275 1 1 1
v -0.03535534 0.325 -0.125 1 1 1
v -0.075 0.325 -0.2353553 1 1 1
v -0.075 0.325 -0.1646446 1 1 1
v 0.075 0.175 -0.1646446 1 1 1
v 0.075 0.175 -0.2353553 1 1 1
v 0.03535534 0.175 -0.125 1 1 1
v 0.03535534 0.175 -0.275 1 1 1
v -0.03535534 0.175 -0.125 1 1 1
v -0.03535534 0.175 -0.275 1 1 1
v -0.075 0.175 -0.1646446 1 1 1
v -0.075 0.175 -0.2353553 1 1 1

vn -0.9238795 0 -0.3826834
vn -0.9238795 0 0.3826834
vn 0.3826834 0 0.9238795
vn -0.3826834 0 0.9238795
vn 0 -1 0
vn -0.3826834 0 -0.9238795
vn 0.3826834 0 -0.9238795
vn 0.9238795 0 -0.3826834
vn 0.9238795 0 0.3826834
vn 0 1 0
vn -0.9238795 -0.3826834 0
vn -0.9238795 0.3826834 0
vn 0.3826834 -0.9238795 0
vn -0.3826834 -0.9238795 0
vn 0.9238795 -0.3826834 0
vn 0.9238795 0.3826834 0
vn 0 0 -1
vn -0.3826834 0.9238795 0
vn 0.3826834 0.9238795 0
vn 0 0 1

vt 0.46875 0.025
vt 0.46875 0.225
vt 0.46875 0.2
vt 0.46875 0.2166667
vt 0.46875 0.2166666
vt 0.46875 0.1916666
vt 0.46875 0.03333334
vt 0.46875 0.03333333
vt 0.46875 0.05
vt 0.46875 0.025
vt 0.46875 0.05833333
vt 0.46875 0.05833334
vt 0.46875 0.1788462
vt 0.46875 0.07115385

usemtl colormap

f 3/1/2 2/2/1 1/1/1
f 2/2/1 3/1/2 4/2/2
f 7/2/3 6/1/4 5/1/3
f 6/1/4 7/2/3 8/2/4
f 5/1/5 10/1/5 9/1/5
f 10/1/5 5/1/5 11/1/5
f 11/1/5 5/1/5 6/1/5
f 11/1/5 6/1/5 12/1/5
f 12/1/5 6/1/5 3/1/5
f 12/1/5 3/1/5 1/1/5
f 13/2/6 11/1/7 12/1/6
f 11/1/7 13/2/6 14/2/7
f 16/2/9 10/1/8 15/2/8
f 10/1/8 16/2/9 9/1/9
f 14/2/10 16/2/10 15/2/10
f 16/2/10 14/2/10 7/2/10
f 7/2/10 14/2/10 13/2/10
f 7/2/10 13/2/10 8/2/10
f 8/2/10 13/2/10 2/2/10
f 8/2/10 2/2/10 4/2/10
f 1/1/1 13/2/6 12/1/6
f 13/2/6 1/1/1 2/2/1
f 6/1/4 4/2/2 3/1/2
f 4/2/2 6/1/4 8/2/4
f 7/2/3 9/1/9 16/2/9
f 9/1/9 7/2/3 5/1/3
f 15/2/8 11/1/7 14/2/7
f 11/1/7 15/2/8 10/1/8
f 19/3/11 18/4/12 17/3/11
f 18/4/12 19/3/11 20/5/12
f 23/6/14 22/6/13 21/6/13
f 22/6/13 23/6/14 24/6/14
f 23/6/14 17/3/11 24/6/14
f 17/3/11 23/6/14 19/3/11
f 27/4/16 26/3/15 25/3/15
f 26/3/15 27/4/16 28/5/16
f 25/3/15 21/6/13 22/6/13
f 21/6/13 25/3/15 26/3/15
f 17/3/17 22/6/17 24/6/17
f 22/6/17 17/3/17 25/3/17
f 25/3/17 17/3/17 18/4/17
f 25/3/17 18/4/17 27/4/17
f 27/4/17 18/4/17 29/2/17
f 27/4/17 29/2/17 30/2/17
f 20/5/12 29/2/18 18/4/12
f 29/2/18 20/5/12 31/2/18
f 30/2/19 28/5/16 27/4/16
f 28/5/16 30/2/19 32/2/19
f 29/2/18 32/2/19 30/2/19
f 32/2/19 29/2/18 31/2/18
f 26/3/20 23/6/20 21/6/20
f 23/6/20 26/3/20 19/3/20
f 19/3/20 26/3/20 28/5/20
f 19/3/20 28/5/20 20/5/20
f 20/5/20 28/5/20 32/2/20
f 20/5/20 32/2/20 31/2/20
f 35/9/16 34/8/15 33/7/15
f 34/8/15 35/9/16 36/9/16
f 33/7/15 38/1/13 37/10/13
f 38/1/13 33/7/15 34/8/15
f 34/8/20 39/1/20 38/1/20
f 39/1/20 34/8/20 40/8/20
f 40/8/20 34/8/20 36/9/20
f 40/8/20 36/9/20 41/9/20
f 41/9/20 36/9/20 42/11/20
f 41/9/20 42/11/20 43/11/20
f 39/1/14 37/10/13 38/1/13
f 37/10/13 39/1/14 44/10/14
f 41/9/12 46/12/18 45/9/12
f 46/12/18 41/9/12 43/11/18
f 39/1/14 47/7/11 44/10/14
f 47/7/11 39/1/14 40/8/11
f 48/12/19 36/9/16 35/9/16
f 36/9/16 48/12/19 42/11/19
f 46/12/18 42/11/19 48/12/19
f 42/11/19 46/12/18 43/11/18
f 40/8/11 45/9/12 47/7/11
f 45/9/12 40/8/11 41/9/12
f 47/7/17 37/10/17 44/10/17
f 37/10/17 47/7/17 33/7/17
f 33/7/17 47/7/17 45/9/17
f 33/7/17 45/9/17 35/9/17
f 35/9/17 45/9/17 46/12/17
f 35/9/17 46/12/17 48/12/17
f 51/1/2 50/2/1 49/1/1
f 50/2/1 51/1/2 52/2/2
f 55/2/3 54/1/4 53/1/3
f 54/1/4 55/2/3 56/2/4
f 53/1/5 58/1/5 57/1/5
f 58/1/5 53/1/5 59/1/5
f 59/1/5 53/1/5 54/1/5
f 59/1/5 54/1/5 60/1/5
f 60/1/5 54/1/5 51/1/5
f 60/1/5 51/1/5 49/1/5
f 61/2/6 59/1/7 60/1/6
f 59/1/7 61/2/6 62/2/7
f 64/2/9 58/1/8 63/2/8
f 58/1/8 64/2/9 57/1/9
f 62/2/10 64/2/10 63/2/10
f 64/2/10 62/2/10 55/2/10
f 55/2/10 62/2/10 61/2/10
f 55/2/10 61/2/10 56/2/10
f 56/2/10 61/2/10 50/2/10
f 56/2/10 50/2/10 52/2/10
f 49/1/1 61/2/6 60/1/6
f 61/2/6 49/1/1 50/2/1
f 54/1/4 52/2/2 51/1/2
f 52/2/2 54/1/4 56/2/4
f 55/2/3 57/1/9 64/2/9
f 57/1/9 55/2/3 53/1/3
f 63/2/8 59/1/7 62/2/7
f 59/1/7 63/2/8 58/1/8
f 67/2/1 66/13/6 65/13/1
f 66/13/6 67/2/1 68/2/6
f 71/2/4 70/13/2 69/13/4
f 70/13/2 71/2/4 72/2/2
f 74/2/3 69/13/4 73/13/3
f 69/13/4 74/2/3 71/2/4
f 68/2/6 75/13/7 66/13/6
f 75/13/7 68/2/6 76/2/7
f 73/13/5 78/13/5 77/13/5
f 78/13/5 73/13/5 75/13/5
f 75/13/5 73/13/5 69/13/5
f 75/13/5 69/13/5 66/13/5
f 66/13/5 69/13/5 70/13/5
f 66/13/5 70/13/5 65/13/5
f 76/2/7 78/13/8 75/13/7
f 78/13/8 76/2/7 79/2/8
f 76/2/10 80/2/10 79/2/10
f 80/2/10 76/2/10 74/2/10
f 74/2/10 76/2/10 68/2/10
f 74/2/10 68/2/10 71/2/10
f 71/2/10 68/2/10 67/2/10
f 71/2/10 67/2/10 72/2/10
f 80/2/9 78/13/8 79/2/8
f 78/13/8 80/2/9 77/13/9
f 80/2/9 73/13/3 77/13/9
f 73/13/3 80/2/9 74/2/3
f 70/13/2 67/2/1 65/13/1
f 67/2/1 70/13/2 72/2/2
f 83/14/9 82/1/8 81/14/8
f 82/1/8 83/14/9 84/1/9
f 87/14/6 86/1/7 85/1/6
f 86/1/7 87/14/6 88/14/7
f 91/1/2 90/14/1 89/1/1
f 90/14/1 91/1/2 92/14/2
f 93/1/5 82/1/5 84/1/5
f 82/1/5 93/1/5 86/1/5
f 86/1/5 93/1/5 94/1/5
f 86/1/5 94/1/5 85/1/5
f 85/1/5 94/1/5 91/1/5
f 85/1/5 91/1/5 89/1/5
f 90/14/1 85/1/6 89/1/1
f 85/1/6 90/14/1 87/14/6
f 95/14/4 91/1/2 94/1/4
f 91/1/2 95/14/4 92/14/2
f 96/14/3 94/1/4 93/1/3
f 94/1/4 96/14/3 95/14/4
f 83/14/9 93/1/3 84/1/9
f 93/1/3 83/14/9 96/14/3
f 88/14/7 82/1/8 86/1/7
f 82/1/8 88/14/7 81/14/8
f 88/14/10 83/14/10 81/14/10
f 83/14/10 88/14/10 96/14/10
f 96/14/10 88/14/10 87/14/10
f 96/14/10 87/14/10 95/14/10
f 95/14/10 87/14/10 90/14/10
f 95/14/10 90/14/10 92/14/10
f 99/2/7 98/13/8 97/13/7
f 98/13/8 99/2/7 100/2/8
f 99/2/10 101/2/10 100/2/10
f 101/2/10 99/2/10 102/2/10
f 102/2/10 99/2/10 103/2/10
f 102/2/10 103/2/10 104/2/10
f 104/2/10 103/2/10 105/2/10
f 104/2/10 105/2/10 106/2/10
f 101/2/9 98/13/8 100/2/8
f 98/13/8 101/2/9 107/13/9
f 103/2/6 97/13/7 108/13/6
f 97/13/7 103/2/6 99/2/7
f 102/2/3 110/13/4 109/13/3
f 110/13/4 102/2/3 104/2/4
f 105/2/1 108/13/6 111/13/1
f 108/13/6 105/2/1 103/2/6
f 112/13/2 105/2/1 111/13/1
f 105/2/1 112/13/2 106/2/2
f 109/13/5 98/13/5 107/13/5
f 98/13/5 109/13/5 97/13/5
f 97/13/5 109/13/5 110/13/5
f 97/13/5 110/13/5 108/13/5
f 108/13/5 110/13/5 112/13/5
f 108/13/5 112/13/5 111/13/5
f 101/2/9 109/13/3 107/13/9
f 109/13/3 101/2/9 102/2/3
f 104/2/4 112/13/2 110/13/4
f 112/13/2 104/2/4 106/2/2
f 115/14/10 114/14/10 113/14/10
f 114/14/10 115/14/10 116/14/10
f 116/14/10 115/14/10 117/14/10
f 116/14/10 117/14/10 118/14/10
f 118/14/10 117/14/10 119/14/10
f 118/14/10 119/14/10 120/14/10
f 123/1/5 122/1/5 121/1/5
f 122/1/5 123/1/5 124/1/5
f 124/1/5 123/1/5 125/1/5
f 124/1/5 125/1/5 126/1/5
f 126/1/5 125/1/5 127/1/5
f 126/1/5 127/1/5 128/1/5
f 118/14/4 127/1/2 125/1/4
f 127/1/2 118/14/4 120/14/2
f 117/14/6 124/1/7 126/1/6
f 124/1/7 117/14/6 115/14/7
f 114/14/9 123/1/3 121/1/9
f 123/1/3 114/14/9 116/14/3
f 114/14/9 122/1/8 113/14/8
f 122/1/8 114/14/9 121/1/9
f 116/14/3 125/1/4 123/1/3
f 125/1/4 116/14/3 118/14/4
f 115/14/7 122/1/8 124/1/7
f 122/1/8 115/14/7 113/14/8
f 127/1/2 119/14/1 128/1/1
f 119/14/1 127/1/2 120/14/2
f 119/14/1 126/1/6 128/1/1
f 126/1/6 119/14/1 117/14/6

g ladder




usemtl colormap

f 3/1/2 2/2/1 1/1/1
f 2/2/1 3/1/2 4/2/2
f 7/2/3 6/1/4 5/1/3
f 6/1/4 7/2/3 8/2/4
f 5/1/5 10/1/5 9/1/5
f 10/1/5 5/1/5 11/1/5
f 11/1/5 5/1/5 6/1/5
f 11/1/5 6/1/5 12/1/5
f 12/1/5 6/1/5 3/1/5
f 12/1/5 3/1/5 1/1/5
f 13/2/6 11/1/7 12/1/6
f 11/1/7 13/2/6 14/2/7
f 16/2/9 10/1/8 15/2/8
f 10/1/8 16/2/9 9/1/9
f 14/2/10 16/2/10 15/2/10
f 16/2/10 14/2/10 7/2/10
f 7/2/10 14/2/10 13/2/10
f 7/2/10 13/2/10 8/2/10
f 8/2/10 13/2/10 2/2/10
f 8/2/10 2/2/10 4/2/10
f 1/1/1 13/2/6 12/1/6
f 13/2/6 1/1/1 2/2/1
f 6/1/4 4/2/2 3/1/2
f 4/2/2 6/1/4 8/2/4
f 7/2/3 9/1/9 16/2/9
f 9/1/9 7/2/3 5/1/3
f 15/2/8 11/1/7 14/2/7
f 11/1/7 15/2/8 10/1/8
f 19/3/11 18/4/12 17/3/11
f 18/4/12 19/3/11 20/5/12
f 23/6/14 22/6/13 21/6/13
f 22/6/13 23/6/14 24/6/14
f 23/6/14 17/3/11 24/6/14
f 17/3/11 23/6/14 19/3/11
f 27/4/16 26/3/15 25/3/15
f 26/3/15 27/4/16 28/5/16
f 25/3/15 21/6/13 22/6/13
f 21/6/13 25/3/15 26/3/15
f 17/3/17 22/6/17 24/6/17
f 22/6/17 17/3/17 25/3/17
f 25/3/17 17/3/17 18/4/17
f 25/3/17 18/4/17 27/4/17
f 27/4/17 18/4/17 29/2/17
f 27/4/17 29/2/17 30/2/17
f 20/5/12 29/2/18 18/4/12
f 29/2/18 20/5/12 31/2/18
f 30/2/19 28/5/16 27/4/16
f 28/5/16 30/2/19 32/2/19
f 29/2/18 32/2/19 30/2/19
f 32/2/19 29/2/18 31/2/18
f 26/3/20 23/6/20 21/6/20
f 23/6/20 26/3/20 19/3/20
f 19/3/20 26/3/20 28/5/20
f 19/3/20 28/5/20 20/5/20
f 20/5/20 28/5/20 32/2/20
f 20/5/20 32/2/20 31/2/20
f 35/9/16 34/8/15 33/7/15
f 34/8/15 35/9/16 36/9/16
f 33/7/15 38/1/13 37/10/13
f 38/1/13 33/7/15 34/8/15
f 34/8/20 39/1/20 38/1/20
f 39/1/20 34/8/20 40/8/20
f 40/8/20 34/8/20 36/9/20
f 40/8/20 36/9/20 41/9/20
f 41/9/20 36/9/20 42/11/20
f 41/9/20 42/11/20 43/11/20
f 39/1/14 37/10/13 38/1/13
f 37/10/13 39/1/14 44/10/14
f 41/9/12 46/12/18 45/9/12
f 46/12/18 41/9/12 43/11/18
f 39/1/14 47/7/11 44/10/14
f 47/7/11 39/1/14 40/8/11
f 48/12/19 36/9/16 35/9/16
f 36/9/16 48/12/19 42/11/19
f 46/12/18 42/11/19 48/12/19
f 42/11/19 46/12/18 43/11/18
f 40/8/11 45/9/12 47/7/11
f 45/9/12 40/8/11 41/9/12
f 47/7/17 37/10/17 44/10/17
f 37/10/17 47/7/17 33/7/17
f 33/7/17 47/7/17 45/9/17
f 33/7/17 45/9/17 35/9/17
f 35/9/17 45/9/17 46/12/17
f 35/9/17 46/12/17 48/12/17
f 51/1/2 50/2/1 49/1/1
f 50/2/1 51/1/2 52/2/2
f 55/2/3 54/1/4 53/1/3
f 54/1/4 55/2/3 56/2/4
f 53/1/5 58/1/5 57/1/5
f 58/1/5 53/1/5 59/1/5
f 59/1/5 53/1/5 54/1/5
f 59/1/5 54/1/5 60/1/5
f 60/1/5 54/1/5 51/1/5
f 60/1/5 51/1/5 49/1/5
f 61/2/6 59/1/7 60/1/6
f 59/1/7 61/2/6 62/2/7
f 64/2/9 58/1/8 63/2/8
f 58/1/8 64/2/9 57/1/9
f 62/2/10 64/2/10 63/2/10
f 64/2/10 62/2/10 55/2/10
f 55/2/10 62/2/10 61/2/10
f 55/2/10 61/2/10 56/2/10
f 56/2/10 61/2/10 50/2/10
f 56/2/10 50/2/10 52/2/10
f 49/1/1 61/2/6 60/1/6
f 61/2/6 49/1/1 50/2/1
f 54/1/4 52/2/2 51/1/2
f 52/2/2 54/1/4 56/2/4
f 55/2/3 57/1/9 64/2/9
f 57/1/9 55/2/3 53/1/3
f 63/2/8 59/1/7 62/2/7
f 59/1/7 63/2/8 58/1/8
f 67/2/1 66/13/6 65/13/1
f 66/13/6 67/2/1 68/2/6
f 71/2/4 70/13/2 69/13/4
f 70/13/2 71/2/4 72/2/2
f 74/2/3 69/13/4 73/13/3
f 69/13/4 74/2/3 71/2/4
f 68/2/6 75/13/7 66/13/6
f 75/13/7 68/2/6 76/2/7
f 73/13/5 78/13/5 77/13/5
f 78/13/5 73/13/5 75/13/5
f 75/13/5 73/13/5 69/13/5
f 75/13/5 69/13/5 66/13/5
f 66/13/5 69/13/5 70/13/5
f 66/13/5 70/13/5 65/13/5
f 76/2/7 78/13/8 75/13/7
f 78/13/8 76/2/7 79/2/8
f 76/2/10 80/2/10 79/2/10
f 80/2/10 76/2/10 74/2/10
f 74/2/10 76/2/10 68/2/10
f 74/2/10 68/2/10 71/2/10
f 71/2/10 68/2/10 67/2/10
f 71/2/10 67/2/10 72/2/10
f 80/2/9 78/13/8 79/2/8
f 78/13/8 80/2/9 77/13/9
f 80/2/9 73/13/3 77/13/9
f 73/13/3 80/2/9 74/2/3
f 70/13/2 67/2/1 65/13/1
f 67/2/1 70/13/2 72/2/2
f 83/14/9 82/1/8 81/14/8
f 82/1/8 83/14/9 84/1/9
f 87/14/6 86/1/7 85/1/6
f 86/1/7 87/14/6 88/14/7
f 91/1/2 90/14/1 89/1/1
f 90/14/1 91/1/2 92/14/2
f 93/1/5 82/1/5 84/1/5
f 82/1/5 93/1/5 86/1/5
f 86/1/5 93/1/5 94/1/5
f 86/1/5 94/1/5 85/1/5
f 85/1/5 94/1/5 91/1/5
f 85/1/5 91/1/5 89/1/5
f 90/14/1 85/1/6 89/1/1
f 85/1/6 90/14/1 87/14/6
f 95/14/4 91/1/2 94/1/4
f 91/1/2 95/14/4 92/14/2
f 96/14/3 94/1/4 93/1/3
f 94/1/4 96/14/3 95/14/4
f 83/14/9 93/1/3 84/1/9
f 93/1/3 83/14/9 96/14/3
f 88/14/7 82/1/8 86/1/7
f 82/1/8 88/14/7 81/14/8
f 88/14/10 83/14/10 81/14/10
f 83/14/10 88/14/10 96/14/10
f 96/14/10 88/14/10 87/14/10
f 96/14/10 87/14/10 95/14/10
f 95/14/10 87/14/10 90/14/10
f 95/14/10 90/14/10 92/14/10
f 99/2/7 98/13/8 97/13/7
f 98/13/8 99/2/7 100/2/8
f 99/2/10 101/2/10 100/2/10
f 101/2/10 99/2/10 102/2/10
f 102/2/10 99/2/10 103/2/10
f 102/2/10 103/2/10 104/2/10
f 104/2/10 103/2/10 105/2/10
f 104/2/10 105/2/10 106/2/10
f 101/2/9 98/13/8 100/2/8
f 98/13/8 101/2/9 107/13/9
f 103/2/6 97/13/7 108/13/6
f 97/13/7 103/2/6 99/2/7
f 102/2/3 110/13/4 109/13/3
f 110/13/4 102/2/3 104/2/4
f 105/2/1 108/13/6 111/13/1
f 108/13/6 105/2/1 103/2/6
f 112/13/2 105/2/1 111/13/1
f 105/2/1 112/13/2 106/2/2
f 109/13/5 98/13/5 107/13/5
f 98/13/5 109/13/5 97/13/5
f 97/13/5 109/13/5 110/13/5
f 97/13/5 110/13/5 108/13/5
f 108/13/5 110/13/5 112/13/5
f 108/13/5 112/13/5 111/13/5
f 101/2/9 109/13/3 107/13/9
f 109/13/3 101/2/9 102/2/3
f 104/2/4 112/13/2 110/13/4
f 112/13/2 104/2/4 106/2/2
f 115/14/10 114/14/10 113/14/10
f 114/14/10 115/14/10 116/14/10
f 116/14/10 115/14/10 117/14/10
f 116/14/10 117/14/10 118/14/10
f 118/14/10 117/14/10 119/14/10
f 118/14/10 119/14/10 120/14/10
f 123/1/5 122/1/5 121/1/5
f 122/1/5 123/1/5 124/1/5
f 124/1/5 123/1/5 125/1/5
f 124/1/5 125/1/5 126/1/5
f 126/1/5 125/1/5 127/1/5
f 126/1/5 127/1/5 128/1/5
f 118/14/4 127/1/2 125/1/4
f 127/1/2 118/14/4 120/14/2
f 117/14/6 124/1/7 126/1/6
f 124/1/7 117/14/6 115/14/7
f 114/14/9 123/1/3 121/1/9
f 123/1/3 114/14/9 116/14/3
f 114/14/9 122/1/8 113/14/8
f 122/1/8 114/14/9 121/1/9
f 116/14/3 125/1/4 123/1/3
f 125/1/4 116/14/3 118/14/4
f 115/14/7 122/1/8 124/1/7
f 122/1/8 115/14/7 113/14/8
f 127/1/2 119/14/1 128/1/1
f 119/14/1 127/1/2 120/14/2
f 119/14/1 126/1/6 128/1/1
f 126/1/6 119/14/1 117/14/6

