# Created by Kenney (www.kenney.nl)

mtllib lever-double.mtl

g lever-double

v 0.2 0.1 -0.25 1 1 1
v 0.2 2.359224E-16 -0.25 1 1 1
v 0.25 0.1 -0.2 1 1 1
v 0.25 0 -0.2 1 1 1
v 0.25 0.1 0.2 1 1 1
v 0.25 1.804779E-16 0.2 1 1 1
v -0.2 2.262479E-15 -0.25 1 1 1
v -0.2 0.1 -0.25 1 1 1
v -0.25 2.498401E-15 -0.2 1 1 1
v -0.25 0.1 -0.2 1 1 1
v -0.25 2.498401E-15 0.2 1 1 1
v -0.25 0.1 0.2 1 1 1
v 0.2 4.164003E-16 0.25 1 1 1
v -0.2 2.262479E-15 0.25 1 1 1
v 0.2 0.1 0.25 1 1 1
v -0.2 0.1 0.25 1 1 1
v 0.05 0.2 -0.15 1 1 1
v 0.05 0.2 0.15 1 1 1
v -0.05 0.2 -0.15 1 1 1
v -0.05 0.2 0.15 1 1 1
v -0.15 0.1 -0.15 1 1 1
v 0.15 0.1 -0.15 1 1 1
v 0.15 0.1 0.15 1 1 1
v -0.15 0.1 0.15 1 1 1

vn 0.3826834 0 -0.9238795
vn 0.9238795 0 -0.3826834
vn 0.9238795 0 0.3826834
vn -0.3826834 0 -0.9238795
vn -0.9238795 0 -0.3826834
vn -0.9238795 0 0.3826834
vn 0.3826834 0 0.9238795
vn -0.3826834 0 0.9238795
vn 0.3826834 0.9238795 0
vn -0.3826834 0.9238795 0
vn 0 0 -1
vn 0 0 1
vn -0.7071068 0.7071068 0
vn 0.7071068 0.7071068 0
vn 0 1 0
vn 0 -1 0

vt 0.46875 0.225
vt 0.46875 0.025
vt 0.21875 0.225
vt 0.21875 0.025

usemtl colormap

f 3/1/2 2/2/1 1/1/1
f 2/2/1 3/1/2 4/2/2
f 5/1/3 4/2/2 3/1/2
f 4/2/2 5/1/3 6/2/3
f 9/2/5 8/1/4 7/2/4
f 8/1/4 9/2/5 10/1/5
f 11/2/6 10/1/5 9/2/5
f 10/1/5 11/2/6 12/1/6
f 15/1/7 14/2/8 13/2/7
f 14/2/8 15/1/7 16/1/8
f 7/2/4 1/1/1 2/2/1
f 1/1/1 7/2/4 8/1/4
f 16/1/8 11/2/6 14/2/8
f 11/2/6 16/1/8 12/1/6
f 15/1/7 6/2/3 5/1/3
f 6/2/3 15/1/7 13/2/7
f 19/1/10 18/1/9 17/1/9
f 18/1/9 19/1/10 20/1/10
f 19/1/11 22/2/11 21/2/11
f 22/2/11 19/1/11 17/1/11
f 18/1/12 24/2/12 23/2/12
f 24/2/12 18/1/12 20/1/12
f 21/2/13 20/1/10 19/1/10
f 20/1/10 21/2/13 24/2/13
f 17/1/9 23/2/14 22/2/14
f 23/2/14 17/1/9 18/1/9
f 1/3/15 5/3/15 3/3/15
f 5/3/15 1/3/15 15/3/15
f 15/3/15 1/3/15 8/3/15
f 15/3/15 8/3/15 16/3/15
f 16/3/15 8/3/15 10/3/15
f 16/3/15 10/3/15 12/3/15
f 13/4/16 4/4/16 6/4/16
f 4/4/16 13/4/16 2/4/16
f 2/4/16 13/4/16 14/4/16
f 2/4/16 14/4/16 7/4/16
f 7/4/16 14/4/16 11/4/16
f 7/4/16 11/4/16 9/4/16

g lever-double




usemtl colormap

f 3/1/2 2/2/1 1/1/1
f 2/2/1 3/1/2 4/2/2
f 5/1/3 4/2/2 3/1/2
f 4/2/2 5/1/3 6/2/3
f 9/2/5 8/1/4 7/2/4
f 8/1/4 9/2/5 10/1/5
f 11/2/6 10/1/5 9/2/5
f 10/1/5 11/2/6 12/1/6
f 15/1/7 14/2/8 13/2/7
f 14/2/8 15/1/7 16/1/8
f 7/2/4 1/1/1 2/2/1
f 1/1/1 7/2/4 8/1/4
f 16/1/8 11/2/6 14/2/8
f 11/2/6 16/1/8 12/1/6
f 15/1/7 6/2/3 5/1/3
f 6/2/3 15/1/7 13/2/7
f 19/1/10 18/1/9 17/1/9
f 18/1/9 19/1/10 20/1/10
f 19/1/11 22/2/11 21/2/11
f 22/2/11 19/1/11 17/1/11
f 18/1/12 24/2/12 23/2/12
f 24/2/12 18/1/12 20/1/12
f 21/2/13 20/1/10 19/1/10
f 20/1/10 21/2/13 24/2/13
f 17/1/9 23/2/14 22/2/14
f 23/2/14 17/1/9 18/1/9
f 1/3/15 5/3/15 3/3/15
f 5/3/15 1/3/15 15/3/15
f 15/3/15 1/3/15 8/3/15
f 15/3/15 8/3/15 16/3/15
f 16/3/15 8/3/15 10/3/15
f 16/3/15 10/3/15 12/3/15
f 13/4/16 4/4/16 6/4/16
f 4/4/16 13/4/16 2/4/16
f 2/4/16 13/4/16 14/4/16
f 2/4/16 14/4/16 7/4/16
f 7/4/16 14/4/16 11/4/16
f 7/4/16 11/4/16 9/4/16

g handle

v 0.025 0.3 0.075 1 1 1
v 0.025 0.3 -0.075 1 1 1
v -0.025 0.3 0.075 1 1 1
v -0.025 0.3 -0.075 1 1 1
v -0.025 0.1 -0.125 1 1 1
v 0.025 0.1 -0.125 1 1 1
v -0.025 0.325 -0.125 1 1 1
v 0.025 0.325 -0.125 1 1 1
v -0.025 0.1 0.075 1 1 1
v 0.025 0.1 0.075 1 1 1
v 0.025 0.1 0.125 1 1 1
v -0.025 0.1 0.125 1 1 1
v 0.025 0.325 0.125 1 1 1
v -0.025 0.325 0.125 1 1 1
v -0.025 0.35 0.1 1 1 1
v -0.025 0.35 -0.1 1 1 1
v -0.025 0.1 -0.075 1 1 1
v 0.025 0.1 -0.075 1 1 1
v 0.025 0.35 -0.1 1 1 1
v 0.025 0.35 0.1 1 1 1
v -0.05 0.3 -0.075 1 1 1
v -0.05 0.35 -0.075 1 1 1
v -0.05 0.3 0.075 1 1 1
v -0.05 0.35 0.075 1 1 1
v 0.05 0.35 -0.075 1 1 1
v 0.05 0.3 -0.075 1 1 1
v 0.05 0.35 0.075 1 1 1
v 0.05 0.3 0.075 1 1 1
v 0.025 0.275 0.075 1 1 1
v 0.025 0.275 -0.075 1 1 1
v -0.025 0.275 0.075 1 1 1
v -0.025 0.275 -0.075 1 1 1
v 0.025 0.375 -0.075 1 1 1
v -0.025 0.375 -0.075 1 1 1
v 0.025 0.375 0.075 1 1 1
v -0.025 0.375 0.075 1 1 1

vn 0 0.3826834 -0.9238795
vn 0 0.3826834 0.9238795
vn -1 0 0
vn 1 0 0
vn 0 0.9238795 -0.3826834
vn 0 0.9238795 0.3826834
vn -0.9238795 -0.3826834 0
vn -0.9238795 0.3826834 0
vn 0.9238795 0.3826834 0
vn 0.9238795 -0.3826834 0
vn 0.3826834 -0.9238795 0
vn -0.3826834 -0.9238795 0

vt 0.46875 0.185
vt 0.46875 0.205
vt 0.59375 0.325
vt 0.59375 0.425
vt 0.59375 0.275
vt 0.59375 0.475

usemtl colormap

f 27/5/16 26/5/16 25/5/16
f 26/5/16 27/5/16 28/5/16
f 31/6/17 30/2/11 29/2/11
f 30/2/11 31/6/17 32/6/17
f 27/5/11 34/2/11 33/2/11
f 34/2/11 27/5/11 25/5/11
f 37/6/18 36/2/12 35/2/12
f 36/2/12 37/6/18 38/6/18
f 36/2/19 27/5/19 33/2/19
f 27/5/19 36/2/19 39/1/19
f 39/1/19 36/2/19 38/6/19
f 39/1/19 28/5/19 27/5/19
f 40/1/19 28/5/19 39/1/19
f 40/1/19 41/2/19 28/5/19
f 31/6/19 41/2/19 40/1/19
f 41/2/19 31/6/19 29/2/19
f 32/6/20 42/2/20 30/2/20
f 42/2/20 32/6/20 43/1/20
f 42/2/20 43/1/20 26/5/20
f 26/5/20 43/1/20 44/1/20
f 26/5/20 44/1/20 25/5/20
f 35/2/20 25/5/20 44/1/20
f 35/2/20 44/1/20 37/6/20
f 25/5/20 35/2/20 34/2/20
f 40/1/21 44/1/22 43/1/21
f 44/1/22 40/1/21 39/1/22
f 26/5/12 41/2/12 42/2/12
f 41/2/12 26/5/12 28/5/12
f 44/1/22 38/6/18 37/6/18
f 38/6/18 44/1/22 39/1/22
f 40/1/21 32/6/17 31/6/17
f 32/6/17 40/1/21 43/1/21
f 47/7/23 46/8/24 45/7/23
f 46/8/24 47/7/23 48/8/24
f 51/8/25 50/7/26 49/8/25
f 50/7/26 51/8/25 52/7/26
f 55/9/28 54/9/27 53/9/27
f 54/9/27 55/9/28 56/9/28
f 45/7/11 54/9/11 56/9/11
f 54/9/11 45/7/11 50/7/11
f 50/7/11 45/7/11 46/8/11
f 50/7/11 46/8/11 49/8/11
f 49/8/11 46/8/11 57/10/11
f 57/10/11 46/8/11 58/10/11
f 58/10/10 59/10/9 57/10/9
f 59/10/9 58/10/10 60/10/10
f 53/9/12 47/7/12 55/9/12
f 47/7/12 53/9/12 52/7/12
f 47/7/12 52/7/12 48/8/12
f 48/8/12 52/7/12 51/8/12
f 48/8/12 51/8/12 59/10/12
f 48/8/12 59/10/12 60/10/12
f 59/10/9 49/8/25 57/10/9
f 49/8/25 59/10/9 51/8/25
f 48/8/24 58/10/10 46/8/24
f 58/10/10 48/8/24 60/10/10
f 55/9/28 45/7/23 56/9/28
f 45/7/23 55/9/28 47/7/23
f 52/7/26 54/9/27 50/7/26
f 54/9/27 52/7/26 53/9/27

