# Created by Kenney (www.kenney.nl)

mtllib number-double-7.mtl

g number-double-7

v 0.1 0.45 0.15 1 1 1
v 0 0.45 0.15 1 1 1
v 0.1 0.4875 0.1375 1 1 1
v 0 0.4875 0.1375 1 1 1
v 0 0.1 -0.05 1 1 1
v 0.1 0.1 -0.05 1 1 1
v 7.219114E-16 0.4 0.05 1 1 1
v 0.1 0.4 0.05 1 1 1
v 0.1 0.1 0.05 1 1 1
v 0 0.1 0.05 1 1 1
v 0.1 0.4 0.15 1 1 1
v 7.219114E-16 0.4 0.15 1 1 1
v 0.1 0 0.05 1 1 1
v 0.1 0 -0.05 1 1 1
v 0 0 0.05 1 1 1
v 0 0 -0.05 1 1 1
v 0.1 0.5 0.1 1 1 1
v 0.1 0.4 -0.15 1 1 1
v 0.1 0.5 -0.15 1 1 1
v 0 0.4 -0.15 1 1 1
v 0 0.5 -0.15 1 1 1
v 0 0.5 0.1 1 1 1
v -0.1 0 -0.05 1 1 1
v -0.1 0.1 -0.05 1 1 1
v -0.1 0 0.05 1 1 1
v -0.1 0.4 0.05 1 1 1
v -0.1 0.1 0.05 1 1 1
v -0.1 0.4 0.15 1 1 1
v -0.1 0.5 0.1 1 1 1
v -0.1 0.4875 0.1375 1 1 1
v -0.1 0.45 0.15 1 1 1
v -0.1 0.5 -0.15 1 1 1
v -0.1 0.4 -0.15 1 1 1
v 0 0.4 0.05 1 1 1
v 0 0.4 0.15 1 1 1

vn 0 0.1601822 0.9870875
vn 0 0.7071068 0.7071068
vn 0 0.1601822 -0.9870875
vn 0 0.3162278 -0.9486833
vn 0 -0.1601822 0.9870875
vn 0 -0.3162278 0.9486833
vn 0 -1 0
vn 1 0 0
vn 0 0 1
vn 0 0 -1
vn 0 1 0
vn 0 0.9870875 0.1601822
vn -1 0 0

vt 0.21875 0.205
vt 0.21875 0.22
vt 0.21875 0.065
vt 0.21875 0.185
vt 0.21875 0.025
vt 0.21875 0.225
vt 0.34375 0.275
vt 0.34375 0.315
vt 0.34375 0.435
vt 0.34375 0.475
vt 0.34375 0.47
vt 0.34375 0.455

usemtl colormap

f 3/2/2 2/1/1 1/1/1
f 2/1/1 3/2/2 4/2/2
f 7/4/4 6/3/3 5/3/3
f 6/3/3 7/4/4 8/4/4
f 11/4/6 10/3/5 9/3/5
f 10/3/5 11/4/6 12/4/6
f 15/5/7 14/5/7 13/5/7
f 14/5/7 15/5/7 16/5/7
f 8/4/8 14/5/8 6/3/8
f 14/5/8 8/4/8 13/5/8
f 13/5/8 8/4/8 9/3/8
f 8/4/8 17/6/8 9/3/8
f 18/4/8 17/6/8 8/4/8
f 17/6/8 18/4/8 19/6/8
f 9/3/8 17/6/8 11/4/8
f 11/4/8 17/6/8 3/2/8
f 11/4/8 3/2/8 1/1/8
f 1/1/1 12/4/9 11/4/9
f 12/4/9 1/1/1 2/1/1
f 21/6/10 18/4/10 20/4/10
f 18/4/10 21/6/10 19/6/10
f 21/6/11 17/6/12 19/6/11
f 17/6/12 21/6/11 22/6/12
f 22/6/12 3/2/2 17/6/12
f 3/2/2 22/6/12 4/2/2
f 5/3/3 14/5/10 16/5/10
f 14/5/10 5/3/3 6/3/3
f 9/3/5 15/5/9 13/5/9
f 15/5/9 9/3/5 10/3/5
f 7/4/7 18/4/7 8/4/7
f 18/4/7 7/4/7 20/4/7
f 25/7/13 24/8/13 23/7/13
f 24/8/13 25/7/13 26/9/13
f 26/9/13 25/7/13 27/8/13
f 26/9/13 27/8/13 28/9/13
f 26/9/13 28/9/13 29/10/13
f 29/10/13 28/9/13 30/11/13
f 30/11/13 28/9/13 31/12/13
f 32/10/13 26/9/13 29/10/13
f 26/9/13 32/10/13 33/9/13
f 24/8/3 16/7/10 23/7/10
f 16/7/10 24/8/3 5/8/3
f 10/8/5 25/7/9 15/7/9
f 25/7/9 10/8/5 27/8/5
f 26/9/4 5/8/3 24/8/3
f 5/8/3 26/9/4 34/9/4
f 32/10/11 22/10/12 21/10/11
f 22/10/12 32/10/11 29/10/12
f 4/11/2 31/12/1 2/12/1
f 31/12/1 4/11/2 30/11/2
f 2/12/1 28/9/9 35/9/9
f 28/9/9 2/12/1 31/12/1
f 29/10/12 4/11/2 22/10/12
f 4/11/2 29/10/12 30/11/2
f 25/7/7 16/7/7 15/7/7
f 16/7/7 25/7/7 23/7/7
f 32/10/10 20/9/10 33/9/10
f 20/9/10 32/10/10 21/10/10
f 35/9/6 27/8/5 10/8/5
f 27/8/5 35/9/6 28/9/6
f 26/9/7 20/9/7 34/9/7
f 20/9/7 26/9/7 33/9/7

g number-double-7




usemtl colormap

f 3/2/2 2/1/1 1/1/1
f 2/1/1 3/2/2 4/2/2
f 7/4/4 6/3/3 5/3/3
f 6/3/3 7/4/4 8/4/4
f 11/4/6 10/3/5 9/3/5
f 10/3/5 11/4/6 12/4/6
f 15/5/7 14/5/7 13/5/7
f 14/5/7 15/5/7 16/5/7
f 8/4/8 14/5/8 6/3/8
f 14/5/8 8/4/8 13/5/8
f 13/5/8 8/4/8 9/3/8
f 8/4/8 17/6/8 9/3/8
f 18/4/8 17/6/8 8/4/8
f 17/6/8 18/4/8 19/6/8
f 9/3/8 17/6/8 11/4/8
f 11/4/8 17/6/8 3/2/8
f 11/4/8 3/2/8 1/1/8
f 1/1/1 12/4/9 11/4/9
f 12/4/9 1/1/1 2/1/1
f 21/6/10 18/4/10 20/4/10
f 18/4/10 21/6/10 19/6/10
f 21/6/11 17/6/12 19/6/11
f 17/6/12 21/6/11 22/6/12
f 22/6/12 3/2/2 17/6/12
f 3/2/2 22/6/12 4/2/2
f 5/3/3 14/5/10 16/5/10
f 14/5/10 5/3/3 6/3/3
f 9/3/5 15/5/9 13/5/9
f 15/5/9 9/3/5 10/3/5
f 7/4/7 18/4/7 8/4/7
f 18/4/7 7/4/7 20/4/7
f 25/7/13 24/8/13 23/7/13
f 24/8/13 25/7/13 26/9/13
f 26/9/13 25/7/13 27/8/13
f 26/9/13 27/8/13 28/9/13
f 26/9/13 28/9/13 29/10/13
f 29/10/13 28/9/13 30/11/13
f 30/11/13 28/9/13 31/12/13
f 32/10/13 26/9/13 29/10/13
f 26/9/13 32/10/13 33/9/13
f 24/8/3 16/7/10 23/7/10
f 16/7/10 24/8/3 5/8/3
f 10/8/5 25/7/9 15/7/9
f 25/7/9 10/8/5 27/8/5
f 26/9/4 5/8/3 24/8/3
f 5/8/3 26/9/4 34/9/4
f 32/10/11 22/10/12 21/10/11
f 22/10/12 32/10/11 29/10/12
f 4/11/2 31/12/1 2/12/1
f 31/12/1 4/11/2 30/11/2
f 2/12/1 28/9/9 35/9/9
f 28/9/9 2/12/1 31/12/1
f 29/10/12 4/11/2 22/10/12
f 4/11/2 29/10/12 30/11/2
f 25/7/7 16/7/7 15/7/7
f 16/7/7 25/7/7 23/7/7
f 32/10/10 20/9/10 33/9/10
f 20/9/10 32/10/10 21/10/10
f 35/9/6 27/8/5 10/8/5
f 27/8/5 35/9/6 28/9/6
f 26/9/7 20/9/7 34/9/7
f 20/9/7 26/9/7 33/9/7

