# Created by Kenney (www.kenney.nl)

mtllib number-5.mtl

g number-5

v -0.1 0 -0.15 1 1 1
v -0.1 0.1 -0.15 1 1 1
v -0.1 0 0.1 1 1 1
v -0.1 0.1 0.05 1 1 1
v -0.1 0.2 0.05 1 1 1
v -0.1 0.3 0.1 1 1 1
v -0.1 0.0125 0.1375 1 1 1
v -0.1 0.2875 0.1375 1 1 1
v -0.1 0.05 0.15 1 1 1
v -0.1 0.25 0.15 1 1 1
v -0.1 0.3 -0.05 1 1 1
v -0.1 0.2 -0.15 1 1 1
v -0.1 0.5 -0.15 1 1 1
v -0.1 0.4 -0.05 1 1 1
v -0.1 0.5 0.15 1 1 1
v -0.1 0.4 0.15 1 1 1
v 0.1 0.4 0.15 1 1 1
v 0.1 0.5 0.15 1 1 1
v 0.1 0.4 -0.05 1 1 1
v 0.1 0.5 -0.15 1 1 1
v 0.1 0.2 -0.15 1 1 1
v 0.1 0.3 -0.05 1 1 1
v 0.1 0.2 0.05 1 1 1
v 0.1 0.3 0.1 1 1 1
v 0.1 0.1 0.05 1 1 1
v 0.1 0 0.1 1 1 1
v 0.1 0 -0.15 1 1 1
v 0.1 0.1 -0.15 1 1 1
v 0.1 0.0125 0.1375 1 1 1
v 0.1 0.2875 0.1375 1 1 1
v 0.1 0.05 0.15 1 1 1
v 0.1 0.25 0.15 1 1 1

vn -1 0 0
vn 1 0 0
vn 0 0 1
vn 0 -0.7071068 0.7071068
vn 0 -0.1601822 0.9870875
vn 0 0 -1
vn 0 1 0
vn 0 0.9870875 0.1601822
vn 0 -0.9870875 0.1601822
vn 0 -1 0
vn 0 0.1601822 0.9870875
vn 0 0.7071068 0.7071068

vt 0.34375 0.275
vt 0.34375 0.315
vt 0.34375 0.355
vt 0.34375 0.395
vt 0.34375 0.28
vt 0.34375 0.39
vt 0.34375 0.295
vt 0.34375 0.375
vt 0.34375 0.475
vt 0.34375 0.435
vt 0.21875 0.145
vt 0.21875 0.185
vt 0.21875 0.03
vt 0.21875 0.045
vt 0.21875 0.105
vt 0.21875 0.225
vt 0.21875 0.025
vt 0.21875 0.125
vt 0.21875 0.14
vt 0.21875 0.065

usemtl colormap

f 3/1/1 2/2/1 1/1/1
f 2/2/1 3/1/1 4/2/1
f 4/2/1 3/1/1 5/3/1
f 6/4/1 5/3/1 3/1/1
f 6/4/1 3/1/1 7/5/1
f 6/4/1 7/5/1 8/6/1
f 8/6/1 7/5/1 9/7/1
f 8/6/1 9/7/1 10/8/1
f 11/4/1 5/3/1 6/4/1
f 11/4/1 12/3/1 5/3/1
f 12/3/1 11/4/1 13/9/1
f 14/10/1 13/9/1 11/4/1
f 13/9/1 14/10/1 15/9/1
f 15/9/1 14/10/1 16/10/1
f 19/10/2 18/9/2 17/10/2
f 19/10/2 20/9/2 18/9/2
f 20/9/2 19/10/2 21/3/2
f 22/4/2 21/3/2 19/10/2
f 21/3/2 22/4/2 23/3/2
f 23/3/2 22/4/2 24/4/2
f 23/3/2 24/4/2 25/2/2
f 25/2/2 24/4/2 26/1/2
f 27/1/2 25/2/2 26/1/2
f 25/2/2 27/1/2 28/2/2
f 26/1/2 24/4/2 29/5/2
f 29/5/2 24/4/2 30/6/2
f 29/5/2 30/6/2 31/7/2
f 31/7/2 30/6/2 32/8/2
f 19/12/3 11/11/3 22/11/3
f 11/11/3 19/12/3 14/12/3
f 31/14/5 7/13/4 29/13/4
f 7/13/4 31/14/5 9/14/5
f 13/16/6 21/15/6 12/15/6
f 21/15/6 13/16/6 20/16/6
f 11/11/7 24/11/8 22/11/7
f 24/11/8 11/11/7 6/11/8
f 7/13/4 26/17/9 29/13/4
f 26/17/9 7/13/4 3/17/9
f 3/17/9 27/17/10 26/17/9
f 27/17/10 3/17/9 1/17/10
f 16/12/10 19/12/10 17/12/10
f 19/12/10 16/12/10 14/12/10
f 32/18/11 9/14/5 31/14/5
f 9/14/5 32/18/11 10/18/11
f 6/11/8 30/19/12 24/11/8
f 30/19/12 6/11/8 8/19/12
f 2/20/7 25/20/7 28/20/7
f 25/20/7 2/20/7 4/20/7
f 30/19/12 10/18/11 32/18/11
f 10/18/11 30/19/12 8/19/12
f 5/15/6 25/20/6 4/20/6
f 25/20/6 5/15/6 23/15/6
f 13/16/7 18/16/7 20/16/7
f 18/16/7 13/16/7 15/16/7
f 18/16/3 16/12/3 17/12/3
f 16/12/3 18/16/3 15/16/3
f 2/20/6 27/17/6 1/17/6
f 27/17/6 2/20/6 28/20/6
f 5/15/10 21/15/10 23/15/10
f 21/15/10 5/15/10 12/15/10

g number-5




usemtl colormap

f 3/1/1 2/2/1 1/1/1
f 2/2/1 3/1/1 4/2/1
f 4/2/1 3/1/1 5/3/1
f 6/4/1 5/3/1 3/1/1
f 6/4/1 3/1/1 7/5/1
f 6/4/1 7/5/1 8/6/1
f 8/6/1 7/5/1 9/7/1
f 8/6/1 9/7/1 10/8/1
f 11/4/1 5/3/1 6/4/1
f 11/4/1 12/3/1 5/3/1
f 12/3/1 11/4/1 13/9/1
f 14/10/1 13/9/1 11/4/1
f 13/9/1 14/10/1 15/9/1
f 15/9/1 14/10/1 16/10/1
f 19/10/2 18/9/2 17/10/2
f 19/10/2 20/9/2 18/9/2
f 20/9/2 19/10/2 21/3/2
f 22/4/2 21/3/2 19/10/2
f 21/3/2 22/4/2 23/3/2
f 23/3/2 22/4/2 24/4/2
f 23/3/2 24/4/2 25/2/2
f 25/2/2 24/4/2 26/1/2
f 27/1/2 25/2/2 26/1/2
f 25/2/2 27/1/2 28/2/2
f 26/1/2 24/4/2 29/5/2
f 29/5/2 24/4/2 30/6/2
f 29/5/2 30/6/2 31/7/2
f 31/7/2 30/6/2 32/8/2
f 19/12/3 11/11/3 22/11/3
f 11/11/3 19/12/3 14/12/3
f 31/14/5 7/13/4 29/13/4
f 7/13/4 31/14/5 9/14/5
f 13/16/6 21/15/6 12/15/6
f 21/15/6 13/16/6 20/16/6
f 11/11/7 24/11/8 22/11/7
f 24/11/8 11/11/7 6/11/8
f 7/13/4 26/17/9 29/13/4
f 26/17/9 7/13/4 3/17/9
f 3/17/9 27/17/10 26/17/9
f 27/17/10 3/17/9 1/17/10
f 16/12/10 19/12/10 17/12/10
f 19/12/10 16/12/10 14/12/10
f 32/18/11 9/14/5 31/14/5
f 9/14/5 32/18/11 10/18/11
f 6/11/8 30/19/12 24/11/8
f 30/19/12 6/11/8 8/19/12
f 2/20/7 25/20/7 28/20/7
f 25/20/7 2/20/7 4/20/7
f 30/19/12 10/18/11 32/18/11
f 10/18/11 30/19/12 8/19/12
f 5/15/6 25/20/6 4/20/6
f 25/20/6 5/15/6 23/15/6
f 13/16/7 18/16/7 20/16/7
f 18/16/7 13/16/7 15/16/7
f 18/16/3 16/12/3 17/12/3
f 16/12/3 18/16/3 15/16/3
f 2/20/6 27/17/6 1/17/6
f 27/17/6 2/20/6 28/20/6
f 5/15/10 21/15/10 23/15/10
f 21/15/10 5/15/10 12/15/10

