# Created by Kenney (www.kenney.nl)

mtllib number-double-3.mtl

g number-double-3

v -0.1 0 -0.15 1 1 1
v -0.1 0.1 -0.15 1 1 1
v -0.1 0 0.1 1 1 1
v -0.1 0.1 0.05 1 1 1
v -0.1 0.2 0.05 1 1 1
v -0.1 0.3 0.05 1 1 1
v -0.1 0.3 -0.15 1 1 1
v -0.1 0.2 -0.15 1 1 1
v -0.1 0.4 0.05 1 1 1
v -0.1 0.5 0.1 1 1 1
v -0.1 0.0125 0.1375 1 1 1
v -0.1 0.5 -0.15 1 1 1
v -0.1 0.4 -0.15 1 1 1
v -0.1 0.4875 0.1375 1 1 1
v -0.1 0.05 0.15 1 1 1
v -0.1 0.45 0.15 1 1 1
v 0 0.2 -0.15 1 1 1
v 0 0.3 -0.15 1 1 1
v 0 0.0125 0.1375 1 1 1
v 0 0 0.1 1 1 1
v 0 0.1 0.05 1 1 1
v 0 0.2 0.05 1 1 1
v 0 0.4 0.05 1 1 1
v 0 0.4 -0.15 1 1 1
v 0 0.45 0.15 1 1 1
v 0 0.4875 0.1375 1 1 1
v 0 0.3 0.05 1 1 1
v 0 0 -0.15 1 1 1
v 0 0.1 -0.15 1 1 1
v 0 0.5 0.1 1 1 1
v 0 0.05 0.15 1 1 1
v 0 0.5 -0.15 1 1 1
v 0.1 0 -0.15 1 1 1
v 0.1 0.1 -0.15 1 1 1
v 0.1 0.0125 0.1375 1 1 1
v 0.1 0.05 0.15 1 1 1
v 0.1 0.4 0.05 1 1 1
v 0.1 0.4 -0.15 1 1 1
v 0.1 0.5 -0.15 1 1 1
v 0.1 0.5 0.1 1 1 1
v 0.1 0.3 0.05 1 1 1
v 0.1 0.2 0.05 1 1 1
v 0.1 0.2 -0.15 1 1 1
v 0.1 0.3 -0.15 1 1 1
v 0.1 0.1 0.05 1 1 1
v 0.1 0 0.1 1 1 1
v 0.1 0.4875 0.1375 1 1 1
v 0.1 0.45 0.15 1 1 1

vn -1 0 0
vn 0 0 -1
vn 0 -0.7071068 0.7071068
vn 0 -0.9870875 0.1601822
vn 0 -1 0
vn 0 0.1601822 0.9870875
vn 0 0.7071068 0.7071068
vn 0 1 0
vn 0 0.9870875 0.1601822
vn 0 -0.1601822 0.9870875
vn 1 0 0

vt 0.34375 0.275
vt 0.34375 0.315
vt 0.34375 0.355
vt 0.34375 0.395
vt 0.34375 0.435
vt 0.34375 0.475
vt 0.34375 0.28
vt 0.34375 0.47
vt 0.34375 0.295
vt 0.34375 0.455
vt 0.21875 0.025
vt 0.21875 0.065
vt 0.21875 0.03
vt 0.21875 0.045
vt 0.21875 0.185
vt 0.21875 0.225
vt 0.21875 0.145
vt 0.21875 0.105
vt 0.21875 0.22
vt 0.21875 0.205

usemtl colormap

f 3/1/1 2/2/1 1/1/1
f 2/2/1 3/1/1 4/2/1
f 4/2/1 3/1/1 5/3/1
f 5/3/1 3/1/1 6/4/1
f 7/4/1 5/3/1 6/4/1
f 5/3/1 7/4/1 8/3/1
f 6/4/1 3/1/1 9/5/1
f 10/6/1 9/5/1 3/1/1
f 10/6/1 3/1/1 11/7/1
f 12/6/1 9/5/1 10/6/1
f 9/5/1 12/6/1 13/5/1
f 10/6/1 11/7/1 14/8/1
f 14/8/1 11/7/1 15/9/1
f 14/8/1 15/9/1 16/10/1
f 7/4/2 17/3/2 8/3/2
f 17/3/2 7/4/2 18/4/2
f 11/7/3 20/1/4 19/7/3
f 20/1/4 11/7/3 3/1/4
f 5/3/2 21/2/2 4/2/2
f 21/2/2 5/3/2 22/3/2
f 9/5/5 24/5/5 23/5/5
f 24/5/5 9/5/5 13/5/5
f 26/8/7 16/10/6 25/10/6
f 16/10/6 26/8/7 14/8/7
f 9/5/2 27/4/2 6/4/2
f 27/4/2 9/5/2 23/5/2
f 3/1/4 28/1/5 20/1/4
f 28/1/5 3/1/4 1/1/5
f 2/2/8 21/2/8 29/2/8
f 21/2/8 2/2/8 4/2/8
f 2/2/2 28/1/2 1/1/2
f 28/1/2 2/2/2 29/2/2
f 10/6/9 26/8/7 30/6/9
f 26/8/7 10/6/9 14/8/7
f 25/10/6 15/9/10 31/9/10
f 15/9/10 25/10/6 16/10/6
f 7/4/8 27/4/8 18/4/8
f 27/4/8 7/4/8 6/4/8
f 12/6/2 24/5/2 13/5/2
f 24/5/2 12/6/2 32/6/2
f 5/3/5 17/3/5 22/3/5
f 17/3/5 5/3/5 8/3/5
f 31/9/10 11/7/3 19/7/3
f 11/7/3 31/9/10 15/9/10
f 12/6/8 30/6/9 32/6/8
f 30/6/9 12/6/8 10/6/9
f 29/12/2 33/11/2 28/11/2
f 33/11/2 29/12/2 34/12/2
f 36/14/10 19/13/3 35/13/3
f 19/13/3 36/14/10 31/14/10
f 23/15/5 38/15/5 37/15/5
f 38/15/5 23/15/5 24/15/5
f 40/16/11 38/15/11 39/16/11
f 38/15/11 40/16/11 37/15/11
f 37/15/11 40/16/11 41/17/11
f 41/17/11 40/16/11 42/18/11
f 43/18/11 41/17/11 42/18/11
f 41/17/11 43/18/11 44/17/11
f 42/18/11 40/16/11 45/12/11
f 45/12/11 40/16/11 46/11/11
f 33/11/11 45/12/11 46/11/11
f 45/12/11 33/11/11 34/12/11
f 46/11/11 40/16/11 35/13/11
f 35/13/11 40/16/11 47/19/11
f 35/13/11 47/19/11 36/14/11
f 36/14/11 47/19/11 48/20/11
f 32/16/8 40/16/9 39/16/8
f 40/16/9 32/16/8 30/16/9
f 18/17/2 43/18/2 17/18/2
f 43/18/2 18/17/2 44/17/2
f 22/18/5 43/18/5 42/18/5
f 43/18/5 22/18/5 17/18/5
f 29/12/8 45/12/8 34/12/8
f 45/12/8 29/12/8 21/12/8
f 48/20/6 31/14/10 36/14/10
f 31/14/10 48/20/6 25/20/6
f 30/16/9 47/19/7 40/16/9
f 47/19/7 30/16/9 26/19/7
f 19/13/3 46/11/4 35/13/3
f 46/11/4 19/13/3 20/11/4
f 20/11/4 33/11/5 46/11/4
f 33/11/5 20/11/4 28/11/5
f 18/17/8 41/17/8 44/17/8
f 41/17/8 18/17/8 27/17/8
f 23/15/2 41/17/2 27/17/2
f 41/17/2 23/15/2 37/15/2
f 32/16/2 38/15/2 24/15/2
f 38/15/2 32/16/2 39/16/2
f 22/18/2 45/12/2 21/12/2
f 45/12/2 22/18/2 42/18/2
f 47/19/7 25/20/6 48/20/6
f 25/20/6 47/19/7 26/19/7

g number-double-3




usemtl colormap

f 3/1/1 2/2/1 1/1/1
f 2/2/1 3/1/1 4/2/1
f 4/2/1 3/1/1 5/3/1
f 5/3/1 3/1/1 6/4/1
f 7/4/1 5/3/1 6/4/1
f 5/3/1 7/4/1 8/3/1
f 6/4/1 3/1/1 9/5/1
f 10/6/1 9/5/1 3/1/1
f 10/6/1 3/1/1 11/7/1
f 12/6/1 9/5/1 10/6/1
f 9/5/1 12/6/1 13/5/1
f 10/6/1 11/7/1 14/8/1
f 14/8/1 11/7/1 15/9/1
f 14/8/1 15/9/1 16/10/1
f 7/4/2 17/3/2 8/3/2
f 17/3/2 7/4/2 18/4/2
f 11/7/3 20/1/4 19/7/3
f 20/1/4 11/7/3 3/1/4
f 5/3/2 21/2/2 4/2/2
f 21/2/2 5/3/2 22/3/2
f 9/5/5 24/5/5 23/5/5
f 24/5/5 9/5/5 13/5/5
f 26/8/7 16/10/6 25/10/6
f 16/10/6 26/8/7 14/8/7
f 9/5/2 27/4/2 6/4/2
f 27/4/2 9/5/2 23/5/2
f 3/1/4 28/1/5 20/1/4
f 28/1/5 3/1/4 1/1/5
f 2/2/8 21/2/8 29/2/8
f 21/2/8 2/2/8 4/2/8
f 2/2/2 28/1/2 1/1/2
f 28/1/2 2/2/2 29/2/2
f 10/6/9 26/8/7 30/6/9
f 26/8/7 10/6/9 14/8/7
f 25/10/6 15/9/10 31/9/10
f 15/9/10 25/10/6 16/10/6
f 7/4/8 27/4/8 18/4/8
f 27/4/8 7/4/8 6/4/8
f 12/6/2 24/5/2 13/5/2
f 24/5/2 12/6/2 32/6/2
f 5/3/5 17/3/5 22/3/5
f 17/3/5 5/3/5 8/3/5
f 31/9/10 11/7/3 19/7/3
f 11/7/3 31/9/10 15/9/10
f 12/6/8 30/6/9 32/6/8
f 30/6/9 12/6/8 10/6/9
f 29/12/2 33/11/2 28/11/2
f 33/11/2 29/12/2 34/12/2
f 36/14/10 19/13/3 35/13/3
f 19/13/3 36/14/10 31/14/10
f 23/15/5 38/15/5 37/15/5
f 38/15/5 23/15/5 24/15/5
f 40/16/11 38/15/11 39/16/11
f 38/15/11 40/16/11 37/15/11
f 37/15/11 40/16/11 41/17/11
f 41/17/11 40/16/11 42/18/11
f 43/18/11 41/17/11 42/18/11
f 41/17/11 43/18/11 44/17/11
f 42/18/11 40/16/11 45/12/11
f 45/12/11 40/16/11 46/11/11
f 33/11/11 45/12/11 46/11/11
f 45/12/11 33/11/11 34/12/11
f 46/11/11 40/16/11 35/13/11
f 35/13/11 40/16/11 47/19/11
f 35/13/11 47/19/11 36/14/11
f 36/14/11 47/19/11 48/20/11
f 32/16/8 40/16/9 39/16/8
f 40/16/9 32/16/8 30/16/9
f 18/17/2 43/18/2 17/18/2
f 43/18/2 18/17/2 44/17/2
f 22/18/5 43/18/5 42/18/5
f 43/18/5 22/18/5 17/18/5
f 29/12/8 45/12/8 34/12/8
f 45/12/8 29/12/8 21/12/8
f 48/20/6 31/14/10 36/14/10
f 31/14/10 48/20/6 25/20/6
f 30/16/9 47/19/7 40/16/9
f 47/19/7 30/16/9 26/19/7
f 19/13/3 46/11/4 35/13/3
f 46/11/4 19/13/3 20/11/4
f 20/11/4 33/11/5 46/11/4
f 33/11/5 20/11/4 28/11/5
f 18/17/8 41/17/8 44/17/8
f 41/17/8 18/17/8 27/17/8
f 23/15/2 41/17/2 27/17/2
f 41/17/2 23/15/2 37/15/2
f 32/16/2 38/15/2 24/15/2
f 38/15/2 32/16/2 39/16/2
f 22/18/2 45/12/2 21/12/2
f 45/12/2 22/18/2 42/18/2
f 47/19/7 25/20/6 48/20/6
f 25/20/6 47/19/7 26/19/7

