# Created by Kenney (www.kenney.nl)

mtllib pipe-half-section.mtl

g pipe-half-section

v 0.1 0 0 1 1 1
v 0.05 0 -0.08660254 1 1 1
v 0.05 0 0.08660254 1 1 1
v -0.05 0 0.08660254 1 1 1
v -0.05 0 -0.08660254 1 1 1
v -0.1 0 0 1 1 1
v 0.1 0.5 0 1 1 1
v 0.05 0.5 0.08660254 1 1 1
v 0.05 0.5 -0.08660254 1 1 1
v -0.05 0.5 -0.08660254 1 1 1
v -0.05 0.5 0.08660254 1 1 1
v -0.1 0.5 0 1 1 1
v 0.15 0.3 -3.609557E-16 1 1 1
v 0.075 0.3 0.1299038 1 1 1
v 0.075 0.3 -0.1299038 1 1 1
v -0.075 0.3 -0.1299038 1 1 1
v -0.075 0.3 0.1299038 1 1 1
v -0.15 0.3 -3.609557E-16 1 1 1
v 0.075 0.2 0.1299038 1 1 1
v -0.075 0.2 0.1299038 1 1 1
v -0.075 0.2 -0.1299038 1 1 1
v -0.15 0.2 -3.609557E-16 1 1 1
v 0.075 0.2 -0.1299038 1 1 1
v 0.15 0.2 -3.609557E-16 1 1 1

vn 0 -1 0
vn 0 1 0
vn -0.5 0 -0.8660254
vn -1 0 0
vn 0.5 0 -0.8660254
vn 1 0 0
vn 0.5 0 0.8660254
vn -0.5 0 0.8660254

vt 0.59375 0.275
vt 0.59375 0.475
vt 0.21875 0.225
vt 0.21875 0.125

usemtl colormap

f 3/1/1 2/1/1 1/1/1
f 2/1/1 3/1/1 4/1/1
f 2/1/1 4/1/1 5/1/1
f 5/1/1 4/1/1 6/1/1
f 9/2/2 8/2/2 7/2/2
f 8/2/2 9/2/2 10/2/2
f 8/2/2 10/2/2 11/2/2
f 11/2/2 10/2/2 12/2/2
f 6/1/4 10/2/3 5/1/3
f 10/2/3 6/1/4 12/2/4
f 10/2/3 2/1/5 5/1/3
f 2/1/5 10/2/3 9/2/5
f 7/2/6 2/1/5 9/2/5
f 2/1/5 7/2/6 1/1/6
f 8/2/7 1/1/6 7/2/6
f 1/1/6 8/2/7 3/1/7
f 8/2/7 4/1/8 3/1/7
f 4/1/8 8/2/7 11/2/8
f 4/1/8 12/2/4 6/1/4
f 12/2/4 4/1/8 11/2/8
f 15/3/2 14/3/2 13/3/2
f 14/3/2 15/3/2 16/3/2
f 14/3/2 16/3/2 17/3/2
f 17/3/2 16/3/2 18/3/2
f 14/3/7 20/4/8 19/4/7
f 20/4/8 14/3/7 17/3/8
f 22/4/4 16/3/3 21/4/3
f 16/3/3 22/4/4 18/3/4
f 13/3/6 23/4/5 15/3/5
f 23/4/5 13/3/6 24/4/6
f 14/3/7 24/4/6 13/3/6
f 24/4/6 14/3/7 19/4/7
f 20/4/8 18/3/4 22/4/4
f 18/3/4 20/4/8 17/3/8
f 19/4/1 23/4/1 24/4/1
f 23/4/1 19/4/1 20/4/1
f 23/4/1 20/4/1 21/4/1
f 21/4/1 20/4/1 22/4/1
f 16/3/3 23/4/5 21/4/3
f 23/4/5 16/3/3 15/3/5

g pipe-half-section




usemtl colormap

f 3/1/1 2/1/1 1/1/1
f 2/1/1 3/1/1 4/1/1
f 2/1/1 4/1/1 5/1/1
f 5/1/1 4/1/1 6/1/1
f 9/2/2 8/2/2 7/2/2
f 8/2/2 9/2/2 10/2/2
f 8/2/2 10/2/2 11/2/2
f 11/2/2 10/2/2 12/2/2
f 6/1/4 10/2/3 5/1/3
f 10/2/3 6/1/4 12/2/4
f 10/2/3 2/1/5 5/1/3
f 2/1/5 10/2/3 9/2/5
f 7/2/6 2/1/5 9/2/5
f 2/1/5 7/2/6 1/1/6
f 8/2/7 1/1/6 7/2/6
f 1/1/6 8/2/7 3/1/7
f 8/2/7 4/1/8 3/1/7
f 4/1/8 8/2/7 11/2/8
f 4/1/8 12/2/4 6/1/4
f 12/2/4 4/1/8 11/2/8
f 15/3/2 14/3/2 13/3/2
f 14/3/2 15/3/2 16/3/2
f 14/3/2 16/3/2 17/3/2
f 17/3/2 16/3/2 18/3/2
f 14/3/7 20/4/8 19/4/7
f 20/4/8 14/3/7 17/3/8
f 22/4/4 16/3/3 21/4/3
f 16/3/3 22/4/4 18/3/4
f 13/3/6 23/4/5 15/3/5
f 23/4/5 13/3/6 24/4/6
f 14/3/7 24/4/6 13/3/6
f 24/4/6 14/3/7 19/4/7
f 20/4/8 18/3/4 22/4/4
f 18/3/4 20/4/8 17/3/8
f 19/4/1 23/4/1 24/4/1
f 23/4/1 19/4/1 20/4/1
f 23/4/1 20/4/1 21/4/1
f 21/4/1 20/4/1 22/4/1
f 16/3/3 23/4/5 21/4/3
f 23/4/5 16/3/3 15/3/5

