# Created by Kenney (www.kenney.nl)

mtllib shape-hexagon.mtl

g shape-hexagon

v 0.4330127 0 -0.25 1 1 1
v 0 0 -0.5 1 1 1
v 0.4330127 0 0.25 1 1 1
v 0 0 0.5 1 1 1
v -0.4330127 0 0.25 1 1 1
v -0.4330127 0 -0.25 1 1 1
v 0.4330127 1 -0.25 1 1 1
v 0.4330127 1 0.25 1 1 1
v 0 1 -0.5 1 1 1
v 0 1 0.5 1 1 1
v -0.4330127 1 -0.25 1 1 1
v -0.4330127 1 0.25 1 1 1

vn 0 -1 0
vn 0 1 0
vn -0.8660254 0 -0.5
vn -0.8660254 0 0.5
vn 0 0 -1
vn 0.8660254 0 -0.5
vn 0.8660254 0 0.5
vn 0 0 1

vt 0.46875 0.025
vt 0.46875 0.225

usemtl colormap

f 3/1/1 2/1/1 1/1/1
f 2/1/1 3/1/1 4/1/1
f 2/1/1 4/1/1 5/1/1
f 2/1/1 5/1/1 6/1/1
f 9/2/2 8/2/2 7/2/2
f 8/2/2 9/2/2 10/2/2
f 10/2/2 9/2/2 11/2/2
f 10/2/2 11/2/2 12/2/2
f 5/1/4 11/2/3 6/1/3
f 11/2/3 5/1/4 12/2/4
f 11/2/3 2/1/5 6/1/3
f 2/1/5 11/2/3 9/2/5
f 9/2/5 1/1/6 2/1/5
f 1/1/6 9/2/5 7/2/6
f 8/2/7 1/1/6 7/2/6
f 1/1/6 8/2/7 3/1/7
f 8/2/7 4/1/8 3/1/7
f 4/1/8 8/2/7 10/2/8
f 10/2/8 5/1/4 4/1/8
f 5/1/4 10/2/8 12/2/4

g shape-hexagon




usemtl colormap

f 3/1/1 2/1/1 1/1/1
f 2/1/1 3/1/1 4/1/1
f 2/1/1 4/1/1 5/1/1
f 2/1/1 5/1/1 6/1/1
f 9/2/2 8/2/2 7/2/2
f 8/2/2 9/2/2 10/2/2
f 10/2/2 9/2/2 11/2/2
f 10/2/2 11/2/2 12/2/2
f 5/1/4 11/2/3 6/1/3
f 11/2/3 5/1/4 12/2/4
f 11/2/3 2/1/5 6/1/3
f 2/1/5 11/2/3 9/2/5
f 9/2/5 1/1/6 2/1/5
f 1/1/6 9/2/5 7/2/6
f 8/2/7 1/1/6 7/2/6
f 1/1/6 8/2/7 3/1/7
f 8/2/7 4/1/8 3/1/7
f 4/1/8 8/2/7 10/2/8
f 10/2/8 5/1/4 4/1/8
f 5/1/4 10/2/8 12/2/4

