# Created by Kenney (www.kenney.nl)

mtllib shape-cylinder-half-detailed.mtl

g shape-cylinder-half-detailed

v 0.25 0 0 1 1 1
v 0.2329629 0 -0.1294095 1 1 1
v 0.2329629 0 0.1294095 1 1 1
v 0.1830127 0 0.25 1 1 1
v 0.1830127 0 -0.25 1 1 1
v 0.1035534 0 0.3535534 1 1 1
v 0.1035534 0 -0.3535534 1 1 1
v 0 0 -0.4330127 1 1 1
v 0 0 0.4330127 1 1 1
v -0.1205905 0 0.4829629 1 1 1
v -0.1205905 0 -0.4829629 1 1 1
v -0.25 0 0.5 1 1 1
v -0.25 0 -0.5 1 1 1
v 0.2329629 1 0.1294095 1 1 1
v 0.1830127 1 0.25 1 1 1
v -0.1205905 1 -0.4829629 1 1 1
v 0 1 -0.4330127 1 1 1
v 0.1035534 1 -0.3535534 1 1 1
v 0.1830127 1 -0.25 1 1 1
v 0.2329629 1 -0.1294095 1 1 1
v 0.25 1 0 1 1 1
v 0.1035534 1 0.3535534 1 1 1
v 0 1 0.4330127 1 1 1
v -0.25 1 -0.5 1 1 1
v -0.1205905 1 0.4829629 1 1 1
v -0.25 1 0.5 1 1 1

vn 0 -1 0
vn 0.9659258 0 0.258819
vn 0.8660254 0 0.5
vn 0.258819 0 -0.9659258
vn 0.5 0 -0.8660254
vn 0.7071068 0 -0.7071068
vn 0.8660254 0 -0.5
vn 0.9659258 0 -0.258819
vn 1 0 0
vn 0.7071068 0 0.7071068
vn 0.5 0 0.8660254
vn 0.1305262 0 -0.9914449
vn 0.258819 0 0.9659258
vn 0.1305262 0 0.9914449
vn 0 1 0
vn -1 0 0

vt 0.59375 0.025
vt 0.46875 0.225
vt 0.46875 0.025

usemtl colormap

f 3/1/1 2/1/1 1/1/1
f 2/1/1 3/1/1 4/1/1
f 2/1/1 4/1/1 5/1/1
f 5/1/1 4/1/1 6/1/1
f 5/1/1 6/1/1 7/1/1
f 7/1/1 6/1/1 8/1/1
f 8/1/1 6/1/1 9/1/1
f 8/1/1 9/1/1 10/1/1
f 8/1/1 10/1/1 11/1/1
f 11/1/1 10/1/1 12/1/1
f 11/1/1 12/1/1 13/1/1
f 15/2/3 3/3/2 14/2/2
f 3/3/2 15/2/3 4/3/3
f 16/2/4 8/3/5 11/3/4
f 8/3/5 16/2/4 17/2/5
f 17/2/5 7/3/6 8/3/5
f 7/3/6 17/2/5 18/2/6
f 20/2/8 5/3/7 19/2/7
f 5/3/7 20/2/8 2/3/8
f 21/2/9 2/3/8 20/2/8
f 2/3/8 21/2/9 1/3/9
f 14/2/2 1/3/9 21/2/9
f 1/3/9 14/2/2 3/3/2
f 22/2/10 4/3/3 15/2/3
f 4/3/3 22/2/10 6/3/10
f 22/2/10 9/3/11 6/3/10
f 9/3/11 22/2/10 23/2/11
f 19/2/7 7/3/6 18/2/6
f 7/3/6 19/2/7 5/3/7
f 24/2/12 11/3/4 13/3/12
f 11/3/4 24/2/12 16/2/4
f 25/2/13 12/3/14 10/3/13
f 12/3/14 25/2/13 26/2/14
f 23/2/11 10/3/13 9/3/11
f 10/3/13 23/2/11 25/2/13
f 20/2/15 14/2/15 21/2/15
f 14/2/15 20/2/15 19/2/15
f 14/2/15 19/2/15 15/2/15
f 15/2/15 19/2/15 18/2/15
f 15/2/15 18/2/15 22/2/15
f 22/2/15 18/2/15 17/2/15
f 22/2/15 17/2/15 23/2/15
f 23/2/15 17/2/15 16/2/15
f 23/2/15 16/2/15 25/2/15
f 25/2/15 16/2/15 24/2/15
f 25/2/15 24/2/15 26/2/15
f 12/3/16 24/2/16 13/3/16
f 24/2/16 12/3/16 26/2/16

g shape-cylinder-half-detailed




usemtl colormap

f 3/1/1 2/1/1 1/1/1
f 2/1/1 3/1/1 4/1/1
f 2/1/1 4/1/1 5/1/1
f 5/1/1 4/1/1 6/1/1
f 5/1/1 6/1/1 7/1/1
f 7/1/1 6/1/1 8/1/1
f 8/1/1 6/1/1 9/1/1
f 8/1/1 9/1/1 10/1/1
f 8/1/1 10/1/1 11/1/1
f 11/1/1 10/1/1 12/1/1
f 11/1/1 12/1/1 13/1/1
f 15/2/3 3/3/2 14/2/2
f 3/3/2 15/2/3 4/3/3
f 16/2/4 8/3/5 11/3/4
f 8/3/5 16/2/4 17/2/5
f 17/2/5 7/3/6 8/3/5
f 7/3/6 17/2/5 18/2/6
f 20/2/8 5/3/7 19/2/7
f 5/3/7 20/2/8 2/3/8
f 21/2/9 2/3/8 20/2/8
f 2/3/8 21/2/9 1/3/9
f 14/2/2 1/3/9 21/2/9
f 1/3/9 14/2/2 3/3/2
f 22/2/10 4/3/3 15/2/3
f 4/3/3 22/2/10 6/3/10
f 22/2/10 9/3/11 6/3/10
f 9/3/11 22/2/10 23/2/11
f 19/2/7 7/3/6 18/2/6
f 7/3/6 19/2/7 5/3/7
f 24/2/12 11/3/4 13/3/12
f 11/3/4 24/2/12 16/2/4
f 25/2/13 12/3/14 10/3/13
f 12/3/14 25/2/13 26/2/14
f 23/2/11 10/3/13 9/3/11
f 10/3/13 23/2/11 25/2/13
f 20/2/15 14/2/15 21/2/15
f 14/2/15 20/2/15 19/2/15
f 14/2/15 19/2/15 15/2/15
f 15/2/15 19/2/15 18/2/15
f 15/2/15 18/2/15 22/2/15
f 22/2/15 18/2/15 17/2/15
f 22/2/15 17/2/15 23/2/15
f 23/2/15 17/2/15 16/2/15
f 23/2/15 16/2/15 25/2/15
f 25/2/15 16/2/15 24/2/15
f 25/2/15 24/2/15 26/2/15
f 12/3/16 24/2/16 13/3/16
f 24/2/16 12/3/16 26/2/16

