# Created by Kenney (www.kenney.nl)

mtllib shape-hollow-cylinder-detailed.mtl

g shape-hollow-cylinder-detailed

v 0.5 0 0 1 1 1
v 0.4829629 0 -0.1294095 1 1 1
v 0.4829629 0 0.1294095 1 1 1
v 0.4330127 0 0.25 1 1 1
v 0.4330127 0 -0.25 1 1 1
v 0.3535534 0 0.3535534 1 1 1
v 0.3535534 0 -0.3535534 1 1 1
v 0.25 0 0.4330127 1 1 1
v 0.25 0 0 1 1 1
v 0.25 0 -0.4330127 1 1 1
v 0.2414815 0 0.06470476 1 1 1
v 0.2414815 0 -0.06470476 1 1 1
v 0.1294095 0 0.4829629 1 1 1
v 0.1294095 0 -0.4829629 1 1 1
v 0.2165064 0 0.125 1 1 1
v 0.1767767 0 0.1767767 1 1 1
v 0.125 0 0.2165064 1 1 1
v 0.2165064 0 -0.125 1 1 1
v 0.1767767 0 -0.1767767 1 1 1
v 0.125 0 -0.2165064 1 1 1
v 0 0 0.5 1 1 1
v 0.06470476 0 0.2414815 1 1 1
v 0 0 0.25 1 1 1
v 0 0 -0.5 1 1 1
v -0.1294095 0 0.4829629 1 1 1
v 0.06470476 0 -0.2414815 1 1 1
v 7.219114E-16 0 -0.25 1 1 1
v -0.06470476 0 -0.2414815 1 1 1
v -0.06470476 0 0.2414815 1 1 1
v -0.125 0 0.2165064 1 1 1
v -0.1767767 0 0.1767767 1 1 1
v -0.1294095 0 -0.4829629 1 1 1
v -0.125 0 -0.2165064 1 1 1
v -0.1767767 0 -0.1767767 1 1 1
v -0.25 0 0.4330127 1 1 1
v -0.25 0 -0.4330127 1 1 1
v -0.2165064 0 0.125 1 1 1
v -0.2414815 0 0.06470476 1 1 1
v -0.2165064 0 -0.125 1 1 1
v -0.25 0 0 1 1 1
v -0.2414815 0 -0.06470476 1 1 1
v -0.3535534 0 0.3535534 1 1 1
v -0.3535534 0 -0.3535534 1 1 1
v -0.4330127 0 0.25 1 1 1
v -0.4330127 0 -0.25 1 1 1
v -0.4829629 0 0.1294095 1 1 1
v -0.4829629 0 -0.1294095 1 1 1
v -0.5 0 0 1 1 1
v 0.4829629 1 0.1294095 1 1 1
v 0.4330127 1 0.25 1 1 1
v -0.5 1 0 1 1 1
v -0.4829629 1 -0.1294095 1 1 1
v -0.4829629 1 0.1294095 1 1 1
v -0.4330127 1 0.25 1 1 1
v -0.4330127 1 -0.25 1 1 1
v -0.3535534 1 0.3535534 1 1 1
v -0.3535534 1 -0.3535534 1 1 1
v -0.25 1 0.4330127 1 1 1
v -0.25 1 0 1 1 1
v -0.25 1 -0.4330127 1 1 1
v -0.2414815 1 0.06470476 1 1 1
v -0.2165064 1 0.125 1 1 1
v -0.1767767 1 0.1767767 1 1 1
v -0.2414815 1 -0.06470476 1 1 1
v -0.2165064 1 -0.125 1 1 1
v -0.1767767 1 -0.1767767 1 1 1
v -0.1294095 1 0.4829629 1 1 1
v -0.125 1 0.2165064 1 1 1
v -0.06470476 1 0.2414815 1 1 1
v -0.1294095 1 -0.4829629 1 1 1
v -0.125 1 -0.2165064 1 1 1
v -0.06470476 1 -0.2414815 1 1 1
v 0 1 0.5 1 1 1
v 0 1 -0.5 1 1 1
v 0 1 0.25 1 1 1
v 0.06470476 1 0.2414815 1 1 1
v 0.125 1 0.2165064 1 1 1
v 7.219114E-16 1 -0.25 1 1 1
v 0.06470476 1 -0.2414815 1 1 1
v 0.125 1 -0.2165064 1 1 1
v 0.1294095 1 0.4829629 1 1 1
v 0.1294095 1 -0.4829629 1 1 1
v 0.1767767 1 0.1767767 1 1 1
v 0.2165064 1 0.125 1 1 1
v 0.2414815 1 0.06470476 1 1 1
v 0.25 1 0.4330127 1 1 1
v 0.1767767 1 -0.1767767 1 1 1
v 0.2165064 1 -0.125 1 1 1
v 0.2414815 1 -0.06470476 1 1 1
v 0.25 1 0 1 1 1
v 0.25 1 -0.4330127 1 1 1
v 0.3535534 1 0.3535534 1 1 1
v 0.3535534 1 -0.3535534 1 1 1
v 0.4330127 1 -0.25 1 1 1
v 0.4829629 1 -0.1294095 1 1 1
v 0.5 1 0 1 1 1

vn 0 -1 0
vn 0.9659258 0 0.258819
vn 0.8660254 0 0.5
vn 0 1 0
vn -1 0 0
vn -0.9659258 0 0.258819
vn -0.9659258 0 -0.258819
vn -0.7071068 0 -0.7071068
vn -0.8660254 0 -0.5
vn -0.5 0 -0.8660254
vn -0.258819 0 -0.9659258
vn 0 0 -1
vn 0.258819 0 -0.9659258
vn 0.5 0 -0.8660254
vn 0.7071068 0 -0.7071068
vn 0.8660254 0 -0.5
vn 0.9659258 0 -0.258819
vn 1 0 0
vn 0.7071068 0 0.7071068
vn 0.5 0 0.8660254
vn -0.258819 0 0.9659258
vn -0.5 0 0.8660254
vn 0.258819 0 0.9659258
vn 0 0 1
vn -0.7071068 0 0.7071068
vn -0.8660254 0 0.5

vt 0.46875 0.025
vt 0.46875 0.225

usemtl colormap

f 3/1/1 2/1/1 1/1/1
f 2/1/1 3/1/1 4/1/1
f 2/1/1 4/1/1 5/1/1
f 5/1/1 4/1/1 6/1/1
f 5/1/1 6/1/1 7/1/1
f 7/1/1 6/1/1 8/1/1
f 7/1/1 8/1/1 9/1/1
f 9/1/1 10/1/1 7/1/1
f 9/1/1 8/1/1 11/1/1
f 10/1/1 9/1/1 12/1/1
f 11/1/1 8/1/1 13/1/1
f 10/1/1 12/1/1 14/1/1
f 11/1/1 13/1/1 15/1/1
f 15/1/1 13/1/1 16/1/1
f 16/1/1 13/1/1 17/1/1
f 14/1/1 12/1/1 18/1/1
f 14/1/1 18/1/1 19/1/1
f 14/1/1 19/1/1 20/1/1
f 17/1/1 13/1/1 21/1/1
f 17/1/1 21/1/1 22/1/1
f 22/1/1 21/1/1 23/1/1
f 14/1/1 20/1/1 24/1/1
f 23/1/1 21/1/1 25/1/1
f 24/1/1 20/1/1 26/1/1
f 24/1/1 26/1/1 27/1/1
f 24/1/1 27/1/1 28/1/1
f 23/1/1 25/1/1 29/1/1
f 29/1/1 25/1/1 30/1/1
f 30/1/1 25/1/1 31/1/1
f 24/1/1 28/1/1 32/1/1
f 32/1/1 28/1/1 33/1/1
f 32/1/1 33/1/1 34/1/1
f 31/1/1 25/1/1 35/1/1
f 32/1/1 34/1/1 36/1/1
f 31/1/1 35/1/1 37/1/1
f 37/1/1 35/1/1 38/1/1
f 36/1/1 34/1/1 39/1/1
f 38/1/1 35/1/1 40/1/1
f 36/1/1 39/1/1 41/1/1
f 36/1/1 41/1/1 40/1/1
f 40/1/1 35/1/1 42/1/1
f 40/1/1 42/1/1 36/1/1
f 36/1/1 42/1/1 43/1/1
f 43/1/1 42/1/1 44/1/1
f 43/1/1 44/1/1 45/1/1
f 45/1/1 44/1/1 46/1/1
f 45/1/1 46/1/1 47/1/1
f 47/1/1 46/1/1 48/1/1
f 50/2/3 3/1/2 49/2/2
f 3/1/2 50/2/3 4/1/3
f 53/2/4 52/2/4 51/2/4
f 54/2/4 52/2/4 53/2/4
f 54/2/4 55/2/4 52/2/4
f 56/2/4 55/2/4 54/2/4
f 56/2/4 57/2/4 55/2/4
f 58/2/4 57/2/4 56/2/4
f 59/2/4 57/2/4 58/2/4
f 59/2/4 60/2/4 57/2/4
f 58/2/4 61/2/4 59/2/4
f 58/2/4 62/2/4 61/2/4
f 58/2/4 63/2/4 62/2/4
f 64/2/4 60/2/4 59/2/4
f 65/2/4 60/2/4 64/2/4
f 66/2/4 60/2/4 65/2/4
f 67/2/4 63/2/4 58/2/4
f 67/2/4 68/2/4 63/2/4
f 67/2/4 69/2/4 68/2/4
f 66/2/4 70/2/4 60/2/4
f 71/2/4 70/2/4 66/2/4
f 72/2/4 70/2/4 71/2/4
f 73/2/4 69/2/4 67/2/4
f 72/2/4 74/2/4 70/2/4
f 73/2/4 75/2/4 69/2/4
f 73/2/4 76/2/4 75/2/4
f 73/2/4 77/2/4 76/2/4
f 78/2/4 74/2/4 72/2/4
f 79/2/4 74/2/4 78/2/4
f 80/2/4 74/2/4 79/2/4
f 81/2/4 77/2/4 73/2/4
f 80/2/4 82/2/4 74/2/4
f 81/2/4 83/2/4 77/2/4
f 81/2/4 84/2/4 83/2/4
f 81/2/4 85/2/4 84/2/4
f 86/2/4 85/2/4 81/2/4
f 87/2/4 82/2/4 80/2/4
f 88/2/4 82/2/4 87/2/4
f 89/2/4 82/2/4 88/2/4
f 86/2/4 90/2/4 85/2/4
f 89/2/4 91/2/4 82/2/4
f 91/2/4 89/2/4 90/2/4
f 92/2/4 90/2/4 86/2/4
f 92/2/4 91/2/4 90/2/4
f 92/2/4 93/2/4 91/2/4
f 50/2/4 93/2/4 92/2/4
f 50/2/4 94/2/4 93/2/4
f 49/2/4 94/2/4 50/2/4
f 49/2/4 95/2/4 94/2/4
f 95/2/4 49/2/4 96/2/4
f 46/1/6 51/2/5 48/1/5
f 51/2/5 46/1/6 53/2/6
f 48/1/5 52/2/7 47/1/7
f 52/2/7 48/1/5 51/2/5
f 45/1/9 57/2/8 43/1/8
f 57/2/8 45/1/9 55/2/9
f 57/2/8 36/1/10 43/1/8
f 36/1/10 57/2/8 60/2/10
f 60/2/10 32/1/11 36/1/10
f 32/1/11 60/2/10 70/2/11
f 70/2/11 24/1/12 32/1/11
f 24/1/12 70/2/11 74/2/12
f 82/2/13 10/1/14 14/1/13
f 10/1/14 82/2/13 91/2/14
f 91/2/14 7/1/15 10/1/14
f 7/1/15 91/2/14 93/2/15
f 95/2/17 5/1/16 94/2/16
f 5/1/16 95/2/17 2/1/17
f 96/2/18 2/1/17 95/2/17
f 2/1/17 96/2/18 1/1/18
f 49/2/2 1/1/18 96/2/18
f 1/1/18 49/2/2 3/1/2
f 47/1/7 55/2/9 45/1/9
f 55/2/9 47/1/7 52/2/7
f 92/2/19 4/1/3 50/2/3
f 4/1/3 92/2/19 6/1/19
f 92/2/19 8/1/20 6/1/19
f 8/1/20 92/2/19 86/2/20
f 94/2/16 7/1/15 93/2/15
f 7/1/15 94/2/16 5/1/16
f 74/2/12 14/1/13 24/1/12
f 14/1/13 74/2/12 82/2/13
f 67/2/21 35/1/22 25/1/21
f 35/1/22 67/2/21 58/2/22
f 81/2/23 21/1/24 13/1/23
f 21/1/24 81/2/23 73/2/24
f 58/2/22 42/1/25 35/1/22
f 42/1/25 58/2/22 56/2/25
f 44/1/26 53/2/6 46/1/6
f 53/2/6 44/1/26 54/2/26
f 42/1/25 54/2/26 44/1/26
f 54/2/26 42/1/25 56/2/25
f 86/2/20 13/1/23 8/1/20
f 13/1/23 86/2/20 81/2/23
f 73/2/24 25/1/21 21/1/24
f 25/1/21 73/2/24 67/2/21
f 59/2/18 41/1/2 64/2/2
f 41/1/2 59/2/18 40/1/18
f 61/2/17 40/1/18 59/2/18
f 40/1/18 61/2/17 38/1/17
f 62/2/16 38/1/17 61/2/17
f 38/1/17 62/2/16 37/1/16
f 63/2/15 37/1/16 62/2/16
f 37/1/16 63/2/15 31/1/15
f 63/2/15 30/1/14 31/1/15
f 30/1/14 63/2/15 68/2/14
f 68/2/14 29/1/13 30/1/14
f 29/1/13 68/2/14 69/2/13
f 69/2/13 23/1/12 29/1/13
f 23/1/12 69/2/13 75/2/12
f 75/2/12 22/1/11 23/1/12
f 22/1/11 75/2/12 76/2/11
f 76/2/11 17/1/10 22/1/11
f 17/1/10 76/2/11 77/2/10
f 77/2/10 16/1/8 17/1/10
f 16/1/8 77/2/10 83/2/8
f 16/1/8 84/2/9 15/1/9
f 84/2/9 16/1/8 83/2/8
f 15/1/9 85/2/7 11/1/7
f 85/2/7 15/1/9 84/2/9
f 11/1/7 90/2/5 9/1/5
f 90/2/5 11/1/7 85/2/7
f 9/1/5 89/2/6 12/1/6
f 89/2/6 9/1/5 90/2/5
f 12/1/6 88/2/26 18/1/26
f 88/2/26 12/1/6 89/2/6
f 18/1/26 87/2/25 19/1/25
f 87/2/25 18/1/26 88/2/26
f 87/2/25 20/1/22 19/1/25
f 20/1/22 87/2/25 80/2/22
f 80/2/22 26/1/21 20/1/22
f 26/1/21 80/2/22 79/2/21
f 79/2/21 27/1/24 26/1/21
f 27/1/24 79/2/21 78/2/24
f 78/2/24 28/1/23 27/1/24
f 28/1/23 78/2/24 72/2/23
f 72/2/23 33/1/20 28/1/23
f 33/1/20 72/2/23 71/2/20
f 71/2/20 34/1/19 33/1/20
f 34/1/19 71/2/20 66/2/19
f 65/2/3 34/1/19 66/2/19
f 34/1/19 65/2/3 39/1/3
f 64/2/2 39/1/3 65/2/3
f 39/1/3 64/2/2 41/1/2

g shape-hollow-cylinder-detailed




usemtl colormap

f 3/1/1 2/1/1 1/1/1
f 2/1/1 3/1/1 4/1/1
f 2/1/1 4/1/1 5/1/1
f 5/1/1 4/1/1 6/1/1
f 5/1/1 6/1/1 7/1/1
f 7/1/1 6/1/1 8/1/1
f 7/1/1 8/1/1 9/1/1
f 9/1/1 10/1/1 7/1/1
f 9/1/1 8/1/1 11/1/1
f 10/1/1 9/1/1 12/1/1
f 11/1/1 8/1/1 13/1/1
f 10/1/1 12/1/1 14/1/1
f 11/1/1 13/1/1 15/1/1
f 15/1/1 13/1/1 16/1/1
f 16/1/1 13/1/1 17/1/1
f 14/1/1 12/1/1 18/1/1
f 14/1/1 18/1/1 19/1/1
f 14/1/1 19/1/1 20/1/1
f 17/1/1 13/1/1 21/1/1
f 17/1/1 21/1/1 22/1/1
f 22/1/1 21/1/1 23/1/1
f 14/1/1 20/1/1 24/1/1
f 23/1/1 21/1/1 25/1/1
f 24/1/1 20/1/1 26/1/1
f 24/1/1 26/1/1 27/1/1
f 24/1/1 27/1/1 28/1/1
f 23/1/1 25/1/1 29/1/1
f 29/1/1 25/1/1 30/1/1
f 30/1/1 25/1/1 31/1/1
f 24/1/1 28/1/1 32/1/1
f 32/1/1 28/1/1 33/1/1
f 32/1/1 33/1/1 34/1/1
f 31/1/1 25/1/1 35/1/1
f 32/1/1 34/1/1 36/1/1
f 31/1/1 35/1/1 37/1/1
f 37/1/1 35/1/1 38/1/1
f 36/1/1 34/1/1 39/1/1
f 38/1/1 35/1/1 40/1/1
f 36/1/1 39/1/1 41/1/1
f 36/1/1 41/1/1 40/1/1
f 40/1/1 35/1/1 42/1/1
f 40/1/1 42/1/1 36/1/1
f 36/1/1 42/1/1 43/1/1
f 43/1/1 42/1/1 44/1/1
f 43/1/1 44/1/1 45/1/1
f 45/1/1 44/1/1 46/1/1
f 45/1/1 46/1/1 47/1/1
f 47/1/1 46/1/1 48/1/1
f 50/2/3 3/1/2 49/2/2
f 3/1/2 50/2/3 4/1/3
f 53/2/4 52/2/4 51/2/4
f 54/2/4 52/2/4 53/2/4
f 54/2/4 55/2/4 52/2/4
f 56/2/4 55/2/4 54/2/4
f 56/2/4 57/2/4 55/2/4
f 58/2/4 57/2/4 56/2/4
f 59/2/4 57/2/4 58/2/4
f 59/2/4 60/2/4 57/2/4
f 58/2/4 61/2/4 59/2/4
f 58/2/4 62/2/4 61/2/4
f 58/2/4 63/2/4 62/2/4
f 64/2/4 60/2/4 59/2/4
f 65/2/4 60/2/4 64/2/4
f 66/2/4 60/2/4 65/2/4
f 67/2/4 63/2/4 58/2/4
f 67/2/4 68/2/4 63/2/4
f 67/2/4 69/2/4 68/2/4
f 66/2/4 70/2/4 60/2/4
f 71/2/4 70/2/4 66/2/4
f 72/2/4 70/2/4 71/2/4
f 73/2/4 69/2/4 67/2/4
f 72/2/4 74/2/4 70/2/4
f 73/2/4 75/2/4 69/2/4
f 73/2/4 76/2/4 75/2/4
f 73/2/4 77/2/4 76/2/4
f 78/2/4 74/2/4 72/2/4
f 79/2/4 74/2/4 78/2/4
f 80/2/4 74/2/4 79/2/4
f 81/2/4 77/2/4 73/2/4
f 80/2/4 82/2/4 74/2/4
f 81/2/4 83/2/4 77/2/4
f 81/2/4 84/2/4 83/2/4
f 81/2/4 85/2/4 84/2/4
f 86/2/4 85/2/4 81/2/4
f 87/2/4 82/2/4 80/2/4
f 88/2/4 82/2/4 87/2/4
f 89/2/4 82/2/4 88/2/4
f 86/2/4 90/2/4 85/2/4
f 89/2/4 91/2/4 82/2/4
f 91/2/4 89/2/4 90/2/4
f 92/2/4 90/2/4 86/2/4
f 92/2/4 91/2/4 90/2/4
f 92/2/4 93/2/4 91/2/4
f 50/2/4 93/2/4 92/2/4
f 50/2/4 94/2/4 93/2/4
f 49/2/4 94/2/4 50/2/4
f 49/2/4 95/2/4 94/2/4
f 95/2/4 49/2/4 96/2/4
f 46/1/6 51/2/5 48/1/5
f 51/2/5 46/1/6 53/2/6
f 48/1/5 52/2/7 47/1/7
f 52/2/7 48/1/5 51/2/5
f 45/1/9 57/2/8 43/1/8
f 57/2/8 45/1/9 55/2/9
f 57/2/8 36/1/10 43/1/8
f 36/1/10 57/2/8 60/2/10
f 60/2/10 32/1/11 36/1/10
f 32/1/11 60/2/10 70/2/11
f 70/2/11 24/1/12 32/1/11
f 24/1/12 70/2/11 74/2/12
f 82/2/13 10/1/14 14/1/13
f 10/1/14 82/2/13 91/2/14
f 91/2/14 7/1/15 10/1/14
f 7/1/15 91/2/14 93/2/15
f 95/2/17 5/1/16 94/2/16
f 5/1/16 95/2/17 2/1/17
f 96/2/18 2/1/17 95/2/17
f 2/1/17 96/2/18 1/1/18
f 49/2/2 1/1/18 96/2/18
f 1/1/18 49/2/2 3/1/2
f 47/1/7 55/2/9 45/1/9
f 55/2/9 47/1/7 52/2/7
f 92/2/19 4/1/3 50/2/3
f 4/1/3 92/2/19 6/1/19
f 92/2/19 8/1/20 6/1/19
f 8/1/20 92/2/19 86/2/20
f 94/2/16 7/1/15 93/2/15
f 7/1/15 94/2/16 5/1/16
f 74/2/12 14/1/13 24/1/12
f 14/1/13 74/2/12 82/2/13
f 67/2/21 35/1/22 25/1/21
f 35/1/22 67/2/21 58/2/22
f 81/2/23 21/1/24 13/1/23
f 21/1/24 81/2/23 73/2/24
f 58/2/22 42/1/25 35/1/22
f 42/1/25 58/2/22 56/2/25
f 44/1/26 53/2/6 46/1/6
f 53/2/6 44/1/26 54/2/26
f 42/1/25 54/2/26 44/1/26
f 54/2/26 42/1/25 56/2/25
f 86/2/20 13/1/23 8/1/20
f 13/1/23 86/2/20 81/2/23
f 73/2/24 25/1/21 21/1/24
f 25/1/21 73/2/24 67/2/21
f 59/2/18 41/1/2 64/2/2
f 41/1/2 59/2/18 40/1/18
f 61/2/17 40/1/18 59/2/18
f 40/1/18 61/2/17 38/1/17
f 62/2/16 38/1/17 61/2/17
f 38/1/17 62/2/16 37/1/16
f 63/2/15 37/1/16 62/2/16
f 37/1/16 63/2/15 31/1/15
f 63/2/15 30/1/14 31/1/15
f 30/1/14 63/2/15 68/2/14
f 68/2/14 29/1/13 30/1/14
f 29/1/13 68/2/14 69/2/13
f 69/2/13 23/1/12 29/1/13
f 23/1/12 69/2/13 75/2/12
f 75/2/12 22/1/11 23/1/12
f 22/1/11 75/2/12 76/2/11
f 76/2/11 17/1/10 22/1/11
f 17/1/10 76/2/11 77/2/10
f 77/2/10 16/1/8 17/1/10
f 16/1/8 77/2/10 83/2/8
f 16/1/8 84/2/9 15/1/9
f 84/2/9 16/1/8 83/2/8
f 15/1/9 85/2/7 11/1/7
f 85/2/7 15/1/9 84/2/9
f 11/1/7 90/2/5 9/1/5
f 90/2/5 11/1/7 85/2/7
f 9/1/5 89/2/6 12/1/6
f 89/2/6 9/1/5 90/2/5
f 12/1/6 88/2/26 18/1/26
f 88/2/26 12/1/6 89/2/6
f 18/1/26 87/2/25 19/1/25
f 87/2/25 18/1/26 88/2/26
f 87/2/25 20/1/22 19/1/25
f 20/1/22 87/2/25 80/2/22
f 80/2/22 26/1/21 20/1/22
f 26/1/21 80/2/22 79/2/21
f 79/2/21 27/1/24 26/1/21
f 27/1/24 79/2/21 78/2/24
f 78/2/24 28/1/23 27/1/24
f 28/1/23 78/2/24 72/2/23
f 72/2/23 33/1/20 28/1/23
f 33/1/20 72/2/23 71/2/20
f 71/2/20 34/1/19 33/1/20
f 34/1/19 71/2/20 66/2/19
f 65/2/3 34/1/19 66/2/19
f 34/1/19 65/2/3 39/1/3
f 64/2/2 39/1/3 65/2/3
f 39/1/3 64/2/2 41/1/2

