# Created by Kenney (www.kenney.nl)

mtllib stairs-diagonal-small.mtl

g stairs-diagonal-small

v 0.375 0.875 0.5 1 1 1
v 0.5 1 0.5 1 1 1
v 0.25 0.75 0.5 1 1 1
v -0.125 0.375 -0.5 1 1 1
v -0.125 0.5 -0.5 1 1 1
v -0.125 0.375 0.5 1 1 1
v -0.125 0.5 0.5 1 1 1
v -0.5 0 -0.5 1 1 1
v -0.25 0 -0.5 1 1 1
v -0.5 0.125 -0.5 1 1 1
v -0.375 0.125 -0.5 1 1 1
v 0.5 0.75 -0.5 1 1 1
v -0.25 0.25 -0.5 1 1 1
v -0.375 0.25 -0.5 1 1 1
v -0.25 0.375 -0.5 1 1 1
v 0 0.5 -0.5 1 1 1
v 0.125 0.625 -0.5 1 1 1
v 0 0.625 -0.5 1 1 1
v 0.125 0.75 -0.5 1 1 1
v 0.25 0.75 -0.5 1 1 1
v 0.25 0.875 -0.5 1 1 1
v 0.375 0.875 -0.5 1 1 1
v 0.5 1 -0.5 1 1 1
v 0.375 1 -0.5 1 1 1
v -0.5 0 0.5 1 1 1
v -0.5 0.125 0.5 1 1 1
v -0.25 0 0.5 1 1 1
v 0.125 0.625 0.5 1 1 1
v 0.125 0.75 0.5 1 1 1
v 0.375 1 0.5 1 1 1
v 0.25 0.875 0.5 1 1 1
v -0.375 0.125 0.5 1 1 1
v -0.375 0.25 0.5 1 1 1
v 0 0.5 0.5 1 1 1
v 0 0.625 0.5 1 1 1
v 0.5 0.75 0.5 1 1 1
v -0.25 0.25 0.5 1 1 1
v -0.25 0.375 0.5 1 1 1

vn 0 0 1
vn -1 0 0
vn 0 0 -1
vn 0 -1 0
vn 0 1 0
vn 1 0 0
vn 0.7071068 -0.7071068 0

vt 0.46875 0.2
vt 0.46875 0.225
vt 0.46875 0.175
vt 0.46875 0.1
vt 0.46875 0.125
vt 0.46875 0.025
vt 0.46875 0.05
vt 0.46875 0.075
vt 0.46875 0.15

usemtl colormap

f 3/3/1 2/2/1 1/1/1
f 6/4/2 5/5/2 4/4/2
f 5/5/2 6/4/2 7/5/2
f 10/7/3 9/6/3 8/6/3
f 9/6/3 10/7/3 11/7/3
f 9/6/3 11/7/3 12/3/3
f 12/3/3 11/7/3 13/8/3
f 12/3/3 13/8/3 4/4/3
f 13/8/3 11/7/3 14/8/3
f 4/4/3 13/8/3 15/4/3
f 12/3/3 4/4/3 16/5/3
f 16/5/3 4/4/3 5/5/3
f 12/3/3 16/5/3 17/9/3
f 17/9/3 16/5/3 18/9/3
f 12/3/3 17/9/3 19/3/3
f 12/3/3 19/3/3 20/3/3
f 12/3/3 20/3/3 21/1/3
f 12/3/3 21/1/3 22/1/3
f 12/3/3 22/1/3 23/2/3
f 23/2/3 22/1/3 24/2/3
f 25/6/2 10/7/2 8/6/2
f 10/7/2 25/6/2 26/7/2
f 25/6/4 9/6/4 27/6/4
f 9/6/4 25/6/4 8/6/4
f 28/9/2 19/3/2 17/9/2
f 19/3/2 28/9/2 29/3/2
f 1/1/2 24/2/2 22/1/2
f 24/2/2 1/1/2 30/2/2
f 3/3/2 21/1/2 20/3/2
f 21/1/2 3/3/2 31/1/2
f 32/7/2 14/8/2 11/7/2
f 14/8/2 32/7/2 33/8/2
f 24/2/5 2/2/5 23/2/5
f 2/2/5 24/2/5 30/2/5
f 34/5/2 18/9/2 16/5/2
f 18/9/2 34/5/2 35/9/2
f 19/3/5 3/3/5 20/3/5
f 3/3/5 19/3/5 29/3/5
f 36/3/1 25/6/1 27/6/1
f 25/6/1 36/3/1 32/7/1
f 26/7/1 25/6/1 32/7/1
f 32/7/1 36/3/1 37/8/1
f 33/8/1 32/7/1 37/8/1
f 37/8/1 36/3/1 6/4/1
f 38/4/1 37/8/1 6/4/1
f 6/4/1 36/3/1 34/5/1
f 7/5/1 6/4/1 34/5/1
f 34/5/1 36/3/1 28/9/1
f 35/9/1 34/5/1 28/9/1
f 28/9/1 36/3/1 29/3/1
f 29/3/1 36/3/1 3/3/1
f 2/2/1 3/3/1 36/3/1
f 31/1/1 3/3/1 1/1/1
f 1/1/1 2/2/1 30/2/1
f 21/1/5 1/1/5 22/1/5
f 1/1/5 21/1/5 31/1/5
f 2/2/6 12/3/6 23/2/6
f 12/3/6 2/2/6 36/3/6
f 10/7/5 32/7/5 11/7/5
f 32/7/5 10/7/5 26/7/5
f 5/5/5 34/5/5 16/5/5
f 34/5/5 5/5/5 7/5/5
f 18/9/5 28/9/5 17/9/5
f 28/9/5 18/9/5 35/9/5
f 14/8/5 37/8/5 13/8/5
f 37/8/5 14/8/5 33/8/5
f 37/8/2 15/4/2 13/8/2
f 15/4/2 37/8/2 38/4/2
f 15/4/5 6/4/5 4/4/5
f 6/4/5 15/4/5 38/4/5
f 27/6/7 12/3/7 36/3/7
f 12/3/7 27/6/7 9/6/7

g stairs-diagonal-small




usemtl colormap

f 3/3/1 2/2/1 1/1/1
f 6/4/2 5/5/2 4/4/2
f 5/5/2 6/4/2 7/5/2
f 10/7/3 9/6/3 8/6/3
f 9/6/3 10/7/3 11/7/3
f 9/6/3 11/7/3 12/3/3
f 12/3/3 11/7/3 13/8/3
f 12/3/3 13/8/3 4/4/3
f 13/8/3 11/7/3 14/8/3
f 4/4/3 13/8/3 15/4/3
f 12/3/3 4/4/3 16/5/3
f 16/5/3 4/4/3 5/5/3
f 12/3/3 16/5/3 17/9/3
f 17/9/3 16/5/3 18/9/3
f 12/3/3 17/9/3 19/3/3
f 12/3/3 19/3/3 20/3/3
f 12/3/3 20/3/3 21/1/3
f 12/3/3 21/1/3 22/1/3
f 12/3/3 22/1/3 23/2/3
f 23/2/3 22/1/3 24/2/3
f 25/6/2 10/7/2 8/6/2
f 10/7/2 25/6/2 26/7/2
f 25/6/4 9/6/4 27/6/4
f 9/6/4 25/6/4 8/6/4
f 28/9/2 19/3/2 17/9/2
f 19/3/2 28/9/2 29/3/2
f 1/1/2 24/2/2 22/1/2
f 24/2/2 1/1/2 30/2/2
f 3/3/2 21/1/2 20/3/2
f 21/1/2 3/3/2 31/1/2
f 32/7/2 14/8/2 11/7/2
f 14/8/2 32/7/2 33/8/2
f 24/2/5 2/2/5 23/2/5
f 2/2/5 24/2/5 30/2/5
f 34/5/2 18/9/2 16/5/2
f 18/9/2 34/5/2 35/9/2
f 19/3/5 3/3/5 20/3/5
f 3/3/5 19/3/5 29/3/5
f 36/3/1 25/6/1 27/6/1
f 25/6/1 36/3/1 32/7/1
f 26/7/1 25/6/1 32/7/1
f 32/7/1 36/3/1 37/8/1
f 33/8/1 32/7/1 37/8/1
f 37/8/1 36/3/1 6/4/1
f 38/4/1 37/8/1 6/4/1
f 6/4/1 36/3/1 34/5/1
f 7/5/1 6/4/1 34/5/1
f 34/5/1 36/3/1 28/9/1
f 35/9/1 34/5/1 28/9/1
f 28/9/1 36/3/1 29/3/1
f 29/3/1 36/3/1 3/3/1
f 2/2/1 3/3/1 36/3/1
f 31/1/1 3/3/1 1/1/1
f 1/1/1 2/2/1 30/2/1
f 21/1/5 1/1/5 22/1/5
f 1/1/5 21/1/5 31/1/5
f 2/2/6 12/3/6 23/2/6
f 12/3/6 2/2/6 36/3/6
f 10/7/5 32/7/5 11/7/5
f 32/7/5 10/7/5 26/7/5
f 5/5/5 34/5/5 16/5/5
f 34/5/5 5/5/5 7/5/5
f 18/9/5 28/9/5 17/9/5
f 28/9/5 18/9/5 35/9/5
f 14/8/5 37/8/5 13/8/5
f 37/8/5 14/8/5 33/8/5
f 37/8/2 15/4/2 13/8/2
f 15/4/2 37/8/2 38/4/2
f 15/4/5 6/4/5 4/4/5
f 6/4/5 15/4/5 38/4/5
f 27/6/7 12/3/7 36/3/7
f 12/3/7 27/6/7 9/6/7

