# Created by Kenney (www.kenney.nl)

mtllib target-a-round.mtl

g target-a-round

v -2.95639E-08 0.248 -0.248 1 1 1
v -0.06200004 0.248 -0.248 1 1 1
v -2.090488E-08 0.07263752 -0.1753625 1 1 1
v -0.06200003 0.07263752 -0.1753625 1 1 1
v -2.09048E-08 0.4233625 -0.1753625 1 1 1
v -0.06200003 0.4233625 -0.1753625 1 1 1
v -0.06200001 0.496 7.390978E-09 1 1 1
v 5.479714E-14 0.496 -4.963206E-16 1 1 1
v -0.06199998 0.4233625 0.1753625 1 1 1
v 2.090488E-08 0.4233625 0.1753625 1 1 1
v -0.06199998 0.07263752 0.1753625 1 1 1
v 2.09048E-08 0.07263752 0.1753625 1 1 1
v -0.06200001 2.666505E-14 7.390978E-09 1 1 1
v -5.351846E-14 1.339136E-14 -4.963077E-16 1 1 1
v 2.956391E-08 0.248 0.248 1 1 1
v -0.06199998 0.248 0.248 1 1 1
v -0.06200001 0.08618 7.390978E-09 1 1 1
v -0.06199999 0.133576 0.114424 1 1 1
v -0.06200002 0.133576 -0.114424 1 1 1
v -0.06199999 0.248 0.16182 1 1 1
v -0.06199999 0.362424 0.114424 1 1 1
v -0.06200003 0.248 -0.16182 1 1 1
v -0.06200002 0.362424 -0.114424 1 1 1
v -0.06200001 0.40982 7.390978E-09 1 1 1
v -0.06200001 0.1849605 7.390979E-09 1 1 1
v -0.06200001 0.2034243 -0.04457566 1 1 1
v -0.062 0.2034243 0.04457568 1 1 1
v -0.062 0.248 0.06303953 1 1 1
v -0.06200001 0.248 -0.06303951 1 1 1
v -0.06200001 0.2925757 -0.04457566 1 1 1
v -0.062 0.2925757 0.04457568 1 1 1
v -0.06200001 0.3110395 7.390978E-09 1 1 1
v 2.04891E-08 0.07263752 0.1753625 1 1 1
v 0.06200003 0.07263752 0.1753625 1 1 1
v 0 1.342755E-14 -2.220446E-16 1 1 1
v 0.06200001 0 -7.390978E-09 1 1 1
v 0.06199998 0.248 -0.248 1 1 1
v -2.980232E-08 0.248 -0.248 1 1 1
v 0.06199998 0.07263752 -0.1753625 1 1 1
v -2.04891E-08 0.07263752 -0.1753625 1 1 1
v 0.06199998 0.4233625 -0.1753625 1 1 1
v -2.04891E-08 0.4233625 -0.1753625 1 1 1
v 0.06200004 0.248 0.248 1 1 1
v 0.06200003 0.4233625 0.1753625 1 1 1
v 0.06200001 0.496 -7.390978E-09 1 1 1
v 2.04891E-08 0.4233625 0.1753625 1 1 1
v 2.980232E-08 0.248 0.248 1 1 1
v 0 0.496 -2.220446E-16 1 1 1
v -0.06200001 0.08618 7.390977E-09 1 1 1
v -0.06200002 0.133576 -0.114424 1 1 1
v -0.06199999 0.133576 0.114424 1 1 1
v -0.06200001 0.1849605 7.390978E-09 1 1 1
v -0.062 0.2034243 0.04457568 1 1 1
v -0.06200001 0.2034243 -0.04457567 1 1 1
v -0.06199999 0.362424 0.114424 1 1 1
v -0.06200002 0.362424 -0.114424 1 1 1
v -0.062 0.2925757 0.04457568 1 1 1
v -0.06200001 0.2925757 -0.04457567 1 1 1
v -0.06200001 0.3110395 7.390977E-09 1 1 1
v -0.06200001 0.40982 7.390977E-09 1 1 1

vn -1.192093E-07 0 -0.9999999
vn -8.429369E-08 -0.7071067 -0.7071067
vn -8.429369E-08 0.7071067 -0.7071067
vn 0 0.9999999 0
vn 8.429369E-08 0.7071067 0.7071067
vn 8.429369E-08 -0.7071067 0.7071067
vn 0 -0.9999999 0
vn 1.192093E-07 0 0.9999999
vn -0.9999999 0 1.192093E-07
vn 0.9999999 0 -1.192093E-07
vn -1 0 1.192093E-07

vt 0.59375 0.375
vt 0.59375 0.3042893
vt 0.59375 0.4457107
vt 0.59375 0.475
vt 0.59375 0.275
vt 0.59375 0.30975
vt 0.59375 0.3288613
vt 0.59375 0.4211387
vt 0.59375 0.44025
vt 0.59375 0.3495808
vt 0.59375 0.3570259
vt 0.59375 0.392974
vt 0.59375 0.4004191
vt 0.46875 0.05428932
vt 0.46875 0.025
vt 0.46875 0.125
vt 0.46875 0.1957107
vt 0.46875 0.225
vt 0.59375 0.025
vt 0.59375 0.05428931
vt 0.59375 0.125
vt 0.59375 0.08604343
vt 0.59375 0.09745354
vt 0.59375 0.1957107
vt 0.59375 0.1525464
vt 0.59375 0.1639566
vt 0.59375 0.225

usemtl colormap

f 3/2/2 2/1/1 1/1/1
f 2/1/1 3/2/2 4/2/2
f 1/1/1 6/3/3 5/3/3
f 6/3/3 1/1/1 2/1/1
f 8/4/4 6/3/3 7/4/4
f 6/3/3 8/4/4 5/3/3
f 10/3/5 7/4/4 9/3/5
f 7/4/4 10/3/5 8/4/4
f 13/5/7 12/2/6 11/2/6
f 12/2/6 13/5/7 14/5/7
f 4/2/2 14/5/7 13/5/7
f 14/5/7 4/2/2 3/2/2
f 9/3/5 15/1/8 10/3/5
f 15/1/8 9/3/5 16/1/8
f 16/1/8 12/2/6 15/1/8
f 12/2/6 16/1/8 11/2/6
f 11/2/9 4/2/9 13/5/9
f 4/2/9 11/2/9 17/6/9
f 17/6/9 11/2/9 18/7/9
f 19/7/9 4/2/9 17/6/9
f 18/7/9 11/2/9 16/1/9
f 18/7/9 16/1/9 20/1/9
f 20/1/9 16/1/9 21/8/9
f 4/2/9 19/7/9 2/1/9
f 2/1/9 19/7/9 22/1/9
f 2/1/9 22/1/9 23/8/9
f 21/8/9 16/1/9 9/3/9
f 2/1/9 23/8/9 6/3/9
f 21/8/9 9/3/9 24/9/9
f 6/3/9 23/8/9 24/9/9
f 6/3/9 24/9/9 9/3/9
f 6/3/9 9/3/9 7/4/9
f 27/11/9 26/11/9 25/10/9
f 26/11/9 27/11/9 28/1/9
f 26/11/9 28/1/9 29/1/9
f 29/1/9 28/1/9 30/12/9
f 30/12/9 28/1/9 31/12/9
f 30/12/9 31/12/9 32/13/9
f 35/15/7 34/14/6 33/14/6
f 34/14/6 35/15/7 36/15/7
f 39/14/2 38/16/1 37/16/1
f 38/16/1 39/14/2 40/14/2
f 40/14/2 36/15/7 35/15/7
f 36/15/7 40/14/2 39/14/2
f 37/16/1 42/17/3 41/17/3
f 42/17/3 37/16/1 38/16/1
f 39/14/10 34/14/10 36/15/10
f 34/14/10 39/14/10 37/16/10
f 34/14/10 37/16/10 43/16/10
f 43/16/10 37/16/10 41/17/10
f 43/16/10 41/17/10 44/17/10
f 44/17/10 41/17/10 45/18/10
f 46/17/5 43/16/8 44/17/5
f 43/16/8 46/17/5 47/16/8
f 47/16/8 34/14/6 43/16/8
f 34/14/6 47/16/8 33/14/6
f 45/18/4 42/17/3 48/18/4
f 42/17/3 45/18/4 41/17/3
f 44/17/5 48/18/4 46/17/5
f 48/18/4 44/17/5 45/18/4
f 51/20/11 50/20/11 49/19/11
f 50/20/11 51/20/11 20/21/11
f 50/20/11 20/21/11 52/22/11
f 52/22/11 22/21/11 50/20/11
f 52/22/11 20/21/11 53/23/11
f 22/21/11 52/22/11 54/23/11
f 53/23/11 20/21/11 28/21/11
f 22/21/11 54/23/11 29/21/11
f 28/21/11 20/21/11 55/24/11
f 22/21/11 29/21/11 56/24/11
f 28/21/11 55/24/11 57/25/11
f 56/24/11 29/21/11 58/25/11
f 57/25/11 55/24/11 59/26/11
f 56/24/11 58/25/11 59/26/11
f 56/24/11 59/26/11 55/24/11
f 56/24/11 55/24/11 60/27/11

g target-a-round




usemtl colormap

f 3/2/2 2/1/1 1/1/1
f 2/1/1 3/2/2 4/2/2
f 1/1/1 6/3/3 5/3/3
f 6/3/3 1/1/1 2/1/1
f 8/4/4 6/3/3 7/4/4
f 6/3/3 8/4/4 5/3/3
f 10/3/5 7/4/4 9/3/5
f 7/4/4 10/3/5 8/4/4
f 13/5/7 12/2/6 11/2/6
f 12/2/6 13/5/7 14/5/7
f 4/2/2 14/5/7 13/5/7
f 14/5/7 4/2/2 3/2/2
f 9/3/5 15/1/8 10/3/5
f 15/1/8 9/3/5 16/1/8
f 16/1/8 12/2/6 15/1/8
f 12/2/6 16/1/8 11/2/6
f 11/2/9 4/2/9 13/5/9
f 4/2/9 11/2/9 17/6/9
f 17/6/9 11/2/9 18/7/9
f 19/7/9 4/2/9 17/6/9
f 18/7/9 11/2/9 16/1/9
f 18/7/9 16/1/9 20/1/9
f 20/1/9 16/1/9 21/8/9
f 4/2/9 19/7/9 2/1/9
f 2/1/9 19/7/9 22/1/9
f 2/1/9 22/1/9 23/8/9
f 21/8/9 16/1/9 9/3/9
f 2/1/9 23/8/9 6/3/9
f 21/8/9 9/3/9 24/9/9
f 6/3/9 23/8/9 24/9/9
f 6/3/9 24/9/9 9/3/9
f 6/3/9 9/3/9 7/4/9
f 27/11/9 26/11/9 25/10/9
f 26/11/9 27/11/9 28/1/9
f 26/11/9 28/1/9 29/1/9
f 29/1/9 28/1/9 30/12/9
f 30/12/9 28/1/9 31/12/9
f 30/12/9 31/12/9 32/13/9
f 35/15/7 34/14/6 33/14/6
f 34/14/6 35/15/7 36/15/7
f 39/14/2 38/16/1 37/16/1
f 38/16/1 39/14/2 40/14/2
f 40/14/2 36/15/7 35/15/7
f 36/15/7 40/14/2 39/14/2
f 37/16/1 42/17/3 41/17/3
f 42/17/3 37/16/1 38/16/1
f 39/14/10 34/14/10 36/15/10
f 34/14/10 39/14/10 37/16/10
f 34/14/10 37/16/10 43/16/10
f 43/16/10 37/16/10 41/17/10
f 43/16/10 41/17/10 44/17/10
f 44/17/10 41/17/10 45/18/10
f 46/17/5 43/16/8 44/17/5
f 43/16/8 46/17/5 47/16/8
f 47/16/8 34/14/6 43/16/8
f 34/14/6 47/16/8 33/14/6
f 45/18/4 42/17/3 48/18/4
f 42/17/3 45/18/4 41/17/3
f 44/17/5 48/18/4 46/17/5
f 48/18/4 44/17/5 45/18/4
f 51/20/11 50/20/11 49/19/11
f 50/20/11 51/20/11 20/21/11
f 50/20/11 20/21/11 52/22/11
f 52/22/11 22/21/11 50/20/11
f 52/22/11 20/21/11 53/23/11
f 22/21/11 52/22/11 54/23/11
f 53/23/11 20/21/11 28/21/11
f 22/21/11 54/23/11 29/21/11
f 28/21/11 20/21/11 55/24/11
f 22/21/11 29/21/11 56/24/11
f 28/21/11 55/24/11 57/25/11
f 56/24/11 29/21/11 58/25/11
f 57/25/11 55/24/11 59/26/11
f 56/24/11 58/25/11 59/26/11
f 56/24/11 59/26/11 55/24/11
f 56/24/11 55/24/11 60/27/11

