# Created by Kenney (www.kenney.nl)

mtllib wall-doorway-round.mtl

g wall-doorway-round

v -0.125 2.255973E-17 -0.4958833 1 1 1
v -0.125 2.255973E-17 -0.3859487 1 1 1
v -0.075 2.255973E-17 -0.4958833 1 1 1
v 0.125 2.255973E-17 -0.3859487 1 1 1
v 0.125 2.255973E-17 -1 1 1 1
v -0.075 2.255973E-17 -1 1 1 1
v 0.125 1 -1 1 1 1
v 0.125 1 1 1 1 1
v -0.075 1 -1 1 1 1
v -0.075 1 1 1 1 1
v 0.125 2.255973E-17 1 1 1 1
v -0.075 2.255973E-17 1 1 1 1
v 0.125 3.508994E-17 0.3859487 1 1 1
v -0.075 0 0.4958833 1 1 1
v -0.125 3.508994E-17 0.3859487 1 1 1
v -0.125 0 0.4958833 1 1 1
v -0.075 0.2146111 -0.5938929 1 1 1
v -0.075 0.549249 -0.5457792 1 1 1
v -0.075 0.8047521 -0.3243845 1 1 1
v -0.075 0.9 3.609557E-16 1 1 1
v -0.075 0.8047521 0.3243845 1 1 1
v -0.075 0.549249 0.5457792 1 1 1
v -0.075 0.2146111 0.5938929 1 1 1
v 0.125 0.1 0.4316172 1 1 1
v 0.125 0.2294434 0.490732 1 1 1
v 0.125 0.5059537 0.4509758 1 1 1
v 0.125 0.7170752 0.268038 1 1 1
v 0.125 0.7957783 3.609557E-16 1 1 1
v 0.125 0.7170752 -0.268038 1 1 1
v 0.125 0.5059537 -0.4509758 1 1 1
v 0.125 0.2294434 -0.490732 1 1 1
v -0.125 0.2294434 -0.490732 1 1 1
v -0.125 0.549249 -0.5457792 1 1 1
v -0.125 0.2146111 -0.5938929 1 1 1
v -0.125 0.5059537 -0.4509758 1 1 1
v -0.125 0.8047521 -0.3243845 1 1 1
v -0.125 0.7170752 -0.268038 1 1 1
v -0.125 0.9 3.609557E-16 1 1 1
v -0.125 0.7957783 3.609557E-16 1 1 1
v -0.125 0.7170752 0.268038 1 1 1
v -0.125 0.8047521 0.3243845 1 1 1
v -0.125 0.5059537 0.4509758 1 1 1
v -0.125 0.549249 0.5457792 1 1 1
v -0.125 0.2294434 0.490732 1 1 1
v -0.125 0.2146111 0.5938929 1 1 1
v -0.125 0.1 0.4316172 1 1 1

vn 0 -1 0
vn 0 1 0
vn 0 0 -1
vn 0 0 1
vn -1 0 0
vn 1 0 0
vn 0 0.8412535 0.5406408
vn 0 -0.415415 -0.909632
vn 0 -0.1423148 -0.9898214
vn 0 0.8412535 -0.5406408
vn 0 -0.1423148 0.9898214
vn 0 0.415415 0.909632
vn 0 0.415415 -0.909632
vn 0 -0.415415 0.909632
vn 0 -0.8412535 -0.5406408
vn 0 0.1423148 0.9898214
vn 0 0.1423148 -0.9898214
vn 0 -0.8412535 0.5406408

vt 0.46875 0.025
vt 0.46875 0.225
vt 0.46875 0.06792222
vt 0.46875 0.1348498
vt 0.46875 0.1859504
vt 0.46875 0.205
vt 0.46875 0.045
vt 0.46875 0.07088868
vt 0.46875 0.1261907
vt 0.46875 0.168415
vt 0.46875 0.1841556
vt 0.21875 0.025
vt 0.21875 0.07088868
vt 0.21875 0.1348498
vt 0.21875 0.06792222
vt 0.21875 0.1261907
vt 0.21875 0.1859504
vt 0.21875 0.168415
vt 0.21875 0.205
vt 0.21875 0.1841556
vt 0.21875 0.045

usemtl colormap

f 3/1/1 2/1/1 1/1/1
f 3/1/1 4/1/1 2/1/1
f 4/1/1 3/1/1 5/1/1
f 6/1/1 5/1/1 3/1/1
f 9/2/2 8/2/2 7/2/2
f 8/2/2 9/2/2 10/2/2
f 9/2/3 5/1/3 6/1/3
f 5/1/3 9/2/3 7/2/3
f 8/2/4 12/1/4 11/1/4
f 12/1/4 8/2/4 10/2/4
f 12/1/1 13/1/1 11/1/1
f 13/1/1 12/1/1 14/1/1
f 13/1/1 14/1/1 15/1/1
f 15/1/1 14/1/1 16/1/1
f 3/1/5 9/2/5 6/1/5
f 9/2/5 3/1/5 17/3/5
f 18/4/5 9/2/5 17/3/5
f 19/5/5 9/2/5 18/4/5
f 20/6/5 9/2/5 19/5/5
f 9/2/5 20/6/5 10/2/5
f 10/2/5 20/6/5 21/5/5
f 10/2/5 21/5/5 22/4/5
f 10/2/5 22/4/5 23/3/5
f 10/2/5 23/3/5 12/1/5
f 12/1/5 23/3/5 14/1/5
f 24/7/6 11/1/6 13/1/6
f 11/1/6 24/7/6 25/8/6
f 11/1/6 25/8/6 8/2/6
f 26/9/6 8/2/6 25/8/6
f 27/10/6 8/2/6 26/9/6
f 28/11/6 8/2/6 27/10/6
f 28/11/6 7/2/6 8/2/6
f 29/10/6 7/2/6 28/11/6
f 7/2/6 29/10/6 5/1/6
f 5/1/6 29/10/6 30/9/6
f 5/1/6 30/9/6 31/8/6
f 4/1/6 5/1/6 31/8/6
f 2/12/5 32/13/5 1/12/5
f 33/14/5 1/12/5 32/13/5
f 1/12/5 33/14/5 34/15/5
f 33/14/5 32/13/5 35/16/5
f 33/14/5 35/16/5 36/17/5
f 36/17/5 35/16/5 37/18/5
f 36/17/5 37/18/5 38/19/5
f 38/19/5 37/18/5 39/20/5
f 38/19/5 39/20/5 40/18/5
f 38/19/5 40/18/5 41/17/5
f 41/17/5 40/18/5 42/16/5
f 41/17/5 42/16/5 43/14/5
f 43/14/5 42/16/5 44/13/5
f 43/14/5 44/13/5 16/12/5
f 43/14/5 16/12/5 45/15/5
f 46/21/5 16/12/5 44/13/5
f 16/12/5 46/21/5 15/12/5
f 38/19/2 21/17/7 20/19/2
f 21/17/7 38/19/2 41/17/7
f 34/15/9 3/12/8 1/12/8
f 3/12/8 34/15/9 17/15/9
f 36/17/10 20/19/2 19/17/10
f 20/19/2 36/17/10 38/19/2
f 22/14/12 45/15/11 23/15/11
f 45/15/11 22/14/12 43/14/12
f 21/17/7 43/14/12 22/14/12
f 43/14/12 21/17/7 41/17/7
f 33/14/13 17/15/9 34/15/9
f 17/15/9 33/14/13 18/14/13
f 23/15/11 16/12/14 14/12/14
f 16/12/14 23/15/11 45/15/11
f 36/17/10 18/14/13 33/14/13
f 18/14/13 36/17/10 19/17/10
f 40/18/15 28/20/1 27/18/15
f 28/20/1 40/18/15 39/20/1
f 31/13/16 2/12/12 4/12/12
f 2/12/12 31/13/16 32/13/16
f 42/16/8 25/13/17 44/13/17
f 25/13/17 42/16/8 26/16/8
f 30/16/14 32/13/16 31/13/16
f 32/13/16 30/16/14 35/16/14
f 46/21/13 13/12/13 15/12/13
f 13/12/13 46/21/13 24/21/13
f 24/21/13 46/21/13 44/13/17
f 24/21/13 44/13/17 25/13/17
f 29/18/18 35/16/14 30/16/14
f 35/16/14 29/18/18 37/18/18
f 40/18/15 26/16/8 42/16/8
f 26/16/8 40/18/15 27/18/15
f 39/20/1 29/18/18 28/20/1
f 29/18/18 39/20/1 37/18/18

g wall-doorway-round




usemtl colormap

f 3/1/1 2/1/1 1/1/1
f 3/1/1 4/1/1 2/1/1
f 4/1/1 3/1/1 5/1/1
f 6/1/1 5/1/1 3/1/1
f 9/2/2 8/2/2 7/2/2
f 8/2/2 9/2/2 10/2/2
f 9/2/3 5/1/3 6/1/3
f 5/1/3 9/2/3 7/2/3
f 8/2/4 12/1/4 11/1/4
f 12/1/4 8/2/4 10/2/4
f 12/1/1 13/1/1 11/1/1
f 13/1/1 12/1/1 14/1/1
f 13/1/1 14/1/1 15/1/1
f 15/1/1 14/1/1 16/1/1
f 3/1/5 9/2/5 6/1/5
f 9/2/5 3/1/5 17/3/5
f 18/4/5 9/2/5 17/3/5
f 19/5/5 9/2/5 18/4/5
f 20/6/5 9/2/5 19/5/5
f 9/2/5 20/6/5 10/2/5
f 10/2/5 20/6/5 21/5/5
f 10/2/5 21/5/5 22/4/5
f 10/2/5 22/4/5 23/3/5
f 10/2/5 23/3/5 12/1/5
f 12/1/5 23/3/5 14/1/5
f 24/7/6 11/1/6 13/1/6
f 11/1/6 24/7/6 25/8/6
f 11/1/6 25/8/6 8/2/6
f 26/9/6 8/2/6 25/8/6
f 27/10/6 8/2/6 26/9/6
f 28/11/6 8/2/6 27/10/6
f 28/11/6 7/2/6 8/2/6
f 29/10/6 7/2/6 28/11/6
f 7/2/6 29/10/6 5/1/6
f 5/1/6 29/10/6 30/9/6
f 5/1/6 30/9/6 31/8/6
f 4/1/6 5/1/6 31/8/6
f 2/12/5 32/13/5 1/12/5
f 33/14/5 1/12/5 32/13/5
f 1/12/5 33/14/5 34/15/5
f 33/14/5 32/13/5 35/16/5
f 33/14/5 35/16/5 36/17/5
f 36/17/5 35/16/5 37/18/5
f 36/17/5 37/18/5 38/19/5
f 38/19/5 37/18/5 39/20/5
f 38/19/5 39/20/5 40/18/5
f 38/19/5 40/18/5 41/17/5
f 41/17/5 40/18/5 42/16/5
f 41/17/5 42/16/5 43/14/5
f 43/14/5 42/16/5 44/13/5
f 43/14/5 44/13/5 16/12/5
f 43/14/5 16/12/5 45/15/5
f 46/21/5 16/12/5 44/13/5
f 16/12/5 46/21/5 15/12/5
f 38/19/2 21/17/7 20/19/2
f 21/17/7 38/19/2 41/17/7
f 34/15/9 3/12/8 1/12/8
f 3/12/8 34/15/9 17/15/9
f 36/17/10 20/19/2 19/17/10
f 20/19/2 36/17/10 38/19/2
f 22/14/12 45/15/11 23/15/11
f 45/15/11 22/14/12 43/14/12
f 21/17/7 43/14/12 22/14/12
f 43/14/12 21/17/7 41/17/7
f 33/14/13 17/15/9 34/15/9
f 17/15/9 33/14/13 18/14/13
f 23/15/11 16/12/14 14/12/14
f 16/12/14 23/15/11 45/15/11
f 36/17/10 18/14/13 33/14/13
f 18/14/13 36/17/10 19/17/10
f 40/18/15 28/20/1 27/18/15
f 28/20/1 40/18/15 39/20/1
f 31/13/16 2/12/12 4/12/12
f 2/12/12 31/13/16 32/13/16
f 42/16/8 25/13/17 44/13/17
f 25/13/17 42/16/8 26/16/8
f 30/16/14 32/13/16 31/13/16
f 32/13/16 30/16/14 35/16/14
f 46/21/13 13/12/13 15/12/13
f 13/12/13 46/21/13 24/21/13
f 24/21/13 46/21/13 44/13/17
f 24/21/13 44/13/17 25/13/17
f 29/18/18 35/16/14 30/16/14
f 35/16/14 29/18/18 37/18/18
f 40/18/15 26/16/8 42/16/8
f 26/16/8 40/18/15 27/18/15
f 39/20/1 29/18/18 28/20/1
f 29/18/18 39/20/1 37/18/18

