# Created by Kenney (www.kenney.nl)

mtllib wall-doorway-wide.mtl

g wall-doorway-wide

v -0.1 4.22995E-17 -0.75 1 1 1
v 0.1 4.22995E-17 -0.75 1 1 1
v -0.1 1 -0.75 1 1 1
v 0.1 1 -0.75 1 1 1
v 0.1 4.22995E-17 0.75 1 1 1
v -0.1 4.22995E-17 0.75 1 1 1
v 0.1 1 0.75 1 1 1
v -0.1 1 0.75 1 1 1
v 0.15 1.69198E-17 -0.45 1 1 1
v 0.15 1.466383E-16 -0.55 1 1 1
v -0.15 1.69198E-17 -0.45 1 1 1
v 0.1 1.466383E-16 -0.55 1 1 1
v -0.1 1.72018E-16 -0.55 1 1 1
v -0.15 1.72018E-16 -0.55 1 1 1
v -0.1 2.53797E-17 0.55 1 1 1
v -0.1 0.85 0.55 1 1 1
v -0.1 0.9 0.5 1 1 1
v -0.1 0.9 -0.5 1 1 1
v -0.1 0.85 -0.55 1 1 1
v 0.1 0 0.55 1 1 1
v 0.1 0.85 0.55 1 1 1
v 0.1 0.9 0.5 1 1 1
v 0.1 0.9 -0.5 1 1 1
v 0.1 0.85 -0.55 1 1 1
v -0.15 1.69198E-17 0.45 1 1 1
v -0.15 2.53797E-17 0.55 1 1 1
v 0.15 1.69198E-17 0.45 1 1 1
v 0.15 0 0.55 1 1 1
v 0.15 0.8 -0.45 1 1 1
v -0.15 0.8 -0.45 1 1 1
v -0.15 0.8 0.45 1 1 1
v 0.15 0.8 0.45 1 1 1
v -0.15 0.85 -0.55 1 1 1
v 0.15 0.85 -0.55 1 1 1
v 0.15 0.9 -0.5 1 1 1
v -0.15 0.9 -0.5 1 1 1
v -0.15 0.9 0.5 1 1 1
v -0.15 0.85 0.55 1 1 1
v 0.15 0.9 0.5 1 1 1
v 0.15 0.85 0.55 1 1 1

vn 0 0 -1
vn 0 0 1
vn 0 1 0
vn 0 -1 0
vn -1 0 0
vn 1 0 0
vn 0 0.3826834 -0.9238795
vn 0 -0.3826834 0.9238795
vn 0 0.9238795 -0.3826834
vn 0 -0.9238795 0.3826834
vn 0 0.9238795 0.3826834
vn 0 -0.9238795 -0.3826834
vn 0 0.3826834 0.9238795
vn 0 -0.3826834 -0.9238795

vt 0.46875 0.025
vt 0.46875 0.225
vt 0.46875 0.195
vt 0.46875 0.205
vt 0.21875 0.225
vt 0.21875 0.025
vt 0.21875 0.185
vt 0.21875 0.195
vt 0.21875 0.205

usemtl colormap

f 3/2/1 2/1/1 1/1/1
f 2/1/1 3/2/1 4/2/1
f 7/2/2 6/1/2 5/1/2
f 6/1/2 7/2/2 8/2/2
f 3/2/3 7/2/3 4/2/3
f 7/2/3 3/2/3 8/2/3
f 11/1/4 10/1/4 9/1/4
f 10/1/4 11/1/4 12/1/4
f 12/1/4 11/1/4 2/1/4
f 2/1/4 11/1/4 13/1/4
f 13/1/4 11/1/4 14/1/4
f 1/1/4 2/1/4 13/1/4
f 6/1/5 16/3/5 15/1/5
f 8/2/5 16/3/5 6/1/5
f 8/2/5 17/4/5 16/3/5
f 8/2/5 18/4/5 17/4/5
f 3/2/5 18/4/5 8/2/5
f 3/2/5 19/3/5 18/4/5
f 3/2/5 13/1/5 19/3/5
f 13/1/5 3/2/5 1/1/5
f 20/1/6 7/2/6 5/1/6
f 21/3/6 7/2/6 20/1/6
f 22/4/6 7/2/6 21/3/6
f 23/4/6 7/2/6 22/4/6
f 23/4/6 4/2/6 7/2/6
f 24/3/6 4/2/6 23/4/6
f 4/2/6 24/3/6 2/1/6
f 12/1/6 2/1/6 24/3/6
f 6/1/4 20/1/4 5/1/4
f 20/1/4 6/1/4 15/1/4
f 25/1/4 20/1/4 15/1/4
f 25/1/4 15/1/4 26/1/4
f 27/1/4 20/1/4 25/1/4
f 20/1/4 27/1/4 28/1/4
f 1/6/2 2/6/2 3/5/2
f 4/5/2 3/5/2 2/6/2
f 5/6/1 6/6/1 7/5/1
f 8/5/1 7/5/1 6/6/1
f 4/5/4 7/5/4 3/5/4
f 8/5/4 3/5/4 7/5/4
f 29/7/2 11/6/2 9/6/2
f 11/6/2 29/7/2 30/7/2
f 9/6/1 11/6/1 29/7/1
f 30/7/1 29/7/1 11/6/1
f 31/7/1 27/6/1 25/6/1
f 27/6/1 31/7/1 32/7/1
f 25/6/2 27/6/2 31/7/2
f 32/7/2 31/7/2 27/6/2
f 33/8/7 13/6/1 14/6/1
f 13/6/1 33/8/7 19/8/7
f 14/6/2 13/6/2 33/8/8
f 19/8/8 33/8/8 13/6/2
f 9/6/3 10/6/3 11/6/3
f 12/6/3 11/6/3 10/6/3
f 2/6/3 11/6/3 12/6/3
f 13/6/3 11/6/3 2/6/3
f 13/6/3 2/6/3 1/6/3
f 14/6/3 11/6/3 13/6/3
f 23/9/9 34/8/7 24/8/7
f 34/8/7 23/9/9 35/9/9
f 24/8/8 34/8/8 23/9/10
f 35/9/10 23/9/10 34/8/8
f 24/8/7 10/6/1 12/6/1
f 10/6/1 24/8/7 34/8/7
f 12/6/2 10/6/2 24/8/8
f 34/8/8 24/8/8 10/6/2
f 33/8/7 18/9/9 19/8/7
f 18/9/9 33/8/7 36/9/9
f 19/8/8 18/9/10 33/8/8
f 36/9/10 33/8/8 18/9/10
f 26/6/5 31/7/5 25/6/5
f 31/7/5 26/6/5 37/9/5
f 37/9/5 26/6/5 38/8/5
f 37/9/5 30/7/5 31/7/5
f 36/9/5 30/7/5 37/9/5
f 36/9/5 11/6/5 30/7/5
f 33/8/5 11/6/5 36/9/5
f 11/6/5 33/8/5 14/6/5
f 25/6/6 31/7/6 26/6/6
f 37/9/6 26/6/6 31/7/6
f 38/8/6 26/6/6 37/9/6
f 31/7/6 30/7/6 37/9/6
f 37/9/6 30/7/6 36/9/6
f 30/7/6 11/6/6 36/9/6
f 36/9/6 11/6/6 33/8/6
f 14/6/6 33/8/6 11/6/6
f 36/9/9 17/9/11 18/9/9
f 17/9/11 36/9/9 37/9/11
f 18/9/10 17/9/12 36/9/10
f 37/9/12 36/9/10 17/9/12
f 23/9/9 39/9/11 35/9/9
f 39/9/11 23/9/9 22/9/11
f 35/9/10 39/9/12 23/9/10
f 22/9/12 23/9/10 39/9/12
f 15/6/6 16/8/6 6/6/6
f 6/6/6 16/8/6 8/5/6
f 16/8/6 17/9/6 8/5/6
f 17/9/6 18/9/6 8/5/6
f 8/5/6 18/9/6 3/5/6
f 18/9/6 19/8/6 3/5/6
f 19/8/6 13/6/6 3/5/6
f 1/6/6 3/5/6 13/6/6
f 31/7/4 29/7/4 32/7/4
f 29/7/4 31/7/4 30/7/4
f 32/7/3 29/7/3 31/7/3
f 30/7/3 31/7/3 29/7/3
f 5/6/5 7/5/5 20/6/5
f 20/6/5 7/5/5 21/8/5
f 21/8/5 7/5/5 22/9/5
f 22/9/5 7/5/5 23/9/5
f 7/5/5 4/5/5 23/9/5
f 23/9/5 4/5/5 24/8/5
f 2/6/5 24/8/5 4/5/5
f 24/8/5 2/6/5 12/6/5
f 28/6/6 39/9/6 40/8/6
f 27/6/6 39/9/6 28/6/6
f 32/7/6 39/9/6 27/6/6
f 29/7/6 39/9/6 32/7/6
f 39/9/6 29/7/6 35/9/6
f 9/6/6 35/9/6 29/7/6
f 10/6/6 35/9/6 9/6/6
f 35/9/6 10/6/6 34/8/6
f 40/8/5 39/9/5 28/6/5
f 28/6/5 39/9/5 27/6/5
f 27/6/5 39/9/5 32/7/5
f 32/7/5 39/9/5 29/7/5
f 35/9/5 29/7/5 39/9/5
f 29/7/5 35/9/5 9/6/5
f 9/6/5 35/9/5 10/6/5
f 34/8/5 10/6/5 35/9/5
f 37/9/11 16/8/13 17/9/11
f 16/8/13 37/9/11 38/8/13
f 17/9/12 16/8/14 37/9/12
f 38/8/14 37/9/12 16/8/14
f 40/8/13 20/6/2 28/6/2
f 20/6/2 40/8/13 21/8/13
f 28/6/1 20/6/1 40/8/14
f 21/8/14 40/8/14 20/6/1
f 39/9/11 21/8/13 40/8/13
f 21/8/13 39/9/11 22/9/11
f 40/8/14 21/8/14 39/9/12
f 22/9/12 39/9/12 21/8/14
f 16/8/13 26/6/2 15/6/2
f 26/6/2 16/8/13 38/8/13
f 15/6/1 26/6/1 16/8/14
f 38/8/14 16/8/14 26/6/1
f 5/6/3 20/6/3 6/6/3
f 15/6/3 6/6/3 20/6/3
f 15/6/3 20/6/3 25/6/3
f 26/6/3 15/6/3 25/6/3
f 25/6/3 20/6/3 27/6/3
f 28/6/3 27/6/3 20/6/3

g wall-doorway-wide




usemtl colormap

f 3/2/1 2/1/1 1/1/1
f 2/1/1 3/2/1 4/2/1
f 7/2/2 6/1/2 5/1/2
f 6/1/2 7/2/2 8/2/2
f 3/2/3 7/2/3 4/2/3
f 7/2/3 3/2/3 8/2/3
f 11/1/4 10/1/4 9/1/4
f 10/1/4 11/1/4 12/1/4
f 12/1/4 11/1/4 2/1/4
f 2/1/4 11/1/4 13/1/4
f 13/1/4 11/1/4 14/1/4
f 1/1/4 2/1/4 13/1/4
f 6/1/5 16/3/5 15/1/5
f 8/2/5 16/3/5 6/1/5
f 8/2/5 17/4/5 16/3/5
f 8/2/5 18/4/5 17/4/5
f 3/2/5 18/4/5 8/2/5
f 3/2/5 19/3/5 18/4/5
f 3/2/5 13/1/5 19/3/5
f 13/1/5 3/2/5 1/1/5
f 20/1/6 7/2/6 5/1/6
f 21/3/6 7/2/6 20/1/6
f 22/4/6 7/2/6 21/3/6
f 23/4/6 7/2/6 22/4/6
f 23/4/6 4/2/6 7/2/6
f 24/3/6 4/2/6 23/4/6
f 4/2/6 24/3/6 2/1/6
f 12/1/6 2/1/6 24/3/6
f 6/1/4 20/1/4 5/1/4
f 20/1/4 6/1/4 15/1/4
f 25/1/4 20/1/4 15/1/4
f 25/1/4 15/1/4 26/1/4
f 27/1/4 20/1/4 25/1/4
f 20/1/4 27/1/4 28/1/4
f 1/6/2 2/6/2 3/5/2
f 4/5/2 3/5/2 2/6/2
f 5/6/1 6/6/1 7/5/1
f 8/5/1 7/5/1 6/6/1
f 4/5/4 7/5/4 3/5/4
f 8/5/4 3/5/4 7/5/4
f 29/7/2 11/6/2 9/6/2
f 11/6/2 29/7/2 30/7/2
f 9/6/1 11/6/1 29/7/1
f 30/7/1 29/7/1 11/6/1
f 31/7/1 27/6/1 25/6/1
f 27/6/1 31/7/1 32/7/1
f 25/6/2 27/6/2 31/7/2
f 32/7/2 31/7/2 27/6/2
f 33/8/7 13/6/1 14/6/1
f 13/6/1 33/8/7 19/8/7
f 14/6/2 13/6/2 33/8/8
f 19/8/8 33/8/8 13/6/2
f 9/6/3 10/6/3 11/6/3
f 12/6/3 11/6/3 10/6/3
f 2/6/3 11/6/3 12/6/3
f 13/6/3 11/6/3 2/6/3
f 13/6/3 2/6/3 1/6/3
f 14/6/3 11/6/3 13/6/3
f 23/9/9 34/8/7 24/8/7
f 34/8/7 23/9/9 35/9/9
f 24/8/8 34/8/8 23/9/10
f 35/9/10 23/9/10 34/8/8
f 24/8/7 10/6/1 12/6/1
f 10/6/1 24/8/7 34/8/7
f 12/6/2 10/6/2 24/8/8
f 34/8/8 24/8/8 10/6/2
f 33/8/7 18/9/9 19/8/7
f 18/9/9 33/8/7 36/9/9
f 19/8/8 18/9/10 33/8/8
f 36/9/10 33/8/8 18/9/10
f 26/6/5 31/7/5 25/6/5
f 31/7/5 26/6/5 37/9/5
f 37/9/5 26/6/5 38/8/5
f 37/9/5 30/7/5 31/7/5
f 36/9/5 30/7/5 37/9/5
f 36/9/5 11/6/5 30/7/5
f 33/8/5 11/6/5 36/9/5
f 11/6/5 33/8/5 14/6/5
f 25/6/6 31/7/6 26/6/6
f 37/9/6 26/6/6 31/7/6
f 38/8/6 26/6/6 37/9/6
f 31/7/6 30/7/6 37/9/6
f 37/9/6 30/7/6 36/9/6
f 30/7/6 11/6/6 36/9/6
f 36/9/6 11/6/6 33/8/6
f 14/6/6 33/8/6 11/6/6
f 36/9/9 17/9/11 18/9/9
f 17/9/11 36/9/9 37/9/11
f 18/9/10 17/9/12 36/9/10
f 37/9/12 36/9/10 17/9/12
f 23/9/9 39/9/11 35/9/9
f 39/9/11 23/9/9 22/9/11
f 35/9/10 39/9/12 23/9/10
f 22/9/12 23/9/10 39/9/12
f 15/6/6 16/8/6 6/6/6
f 6/6/6 16/8/6 8/5/6
f 16/8/6 17/9/6 8/5/6
f 17/9/6 18/9/6 8/5/6
f 8/5/6 18/9/6 3/5/6
f 18/9/6 19/8/6 3/5/6
f 19/8/6 13/6/6 3/5/6
f 1/6/6 3/5/6 13/6/6
f 31/7/4 29/7/4 32/7/4
f 29/7/4 31/7/4 30/7/4
f 32/7/3 29/7/3 31/7/3
f 30/7/3 31/7/3 29/7/3
f 5/6/5 7/5/5 20/6/5
f 20/6/5 7/5/5 21/8/5
f 21/8/5 7/5/5 22/9/5
f 22/9/5 7/5/5 23/9/5
f 7/5/5 4/5/5 23/9/5
f 23/9/5 4/5/5 24/8/5
f 2/6/5 24/8/5 4/5/5
f 24/8/5 2/6/5 12/6/5
f 28/6/6 39/9/6 40/8/6
f 27/6/6 39/9/6 28/6/6
f 32/7/6 39/9/6 27/6/6
f 29/7/6 39/9/6 32/7/6
f 39/9/6 29/7/6 35/9/6
f 9/6/6 35/9/6 29/7/6
f 10/6/6 35/9/6 9/6/6
f 35/9/6 10/6/6 34/8/6
f 40/8/5 39/9/5 28/6/5
f 28/6/5 39/9/5 27/6/5
f 27/6/5 39/9/5 32/7/5
f 32/7/5 39/9/5 29/7/5
f 35/9/5 29/7/5 39/9/5
f 29/7/5 35/9/5 9/6/5
f 9/6/5 35/9/5 10/6/5
f 34/8/5 10/6/5 35/9/5
f 37/9/11 16/8/13 17/9/11
f 16/8/13 37/9/11 38/8/13
f 17/9/12 16/8/14 37/9/12
f 38/8/14 37/9/12 16/8/14
f 40/8/13 20/6/2 28/6/2
f 20/6/2 40/8/13 21/8/13
f 28/6/1 20/6/1 40/8/14
f 21/8/14 40/8/14 20/6/1
f 39/9/11 21/8/13 40/8/13
f 21/8/13 39/9/11 22/9/11
f 40/8/14 21/8/14 39/9/12
f 22/9/12 39/9/12 21/8/14
f 16/8/13 26/6/2 15/6/2
f 26/6/2 16/8/13 38/8/13
f 15/6/1 26/6/1 16/8/14
f 38/8/14 16/8/14 26/6/1
f 5/6/3 20/6/3 6/6/3
f 15/6/3 6/6/3 20/6/3
f 15/6/3 20/6/3 25/6/3
f 26/6/3 15/6/3 25/6/3
f 25/6/3 20/6/3 27/6/3
f 28/6/3 27/6/3 20/6/3

