# Created by Kenney (www.kenney.nl)

mtllib wall-doorway-garage.mtl

g wall-doorway-garage

v -0.1 4.22995E-17 -0.75 1 1 1
v 0.1 4.22995E-17 -0.75 1 1 1
v -0.1 1 -0.75 1 1 1
v 0.1 1 -0.75 1 1 1
v 0.1 4.22995E-17 0.75 1 1 1
v -0.1 4.22995E-17 0.75 1 1 1
v 0.1 1 0.75 1 1 1
v -0.1 1 0.75 1 1 1
v 0.1 0 0.65 1 1 1
v -0.1 2.53797E-17 0.65 1 1 1
v -0.15 1.69198E-17 0.55 1 1 1
v -0.15 2.53797E-17 0.65 1 1 1
v 0.15 1.69198E-17 0.55 1 1 1
v 0.15 0 0.65 1 1 1
v 0.15 1.69198E-17 -0.55 1 1 1
v 0.15 1.466383E-16 -0.65 1 1 1
v -0.15 1.69198E-17 -0.55 1 1 1
v 0.1 1.466383E-16 -0.65 1 1 1
v -0.1 1.72018E-16 -0.65 1 1 1
v -0.15 1.72018E-16 -0.65 1 1 1
v 0.1 0.85 0.65 1 1 1
v 0.1 0.9 0.6 1 1 1
v 0.1 0.9 -0.6 1 1 1
v 0.1 0.85 -0.65 1 1 1
v -0.1 0.85 0.65 1 1 1
v -0.1 0.9 0.6 1 1 1
v -0.1 0.9 -0.6 1 1 1
v -0.1 0.85 -0.65 1 1 1
v 0.15 0.8 -0.55 1 1 1
v -0.15 0.8 -0.55 1 1 1
v -0.15 0.8 0.55 1 1 1
v 0.15 0.8 0.55 1 1 1
v -0.15 0.85 0.65 1 1 1
v 0.15 0.85 0.65 1 1 1
v 0.15 0.9 0.6 1 1 1
v -0.15 0.9 0.6 1 1 1
v -0.15 0.85 -0.65 1 1 1
v -0.15 0.9 -0.6 1 1 1
v 0.15 0.85 -0.65 1 1 1
v 0.15 0.9 -0.6 1 1 1

vn 0 0 -1
vn 0 0 1
vn 0 1 0
vn 0 -1 0
vn 1 0 0
vn -1 0 0
vn 0 0.3826834 0.9238795
vn 0 -0.3826834 -0.9238795
vn 0 0.9238795 0.3826834
vn 0 -0.9238795 -0.3826834
vn 0 0.3826834 -0.9238795
vn 0 -0.3826834 0.9238795
vn 0 0.9238795 -0.3826834
vn 0 -0.9238795 0.3826834

vt 0.46875 0.025
vt 0.46875 0.225
vt 0.46875 0.195
vt 0.46875 0.205
vt 0.21875 0.225
vt 0.21875 0.025
vt 0.21875 0.185
vt 0.21875 0.195
vt 0.21875 0.205

usemtl colormap

f 3/2/1 2/1/1 1/1/1
f 2/1/1 3/2/1 4/2/1
f 7/2/2 6/1/2 5/1/2
f 6/1/2 7/2/2 8/2/2
f 3/2/3 7/2/3 4/2/3
f 7/2/3 3/2/3 8/2/3
f 6/1/4 9/1/4 5/1/4
f 9/1/4 6/1/4 10/1/4
f 11/1/4 9/1/4 10/1/4
f 11/1/4 10/1/4 12/1/4
f 13/1/4 9/1/4 11/1/4
f 9/1/4 13/1/4 14/1/4
f 17/1/4 16/1/4 15/1/4
f 16/1/4 17/1/4 18/1/4
f 18/1/4 17/1/4 2/1/4
f 2/1/4 17/1/4 19/1/4
f 19/1/4 17/1/4 20/1/4
f 1/1/4 2/1/4 19/1/4
f 9/1/5 7/2/5 5/1/5
f 21/3/5 7/2/5 9/1/5
f 22/4/5 7/2/5 21/3/5
f 23/4/5 7/2/5 22/4/5
f 23/4/5 4/2/5 7/2/5
f 24/3/5 4/2/5 23/4/5
f 4/2/5 24/3/5 2/1/5
f 18/1/5 2/1/5 24/3/5
f 6/1/6 25/3/6 10/1/6
f 8/2/6 25/3/6 6/1/6
f 8/2/6 26/4/6 25/3/6
f 8/2/6 27/4/6 26/4/6
f 3/2/6 27/4/6 8/2/6
f 3/2/6 28/3/6 27/4/6
f 3/2/6 19/1/6 28/3/6
f 19/1/6 3/2/6 1/1/6
f 1/6/2 2/6/2 3/5/2
f 4/5/2 3/5/2 2/6/2
f 5/6/1 6/6/1 7/5/1
f 8/5/1 7/5/1 6/6/1
f 4/5/4 7/5/4 3/5/4
f 8/5/4 3/5/4 7/5/4
f 29/7/2 17/6/2 15/6/2
f 17/6/2 29/7/2 30/7/2
f 15/6/1 17/6/1 29/7/1
f 30/7/1 29/7/1 17/6/1
f 31/7/1 13/6/1 11/6/1
f 13/6/1 31/7/1 32/7/1
f 11/6/2 13/6/2 31/7/2
f 32/7/2 31/7/2 13/6/2
f 25/8/7 12/6/2 10/6/2
f 12/6/2 25/8/7 33/8/7
f 10/6/1 12/6/1 25/8/8
f 33/8/8 25/8/8 12/6/1
f 35/9/9 21/8/7 34/8/7
f 21/8/7 35/9/9 22/9/9
f 34/8/8 21/8/8 35/9/10
f 22/9/10 35/9/10 21/8/8
f 34/8/7 9/6/2 14/6/2
f 9/6/2 34/8/7 21/8/7
f 14/6/1 9/6/1 34/8/8
f 21/8/8 34/8/8 9/6/1
f 5/6/3 9/6/3 6/6/3
f 10/6/3 6/6/3 9/6/3
f 10/6/3 9/6/3 11/6/3
f 12/6/3 10/6/3 11/6/3
f 11/6/3 9/6/3 13/6/3
f 14/6/3 13/6/3 9/6/3
f 36/9/9 25/8/7 26/9/9
f 25/8/7 36/9/9 33/8/7
f 26/9/10 25/8/8 36/9/10
f 33/8/8 36/9/10 25/8/8
f 15/6/3 16/6/3 17/6/3
f 18/6/3 17/6/3 16/6/3
f 2/6/3 17/6/3 18/6/3
f 19/6/3 17/6/3 2/6/3
f 19/6/3 2/6/3 1/6/3
f 20/6/3 17/6/3 19/6/3
f 37/8/11 19/6/1 20/6/1
f 19/6/1 37/8/11 28/8/11
f 20/6/2 19/6/2 37/8/12
f 28/8/12 37/8/12 19/6/2
f 37/8/11 27/9/13 28/8/11
f 27/9/13 37/8/11 38/9/13
f 28/8/12 27/9/14 37/8/12
f 38/9/14 37/8/12 27/9/14
f 23/9/13 39/8/11 24/8/11
f 39/8/11 23/9/13 40/9/13
f 24/8/12 39/8/12 23/9/14
f 40/9/14 23/9/14 39/8/12
f 24/8/11 16/6/1 18/6/1
f 16/6/1 24/8/11 39/8/11
f 18/6/2 16/6/2 24/8/12
f 39/8/12 24/8/12 16/6/2
f 5/6/6 7/5/6 9/6/6
f 9/6/6 7/5/6 21/8/6
f 21/8/6 7/5/6 22/9/6
f 22/9/6 7/5/6 23/9/6
f 7/5/6 4/5/6 23/9/6
f 23/9/6 4/5/6 24/8/6
f 2/6/6 24/8/6 4/5/6
f 24/8/6 2/6/6 18/6/6
f 12/6/6 31/7/6 11/6/6
f 31/7/6 12/6/6 36/9/6
f 36/9/6 12/6/6 33/8/6
f 36/9/6 30/7/6 31/7/6
f 38/9/6 30/7/6 36/9/6
f 38/9/6 17/6/6 30/7/6
f 37/8/6 17/6/6 38/9/6
f 17/6/6 37/8/6 20/6/6
f 11/6/5 31/7/5 12/6/5
f 36/9/5 12/6/5 31/7/5
f 33/8/5 12/6/5 36/9/5
f 31/7/5 30/7/5 36/9/5
f 36/9/5 30/7/5 38/9/5
f 30/7/5 17/6/5 38/9/5
f 38/9/5 17/6/5 37/8/5
f 20/6/5 37/8/5 17/6/5
f 38/9/13 26/9/9 27/9/13
f 26/9/9 38/9/13 36/9/9
f 27/9/14 26/9/10 38/9/14
f 36/9/10 38/9/14 26/9/10
f 31/7/4 29/7/4 32/7/4
f 29/7/4 31/7/4 30/7/4
f 32/7/3 29/7/3 31/7/3
f 30/7/3 31/7/3 29/7/3
f 14/6/5 35/9/5 34/8/5
f 13/6/5 35/9/5 14/6/5
f 32/7/5 35/9/5 13/6/5
f 29/7/5 35/9/5 32/7/5
f 35/9/5 29/7/5 40/9/5
f 15/6/5 40/9/5 29/7/5
f 16/6/5 40/9/5 15/6/5
f 40/9/5 16/6/5 39/8/5
f 34/8/6 35/9/6 14/6/6
f 14/6/6 35/9/6 13/6/6
f 13/6/6 35/9/6 32/7/6
f 32/7/6 35/9/6 29/7/6
f 40/9/6 29/7/6 35/9/6
f 29/7/6 40/9/6 15/6/6
f 15/6/6 40/9/6 16/6/6
f 39/8/6 16/6/6 40/9/6
f 10/6/5 25/8/5 6/6/5
f 6/6/5 25/8/5 8/5/5
f 25/8/5 26/9/5 8/5/5
f 26/9/5 27/9/5 8/5/5
f 8/5/5 27/9/5 3/5/5
f 27/9/5 28/8/5 3/5/5
f 28/8/5 19/6/5 3/5/5
f 1/6/5 3/5/5 19/6/5
f 23/9/13 35/9/9 40/9/13
f 35/9/9 23/9/13 22/9/9
f 40/9/14 35/9/10 23/9/14
f 22/9/10 23/9/14 35/9/10

g wall-doorway-garage




usemtl colormap

f 3/2/1 2/1/1 1/1/1
f 2/1/1 3/2/1 4/2/1
f 7/2/2 6/1/2 5/1/2
f 6/1/2 7/2/2 8/2/2
f 3/2/3 7/2/3 4/2/3
f 7/2/3 3/2/3 8/2/3
f 6/1/4 9/1/4 5/1/4
f 9/1/4 6/1/4 10/1/4
f 11/1/4 9/1/4 10/1/4
f 11/1/4 10/1/4 12/1/4
f 13/1/4 9/1/4 11/1/4
f 9/1/4 13/1/4 14/1/4
f 17/1/4 16/1/4 15/1/4
f 16/1/4 17/1/4 18/1/4
f 18/1/4 17/1/4 2/1/4
f 2/1/4 17/1/4 19/1/4
f 19/1/4 17/1/4 20/1/4
f 1/1/4 2/1/4 19/1/4
f 9/1/5 7/2/5 5/1/5
f 21/3/5 7/2/5 9/1/5
f 22/4/5 7/2/5 21/3/5
f 23/4/5 7/2/5 22/4/5
f 23/4/5 4/2/5 7/2/5
f 24/3/5 4/2/5 23/4/5
f 4/2/5 24/3/5 2/1/5
f 18/1/5 2/1/5 24/3/5
f 6/1/6 25/3/6 10/1/6
f 8/2/6 25/3/6 6/1/6
f 8/2/6 26/4/6 25/3/6
f 8/2/6 27/4/6 26/4/6
f 3/2/6 27/4/6 8/2/6
f 3/2/6 28/3/6 27/4/6
f 3/2/6 19/1/6 28/3/6
f 19/1/6 3/2/6 1/1/6
f 1/6/2 2/6/2 3/5/2
f 4/5/2 3/5/2 2/6/2
f 5/6/1 6/6/1 7/5/1
f 8/5/1 7/5/1 6/6/1
f 4/5/4 7/5/4 3/5/4
f 8/5/4 3/5/4 7/5/4
f 29/7/2 17/6/2 15/6/2
f 17/6/2 29/7/2 30/7/2
f 15/6/1 17/6/1 29/7/1
f 30/7/1 29/7/1 17/6/1
f 31/7/1 13/6/1 11/6/1
f 13/6/1 31/7/1 32/7/1
f 11/6/2 13/6/2 31/7/2
f 32/7/2 31/7/2 13/6/2
f 25/8/7 12/6/2 10/6/2
f 12/6/2 25/8/7 33/8/7
f 10/6/1 12/6/1 25/8/8
f 33/8/8 25/8/8 12/6/1
f 35/9/9 21/8/7 34/8/7
f 21/8/7 35/9/9 22/9/9
f 34/8/8 21/8/8 35/9/10
f 22/9/10 35/9/10 21/8/8
f 34/8/7 9/6/2 14/6/2
f 9/6/2 34/8/7 21/8/7
f 14/6/1 9/6/1 34/8/8
f 21/8/8 34/8/8 9/6/1
f 5/6/3 9/6/3 6/6/3
f 10/6/3 6/6/3 9/6/3
f 10/6/3 9/6/3 11/6/3
f 12/6/3 10/6/3 11/6/3
f 11/6/3 9/6/3 13/6/3
f 14/6/3 13/6/3 9/6/3
f 36/9/9 25/8/7 26/9/9
f 25/8/7 36/9/9 33/8/7
f 26/9/10 25/8/8 36/9/10
f 33/8/8 36/9/10 25/8/8
f 15/6/3 16/6/3 17/6/3
f 18/6/3 17/6/3 16/6/3
f 2/6/3 17/6/3 18/6/3
f 19/6/3 17/6/3 2/6/3
f 19/6/3 2/6/3 1/6/3
f 20/6/3 17/6/3 19/6/3
f 37/8/11 19/6/1 20/6/1
f 19/6/1 37/8/11 28/8/11
f 20/6/2 19/6/2 37/8/12
f 28/8/12 37/8/12 19/6/2
f 37/8/11 27/9/13 28/8/11
f 27/9/13 37/8/11 38/9/13
f 28/8/12 27/9/14 37/8/12
f 38/9/14 37/8/12 27/9/14
f 23/9/13 39/8/11 24/8/11
f 39/8/11 23/9/13 40/9/13
f 24/8/12 39/8/12 23/9/14
f 40/9/14 23/9/14 39/8/12
f 24/8/11 16/6/1 18/6/1
f 16/6/1 24/8/11 39/8/11
f 18/6/2 16/6/2 24/8/12
f 39/8/12 24/8/12 16/6/2
f 5/6/6 7/5/6 9/6/6
f 9/6/6 7/5/6 21/8/6
f 21/8/6 7/5/6 22/9/6
f 22/9/6 7/5/6 23/9/6
f 7/5/6 4/5/6 23/9/6
f 23/9/6 4/5/6 24/8/6
f 2/6/6 24/8/6 4/5/6
f 24/8/6 2/6/6 18/6/6
f 12/6/6 31/7/6 11/6/6
f 31/7/6 12/6/6 36/9/6
f 36/9/6 12/6/6 33/8/6
f 36/9/6 30/7/6 31/7/6
f 38/9/6 30/7/6 36/9/6
f 38/9/6 17/6/6 30/7/6
f 37/8/6 17/6/6 38/9/6
f 17/6/6 37/8/6 20/6/6
f 11/6/5 31/7/5 12/6/5
f 36/9/5 12/6/5 31/7/5
f 33/8/5 12/6/5 36/9/5
f 31/7/5 30/7/5 36/9/5
f 36/9/5 30/7/5 38/9/5
f 30/7/5 17/6/5 38/9/5
f 38/9/5 17/6/5 37/8/5
f 20/6/5 37/8/5 17/6/5
f 38/9/13 26/9/9 27/9/13
f 26/9/9 38/9/13 36/9/9
f 27/9/14 26/9/10 38/9/14
f 36/9/10 38/9/14 26/9/10
f 31/7/4 29/7/4 32/7/4
f 29/7/4 31/7/4 30/7/4
f 32/7/3 29/7/3 31/7/3
f 30/7/3 31/7/3 29/7/3
f 14/6/5 35/9/5 34/8/5
f 13/6/5 35/9/5 14/6/5
f 32/7/5 35/9/5 13/6/5
f 29/7/5 35/9/5 32/7/5
f 35/9/5 29/7/5 40/9/5
f 15/6/5 40/9/5 29/7/5
f 16/6/5 40/9/5 15/6/5
f 40/9/5 16/6/5 39/8/5
f 34/8/6 35/9/6 14/6/6
f 14/6/6 35/9/6 13/6/6
f 13/6/6 35/9/6 32/7/6
f 32/7/6 35/9/6 29/7/6
f 40/9/6 29/7/6 35/9/6
f 29/7/6 40/9/6 15/6/6
f 15/6/6 40/9/6 16/6/6
f 39/8/6 16/6/6 40/9/6
f 10/6/5 25/8/5 6/6/5
f 6/6/5 25/8/5 8/5/5
f 25/8/5 26/9/5 8/5/5
f 26/9/5 27/9/5 8/5/5
f 8/5/5 27/9/5 3/5/5
f 27/9/5 28/8/5 3/5/5
f 28/8/5 19/6/5 3/5/5
f 1/6/5 3/5/5 19/6/5
f 23/9/13 35/9/9 40/9/13
f 35/9/9 23/9/13 22/9/9
f 40/9/14 35/9/10 23/9/14
f 22/9/10 23/9/14 35/9/10

