# Created by Kenney (www.kenney.nl)

mtllib wall-doorway.mtl

g wall-doorway

v -0.1 4.22995E-17 -0.5 1 1 1
v 0.1 4.22995E-17 -0.5 1 1 1
v -0.1 1 -0.5 1 1 1
v 0.1 1 -0.5 1 1 1
v 0.1 4.22995E-17 0.5 1 1 1
v -0.1 4.22995E-17 0.5 1 1 1
v 0.1 1 0.5 1 1 1
v -0.1 1 0.5 1 1 1
v 0.15 1.69198E-17 -0.3 1 1 1
v 0.15 1.466383E-16 -0.4 1 1 1
v -0.15 1.69198E-17 -0.3 1 1 1
v 0.1 1.466383E-16 -0.4 1 1 1
v -0.1 1.72018E-16 -0.4 1 1 1
v -0.15 1.72018E-16 -0.4 1 1 1
v 0.1 0 0.4 1 1 1
v -0.1 2.53797E-17 0.4 1 1 1
v -0.15 1.69198E-17 0.3 1 1 1
v -0.15 2.53797E-17 0.4 1 1 1
v 0.15 1.69198E-17 0.3 1 1 1
v 0.15 0 0.4 1 1 1
v -0.1 0.85 0.4 1 1 1
v -0.1 0.9 0.35 1 1 1
v -0.1 0.9 -0.35 1 1 1
v -0.1 0.85 -0.4 1 1 1
v 0.1 0.85 0.4 1 1 1
v 0.1 0.9 0.35 1 1 1
v 0.1 0.9 -0.35 1 1 1
v 0.1 0.85 -0.4 1 1 1
v 0.15 0.8 0.3 1 1 1
v 0.15 0.8 -0.3 1 1 1
v -0.15 0.8 0.3 1 1 1
v -0.15 0.8 -0.3 1 1 1
v -0.15 0.9 -0.35 1 1 1
v -0.15 0.9 0.35 1 1 1
v 0.15 0.85 0.4 1 1 1
v 0.15 0.9 0.35 1 1 1
v -0.15 0.85 0.4 1 1 1
v -0.15 0.85 -0.4 1 1 1
v 0.15 0.85 -0.4 1 1 1
v 0.15 0.9 -0.35 1 1 1

vn 0 0 -1
vn 0 0 1
vn 0 1 0
vn 0 -1 0
vn -1 0 0
vn 1 0 0
vn 0 0.9238795 -0.3826834
vn 0 0.9238795 0.3826834
vn 0 -0.9238795 0.3826834
vn 0 -0.9238795 -0.3826834
vn 0 0.3826834 0.9238795
vn 0 -0.3826834 -0.9238795
vn 0 0.3826834 -0.9238795
vn 0 -0.3826834 0.9238795

vt 0.46875 0.025
vt 0.46875 0.225
vt 0.46875 0.195
vt 0.46875 0.205
vt 0.21875 0.225
vt 0.21875 0.025
vt 0.21875 0.185
vt 0.21875 0.205
vt 0.21875 0.195

usemtl colormap

f 3/2/1 2/1/1 1/1/1
f 2/1/1 3/2/1 4/2/1
f 7/2/2 6/1/2 5/1/2
f 6/1/2 7/2/2 8/2/2
f 3/2/3 7/2/3 4/2/3
f 7/2/3 3/2/3 8/2/3
f 11/1/4 10/1/4 9/1/4
f 10/1/4 11/1/4 12/1/4
f 12/1/4 11/1/4 2/1/4
f 2/1/4 11/1/4 13/1/4
f 13/1/4 11/1/4 14/1/4
f 1/1/4 2/1/4 13/1/4
f 6/1/4 15/1/4 5/1/4
f 15/1/4 6/1/4 16/1/4
f 17/1/4 15/1/4 16/1/4
f 17/1/4 16/1/4 18/1/4
f 19/1/4 15/1/4 17/1/4
f 15/1/4 19/1/4 20/1/4
f 6/1/5 21/3/5 16/1/5
f 8/2/5 21/3/5 6/1/5
f 8/2/5 22/4/5 21/3/5
f 8/2/5 23/4/5 22/4/5
f 3/2/5 23/4/5 8/2/5
f 3/2/5 24/3/5 23/4/5
f 3/2/5 13/1/5 24/3/5
f 13/1/5 3/2/5 1/1/5
f 15/1/6 7/2/6 5/1/6
f 25/3/6 7/2/6 15/1/6
f 26/4/6 7/2/6 25/3/6
f 27/4/6 7/2/6 26/4/6
f 27/4/6 4/2/6 7/2/6
f 28/3/6 4/2/6 27/4/6
f 4/2/6 28/3/6 2/1/6
f 12/1/6 2/1/6 28/3/6
f 1/6/2 2/6/2 3/5/2
f 4/5/2 3/5/2 2/6/2
f 5/6/1 6/6/1 7/5/1
f 8/5/1 7/5/1 6/6/1
f 4/5/4 7/5/4 3/5/4
f 8/5/4 3/5/4 7/5/4
f 9/6/3 10/6/3 11/6/3
f 12/6/3 11/6/3 10/6/3
f 2/6/3 11/6/3 12/6/3
f 13/6/3 11/6/3 2/6/3
f 13/6/3 2/6/3 1/6/3
f 14/6/3 11/6/3 13/6/3
f 5/6/3 15/6/3 6/6/3
f 16/6/3 6/6/3 15/6/3
f 16/6/3 15/6/3 17/6/3
f 18/6/3 16/6/3 17/6/3
f 17/6/3 15/6/3 19/6/3
f 20/6/3 19/6/3 15/6/3
f 31/7/4 30/7/4 29/7/4
f 30/7/4 31/7/4 32/7/4
f 29/7/3 30/7/3 31/7/3
f 32/7/3 31/7/3 30/7/3
f 33/8/7 22/8/8 23/8/7
f 22/8/8 33/8/7 34/8/8
f 23/8/9 22/8/10 33/8/9
f 34/8/10 33/8/9 22/8/10
f 36/8/8 25/9/11 35/9/11
f 25/9/11 36/8/8 26/8/8
f 35/9/12 25/9/12 36/8/10
f 26/8/10 36/8/10 25/9/12
f 30/7/2 11/6/2 9/6/2
f 11/6/2 30/7/2 32/7/2
f 9/6/1 11/6/1 30/7/1
f 32/7/1 30/7/1 11/6/1
f 31/7/1 19/6/1 17/6/1
f 19/6/1 31/7/1 29/7/1
f 17/6/2 19/6/2 31/7/2
f 29/7/2 31/7/2 19/6/2
f 34/8/8 21/9/11 22/8/8
f 21/9/11 34/8/8 37/9/11
f 22/8/10 21/9/12 34/8/10
f 37/9/12 34/8/10 21/9/12
f 38/9/13 23/8/7 24/9/13
f 23/8/7 38/9/13 33/8/7
f 24/9/14 23/8/9 38/9/14
f 33/8/9 38/9/14 23/8/9
f 38/9/13 13/6/1 14/6/1
f 13/6/1 38/9/13 24/9/13
f 14/6/2 13/6/2 38/9/14
f 24/9/14 38/9/14 13/6/2
f 28/9/13 10/6/1 12/6/1
f 10/6/1 28/9/13 39/9/13
f 12/6/2 10/6/2 28/9/14
f 39/9/14 28/9/14 10/6/2
f 35/9/11 15/6/2 20/6/2
f 15/6/2 35/9/11 25/9/11
f 20/6/1 15/6/1 35/9/12
f 25/9/12 35/9/12 15/6/1
f 20/6/6 36/8/6 35/9/6
f 19/6/6 36/8/6 20/6/6
f 29/7/6 36/8/6 19/6/6
f 30/7/6 36/8/6 29/7/6
f 36/8/6 30/7/6 40/8/6
f 9/6/6 40/8/6 30/7/6
f 10/6/6 40/8/6 9/6/6
f 40/8/6 10/6/6 39/9/6
f 35/9/5 36/8/5 20/6/5
f 20/6/5 36/8/5 19/6/5
f 19/6/5 36/8/5 29/7/5
f 29/7/5 36/8/5 30/7/5
f 40/8/5 30/7/5 36/8/5
f 30/7/5 40/8/5 9/6/5
f 9/6/5 40/8/5 10/6/5
f 39/9/5 10/6/5 40/8/5
f 21/9/11 18/6/2 16/6/2
f 18/6/2 21/9/11 37/9/11
f 16/6/1 18/6/1 21/9/12
f 37/9/12 21/9/12 18/6/1
f 18/6/5 31/7/5 17/6/5
f 31/7/5 18/6/5 34/8/5
f 34/8/5 18/6/5 37/9/5
f 34/8/5 32/7/5 31/7/5
f 33/8/5 32/7/5 34/8/5
f 33/8/5 11/6/5 32/7/5
f 38/9/5 11/6/5 33/8/5
f 11/6/5 38/9/5 14/6/5
f 17/6/6 31/7/6 18/6/6
f 34/8/6 18/6/6 31/7/6
f 37/9/6 18/6/6 34/8/6
f 31/7/6 32/7/6 34/8/6
f 34/8/6 32/7/6 33/8/6
f 32/7/6 11/6/6 33/8/6
f 33/8/6 11/6/6 38/9/6
f 14/6/6 38/9/6 11/6/6
f 27/8/7 36/8/8 40/8/7
f 36/8/8 27/8/7 26/8/8
f 40/8/9 36/8/10 27/8/9
f 26/8/10 27/8/9 36/8/10
f 16/6/6 21/9/6 6/6/6
f 6/6/6 21/9/6 8/5/6
f 21/9/6 22/8/6 8/5/6
f 22/8/6 23/8/6 8/5/6
f 8/5/6 23/8/6 3/5/6
f 23/8/6 24/9/6 3/5/6
f 24/9/6 13/6/6 3/5/6
f 1/6/6 3/5/6 13/6/6
f 5/6/5 7/5/5 15/6/5
f 15/6/5 7/5/5 25/9/5
f 25/9/5 7/5/5 26/8/5
f 26/8/5 7/5/5 27/8/5
f 7/5/5 4/5/5 27/8/5
f 27/8/5 4/5/5 28/9/5
f 2/6/5 28/9/5 4/5/5
f 28/9/5 2/6/5 12/6/5
f 27/8/7 39/9/13 28/9/13
f 39/9/13 27/8/7 40/8/7
f 28/9/14 39/9/14 27/8/9
f 40/8/9 27/8/9 39/9/14

g wall-doorway




usemtl colormap

f 3/2/1 2/1/1 1/1/1
f 2/1/1 3/2/1 4/2/1
f 7/2/2 6/1/2 5/1/2
f 6/1/2 7/2/2 8/2/2
f 3/2/3 7/2/3 4/2/3
f 7/2/3 3/2/3 8/2/3
f 11/1/4 10/1/4 9/1/4
f 10/1/4 11/1/4 12/1/4
f 12/1/4 11/1/4 2/1/4
f 2/1/4 11/1/4 13/1/4
f 13/1/4 11/1/4 14/1/4
f 1/1/4 2/1/4 13/1/4
f 6/1/4 15/1/4 5/1/4
f 15/1/4 6/1/4 16/1/4
f 17/1/4 15/1/4 16/1/4
f 17/1/4 16/1/4 18/1/4
f 19/1/4 15/1/4 17/1/4
f 15/1/4 19/1/4 20/1/4
f 6/1/5 21/3/5 16/1/5
f 8/2/5 21/3/5 6/1/5
f 8/2/5 22/4/5 21/3/5
f 8/2/5 23/4/5 22/4/5
f 3/2/5 23/4/5 8/2/5
f 3/2/5 24/3/5 23/4/5
f 3/2/5 13/1/5 24/3/5
f 13/1/5 3/2/5 1/1/5
f 15/1/6 7/2/6 5/1/6
f 25/3/6 7/2/6 15/1/6
f 26/4/6 7/2/6 25/3/6
f 27/4/6 7/2/6 26/4/6
f 27/4/6 4/2/6 7/2/6
f 28/3/6 4/2/6 27/4/6
f 4/2/6 28/3/6 2/1/6
f 12/1/6 2/1/6 28/3/6
f 1/6/2 2/6/2 3/5/2
f 4/5/2 3/5/2 2/6/2
f 5/6/1 6/6/1 7/5/1
f 8/5/1 7/5/1 6/6/1
f 4/5/4 7/5/4 3/5/4
f 8/5/4 3/5/4 7/5/4
f 9/6/3 10/6/3 11/6/3
f 12/6/3 11/6/3 10/6/3
f 2/6/3 11/6/3 12/6/3
f 13/6/3 11/6/3 2/6/3
f 13/6/3 2/6/3 1/6/3
f 14/6/3 11/6/3 13/6/3
f 5/6/3 15/6/3 6/6/3
f 16/6/3 6/6/3 15/6/3
f 16/6/3 15/6/3 17/6/3
f 18/6/3 16/6/3 17/6/3
f 17/6/3 15/6/3 19/6/3
f 20/6/3 19/6/3 15/6/3
f 31/7/4 30/7/4 29/7/4
f 30/7/4 31/7/4 32/7/4
f 29/7/3 30/7/3 31/7/3
f 32/7/3 31/7/3 30/7/3
f 33/8/7 22/8/8 23/8/7
f 22/8/8 33/8/7 34/8/8
f 23/8/9 22/8/10 33/8/9
f 34/8/10 33/8/9 22/8/10
f 36/8/8 25/9/11 35/9/11
f 25/9/11 36/8/8 26/8/8
f 35/9/12 25/9/12 36/8/10
f 26/8/10 36/8/10 25/9/12
f 30/7/2 11/6/2 9/6/2
f 11/6/2 30/7/2 32/7/2
f 9/6/1 11/6/1 30/7/1
f 32/7/1 30/7/1 11/6/1
f 31/7/1 19/6/1 17/6/1
f 19/6/1 31/7/1 29/7/1
f 17/6/2 19/6/2 31/7/2
f 29/7/2 31/7/2 19/6/2
f 34/8/8 21/9/11 22/8/8
f 21/9/11 34/8/8 37/9/11
f 22/8/10 21/9/12 34/8/10
f 37/9/12 34/8/10 21/9/12
f 38/9/13 23/8/7 24/9/13
f 23/8/7 38/9/13 33/8/7
f 24/9/14 23/8/9 38/9/14
f 33/8/9 38/9/14 23/8/9
f 38/9/13 13/6/1 14/6/1
f 13/6/1 38/9/13 24/9/13
f 14/6/2 13/6/2 38/9/14
f 24/9/14 38/9/14 13/6/2
f 28/9/13 10/6/1 12/6/1
f 10/6/1 28/9/13 39/9/13
f 12/6/2 10/6/2 28/9/14
f 39/9/14 28/9/14 10/6/2
f 35/9/11 15/6/2 20/6/2
f 15/6/2 35/9/11 25/9/11
f 20/6/1 15/6/1 35/9/12
f 25/9/12 35/9/12 15/6/1
f 20/6/6 36/8/6 35/9/6
f 19/6/6 36/8/6 20/6/6
f 29/7/6 36/8/6 19/6/6
f 30/7/6 36/8/6 29/7/6
f 36/8/6 30/7/6 40/8/6
f 9/6/6 40/8/6 30/7/6
f 10/6/6 40/8/6 9/6/6
f 40/8/6 10/6/6 39/9/6
f 35/9/5 36/8/5 20/6/5
f 20/6/5 36/8/5 19/6/5
f 19/6/5 36/8/5 29/7/5
f 29/7/5 36/8/5 30/7/5
f 40/8/5 30/7/5 36/8/5
f 30/7/5 40/8/5 9/6/5
f 9/6/5 40/8/5 10/6/5
f 39/9/5 10/6/5 40/8/5
f 21/9/11 18/6/2 16/6/2
f 18/6/2 21/9/11 37/9/11
f 16/6/1 18/6/1 21/9/12
f 37/9/12 21/9/12 18/6/1
f 18/6/5 31/7/5 17/6/5
f 31/7/5 18/6/5 34/8/5
f 34/8/5 18/6/5 37/9/5
f 34/8/5 32/7/5 31/7/5
f 33/8/5 32/7/5 34/8/5
f 33/8/5 11/6/5 32/7/5
f 38/9/5 11/6/5 33/8/5
f 11/6/5 38/9/5 14/6/5
f 17/6/6 31/7/6 18/6/6
f 34/8/6 18/6/6 31/7/6
f 37/9/6 18/6/6 34/8/6
f 31/7/6 32/7/6 34/8/6
f 34/8/6 32/7/6 33/8/6
f 32/7/6 11/6/6 33/8/6
f 33/8/6 11/6/6 38/9/6
f 14/6/6 38/9/6 11/6/6
f 27/8/7 36/8/8 40/8/7
f 36/8/8 27/8/7 26/8/8
f 40/8/9 36/8/10 27/8/9
f 26/8/10 27/8/9 36/8/10
f 16/6/6 21/9/6 6/6/6
f 6/6/6 21/9/6 8/5/6
f 21/9/6 22/8/6 8/5/6
f 22/8/6 23/8/6 8/5/6
f 8/5/6 23/8/6 3/5/6
f 23/8/6 24/9/6 3/5/6
f 24/9/6 13/6/6 3/5/6
f 1/6/6 3/5/6 13/6/6
f 5/6/5 7/5/5 15/6/5
f 15/6/5 7/5/5 25/9/5
f 25/9/5 7/5/5 26/8/5
f 26/8/5 7/5/5 27/8/5
f 7/5/5 4/5/5 27/8/5
f 27/8/5 4/5/5 28/9/5
f 2/6/5 28/9/5 4/5/5
f 28/9/5 2/6/5 12/6/5
f 27/8/7 39/9/13 28/9/13
f 39/9/13 27/8/7 40/8/7
f 28/9/14 39/9/14 27/8/9
f 40/8/9 27/8/9 39/9/14

